<svg xmlns="http://www.w3.org/2000/svg" viewBox="0 0 200 200" xmlns:v="https://vecta.io/nano"><path d="M101.1 181.8c-45.7 0-72.1-34.7-72.1-84.5 0-46.8 26.4-79.1 69.9-79.1 45.7 0 72.1 34.7 72.1 84.4 0 46.9-26.4 79.2-69.9 79.2h0zm6.6-51.3c1.3-5.2 2.1-12.4 2.5-20.2 11.7-.6 22-2.1 26-4.5 2.5-1.5 3.4-2.9 3.8-4.6.8-3.3-.6-6.7-9.5-8.9-5.2-1.3-12.4-2.1-20.2-2.5-.6-11.7-2.1-22-4.5-26-1.5-2.5-2.9-3.4-4.6-3.8-3.3-.8-6.7.7-8.9 9.5-1.3 5.2-2.1 12.4-2.5 20.2-11.7.6-22 2.1-26 4.5-2.5 1.5-3.4 2.9-3.8 4.6-.8 3.3.6 6.7 9.5 8.9 5.2 1.3 12.4 2.1 20.2 2.5.5 11.7 2.1 22 4.5 26 1.5 2.5 2.9 3.4 4.6 3.8 3.4.8 6.7-.7 8.9-9.5z" fill="#fff"/></svg>