<svg xmlns="http://www.w3.org/2000/svg" viewBox="0 0 200 200" xmlns:v="https://vecta.io/nano"><path d="M168.1 61c0-.5.1-1 .1-2l.1-3.8v-3.8c0-.9-.1-1.4-.2-1.9v-4c.1-.4.1-.9.1-1.7s-.1-1.3-.1-1.7V31.3l.1-2.3-.1-3.8c0-.9-.4-1.7-.9-2.3-.6-.7-1.5-1.1-2.6-1.1h-8.7l-4.1.1c-1 0-2-.1-3.1 0-.9.1-1.7.3-2.5.5-7 1-13.8 3.1-20.1 6.1-.4.2-.8.3-1.2.5-1.1.5-2.1 1.1-3.1 1.7s-2.1 1.1-3.1 1.7c-.6.4-1 .8-1.5 1.3-2.9 2-5.7 4.3-8.3 6.8l-1.2.9.1.1h0c-1.2 1.2-1.3 3-.4 4.4.2.2.3.5.5.7.5.9 1 1.8 1.6 2.6.5.9 1.1 1.7 1.7 2.6 1.2 2.1 2.2 4.2 3.2 6.4l.6 1.5c.1.1.1.3.2.4.1-.1.2-.2.3-.2.2-.1.8.5 1.6 1.1-.5.3-.8.7-1.1.8.8 1.7 2.7 2.4 4.3 1.8.6-.2 1.2-.5 1.6-1s.7-1 1.1-1.5c.1-.1.2-.2.2-.3.1 0 .1-.1.1-.1.7-.8 1.5-1.6 2.2-2.4.6-.4 1.2-.8 1.7-1.3l3-2.4c1-.8 2.1-1.5 3.2-2.2 1-.6 1.9-1.3 3-1.9 2.3-1.2 4.8-2.2 7.3-2.9h.1c0 .1 0 .1.1.2V61c-.1.4-.1.9-.1 1.6 0 1.3.1 1.7.1 2.4v22c-.1.5-.1.9-.1 1.9 0 1.3-.1 2.5-.2 3.7-.1.8-.1 1.5-.1 2.3-.1 1.1-.3 2.1-.5 3.2-.2.6-.4 1.3-.6 1.9a25.33 25.33 0 0 1-1.2 3.6c-.4 1.2-.8 2.4-1.3 3.5-.2.4-.4.8-.5 1.2-1.2 2.5-2.7 4.9-4.4 7.1-.4.4-.7.8-1.1 1.2-.8 1-1.7 1.8-2.6 2.7-.6.7-1.2 1.3-1.8 2-.6.5-1.1 1-1.7 1.5l-2.1 1.5a34.47 34.47 0 0 1-3.2 2c-.5.3-1 .7-1.5 1-2.7 1.5-5.7 2.7-8.7 3.6v-5.7c0-.5.1-.9.1-1.9 0-1.6-.1-1.8-.1-3.1V110v-1.4-3.8c0-1.9.1-1.9.1-3.8 0-1-.1-1.4-.1-1.9v-9.4c0-3-.2-6-.6-9 0-.6 0-1.2-.1-1.7-.2-1.2-.5-2.3-.8-3.5-.2-1.2-.5-2.3-.8-3.5-.1-.4-.3-.9-.4-1.3-.4-1.3-.8-2.7-1.3-4-.1-.5-.2-1-.4-1.5-.4-1.1-.9-2.2-1.3-3.3-.2-.5-.6-1.1-.9-1.6-.8-1.8-1.8-3.5-2.8-5.2-.4-.9-.8-1.8-1.4-2.6-.6-.9-1.4-1.8-2.1-2.7-.1-.1-.2-.3-.3-.4l-1.8-2.7-2.4-2.7c-.3-.4-.7-.7-1.1-1l-1.5-1.5c-2-2-4.1-3.9-6.3-5.6-.6-.5-1.1-1-1.7-1.5-1-.7-1.9-1.4-2.9-2.1-1-.6-2-1.2-3.1-1.8-1-.6-2.1-1.1-3.2-1.6S73 27.7 72 27.2c-1.1-.5-2.2-.9-3.3-1.4-.7-.2-1.3-.4-2-.5-3.2-1.1-6.5-2-9.9-2.6-.6-.2-1.3-.5-1.9-.6-1.2-.2-2.4-.3-3.5-.4-1.2-.1-2.4-.1-3.6-.2s-2.4-.2-3.6-.2c-2.2 0-2.2.1-4.4.1h-4.4c-1.9 0-3.5 1.7-3.5 3.6 0 1.5.1 1.8.1 2.9v1.6c0 1.2-.2 1.5-.2 3.1 0 1.9.2 1.9.2 3.8s-.2 1.9-.2 3.8.2 1.9.2 3.8v1.5 7.3c-.1.8-.2 1.2-.2 2.5 0 1.9.1 1.9.1 3.8v3.8c0 1.3.1 1.7.1 2.5v6.2c-.1.9-.2 1.2-.2 2.6V78c0 1.2.1 1.6.2 2.3V83c-.1.7-.2 1.1-.2 2.3 0 1.7.2 1.9.2 3.2v.6c0 1.8.1 3.5.2 5.2-.1.6-.1 1.3-.1 1.9.1 1.2.3 2.4.5 3.6s.5 2.3.7 3.5.6 2.3.9 3.5.7 2.3 1 3.4c.1.4.3.7.4 1.1.6 1.7 1.2 3.4 2 5.1.1.2.1.3.2.4l.3.6c.5 1.1 1 2.2 1.6 3.3.4.8.8 1.7 1.2 2.5.3.6.7 1.1 1.1 1.6 1.1 1.9 2.4 3.7 3.7 5.4.4.6.7 1.3 1.2 1.8.4.4.8.8 1.3 1.2.9 1 1.7 2 2.6 2.9.3.4.6.8.9 1.1.5.5 1 .9 1.5 1.3A33.29 33.29 0 0 0 56 141c.5.5 1 1 1.5 1.4.4.4.9.7 1.4 1l1.3 1c.2-.3.5-.6.9-.7.2-.1.7.4 1.4.9-.4.3-.7.5-1 .7.4.2.7.5 1.1.8l1.2.9 1.2.6c2.9 1.8 6 3.3 9.2 4.6a3.21 3.21 0 0 0 1.7.2c.6 0 1.2-.1 1.7-.4a2.73 2.73 0 0 0 .9-1.2c.3-.5.5-1.1.5-1.8v-2.1c.1-.4.2-.9.2-1.8v-.3c-.1-.1-.2-.2-.4-.3.1-.1.3-.1.4-.2 0-1.2.1-1.5.1-3.1v-3.9c0-.9-.1-1.4-.2-1.9v-4.8-1.1c0-.3-.1-.7-.2-1-.2-.8-.8-1.5-1.5-2-2.7-1.6-5.1-3.5-7.4-5.7l-1.2-1.5a33.29 33.29 0 0 1-2.5-2.8c-.4-.5-.8-.9-1.3-1.3-.8-1-1.5-2.1-2.1-3.1-.2-.6-.5-1.2-.8-1.7-.4-.8-.9-1.5-1.4-2.2-1-1.9-1.8-4-2.4-6.1-.1-.7-.3-1.4-.4-2-.1-.5-.3-1-.5-1.5-.3-1.4-.5-2.8-.7-4.2v-1.7l-.3-2.7v-1.1-17.7-.9-1.9-2.9c0-.9.1-1.2.1-2.7V59v-3.8c0-1.9.1-1.9.1-3.8 0-.4 0-.8-.1-1.1v-1.9c.1-.2.1-.4.2-.7 1.2.3 2.1.9 3.3 1.3.8.3 1.7.6 2.6.9.6.3 1.2.6 1.9.9.8.5 1.5 1 2.3 1.5l3.2 2a32.53 32.53 0 0 1 2.9 2.3c.9.8 1.9 1.6 2.8 2.5l.5.5c1.1 1.2 2.2 2.4 3.1 3.7.3.6.6 1.2 1 1.7.5.7 1 1.3 1.5 2a43.37 43.37 0 0 1 6.3 22.6v1.8c-.1.5-.2.9-.2 1.8 0 1.2.1 1.6.2 2.2v3.2c-.1.5-.1 1-.1 2v3.7c0 .8 0 1.2.1 1.7v10.4c-.1.9-.2 1.3-.2 2.7 0 1.1.1 1.6.2 2.1V132c0 .6-.1 1-.1 2.1v3.7c0 .7 0 1.1.1 1.5v11c-.1.7-.2 1.1-.2 2.3 0 1.6.1 1.8.2 2.9v10.8 1.1 1.4 6 .2.3c0 .1 0 .2.1.3.4 1.6 1.7 2.8 3.4 2.8 1 0 1.4-.1 1.9-.2h3.7c.3 0 .8.1 1.4.1 1.1 0 1.5 0 2.1-.1h2.9c.6 0 1 .1 2.1.1h3.5c1.1 0 2.1-.6 2.8-1.4.4-.6.7-1.3.7-2.1v-10c0-.3.1-.7.1-1.2 0-1.1 0-1.6-.1-2.1v-5.4c1.8-.3 3.7-.7 5.4-1.2.6-.1 1.3-.2 1.9-.4s1.2-.5 1.8-.7c1.3-.4 2.7-.9 4-1.5.4-.1.8-.3 1.2-.4.4-.2.8-.4 1.1-.6 2.4-1.1 4.7-2.3 7-3.6.6-.3 1.3-.6 1.9-1a7.55 7.55 0 0 0 1.4-1.1 75.79 75.79 0 0 0 3.5-2.5c.4-.2.8-.5 1.2-.8 1-.8 2-1.5 2.9-2.3.7-.6 1.3-1.4 1.9-2.1.2-.2.5-.4.7-.7.6-.6 1.2-1.2 1.8-1.9l.7-.7c.2-.2.4-.4.5-.7 1.8-2 3.4-4.1 4.9-6.2l1.2-1.5c.4-.7.8-1.4 1.1-2.1 1.2-2.1 2.4-4.2 3.4-6.4.2-.3.4-.6.5-.9l.3-.9c.8-1.8 1.5-3.7 2.1-5.6 0-.1 0-.1.1-.2.4-1.1.9-2.2 1.2-3.4s.6-2.3.8-3.5c.1-.6.2-1.1.2-1.7.5-2.6.8-5.2 1-7.9.1-.3.1-.7.1-1.1.1-1.2.1-2.4.1-3.6v-1.4-7.1c0-1 .1-1.3.1-2.8v-3.8c0-1.9.1-1.9.1-3.8 0-1-.1-1.4-.2-1.9l-.5-7.1h0zm-57.5-13.2c-.6 0-1.2-.8-1.7-1.2.5-.6 1-1.2 1.9-2.1.6.9 1.2 1.5 1.1 1.9-.2.6-.9 1.4-1.3 1.4zm4.5 4.7c-.4.1-1-.3-1.6-.5.2-.3.3-.6.5-.8.4-.3.9-1 1.1-1 .5.2.9.8 1.3 1.2-.4.4-.8 1-1.3 1.1h0zm.3-9.6c-.3.1-.9-.6-1.6-1.2.8-.5 1.3-1.1 1.7-1.1s.8.7 1.2 1c-.5.5-.8 1.1-1.3 1.3h0zm5.1-7.8c.4.5 1 1.1 1.1 1.7.1.5-.5 1.1-1.1 2.1-.7-1.1-1.4-1.7-1.4-2.3s.9-1 1.4-1.5zm-2.3 11.7c1-.8 1.5-1.4 1.9-1.4.5 0 .9.7 1.4 1.1-.4.5-.7 1.2-1.2 1.3-.4.1-1-.5-2.1-1zm2.1 11.1c-.4-.6-1.1-1.1-1.2-1.7-.1-.3.8-1.2 1.2-1.2.5 0 1.1.6 2 1.1-1 .8-1.5 1.3-2 1.8h0zm4.6-17.4c.5.5 1.2.8 1.4 1.4.1.4-.6 1-1.3 1.9-.6-1-1.3-1.5-1.2-1.9 0-.5.7-.9 1.1-1.4zm0 12.1c-.2.1-1.2-.8-1.1-1.1.1-.6.7-1.1 1.3-2 .8.8 1.2 1.3 1.7 1.8-.6.5-1.2 1.1-1.9 1.3h0zm5.2-4.2c-.7-.7-1.5-1.3-1.4-1.4.3-.4.6-.9.9-1.2l.6 2.5-.1.1zm-58.9 97.9c-.4-.6-.7-.9-.7-1.2s.3-.7.4-1c.2.2.7.4.7.7.1.4-.2.8-.4 1.5h0zm4.7 5.1c-.5-.7-1.2-1.3-1.1-1.5.2-.6.8-1 1.3-1.5.4.5 1 .9 1 1.4s-.7.9-1.2 1.6h0zm0-22.6c.5.1 1.1.9 1.1 1.4 0 .4-.7 1.2-1.1 1.2-.5 0-1-.6-1.9-1.3.9-.7 1.5-1.4 1.9-1.3zm-.1 9.6c.6.2 1.2 1 1.5 1.7.1.2-.8 1.1-1.1 1.1-.6 0-1.1-.6-1.7-1-.2-.4-.4-.8-.6-1.1.6-.2 1.4-.8 1.9-.7zm-4.4-14.5c.2-.1.8.7 1.5 1.3-.8.5-1.3 1.1-1.7 1.1-.5-.1-.9-.7-1.3-1.1.5-.5.9-1.1 1.5-1.3zm-.2 9.7c.6.5 1.5 1 1.8 1.7.1.3-.8 1.1-1.6 2.1-.7-.9-1.5-1.5-1.5-1.9.1-.8.8-1.3 1.3-1.9zm-4.9 7.2c-.3-.6-.6-1-.5-1.1.2-.3.6-.6.9-.7.1-.1.6.5.6.5-.2.4-.5.7-1 1.3h0zm-.1-9.2c-.5-.7-1.2-1.2-1.1-1.4.3-.6.8-1 1.3-1.5.4.5 1 .9 1.1 1.4 0 .4-.7.9-1.3 1.5h0zm-1-11.8c.3-.3.6-.6.9-.6.4-.1 1.2.7 1.2 1.1 0 .5-.6 1-1.2 1.9-.5-.7-1.1-1.2-1.3-1.5.2-.4.3-.7.4-.9zm-3.9 14.3c.3 0 .6.4 1.2.8-.5.4-1 .9-1.2.8-.4-.1-.6-.6-.9-.9.2-.2.5-.7.9-.7z" fill="#fff"/></svg>