<svg xmlns="http://www.w3.org/2000/svg" viewBox="0 0 200 200" fill="#c9c9c9" xmlns:v="https://vecta.io/nano"><path d="M112.5 83.9h13.8c6.1 0 10.7-1.4 13.7-4.1 3.1-2.7 4.6-7.1 4.6-13.2s-1.5-10.2-4.6-12.8-7.6-4-13.7-4h-9.6c1.6 4 2.4 8.2 2.4 12.7 0 7.1-1.5 13.3-4.5 18.5-.6 1-1.3 2-2.1 2.9h0zM55.4 66.6c0 6.1 1.5 10.5 4.6 13.2 3 2.7 7.6 4.1 13.7 4.1h.4c6.1 0 10.7-1.4 13.7-4.1s4.6-7.1 4.6-13.2-1.5-10.2-4.6-12.8-7.6-4-13.7-4h-.4c-6.1 0-10.7 1.3-13.7 4-3.1 2.6-4.6 6.9-4.6 12.8zM96 150.2c-1.5-3.8-2.4-8.4-2.7-13.7s-.9-10.4-1.5-15.3c-.9-6.3-2.8-11-5.8-13.9-2.6-2.6-6.7-3.9-12.1-4.3-5.4.3-9.5 1.7-12.1 4.3-2.9 2.9-4.9 7.6-5.8 13.9-.7 4.9-1.2 9.9-1.5 15.3-.3 5.3-1.2 9.9-2.7 13.7H96h0zm52.2 0c-1.5-3.8-2.4-8.4-2.7-13.7s-.9-10.4-1.5-15.3c-.9-6.3-2.8-11-5.8-13.9s-7.8-4.4-14.4-4.4h-11.2c.2.4.5.7.7 1.1 1.4 2.5 2.3 5.3 3 8.4.6 3.1 1 6.1 1.3 9.2l.3 6.8a111.78 111.78 0 0 0 .6 8c.3 2.7.7 5.3 1.4 7.7.6 2.4 1.6 4.5 2.8 6.2l25.5-.1h0z"/></svg>