<svg xmlns="http://www.w3.org/2000/svg" viewBox="0 0 200 200" xmlns:v="https://vecta.io/nano"><path d="M88.3 161c0 12-9.7 21.7-21.7 21.7a21.58 21.58 0 0 1-9.9-2.4c-34-17.5-47.5-59.2-30.1-93.3 10.3-20.1 29.6-33.9 51.9-37.1 5.9-.8 11.8.9 16.4 4.7l62.1 50.6c9.1 7.4 10.6 20.7 3.4 30l-3.4 4.4c-6 7.7-16.3 10.5-25.4 6.8l-13.4-5.5c-11.1-4.6-23.7.7-28.3 11.8-1.1 2.6-1.6 5.4-1.6 8.2v.1h0z" fill="#fff"/><path d="M97.5 89.3v23.6l55.3 22.6L181 99l-70.6-57.3V16.9H97.5v21.7c-33.9 3.5-58.6 33.9-55 67.8 3.3 31.5 29.8 55.4 61.5 55.4v-12.9c-27 .1-49-21.7-49.1-48.7-.1-26.3 20.6-47.9 46.9-49l61.5 49.9-14.6 18.9-38.2-15.6V89.3h-13 0zM80.7 20.2C36.6 33.1 11.4 79.3 24.4 123.4c10.4 35.3 42.7 59.6 79.5 59.7v-12.9c-38.8-.1-70.2-31.7-70.1-70.5.1-31.1 20.6-58.4 50.5-67.2l4.6-1.2v-13c-2.8.5-5.5 1.1-8.2 1.9h0z"/></svg>