<svg xmlns="http://www.w3.org/2000/svg" viewBox="0 0 200 200" xmlns:v="https://vecta.io/nano"><path d="M178 91.6c6.2-6 2.8-16.5-5.8-17.8l-38-5.5c-3.4-.5-6.3-2.6-7.8-5.7l-17-34.5c-3.8-7.7-14.8-7.7-18.7 0l-17 34.5c-1.5 3.1-4.5 5.2-7.8 5.7l-38 5.5C19.2 75 15.8 85.5 22 91.6l27.5 26.8a10.19 10.19 0 0 1 3 9.2L46 165.5c-1.5 8.5 7.5 15 15.1 11l34-17.9c3-1.6 6.7-1.6 9.7 0l34 17.9c7.6 4 16.6-2.5 15.1-11l-6.5-37.9a10.19 10.19 0 0 1 3-9.2L178 91.6h0zM70.3 86.5c0-2.3 1.9-4.3 4.3-4.3h50.6c2.3 0 4.3 1.9 4.3 4.3h0c0 2.3-1.9 4.3-4.3 4.3H74.6c-2.4-.1-4.3-2-4.3-4.3zm52.8 42.3c-5.5 2.7-12.9 4-22.2 4-6.2 0-12.9-.5-20.4-1.5v1.4c0 2.8-2.3 5.1-5.1 5.1s-5.1-2.3-5.1-5.1v-7.3h.1c0-1.9 1.7-3.3 3.5-3.1l.8.1c4.7.7 8.8 1.1 12.2 1.5s7.4.5 11.8.5c7.8 0 13.4-.7 16.9-2s5.2-3.3 5.2-5.8v-.2c0-2.5-1.7-4.5-5.2-5.8s-9.1-2-16.9-2a137.26 137.26 0 0 0-11.8.5c-3.5.3-7.5.8-12.2 1.5l-.8.1c-1.9.2-3.5-1.2-3.5-3.1h-.1v-7.3c0-2.8 2.3-5.1 5.1-5.1s5.1 2.3 5.1 5.1v1.4c7.4-1 14.2-1.5 20.4-1.5 9.3 0 16.7 1.3 22.2 4s8.3 6.8 8.3 12.4-2.8 9.5-8.3 12.2z" fill="#c6ac3e"/></svg>