<svg xmlns="http://www.w3.org/2000/svg" viewBox="0 0 200 200" xmlns:v="https://vecta.io/nano"><path d="M100 183.5c-46 0-83.5-37.5-83.5-83.5S54 16.5 100 16.5 183.5 54 183.5 100s-37.4 83.5-83.5 83.5h0z" fill="#fff"/><path d="M99.8 72.7c.1-2-.2-4 .1-6.1-.1-1.5.1-3-.1-4.6v-.7c-6.9 0-13.8 4.5-14.6 13.6 3 .2 6 0 9 0 .6 0 .9 0 1.5.1.6-.1.9-.2 1.5-.1.9.1 1.7.1 2.6 0h0c0-.7.1-1.4 0-2.2h0z" fill="#c24022"/><path d="M73.5 99.8c1.2.1 2.4-.2 3.6 0 .6-.1.9-.1 1.5 0h7.5c.8-.1 1.5-.1 2.2 0 1-.1 2 0 3 0 1.8-.1 3.5-.2 5.2 0 2.3-.2 4.5.1 6.8-.1l11.3.1h6.8c1.8-.1 3.5-.2 5.3 0 1-.3 2 .1 3-.1 1.5-.1 3 .1 4.5 0 3.5.6 2.5-1.7 2.6-4.1v-4.5c-.1-.6 0-.9.1-1.5-.1-.6-.1-.9 0-1.5-.3-3 .2-6-.1-9-.1-.8.2-1.5 0-2.2.3-.8 0-2-1.1-1.8-1.5-.3-3 0-4.5-.1-1.3.5-.8-.7-.7-1.4-.1-.8-.2-1.5-.1-2.2v-7.5c.1-.8.1-1.5-.1-2.2.3-2 0-4 .1-6v-3c.1-.8.1-1.5-.1-2.2.4-2.5.1-3.9-2.5-4.7l-8.2-3.9c-.8-.7-1.8-.8-2.7-1.3s-1.7-1-2.7-1.3c-.9-.6-1.8-.8-2.7-1.3-1.1-.7-2.2-1.1-3.4-1.6-.8-.2-1.3-.7-2.1-1-.7-.3-1.4-.5-2.1-.9-.7-.5-1.4-.6-2-1-1.2-.7-2.7-.4-4 0-1.1.7-2.2 1.1-3.4 1.6-.6.5-1.3.6-2 1-3.5 1.9-7.3 3.5-10.9 5.1-.6.6-1.3.6-2 1-1.1.6-2.3 1-3.5 1.5-1.6.8-3.1 1.7-4.8 2.3-1.7.4-1.9 2.2-1.8 3.7.1 1.3-.1 2.5 0 3.7-.1 1.3.3 2.5-.1 3.7.2 1.5-.2 3 .1 4.5-.1 1.8.1 3.5-.1 5.2.1 1.3.2 2.5.1 3.7 0 1 0 2-.1 3 0 .8.7 2-.7 1.4-1.5.1-3 .2-4.5 0-1.7.2-1.1 3-1.1 4.2.1 1 0 2 0 3 .1 1.8.2 3.5 0 5.2.2.8.1 1.4 0 2.2 0 1.3.1 2.5 0 3.8 0 1.3.2 2.5 0 3.8.2 1.6-.4 2.8 1.9 2.6 1 .2 1.9-.2 3 .1 1.6.1 3.5 0 5.5 0h0zm32.3-6.4c-.3.3-.4-.1-.8-.1h-1.5c-1 .1-1.9 0-3 .1-.8.2-1.4-.2-2.2 0-1.3.1-2.5.1-3.7 0-.7.2-.9 0-.7-.7v-1.5c-.1-1.3-.1-2.4 0-3.7-.2-1 .1-1.9 0-3 .1-4.2-1.4-2.8 2.9-3 1 0 2 .2 3-.1 1 .2 2 .1 3 .1.8-.2 1.4-.1 2.2 0 1.4-.5.7.7.7 1.5.1 1.3 0 2.5 0 3.7 0 1.5.3 3 0 4.5 0 .6 0 .9.1 1.5.1.3.3.5 0 .7zm2.7-18.3c-.8-.2-1.5 0-2.3 0-1.5 0-3-.1-4.5-.1-.7-.1-1.3 0-1.9 0-.9 0-1.7.1-2.6 0-.6 0-.9 0-1.5.1-.6-.1-.9-.1-1.5-.1-3 0-6 .2-9 0 .7-9 7.7-13.6 14.6-13.6 7 0 14.1 4.5 14.8 13.7-1.2-.1-2.5-.2-3.8 0-.8-.1-1.5-.1-2.3 0h0zm15.6 7.9c.1 1.3 0 2.5 0 3.7 0 1.5.3 3 0 4.5 0 .6 0 .9.1 1.5.1.4.2.5 0 .8-.3.3-.4-.1-.8-.1h-1.5c-1 .1-1.9 0-3 .1-.8.2-1.4-.2-2.2 0-1.3.1-2.5.1-3.7 0-.7.2-.9 0-.7-.7v-1.5c-.1-1.3-.1-2.4 0-3.7-.2-1 .1-1.9 0-3 .1-4.2-1.4-2.8 2.9-3 1 0 2 .2 3-.1 1 .2 2 .1 3 .1.8-.2 1.4-.1 2.2 0 1.4-.6.7.6.7 1.4zM75.7 72c.1-1.3.1-2.5.1-3.8 0-1.8-.1-3.5 0-5.3-.2-1 .1-2-.1-3 0-.8.2-1.5 0-2.3.2-2.3 0-4.6 0-6.8.5-.4 1.3-.1 2-.1 1-.1 2 0 3-.1.6-.1.9-.1 1.5.1.6 0 .9-.1 1.5-.1 2 0 4 .1 6 .1 1.3-.1 2.5 0 3.8 0 1.2-.2 2.5.1 3.8 0 3.5-.2 7 0 10.5 0 .6.1.9 0 1.5-.1.8 0 1.5.2 2.3 0 1.8.1 3.5.1 5.3.1 1.8-.2 3.5-.1 5.3 0 .6 0 1.5-.4 1.9.2.1.5-.1 1-.1 1.5.1.8-.1 1.5.1 2.3 0 1.3 0 2.5-.1 3.8.2 1.5 0 3 .1 4.5.2 1-.1 2 0 3-.2 1 0 2-.1 3 .1.6.1.9 0 1.5.1.8.1 1.5.1 2.3 0 .6-.1.9-.1 1.5 0 .4.4.5.1.8s-.4-.1-.8-.1c-2.8.2-2.1.5-2.5-2.2-2.2-16.5-23.2-23.8-35.2-12.3-3.2 2.8-5.3 6.7-6.4 10.8-.1 1.2-.3 2.4-.4 3.7-.5.2-.9 0-1.5 0-2 .2-1.6.5-1.5-1.5 0-.5 0-.9-.1-1.5h0zm2.8 9.5c1 0 2 .2 3-.1 1 .2 2 .1 3 .1.8-.2 1.4-.1 2.2 0 1.4-.5.7.7.7 1.5.1 1.3 0 2.5 0 3.7 0 1.5.3 3 0 4.5 0 .6 0 .9.1 1.5.1.4.2.5 0 .8-.3.3-.4-.1-.8-.1h-1.5c-1 .1-1.9 0-3 .1-.8.2-1.4-.2-2.2 0-1.3.1-2.5.1-3.7 0-.7.2-.9 0-.7-.7v-1.5c-.1-1.3 0-2.4 0-3.7-.2-1 .1-1.9 0-3 .2-4.4-1.4-2.9 2.9-3.1z" fill="#00364f"/><path d="M132.3 159.3c.1-.6 0-.9-.1-1.5.1-1 0-2 0-3 .1-.6 0-.9-.1-1.5l-.1-3.7c.1-1.3-.1-2.5-.1-3.7-.2-1.5.1-3-.2-4.5 0-.8.1-1.5-.1-2.2.1-.8.1-1.5-.1-2.2.1-1.8 0-3.5 0-5.2-.2-1-.3-2-.1-3-.1-.8-.2-1.5 0-2.2-.3-1.8-.2-3.5-.2-5.2-.2-1.2-.3-2.5-.1-3.7-.2-.6-.2-.9-.1-1.5-.3-1.8-.1-3.5-.2-5.2-.1-1 0-2-.2-3 0-.8.5-2-.8-1.5-.8-.1-1.4.2-2.2 0-1.3.2-2.5.1-3.7 0-1.3 0-2.5-.1-3.7.1-.6-.1-.9-.2-1.5 0-.6-.1-.9-.1-1.5 0-1.5-.1-3 0-4.5 0-.6-.1-.9-.1-1.5 0-.6-.1-.9-.1-1.5 0-1-.1-2-.2-3 0-1.8-.2-3.5-.1-5.2 0-.6-.1-.9-.1-1.5 0-1.3-.2-2.5.2-3.7-.1h-1.5c-1.3-.5-.8.7-.7 1.5v8.2c-.1.6-.1.9 0 1.5-.2.8 0 1.4 0 2.2-.2 1-.1 2 0 3l-.2 3.7c0 .6 0 .9.2 1.5-.1 1.3-.2 2.5 0 3.7-.1 1 .1 1.9-.1 3 .2 1-.1 1.9 0 3 .1 1.8 0 3.5 0 5.2l-.1 6.7c-.1.8.2 1.4 0 2.2a16.95 16.95 0 0 1 0 4.5l.1 6-.1 3c.2.8.1 1.5.1 2.2 13.1 1 26.6-2 38.3-8.3h0zm-44.9 1.9c.1-.6.1-.9 0-1.5.1-1.3.1-2.4.1-3.7.1-1.5-.2-2.9 0-4.5.1-1.5-.2-2.9.1-4.5-.2-1.3 0-2.4 0-3.7-.1-.8.1-1.4-.1-2.2.2-.8 0-1.4.1-2.2-.1-.6-.1-.9 0-1.5 0-.8-.2-1.4 0-2.2l-.1-5.2c.2-1-.1-2 .1-3-.1-.6-.2-.9 0-1.5-.1-.6-.1-.9 0-1.5.1-5.7-.2-11.4.1-17.1.4-1.5-1.2-.4-2.3-.8-1.7.1-3.4.1-5.2 0-.8.1-1.4.1-2.2 0-1 0-1.9.1-3-.1-.5.1-.9.1-1.5.2-.6-.1-.9-.1-1.5 0-.8 0-1.4-.1-2.2 0-.7-.2-1-.1-.8.7 0 2-.1 4-.1 6-.1 1.5-.2 2.9-.1 4.5-.2 3.2-.4 6.5-.3 9.7-.1.6-.1.9 0 1.5-.2 1.3-.2 2.5-.1 3.7-.2 1.2-.1 2.5-.1 3.7-.3 1.3-.1 2.5-.1 3.7-.1 1-.3 2-.1 3-.2 1.2-.2 2.5-.1 3.7-.2.6-.2.9 0 1.5-.1 1-.3 2-.1 3 .1 1.3-.1 2.5-.2 3.7 0 .8.1 1.5-.1 2.2.1.6.1.9 0 1.5-.6 1.4 4.2 2.6 5.3 3.3 4.7 2.2 9.7 3.7 14.7 4.5 0-1.4-.2-3.1-.2-4.9h0z" fill="#c24022"/></svg>