<?xml version="1.0" encoding="utf-8"?>
<!-- Generator: Adobe Illustrator 28.0.0, SVG Export Plug-In . SVG Version: 6.00 Build 0)  -->
<svg version="1.1" id="Layer_1" xmlns="http://www.w3.org/2000/svg" xmlns:xlink="http://www.w3.org/1999/xlink" x="0px" y="0px"
	 viewBox="0 0 106.1 104.6" style="enable-background:new 0 0 106.1 104.6;" xml:space="preserve">
<style type="text/css">
	.st0{fill:#FFFFFF;}
</style>
<path class="st0" d="M10,68.6c-0.7-2.9-1.1-5.9-1.5-8.8c-0.1-1.2,0.7-2.2,1.9-2.5c27.2-7.2,56.4-28.2,79.7-27.3
	c1.9,0.1,4.3,1.9,4.8,3.7c0.8,3,1.5,6,1.9,9.1c0.3,1.2-0.7,2.2-2.2,2.4c-26.3,2.8-55.7,23.2-79.5,27C13.1,72.4,10.4,70.5,10,68.6z
	 M17.7,24.1c3.2-2,6.4-4,9.4-6c3.3-2.1,3.5-6.7,0.7-5.6c-2.5,1-5.1,2-7.6,3.2c-1.5,0.8-3.4,2.6-4.1,4.1c-0.5,1-1,2.1-1.4,3.1
	C13.8,24.9,15.4,25.5,17.7,24.1z M13,48.2c28.2-10.3,55.5-30.5,75.8-26.4c1.2,0.3,1.6-0.4,1-1.7c-0.8-1.6-2.7-3.5-4.1-4.1
	c-7.4-3.5-15.6-7.3-23.9-7.2c-8.4,0.1-14.9,6-21.7,9.9C31.1,23.9,22.1,29.3,12.7,34c-1.4,0.7-2.5,1.9-2.8,3
	c-0.7,2.9-1.2,5.9-1.5,8.8C8.3,47.7,10.7,48.9,13,48.2z M89.5,77.6c-7.9,3.7-15.6,8-22.8,12c-3.2,1.7-2.9,6.8,0.1,6.3
	c6.3-1.3,12.6-3.5,18.8-6.5c1.5-0.7,3.4-2.6,4.1-4.1c1-2.1,1.9-4.1,2.7-6.2C93.1,77.3,91.6,76.6,89.5,77.6z M93.3,53.8
	c-27.6,5.7-57,26.5-77.7,26.8c-1,0-1.4,0.7-0.9,1.8c3,6.9,13.4,12.6,20.9,11.9c4.4-0.4,8.7-3.2,12.7-4.9c5.2-2.3,10.2-4.9,15.3-7.4
	c9.8-4.8,19.5-9.8,29.7-13.6c1.6-0.6,2.9-1.8,3.1-3.1c0.6-3,1-6,1.1-9.1C97.6,54.6,95.4,53.3,93.3,53.8z"/>
</svg>
