<svg xmlns="http://www.w3.org/2000/svg" viewBox="0 0 200 200" xmlns:v="https://vecta.io/nano"><path d="M177.1 120c-.9-5-3.6-9.2-7.6-12-1-.7-2.1-1.3-3.2-1.7-1.8-7.8-5.7-12.9-8.7-15.9-2.1-2.1-4.2-3.5-6.4-4.1 6.1-8.9 11.8-18 16.6-26.6 7.9-14.3 16.8-33.6 14-44.4-.9-3.7-3.2-6.3-6.5-7.6-13.5-5.3-38.1 9.9-60.5 28-24.2-6.7-47.6-2.8-63.4 11.4-12.7 11.4-19 25.6-18.8 42.2.1 6.8 1.2 13.9 3.5 21.1a1.69 1.69 0 0 0 .3 1c.8 2.4 1.7 4.9 2.7 7.4-3.5 5.5-6.7 10.8-9.5 16.1-6.7 12.6-16.9 35.4-9.2 46.5 2.7 3.8 6.6 5.9 11.7 6.1h.8c7.9 0 22.4-4.5 47.7-25l.3.3c15.1 18.9 32.9 29.7 49.9 30.4h1.9c11.3 0 21.8-4.6 30.3-13.4 9.5-9.8 13.4-24 11.4-40.9l-.6-4.4c2.9-4 4.2-9.3 3.3-14.5z" fill="#4a3455"/><path d="M37.3 94.8c3.4-5.1 7.2-10 11.5-14.5.6-.7 1.7-.7 2.3-.1.7.6.7 1.7.1 2.3-5.1 5.3-9.5 11.2-13.2 17.3.3 1.6.6 3.3 1.1 5 7.6-12.3 17.3-24.1 28.3-34.4.7-.6 1.7-.6 2.3.1s.6 1.7-.1 2.3C58 83.6 47.9 96.1 40.3 109.1a51.73 51.73 0 0 0 1.8 5.1C52.5 98.8 65.5 82.8 80 67.7c7.1-7.4 16.6-16.5 27.1-25.5-5.3-1.1-10.5-1.6-15.5-1.6-14.6 0-27.8 4.5-37.8 13.4-8.7 7.8-14.1 17-16.3 27.6-.3 2.5-.5 5-.5 7.6a52.53 52.53 0 0 0 .3 5.6zm15.2-19c1.2-1.6 2.5-3.2 3.9-4.6.6-.6 1.7-.6 2.3 0s.6 1.7 0 2.3a36.22 36.22 0 0 0-3.6 4.2c-.3.4-.8.7-1.3.7-.3 0-.7-.1-.9-.3-.8-.6-.9-1.6-.4-2.3zm57.2 1.8c-.6.6-1.8 1.4-2.9 2.2-17.6 9.6-33.2 29.5-44.9 48.3-3.1-.6-5.7-.4-7.8.6-3.3 1.4-5.2 4.4-5.8 8.9-.6 4.7.6 8.6 3.7 11.5s7.9 4.6 14.3 5.1c1.2.1 2.4.1 3.7.1 1.4 0 2.7-.1 4.1-.2l3.6 4.8C60 173.3 43.4 183 32.9 183h-.7c-3.6-.2-6.3-1.5-8.2-4.2-1.8-2.5-2.3-6.5-1.7-11.4 1.5-7.3 5.1-16.5 10.6-26.7 11.2-21 28.9-44.5 49.7-66.1 29.3-30.4 67.5-59.7 85.9-59.7 1.7 0 3.3.3 4.6.8 2 .8 3.2 2.2 3.8 4.5.4 1.7.5 3.8.2 6.2-1.7 7.9-6.2 18.6-13.2 31.2-4.6 8.3-10.2 17.2-16.2 25.9-2-2-4-3.9-6.1-5.7 1.8-5.3 1.7-11.6-.2-16.9-1.9-5.5-5.8-10.1-11.6-12-1.2-.4-2.5.5-2.7 1.8-.9 9.1-6.2 16.3-12.7 22.5-1.5 1.5-3.1 2.9-4.7 4.4z" fill="#db8f00"/><path d="M116.6 111.5c3 2.9 5.9 8.1 7.9 13.8-2.2-.6-4.6-.7-6.9-.4-.2-2.2-.8-4.5-1.8-6.9-.1-.3-.5-.6-.8-.6h-3.1c-.1 0-.2-.1-.1-.2l1.7-2.2c.3-.3.3-.8.1-1.2-1.9-2.9-3.8-4.6-5.6-5.7.1 0 .2 0 .3-.1.3-.1.6-.1.9-.1 2.3 0 5.1 1.3 7.4 3.6zm31-21.4c-1 .2-2 .7-2.9 1.4 1.7 1.2 3.7 2.7 5.5 4.8.3.3.3.7.2 1.1l-1.3 3c0 .1 0 .2.1.2l2.9-.5c.4-.1.8.1.9.5.8 1.7 1.4 3.5 1.9 5.3.6-.2 1.1-.3 1.7-.4 1.7-.3 3.4-.4 5.1-.2-1.7-5.7-4.7-9.5-7.1-11.8-2.1-2.1-4.1-3.2-5.9-3.3-.3-.2-.7-.2-1.1-.1z" fill="#fff"/><path d="M151.8 141.9c.6 1 1.1 2.1 1.3 3.2 0 .2-.2.4-.4.2-.8-.8-1.7-1.4-2.6-2-.6-.4-1.4-.8-2-1.1-.4-.2-1-.4-1.4-.5h0c-.7-.1-1.4-.1-2 0l-4.1 1c-.6.2-.8 1-.3 1.4 3.1 2.5 6.4 4.2 10.1 5.2 2.4.6 4.4.8 6.1.4 2.6-.5 3.8-2 3.3-4.4h0c-.3-1.8-1.8-3.3-3.6-3.6-1.4-.3-2.8-.4-4.2-.5-.2.1-.3.5-.2.7z" fill="#d33f0a"/><path d="M63 141.3c1.6-4.5 9.1-3.1 14.6-1-1.6-1.1-6.9-4.9-11.6-6.8-4.4-1.7-7.9-2.1-10.1-1.1-1.9.8-3 2.7-3.4 5.8-.5 3.4.4 6 2.5 7.9 5.2 4.8 16.8 4.6 23.8 3.4-7.6-.7-17.6-3.2-15.8-8.2zm-2.5 4.5c-4.4-.3-6-6.8-3-9.6h.2c-.2 2.9.3 6.1 2.1 8.5.2.3.5.6.9.9l-.2.2zM167.4 111c-3-2-6.5-2.8-10-2.1-5.4 1.1-9.7 5.4-11 11.1-.1.3-.2.5-.3.7-.4.5-1.1.8-1.8.7-1-.2-1.6-1.2-1.4-2.2l.6-2.2-.1-.1c-2.1-3.4-4.7-7.6-5.6-10.6-1.4-4.7-1.3-9.3.3-13.1.2-.5.4-.9.6-1.3.1-.2.2-.4.4-.6 1.5-2.3 3.9-4.1 6.3-5a65.1 65.1 0 0 0-5.4-5.1c-2.8 5.1-7.6 8.8-14.5 9-4.5.1-9.9-.6-14.1-2.4-1.4-.6-4.6-1.5-6.2-3-8.1 5-17 13-26.6 25.4l4.2 3.9c4.9 4.6 5.6 12 1.8 17.3.9 1.4 2.5 4.4 3.4 9.3a378.82 378.82 0 0 0 8.4 10.5c11 13.4 23.2 22.5 35.4 26.8 22.6 5.4 33.5-9.6 37.4-17 1.6-5.8 2.4-13 1.3-21.7-.1-.5-.1-1-.2-1.5-.6.5-1.2.9-1.9 1.3a1.69 1.69 0 0 1-1 .3c-.6 0-1.2-.3-1.6-.9-.4-.7-.3-1.5.1-2.1.1-.2.3-.3.5-.4 5.1-3.1 7.8-9.3 6.8-15.4-.4-4-2.6-7.4-5.8-9.6zm-37.5-1.6c2.1-1.1 6-1.4 8 2.3 1.1 2 .9 3.5.6 4.5-.6 2-2.3 2.9-2.5 2.9l-1.8-3.6h0c.8-.5.5-1.2.2-1.9-.8-1.4-2.1-.8-2.5-.6-1 .5-2.2.1-2.7-.9-.7-.9-.3-2.2.7-2.7zm-35-3.1c-.2 1-1 1.7-2 1.7h-.4c-1.1-.2-1.8-1.3-1.6-2.4.1-.4 1.8-9.4 10.8-11.2 8.9-1.8 13.4 4.2 13.5 4.4.7.9.5 2.2-.4 2.8-.9.7-2.2.5-2.8-.4-.1-.2-3.2-4.1-9.5-2.8-6.3 1.2-7.6 7.6-7.6 7.9zm59.2 60.8c-1.2.9-2.5 1.2-3.7 1.2-2.2 0-4.2-1.1-5.2-1.9-.9-.7-1-2-.3-2.9s2-1 2.9-.3c.1.1 2.3 1.8 4 .6.9-.7 2.2-.4 2.8.5.7.9.4 2.1-.5 2.8zm1.6-36.1c.9 1.8 2.2 3.3 3.5 4.7 2.1 2.5 4.3 5 5 9 .8 4.7-1.8 8.3-6.7 9.3a12.65 12.65 0 0 1-2.8.3c-1.6 0-3.4-.2-5.3-.7-4.8-1.3-9-3.5-12.8-6.9-1 3.5-3.1 6.7-6.2 9.1-.3.3-.7.4-1.1.4-.5 0-1.1-.2-1.4-.7-.5-.6-.5-1.3-.2-2 .1-.2.3-.4.5-.6 3-2.4 4.9-5.8 5.4-9.5-.1-.3-.2-.6-.1-.9.1-1.1 0-2.1-.2-3.1-.4-2.2-1.4-4.3-2.8-6.1-.2-.2-.3-.5-.4-.8-.6-.7-1.4-1.3-2.2-1.9-3-2.1-6.7-2.8-10.4-2.1-6.3 1.3-11.1 6.6-11.5 13 0 .3-.1.5-.2.7-.3.6-1 1.1-1.8 1-1-.1-1.8-.9-1.7-2 .2-2.5.9-4.8 1.9-6.9-2-3.3-4.2-7.3-5.1-10.2-1.4-4.5-1.5-9-.1-12.6 1.5-3.9 4.8-6.9 8.5-7.7.5-.1 1.1-.2 1.6-.2 3.5 0 7.3 1.7 10.4 4.8 4 4 7.9 11.3 10 18.9.1.1.3.2.4.3 1 .7 1.8 1.4 2.6 2.2a30.34 30.34 0 0 0 4.2-.6c4.9-1 9.6-2.7 13.8-5.2.3-.2.6-.4.9-.5.9-.5 2-.5 2.9.1s1.2 1.7 1 2.7c-.1.4-.2.9-.2 1.3-.1 1.4.1 2.5.6 3.4zm-37-55.4l-.2-.3c6.4-3.7 10.9-10.3 12.8-17.5l.4-1.5.3-1.6h.3c2.3 6.8-1.3 14.6-7 18.5-1.9 1.5-4.2 2.4-6.6 2.4zM135.2 65l.2-1 .2-1h.2c1.5 4.5-.8 9.7-4.6 12.3-1.3.9-2.8 1.5-4.4 1.5l-.1-.2c4.2-2.5 7.2-6.9 8.5-11.6z" fill="#ece3c2"/></svg>