<?xml version="1.0" encoding="utf-8"?>
<!-- Generator: Adobe Illustrator 28.0.0, SVG Export Plug-In . SVG Version: 6.00 Build 0)  -->
<svg version="1.1" id="Layer_1" xmlns="http://www.w3.org/2000/svg" xmlns:xlink="http://www.w3.org/1999/xlink" x="0px" y="0px"
	 viewBox="0 0 77 81" style="enable-background:new 0 0 77 81;" xml:space="preserve">
<style type="text/css">
	.st0{fill:#0377B2;}
	.st1{fill:#FAA636;}
	.st2{fill:#F27576;}
</style>
<path class="st0" d="M24.2,20.8c1.5,15.8,0.3,41.9,22.5,33c5.9-4.3,5.6-13.6,6-20.3c0.3-4.9,0.9-11.5,1.5-21.5
	c0.1-1.1-1.3-1.7-2.1-0.9c-1.4,1.5-2.4,3.6-3.1,6.6c-1.8,7.6-1.5,8.2-1.5,16c0,4.9,1.3,13.6-4.2,16.1c-2.2,0.9-5.1,1.3-7.2-0.1
	c-2.1-1.4-3.5-3.6-4.3-6c-1.4-3.7-1.5-6.5-1.7-10.4c-0.3-3.1-0.7-6-0.6-9.2c0.1-3.1,0-6.4-0.7-9.4c-0.5-2.4-1.3-4.8-3.1-6.6
	c-0.8-0.8-2.2-0.1-2.1,1C23.8,12.7,24.2,17.3,24.2,20.8z"/>
<path class="st1" d="M49.6,63.1c9.2-4.5,10.6-16.7,11.3-25.2c0.8-9.1,0.6-13.2,0.4-21.4c-0.2-0.9-0.2-2.2-0.1-3.5
	c0-1.4-0.8-2.7-2-3.2c-0.7-0.3-1.5,0.3-1.6,1c-0.1,11.1-0.9,17.4-1.6,26.6c-0.4,10.4-3.6,24-16.4,22.6
	c-21.2-1.2-18.8-23.4-19.2-40.2c0-1.1-0.1-2.2-0.2-3.4c-0.2-2-0.1-6.4-0.3-9.8H20c-2.2,0.1-3.8,1.8-3.8,4c0,1.8,0,3.6-0.3,5.4
	c-0.6,17.2-1.2,26.2,6,39.4C26.7,64.3,40.7,67.4,49.6,63.1z"/>
<path class="st2" d="M67.2,16.2c-0.7-1.5-2.8-0.9-2.8,0.7c0.3,5.2,0.1,11,0,15c-1.1,13.6,0.3,25.6-13.6,34c-8.1,4.1-24.3,2.8-30-3.3
	c-9.3-9.8-9.9-18.8-8.9-33c0.4-5.2,0.4-12.7,0.7-18.1c0.1-1-1.1-1.6-2-0.9c-0.6,0.6-1.1,1.2-1.6,1.8c-1.1,1.6-1.8,3.4-2.1,5
	C6.6,20.6,6.3,25,6.3,30.7c0,10.4-0.1,14.2,3,24.2c1.7,5.4,4.7,10.5,9,14.2c8.3,6.8,28.6,7.1,37.4,1.2c9.2-6,12.1-16.7,13.6-27.2
	C71,32.2,71.7,26.3,67.2,16.2C67.2,16.3,67.2,16.3,67.2,16.2z"/>
</svg>
