<?xml version="1.0" standalone="no"?>
<!DOCTYPE svg PUBLIC "-//W3C//DTD SVG 20010904//EN"
 "http://www.w3.org/TR/2001/REC-SVG-20010904/DTD/svg10.dtd">
<svg version="1.0" xmlns="http://www.w3.org/2000/svg"
 width="700.000000pt" height="700.000000pt" viewBox="0 0 700.000000 700.000000"
 preserveAspectRatio="xMidYMid meet">
<metadata>
Created by potrace 1.14, written by Peter Selinger 2001-2017
</metadata>
<g transform="translate(0.000000,700.000000) scale(0.100000,-0.100000)"
fill="#000000" stroke="none">
<path d="M3319 6936 c-2 -2 -35 -7 -74 -10 -80 -8 -112 -26 -138 -79 -16 -31
-16 -41 -6 -77 10 -32 29 -55 93 -109 97 -81 190 -147 271 -191 33 -18 74 -41
90 -50 100 -55 406 -163 460 -161 2 0 19 -5 37 -10 18 -5 53 -12 78 -15 25 -3
52 -7 60 -9 30 -8 186 -18 302 -19 l120 -1 29 -33 c39 -44 39 -90 0 -134 l-29
-33 -154 -1 c-179 -2 -288 8 -449 41 -251 51 -516 158 -724 293 -143 92 -204
141 -346 278 -117 112 -131 122 -190 138 -64 18 -160 16 -198 -4 -9 -5 -56
-28 -106 -51 -555 -261 -1022 -761 -1249 -1338 -61 -153 -114 -328 -131 -431
-3 -19 -8 -42 -10 -50 -2 -8 -6 -31 -9 -50 -2 -19 -7 -60 -11 -90 -4 -30 -9
-66 -12 -80 -3 -14 -7 -194 -10 -400 -4 -295 -8 -381 -19 -405 -10 -21 -37
-44 -82 -70 -127 -73 -227 -199 -268 -340 -17 -61 -23 -186 -11 -261 31 -199
205 -388 407 -440 36 -9 70 -17 75 -18 33 -7 55 -19 60 -36 3 -11 8 -122 10
-247 4 -217 8 -278 21 -368 3 -22 8 -56 10 -75 10 -71 14 -87 44 -195 138
-494 423 -930 811 -1241 119 -95 126 -100 257 -179 195 -118 396 -204 607
-260 100 -27 110 -29 245 -51 108 -19 497 -28 570 -14 25 5 72 12 105 15 33 4
114 21 180 37 349 85 658 241 945 477 56 45 238 225 275 271 108 134 142 179
200 270 37 58 98 168 135 245 121 249 186 468 225 760 6 47 16 247 19 403 4
173 7 177 129 216 194 60 319 180 380 364 29 86 40 196 27 259 -15 73 -19 85
-44 138 -45 100 -138 204 -238 268 -33 21 -59 46 -66 63 -7 18 -13 153 -16
364 -2 184 -7 351 -9 370 -3 19 -8 64 -12 100 -4 36 -8 72 -10 80 -1 8 -6 33
-9 54 -4 21 -8 48 -11 60 -3 12 -7 32 -9 46 -53 288 -289 828 -375 858 -28 10
-81 5 -91 -8 -9 -12 -194 -99 -286 -133 -100 -38 -241 -80 -324 -97 -91 -17
-96 -18 -147 -25 -26 -4 -59 -9 -73 -11 -14 -3 -104 -7 -200 -9 -154 -3 -269
3 -377 20 -18 3 -50 8 -70 11 -193 30 -500 135 -656 226 -26 15 -50 28 -53 28
-13 0 -183 117 -270 187 -138 112 -174 153 -174 201 0 56 34 96 92 107 25 5
73 -19 102 -50 42 -45 173 -150 261 -208 242 -159 548 -269 850 -305 75 -9
424 -9 485 0 25 4 65 10 90 13 73 10 248 55 340 87 122 43 315 138 385 191
160 121 229 306 201 537 -17 133 -36 179 -84 203 -44 22 -58 20 -442 -68 -135
-31 -275 -59 -313 -62 l-67 -5 -168 80 c-259 124 -456 187 -717 228 -22 3 -51
8 -65 11 -30 5 -476 13 -481 9z m-563 -1368 c16 -13 38 -31 49 -42 35 -33 202
-155 229 -167 14 -7 26 -16 26 -21 0 -4 4 -8 9 -8 4 0 46 -21 92 -48 232 -132
434 -205 711 -258 88 -17 96 -18 198 -30 83 -10 380 -11 485 -2 233 21 482 88
671 180 87 43 106 48 129 35 37 -20 162 -327 196 -482 37 -173 42 -231 44
-622 1 -216 1 -393 -1 -393 -1 0 -141 61 -311 136 -432 190 -486 211 -587 227
-83 14 -209 15 -266 3 -14 -3 -38 -8 -55 -12 -118 -24 -243 -88 -353 -181 -63
-54 -104 -66 -158 -46 -92 34 -170 60 -179 61 -5 1 -33 4 -61 8 -152 19 -293
0 -429 -57 -123 -51 -128 -50 -246 46 -162 132 -341 195 -536 189 -147 -4
-223 -25 -440 -122 -61 -28 -126 -57 -145 -65 -18 -8 -55 -25 -83 -37 -86 -39
-299 -132 -321 -140 -20 -8 -20 -8 -18 323 2 366 9 482 34 607 6 25 12 57 14
72 3 15 16 64 30 110 14 46 25 86 25 91 0 4 8 21 16 37 20 39 62 60 155 76
167 30 450 145 627 255 92 58 237 166 303 226 89 80 102 85 146 51z m-186
-1724 c217 -55 395 -243 438 -462 8 -46 8 -196 -1 -239 -10 -48 -45 -132 -68
-164 -10 -15 -19 -30 -19 -33 0 -10 -32 -47 -86 -101 -282 -278 -756 -196
-938 164 -58 114 -75 289 -40 411 30 108 74 181 159 265 85 84 150 124 260
156 72 22 215 23 295 3z m2112 5 c53 -11 182 -65 214 -91 10 -7 50 -45 88 -83
193 -193 223 -496 73 -727 -109 -168 -305 -272 -507 -270 -277 2 -522 208
-576 484 -22 110 10 284 71 393 46 83 150 189 225 230 123 66 283 91 412 64z
m-1031 -179 c60 -15 105 -57 119 -109 9 -33 7 -57 -6 -119 -14 -66 -17 -152
-18 -587 -2 -488 -3 -512 -21 -544 -31 -53 -69 -75 -127 -77 -87 -3 -149 53
-161 147 -6 45 -22 75 -50 93 -48 32 -109 23 -149 -20 -57 -65 -13 -239 87
-339 186 -185 494 -130 610 110 29 59 30 62 33 268 l4 207 51 -43 c109 -91
239 -160 348 -183 118 -25 284 -25 384 1 99 25 228 87 310 150 140 107 216
216 283 407 58 164 117 251 223 328 l26 19 -3 -582 c-2 -597 -4 -650 -29 -767
-3 -14 -7 -34 -9 -45 -13 -68 -81 -303 -108 -370 -103 -262 -241 -470 -452
-680 -338 -336 -730 -546 -1138 -610 -154 -24 -399 -31 -533 -14 -136 17 -140
18 -391 74 -49 11 -261 88 -338 123 -568 257 -970 760 -1135 1419 -50 199 -53
246 -55 866 -1 317 0 577 3 577 2 0 24 -16 48 -36 59 -49 135 -159 162 -236
56 -158 76 -203 120 -271 163 -249 415 -380 716 -373 101 3 134 8 212 33 223
73 389 215 489 418 82 166 106 346 71 524 -8 41 -13 82 -12 90 2 9 4 24 4 35
1 10 18 35 39 56 35 35 96 61 172 72 46 7 174 0 221 -12z m-2649 -240 c5 -150
23 -178 114 -184 22 -1 45 -6 51 -9 11 -7 16 -234 6 -271 -7 -25 -62 -17 -133
18 -178 90 -245 313 -141 474 34 53 93 111 97 96 2 -5 4 -61 6 -124z m5052 73
c61 -64 80 -116 81 -213 0 -71 -4 -94 -26 -140 -58 -123 -246 -247 -277 -182
-12 26 -9 249 5 263 6 6 32 12 59 14 54 4 89 32 102 80 5 17 8 72 8 123 -1 50
2 92 6 92 4 0 23 -17 42 -37z"/>
<path d="M1990 4390 c-57 -7 -86 -23 -104 -58 -28 -57 -8 -123 49 -155 27 -16
834 -19 883 -3 102 31 91 192 -14 212 -43 8 -752 11 -814 4z"/>
<path d="M4238 4388 c-57 -8 -92 -30 -108 -68 -25 -61 11 -130 77 -149 42 -12
799 -12 845 0 59 15 80 39 85 95 5 43 2 54 -22 82 -18 22 -39 34 -65 38 -52 8
-756 11 -812 2z"/>
<path d="M2402 3440 c-18 -11 -40 -36 -48 -55 -13 -32 -18 -35 -58 -35 -69 0
-101 -55 -56 -100 19 -19 33 -20 228 -20 224 0 252 6 252 53 0 42 -27 67 -74
67 -39 0 -44 3 -59 35 -33 69 -119 95 -185 55z"/>
<path d="M4473 3438 c-17 -13 -39 -38 -47 -55 -14 -29 -21 -33 -53 -33 -43 0
-55 -6 -70 -34 -15 -27 3 -72 30 -80 32 -8 420 -7 433 2 23 15 34 50 24 76 -9
25 -27 33 -85 38 -23 2 -34 11 -45 36 -33 70 -124 94 -187 50z"/>
<path d="M2583 1795 c-89 -38 -76 -228 27 -382 78 -117 203 -192 355 -211 33
-4 296 -7 585 -6 474 1 528 2 558 18 70 36 76 133 12 191 -21 19 -40 20 -599
25 -526 5 -579 7 -616 23 -82 37 -126 99 -151 215 -18 83 -47 131 -82 133 -9
1 -27 3 -38 4 -12 1 -35 -3 -51 -10z"/>
<path d="M4493 1155 c-41 -29 -13 -105 39 -105 24 0 58 35 58 60 0 25 -34 60
-58 60 -10 0 -27 -7 -39 -15z"/>
</g>
</svg>
