<?xml version="1.0" encoding="UTF-8"?>
<svg id="Layer_1" data-name="Layer 1" xmlns="http://www.w3.org/2000/svg" version="1.1" viewBox="0 0 305.5 305.5">
  <defs>
    <style>
      .cls-1 {
        fill: #000;
        fill-rule: evenodd;
        stroke-width: 0px;
      }
    </style>
  </defs>
  <path class="cls-1" d="M152.8,3C70.1,3,3,70.1,3,152.8s67.1,149.7,149.7,149.7,149.7-67.1,149.7-149.7S235.2,3,152.8,3ZM251.6,72.1c17.9,21.8,28.6,49.5,28.9,79.6-4.2-.8-46.4-9.4-89-4.1-1-2.1-1.8-4.4-2.8-6.7-2.6-6.2-5.5-12.5-8.4-18.5,47.1-19.2,68.5-46.8,71.3-50.3h0ZM152.8,25.1c32.5,0,62.2,12.2,84.8,32.2-2.3,3.2-21.6,29.1-67.1,46.1-20.9-38.5-44.2-70-47.7-74.8,9.6-2.3,19.6-3.4,30-3.4h0ZM98.4,37.1c3.4,4.5,26.1,36.2,47.4,73.9-59.8,15.9-112.5,15.6-118.2,15.6,8.3-39.6,35.1-72.6,70.8-89.5h0ZM24.8,152.9v-3.9c5.5.2,67.5,1,131.4-18.2,3.7,7.1,7.1,14.4,10.4,21.8-1.6.5-3.4,1-5,1.5-65.9,21.3-101,79.4-103.9,84.3-20.3-22.6-32.8-52.6-32.8-85.4h0ZM152.8,280.7c-29.6,0-56.8-10.1-78.4-26.9,2.3-4.7,28.2-54.7,100.3-79.9.3-.2.5-.2.8-.3,18,46.6,25.3,85.7,27.3,96.9-15.4,6.7-32.3,10.2-50,10.2h0ZM224,258.8c-1.3-7.8-8.1-45.1-24.8-91.1,40.1-6.3,75.2,4.1,79.5,5.5-5.5,35.6-26,66.2-54.7,85.6Z"/>
</svg>