<svg xmlns="http://www.w3.org/2000/svg" viewBox="0 0 1280.73 496.38" xmlns:v="https://vecta.io/nano"><path d="M1075.8 0c-32.92 45.66-61.3 93.68-87.45 140.12-27.91 49.57-58.81 99.32-102.52 115.57-47.88 17.79-107.75-8.45-139.17-25.68-18.24-10-36.91-21.54-56.68-33.75C615.46 150.22 531 98 426.53 103.28c-108.95 5.48-195.96 74.1-268.96 137.99C107.02 285.52 54.96 331.06 0 347.13v149.25c105.52-15.35 187.63-87.15 253.84-145.1 57.01-49.9 117.88-98.87 180.04-102 58.97-3.01 117.42 33.12 179.27 71.34 20.48 12.66 41.67 25.75 63.24 37.58 93.38 51.2 183.42 63.12 260.39 34.51 42.26-15.71 79.25-42.61 113.08-82.24 26.75-31.35 47.48-65.93 65.89-98.63 34.91-61.99 73.73-126.63 120.97-179.37 12.98-14.48 28.6-25.66 44.02-32.48h-204.92z" fill="#eaeaea"/></svg>