<svg xmlns="http://www.w3.org/2000/svg" viewBox="0 0 500 325" fill="#fff" xmlns:v="https://vecta.io/nano"><path d="M158.94 195.76c-17.5 0-30.15-12.16-30.15-30.39s15.32-31.36 35.98-31.36c14.83 0 23.1 7.78 23.1 15.56 0 4.62-3.4 8.02-8.75 8.02s-9.24-3.16-12.64-9.72c-4.38-8.27-6.08-9.48-8.51-9.48s-4.13 1.7-4.13 6.32c0 10.21 5.35 23.83 12.4 30.88 3.4 3.4 5.83 4.62 9.48 4.62 3.4 0 5.83-1.22 8.75-3.65.97-.73 3.89 1.22 3.4 2.43-3.16 8.51-14.34 16.77-28.93 16.77zm141.49-53.73v23.1c0 10.94 2.92 13.61 8.02 13.61 1.46 0 2.43-.73 2.92-.73 1.22 0 3.16 1.94 2.92 3.16-2.92 7.29-11.18 14.83-22.12 14.83-12.4 0-18.72-7.78-18.72-20.42v-32.33q0-1.22-1.46-1.46l-4.38-.73c-.73 0-.97-.24-.97-2.43 0-1.94.24-2.43.97-2.67 12.4-2.92 18.96-7.05 26.5-15.07.73-.73.73-.97 2.67-.97s2.19 0 2.43.97c.49 3.4.73 8.51.97 13.61h13.13c1.22 0 1.7.49 1.7 3.65s-.49 3.4-1.7 3.4c-3.89.49-9 .49-12.89.49zm41.09 15.8c1.7 5.83 4.86 11.43 8.27 14.83 4.38 4.38 7.54 5.59 11.91 5.59 4.86 0 8.27-1.94 11.43-4.86.97-.97 3.89 1.22 3.4 2.43-4.86 11.91-17.99 19.94-30.63 19.94-17.5 0-30.88-11.91-30.88-30.39s14.1-31.36 35.01-31.36c17.5 0 26.99 8.51 26.99 19.69 0 .97 0 2.19-.24 3.16 0 .49-.49.73-1.22.73-9.72.24-22.85.49-34.04.24zm10.94-13.37c0-4.38-1.94-6.81-5.11-6.81-3.65 0-7.29 3.16-7.29 10.21a36.79 36.79 0 0 0 .73 7.29l3.65-.49c5.35-.49 8.02-4.38 8.02-10.21zM133.9 189.68h0l-3.65-.97c-1.22-.24-1.22-.49-1.7-1.7l-19.69-41.09c-5.83-12.16-12.64-27.96-16.05-35.98-.49-1.46-1.22-1.7-4.13-1.7-3.16 0-3.65.24-4.13 1.7-.49.97-.97 1.94-1.46 3.16 4.13 4.62 5.59 10.94 4.13 18.72-.24-13.86-11.18-21.64-21.15-21.64-7.78 0-10.45 1.46-13.86 3.16-3.16 1.46-6.81 4.13-7.05 5.35-.49.24.49 26.01.49 27.23 0 1.7 1.7 1.22 3.89 1.22 3.65 0 3.89-.73 4.86-3.89l2.19-5.83c.97-2.19 1.94-5.11 4.13-7.05 2.43-1.46 5.59-1.7 7.29.73.97 1.46 1.46 3.16 1.7 5.35.24 5.59-3.4 11.91-5.35 16.05l-8.75 17.26c-7.78 15.8-8.27 16.53-11.91 18.23l-3.65 1.7c-.73.24-.97.49-.97 2.67s.24 2.43.97 2.43h31.12c.73 0 .97-.24.97-2.43s-.24-2.43-.97-2.67l-6.08-2.19c-3.16-1.22-1.22-2.43 2.67-13.61h27.23l4.62 13.61c.24.49.24 1.46-.73 1.7l-9.97.49c-.73 0-.97.49-.97 2.67s.24 2.43.97 2.43h44.98c.73 0 .97-.24.97-2.43s-.24-2.43-.97-2.67zm-64.18-21.15l13.37-28.2 9.72 28.2h-23.1zm165.07-26.01c0-1.22-.24-1.46-1.46-1.7l-3.89-.97c-.73 0-.97-.49-.97-2.43s.24-2.67.97-2.67l31.6-.49c.97 0 1.7.97 1.7 1.7 0 1.94-.97 7.78-.97 22.12v23.1c0 1.22.24 1.46 1.46 1.7l3.89.97h0c.73 0 .97.49.97 2.43 0 1.46-.24 5.11-.24 7.05 0 .73-.73 1.46-1.46 1.46l-25.77.49c-2.19 0-3.89-.49-4.38-2.67-.97-3.65-.73-8.27-.97-11.18-3.16 7.05-9.97 13.86-20.42 13.86-12.4 0-19.94-7.78-19.94-20.42v-32.09c0-1.22-.24-1.46-1.46-1.7l-3.89-.97c-.73 0-.97-.49-.97-2.43s.24-2.67.97-2.67l31.6-.49c.97 0 1.7.97 1.7 1.7 0 1.94-.97 7.78-.97 22.12v6.08c0 10.94 2.67 14.83 10.45 14.83.73 0 2.19 0 2.67-.24l-.24-36.47m186.48 53.21c-25.93 0-40.88-19.68-40.88-47.9 0-26.54 14.95-44.85 39.66-44.85 25.93 0 40.88 19.68 40.88 47.9 0 26.54-14.95 44.85-39.66 44.85zm3.78-29.08c.73-2.96 1.2-7.06 1.42-11.48 6.63-.31 12.46-1.18 14.73-2.55 1.42-.86 1.92-1.64 2.15-2.59.47-1.9-.37-3.82-5.4-5.06-2.96-.73-7.06-1.2-11.48-1.42-.31-6.63-1.18-12.46-2.55-14.73-.86-1.42-1.64-1.92-2.59-2.15-1.9-.47-3.82.37-5.06 5.4-.73 2.96-1.2 7.06-1.42 11.48-6.63.31-12.46 1.18-14.73 2.55-1.42.86-1.92 1.64-2.15 2.59-.47 1.9.37 3.82 5.4 5.06 2.96.73 7.06 1.2 11.48 1.42.31 6.63 1.18 12.46 2.55 14.73.86 1.42 1.64 1.92 2.59 2.15 1.9.47 3.82-.37 5.06-5.4z"/></svg>