<svg xmlns="http://www.w3.org/2000/svg" xmlns:xlink="http://www.w3.org/1999/xlink" viewBox="0 0 398.35 532.2" xmlns:v="https://vecta.io/nano"><style><![CDATA[.J{fill:#fff}.K{stroke-linejoin:round}.L{stroke-width:4.13}.M{fill:none}.N{stroke:#0046d0}.O{stroke-linecap:round}.P{fill:#00c0ad}]]></style><path d="m108.94,131.13c-2.03.61-3.73,2.08-4.65,4.07-1.23,2.66-1.91,5.62-1.91,8.75v11.21c0,.9.73,1.62,1.62,1.62h38.58c.9,0,1.62-.73,1.62-1.62v-11.21c0-3.32-.77-6.45-2.14-9.24-.89-1.8-2.53-3.05-4.41-3.59v-36c0-7.93-6.43-14.36-14.36-14.36s-2.54,6.43-2.54,14.36l-11.81,36.01Z" class="J"/><path d="m135.77,85.64c2.98,1.05,5.65,2.94,7.23,5.45,3.78,5.99,3.27,15.87.51,22.22-.88,2.03-2.05,4-2.24,6.25-.33,3.91,2.31,11.35,4.13,14.7,2.31,4.26,3.44,11.4,3.19,16.39-.07,1.45-.3,7.13-1.17,8.2-.99,1.23-1.42,4.5-7.79,6.43-8.68,2.63-14.18-3.03-23.14-3.79-2.72-.23-5.68-.69-7.58-2.9-1.39-1.62-1.95-3.95-2.04-6.2-.29-7.66,5.14-21.25,11.86-22.34,1.35-.22,2.75-.22,4.03-.77,1.28-.54,2.45-5.97,2.4-7.51-.03-1.11-.66-2.06-1.23-2.97-2.97-4.73-4.87-10.31-5.48-16.07-.58-5.47.26-11.65,4-15.19,3.33-3.15,8.7-3.51,13.31-1.89Z" class="P"/><g class="J K L N"><path d="M108.94 99.67h28.71v22.46h-28.71z"/><rect x="108.94" y="80.76" width="28.71" height="35.75" rx="14.36"/></g><g class="O K L N"><path d="M137.66 95.16c-6.97-.99-12.33-6.96-12.33-14.2 0 7.93-6.43 14.36-14.36 14.36-.69 0-1.37-.07-2.03-.16m30.64 35.65a20.82 20.82 0 0 1 4.63 13.13v11.21a1.62 1.62 0 0 1-1.62 1.62h-38.58a1.62 1.62 0 0 1-1.62-1.62v-11.21a20.88 20.88 0 0 1 4.63-13.13" class="M"/><path d="M105.05 102.63v-7.04" class="J"/><path d="M123.3 108.83l-18.25-6.2" class="M"/></g><g class="J"><path d="M82 116.11c4.9 1.16 8.75 5.04 9.88 9.95 1.16-4.9 5.04-8.75 9.95-9.88-4.9-1.16-8.75-5.04-9.88-9.95-1.16 4.9-5.04 8.75-9.95 9.88zm66.63 5.98c4.9 1.16 8.75 5.04 9.88 9.95 1.16-4.9 5.04-8.75 9.95-9.88-4.9-1.16-8.75-5.04-9.88-9.95-1.16 4.9-5.04 8.75-9.95 9.88zm-5.17-19.48c2.97.7 5.3 3.05 5.98 6.03.7-2.97 3.05-5.3 6.03-5.98-2.97-.7-5.3-3.05-5.98-6.03-.7 2.97-3.05 5.3-6.03 5.98z" class="K L N"/><use xlink:href="#B"/></g><path d="m303.25,413.56c-2.92-8.99-12.35-19.19-18.09-24.75-9.33-9.04-22.78-15.55-38.38-11.43-3.06.81-5.9,2.42-6.99,4.7-.95,1.99-.47,4.18-.5,6.3-.14,9.13-11.11,4.74-18.46,4.94-6.96.19-12.58,5.12-13.92,9.95-1.78,6.39,7.65,16.32,13.96,20.05,5.76,3.41,13.18,3.44,20.16,3.36,17.29-.2,34.61.62,51.89,1.06,1.57.04,3.18.08,4.67-.28,2.77-.66,4.71-2.58,5.67-4.63,1.27-2.72,1.09-5.91,0-9.28Z" class="P"/><use xlink:href="#B" class="K L M N O"/><path d="m241.37,235.78c5.49-2.09,10.69-4.95,15.51-8.48,4.85-3.55,11.01-3.55,15.86,0,4.82,3.53,10.02,6.4,15.51,8.48,7.7,2.93,12.15,12.69,10.3,22.14-1.46,7.46-3.73,14.54-6.69,21.11-11.7,25.94-42.38,25.94-54.08,0-2.96-6.57-5.23-13.65-6.69-21.11-1.85-9.46,2.6-19.21,10.3-22.14Z" class="P"/><g class="N"><path d="M258.8 249.95v25.72a6.85 6.85 0 0 0 6.85 6.85h0a6.85 6.85 0 0 0 6.85-6.85v-25.72h-13.69z" stroke-miterlimit="10" stroke-width="2.07" class="J"/><g class="K L"><g class="M"><path d="M264.19 237.68h-5.39v37.99a6.85 6.85 0 0 0 6.85 6.85h0a6.85 6.85 0 0 0 6.85-6.85v-37.99h-8.3z"/><g class="O"><path d="M276.63 237.68h-21.96m15.76-18.63h-9.56m11.63 28.97h-13.7m5.43 20.67h-5.43"/><path d="M264.19 258.36h-5.39"/></g></g><path d="M229.68 252.24c4.9 1.16 8.75 5.04 9.88 9.95 1.16-4.9 5.04-8.75 9.95-9.88-4.9-1.16-8.75-5.04-9.88-9.95-1.16 4.9-5.04 8.75-9.95 9.88zm52.56 11.55c4.9 1.16 8.75 5.04 9.88 9.95 1.16-4.9 5.04-8.75 9.95-9.88-4.9-1.16-8.75-5.04-9.88-9.95-1.16 4.9-5.04 8.75-9.95 9.88zm-3.1-36.15c2.97.7 5.3 3.05 5.98 6.03.7-2.97 3.05-5.3 6.03-5.98-2.97-.7-5.3-3.05-5.98-6.03-.7 2.97-3.05 5.3-6.03 5.98z" class="J"/><path d="M265.65 282.52v18.11m0-81.32v28.71" class="M O"/><path d="m236.5,288.5c2.97.7,5.3,3.05,5.98,6.03.7-2.97,3.05-5.3,6.03-5.98-2.97-.7-5.3-3.05-5.98-6.03-.7,2.97-3.05,5.3-6.03,5.98Z" class="J"/></g></g><use xlink:href="#C" class="J"/><path d="M287.46 102.31h-8.77c-1.45 0-2.68 1.09-2.84 2.54-.49 4.42-.95 8.82-1.93 12.96h3.05v15.07c0 8.32-6.75 15.07-15.07 15.07h0c-6.2 0-11.52-3.75-13.83-9.1-.14 0-.27.03-.41.04-3.94.19-7.87-.17-11.77-.78-2.09-.33-3.82 1.63-3.21 3.65 3.8 12.55 15.43 21.69 29.22 21.69h0c16.88 0 30.57-13.69 30.57-30.57v-25.56c0-2.76-2.24-5.01-5.01-5.01z" class="P"/><g class="K L M N"><use xlink:href="#C"/><g class="O"><path d="M236.85 114.01h0"/><path d="M236.85 126.72v2.02a22.99 22.99 0 0 0 45.98 0v-8.38" stroke-dasharray="0 0 0 12.71"/><path d="M282.83 114.01h0"/></g></g><path d="M124.23 430.95h9.03v7.62h-9.03z" class="P"/><rect x="108.24" y="370.8" width="41" height="52.27" rx="6.89" class="J"/><path d="m112.81,400.79c-2.49-.05-5.04.08-7.55.4-1.83.23-3.21,1.76-3.21,3.6v11.4c0,3.8,3.55,6.89,7.93,6.89h31.35c4.38,0,7.93-3.08,7.93-6.89v-9.39c0-2.1-1.78-3.72-3.88-3.6-.8.05-1.61.07-2.4.08-10.1.08-20.05-2.28-30.15-2.49Z" class="P"/><g class="K L N"><g class="M"><rect x="108.24" y="370.8" width="41" height="52.27" rx="6.89"/><path d="m128.74,362.55h0c2.49,0,4.52,2.02,4.52,4.52v3.74h-9.03v-3.74c0-2.49,2.02-4.52,4.52-4.52Z"/></g><path d="M120.24 423.07h17v7.88h-17z" class="J"/><g class="M"><path d="M124.23 430.95h9.03v7.62h-9.03z"/><path d="M128.74 451.44v-12.88" class="O"/></g><path d="M123.567 392.381l5.176-5.176 5.176 5.176c2.857 2.857 2.857 7.495 0 10.352h0c-2.857 2.857-7.495 2.857-10.352 0h0c-2.857-2.857-2.857-7.495 0-10.352z" class="P"/><path d="M149.25 409.64h-7.1m7.1-8.26h-7.1m7.1-16.53h-7.1m7.1 8.27h-7.1" class="M O"/></g><path d="m169.73,247.43c0,19.73-20.26,36.53-41.92,36.53s-35.85-16.8-35.85-36.53,14.19-32.5,35.85-32.5,41.92,12.77,41.92,32.5Z" class="P"/><path d="M115.99 221.06h-6.2m30.89 0h-6.19" stroke="#fff" class="K L M O"/><path d="M143.22 260.34c-4.86 4.1-11.13 6.58-17.99 6.58-.25 0-.49-.03-.73-.03l-.45 4.86c-.17 1.9 1.59 3.51 3.42 2.98a7.95 7.95 0 0 0 3.44-2.03l12.35-12.35h-.04z" class="J"/><g class="K L N"><g class="M"><path d="M109.7 221.06h-6.2a6.2 6.2 0 0 0-6.2 6.2v11.72c0 15.43 12.5 27.93 27.93 27.93h0c15.43 0 27.93-12.5 27.93-27.93v-11.72a6.2 6.2 0 0 0-6.2-6.2h-6.2" stroke-linecap="square"/><g class="O"><path d="m143.27,260.34l-12.35,12.35c-3.14,3.14-8.22,3.14-11.35,0l-12.35-12.35"/><path d="m169.73,245.19v40.62c0,4.09-3.32,7.41-7.41,7.41h0c-4.09,0-7.41-3.32-7.41-7.41v-3.08c0-4.09-3.32-7.41-7.41-7.41h0c-4.09,0-7.41,3.32-7.41,7.41v3.08c0,4.09-3.32,7.41-7.41,7.41h0c-4.09,0-7.41-3.32-7.41-7.41v-10.5"/></g></g><circle cx="169.73" cy="239.66" r="5.26" class="J"/></g><defs ><path id="B" d="M245.49 401.6c0 4.28 1.73 8.45 4.76 11.48 5.36 5.34 14.84 5.64 21.85 7.61 9.4 2.64 18.7 5.88 27.42 10.3l3.92 2.1 12.9-12.76-43.55-43.55-.67-.67L258.01 362c-5.12 5.12-5.12 13.42 0 18.55 1.56 1.56 3.07 3.25 4.73 4.71.21.18-.11.41-.28.45-.05.01-.1.01-.16.01-2.21-.01-4.41.02-6.61.14-2.46.13-4.92.33-7.38.59-3.08.33-6.15.77-9.2 1.32-3.5.63-6.98 1.41-10.41 2.34-3.73 1.02-7.42 2.22-11.02 3.64-3.78 1.49-7.47 3.22-11 5.23"/><path id="C" d="m266.7,98.18v15.5h8.2v15.07c0,8.32-6.75,15.07-15.07,15.07h0c-8.32,0-15.07-6.75-15.07-15.07v-15.07h8.2v-15.5h-18.7c-2.76,0-5.01,2.24-5.01,5.01v25.56c0,16.88,13.69,30.57,30.57,30.57h0c16.88,0,30.57-13.69,30.57-30.57v-25.56c0-2.76-2.24-5.01-5.01-5.01h-18.7Z"/></defs></svg>