<svg xmlns="http://www.w3.org/2000/svg" xmlns:xlink="http://www.w3.org/1999/xlink" viewBox="0 0 500 325" xmlns:v="https://vecta.io/nano"><g fill="#fff"><path d="M246.23 155.93h11.93a.66.66 0 0 0 .66-.66v-12.6c18.78-3.16 33.13-19.54 33.13-39.2V64.38a.66.66 0 0 0-.66-.66h-5.96c-11.14 0-21.22 4.61-28.44 12.02-.22.23-.25.59-.06.85a46.5 46.5 0 0 1 5.88 11.19c.18.5.84.61 1.15.18a26.59 26.59 0 0 1 14.85-10.15v25.67c0 12.33-8.46 22.72-19.88 25.67v-25.67c0-21.96-17.8-39.76-39.76-39.76h-5.96a.66.66 0 0 0-.66.66v39.09c0 16.94 10.65 31.44 25.61 37.15.43.17.9-.16.9-.63v-13.21a.65.65 0 0 0-.32-.56c-7.74-4.63-12.93-13.1-12.93-22.75V77.8c11.42 2.95 19.88 13.34 19.88 25.67v51.81a.66.66 0 0 0 .66.66zm-119.08 32.73c7.79-2.07 11.46-5.66 11.46-11.11s-3.76-11.71-21.68-11.71H92.77c-.3 0-.56.2-.64.48-.08.29.04.59.29.74l5.64 3.42v42.46h-4.69a.66.66 0 0 0-.66.66v1.07a.66.66 0 0 0 .66.66h26.84c12.65 0 21.14-5.48 21.14-13.65 0-6.68-5.34-11.48-14.2-13.05zm-2.52 13.25c0 7.74-2.92 11.05-9.78 11.05h-.74v-22.77h1.21c5.83 0 9.31 4.38 9.31 11.72zm-9.98-14.11h-.54v-19.55h.41c4.96 0 7.37 3.2 7.37 9.78s-2.3 9.78-7.23 9.78z"/><use xlink:href="#B"/><path d="M206.13 212.95h-2.68v-48.46a.65.65 0 0 0-.28-.54.62.62 0 0 0-.6-.08l-17.2 6.02c-.22.08-.39.27-.43.5s.04.47.22.63l3.58 3.08v38.85h-2.68a.66.66 0 0 0-.66.66v1.07a.66.66 0 0 0 .66.66h20.08a.66.66 0 0 0 .66-.66v-1.07a.66.66 0 0 0-.66-.66zm43.17 0h-2.68v-48.46a.65.65 0 0 0-.28-.54.62.62 0 0 0-.6-.08l-17.2 6.02c-.22.08-.39.27-.43.5s.04.47.22.63l3.58 3.08v7.73c-1.71-1-4.04-1.93-7.37-1.93-9.53 0-16.19 8.06-16.19 19.6 0 10.04 4.94 16.52 12.57 16.52 3.54 0 7.4-1.79 10.98-5.06v3.73a.66.66 0 0 0 .66.66h16.73a.66.66 0 0 0 .66-.66v-1.07a.66.66 0 0 0-.66-.66zM224 195.68c0-7.31 2.03-11.85 5.29-11.85.94 0 1.87.25 2.62.7v23.49c-.82.32-1.47.45-2.15.45-2.47 0-5.76-1.33-5.76-12.79zm81.91 17.27h-2.85l-13.59-21.5c6.99-2.14 10.54-6.5 10.54-12.97 0-5.77-3.71-12.64-21.41-12.64h-25.23c-.3 0-.56.2-.64.48-.08.29.04.59.29.74l5.64 3.42v42.46h-4.69a.66.66 0 0 0-.66.66v1.07a.66.66 0 0 0 .66.66h25.77a.66.66 0 0 0 .66-.66v-1.07a.66.66 0 0 0-.66-.66h-5.03v-17.88l11.55 19.95c.12.2.34.33.57.33h19.07a.66.66 0 0 0 .66-.66v-1.07a.66.66 0 0 0-.66-.66zm-22.61-34.34c0 7.57-1.31 11.37-8.58 12v-22.38h1.48c6.18 0 7.1 6.5 7.1 10.38z"/><use xlink:href="#B" x="159.21"/><path d="M366.46 193.56l-5.02-2.68c-3.9-2.05-4.66-3.57-4.66-5.5 0-1.75 1.47-2.88 3.75-2.88a2.91 2.91 0 0 1 .72.1l7.64 10.86a.65.65 0 0 0 .54.28h.07c.3 0 .57-.21.64-.5l2.61-10.57c.08-.33-.1-.66-.41-.78-3.68-1.35-7.28-1.98-11.34-1.98-9.14 0-15.05 4.65-15.05 11.84 0 5.12 2.49 8.53 8.58 11.76l4.42 2.34c2.77 1.45 3.66 2.43 3.66 4.03 0 2.27-1.6 3.62-4.29 3.62-.68 0-1.09-.05-1.81-.25l-8.16-10.93a.65.65 0 0 0-.53-.27h-.07c-.32 0-.59.23-.65.54l-2.07 10.91c-.06.33.14.66.46.76 4.87 1.46 9.45 1.77 12.44 1.77 9.23 0 15.92-5.01 15.92-11.91 0-4.38-2.48-7.93-7.38-10.56zm41.24 14.64l-.07-.07a.66.66 0 0 0-.61-.18c-.55.12-1.17.19-1.8.19-3.88 0-8.17-1.93-11.9-5.33 7.49-3.07 11.76-8.02 11.76-13.69 0-5.35-4.75-9.23-11.3-9.23-10.39 0-17.93 7.79-17.93 18.53s7.51 17.59 17.86 17.59c6.29 0 11.03-2.35 14.07-6.99.17-.26.14-.61-.09-.83zm-22.22-21.35c0-1.23.27-3.29 2.08-3.29 2.41 0 6.1 4.53 6.1 10.11 0 3.08-.63 5.42-2.01 7.46-3.87-4.25-6.17-9.54-6.17-14.29zm-154.4 57.63l-3.46-5.67h-3.38v5.32a.66.66 0 0 1-.66.66h-5.26a.66.66 0 0 1-.66-.66v-18.27a.66.66 0 0 1 .66-.66h9.74c6.17 0 9.25 2.24 9.25 6.72 0 1.34-.26 2.45-.78 3.35s-1.36 1.63-2.51 2.2l4.11 6.3a.66.66 0 0 1-.56 1.02h-5.93c-.23 0-.45-.12-.57-.32zm-3.43-10.58c1.1 0 1.87-.15 2.31-.44s.66-.79.66-1.48-.22-1.16-.66-1.44-1.19-.43-2.25-.43h-3.46v3.79h3.4zm37.47 1.1c0 2.1-.47 3.93-1.41 5.47-.94 1.55-2.32 2.74-4.13 3.57s-3.99 1.25-6.53 1.25-4.54-.4-6.33-1.19-3.16-1.97-4.13-3.51c-.97-1.55-1.45-3.41-1.45-5.58s.47-3.93 1.41-5.48 2.32-2.74 4.13-3.57 3.99-1.25 6.53-1.25 4.54.4 6.33 1.19c1.78.8 3.16 1.97 4.13 3.51.97 1.55 1.45 3.41 1.45 5.58zm-7.36 0c0-1.48-.41-2.63-1.22-3.43s-1.95-1.21-3.42-1.21-2.6.4-3.42 1.21c-.81.81-1.22 1.95-1.22 3.43s.41 2.63 1.22 3.43c.81.81 1.95 1.21 3.42 1.21s2.6-.4 3.42-1.21c.81-.8 1.22-1.95 1.22-3.43zm26.41-9.8h5.76a.66.66 0 0 1 .66.66v10.1c0 3.18-.86 5.54-2.57 7.05-1.71 1.52-4.35 2.28-7.92 2.28s-6.21-.76-7.92-2.28-2.57-3.87-2.57-7.05v-10.1a.66.66 0 0 1 .66-.66h5.76a.66.66 0 0 1 .66.66v10.67c0 1.08.26 1.87.8 2.36.53.49 1.4.74 2.61.74s2.08-.25 2.61-.74.8-1.28.8-2.36v-10.67a.66.66 0 0 1 .66-.66zm11.74 18.93v-18.27a.66.66 0 0 1 .66-.66h9.24c3.11 0 5.43.58 6.96 1.74s2.29 2.92 2.29 5.28-.79 4.17-2.36 5.32-3.98 1.73-7.22 1.73h-2.77v4.85a.66.66 0 0 1-.66.66h-5.48a.66.66 0 0 1-.66-.66zm9.39-9.99c1.06 0 1.81-.15 2.25-.44s.66-.79.66-1.48-.22-1.16-.67-1.45-1.18-.44-2.18-.44h-2.63v3.82h2.58zm-104.39-4.02h10.36a.66.66 0 0 0 .66-.66v-4.08a.66.66 0 0 0-.66-.66h-10.36c-2.4.02-4.48.44-6.22 1.27-1.79.85-3.15 2.06-4.08 3.62-.92 1.56-1.39 3.4-1.39 5.5 0 3.28 1.1 5.79 3.29 7.55 2.2 1.76 5.34 2.63 9.44 2.63 3.64 0 6.86-.81 9.66-2.44a.68.68 0 0 0 .33-.58v-9.11a.66.66 0 0 0-.66-.66h-8.88a.66.66 0 0 0-.66.66v3.53a.66.66 0 0 0 .66.66h3.07v2.12c-.95.27-2.15.41-3.6.41-1.96 0-3.36-.38-4.2-1.15s-1.26-2.03-1.26-3.79c0-1.63.37-2.84 1.13-3.64.74-.78 1.86-1.18 3.37-1.19z"/></g><defs ><path id="B" d="m163.77,179.89c-10.87,0-19.07,7.68-19.07,17.86,0,5.23,2.07,9.96,5.84,13.33,3.55,3.18,8.27,4.93,13.29,4.93,14.45,0,19.6-9.43,19.6-18.26,0-10.68-7.9-17.86-19.67-17.86Zm9.64,29.64c0,2.44-1.11,2.75-2.08,2.75-4.86,0-16.4-19.68-16.4-26.04,0-.98.26-2.62,2.01-2.62,5.28,0,16.47,20.3,16.47,25.91Z"/></defs></svg>