<svg xmlns="http://www.w3.org/2000/svg" viewBox="0 0 350 350" xmlns:v="https://vecta.io/nano"><style><![CDATA[.F{stroke-dasharray:9.6445,9.6445}]]></style><path d="M158 300.6h32.5a1.79 1.79 0 0 0 1.8-1.8v-34.3c51.1-8.6 90.2-53.2 90.2-106.8V51.2a1.79 1.79 0 0 0-1.8-1.8h-16.2c-30.3 0-57.8 12.6-77.4 32.7-.6.6-.7 1.6-.2 2.3 6.6 9.3 12.1 19.5 16 30.5.5 1.4 2.3 1.7 3.1.5 9.7-13.4 23.9-23.4 40.4-27.6v69.9c0 33.6-23 61.9-54.1 69.9v-69.9c0-59.8-48.5-108.3-108.3-108.3H67.7a1.79 1.79 0 0 0-1.8 1.8v106.5c0 46.1 29 85.6 69.7 101.2 1.2.4 2.4-.4 2.4-1.7v-36c0-.6-.3-1.2-.9-1.5-20.9-12.7-35.1-35.7-35.1-62V87.8c31.1 8 54.1 36.3 54.1 69.9v141.1c.1 1 .9 1.8 1.9 1.8z" fill="#afafaf"/><g stroke="#000" fill="none"><circle transform="matrix(.2502 -.9682 .9682 .2502 -25.4125 289.5475)" cx="174.2" cy="161.2" r="89.8" stroke-width="2" stroke-dasharray="10.0758,10.0758"/><g stroke-dasharray="9.6337,9.6337" stroke-width="1.92"><circle transform="matrix(.953 -.3029 .3029 .953 -33.059 85.2274)" cx="258.2" cy="149.2" r="79.7"/><circle transform="matrix(.9856 -.169 .169 .9856 -23.8904 17.6585)" cx="91.8" cy="149.2" r="79.7"/></g><g stroke-width="2.006" stroke-miterlimit="10"><path d="M84.4 300.6v-5"/><path d="M84.4 285.9V59.3" class="F"/><path d="M84.4 54.4v-5m90.7 251.2v-5"/><path d="M175.1 285.9V59.3" class="F"/><path d="M175.1 54.4v-5M264 300.6v-5"/><path d="M264 285.9V59.3" class="F"/><path d="M264 54.4v-5"/></g></g></svg>