<svg xmlns="http://www.w3.org/2000/svg" viewBox="0 0 350 350" xmlns:v="https://vecta.io/nano"><g fill="#fff"><path d="M74.9 185.7c.2 0 .3-.1.5-.2 1.8-.5 3.3-1.2 4.7-2 .2-.2.5-.3.7-.5.3-.1.5-.3.8-.5.5-.4.9-.8 1.3-1.2.2-.2.3-.5.5-.7.4-.5.7-1 .9-1.5.2-.2.3-.5.5-.8.2-.4.2-.8.3-1.2a8.33 8.33 0 0 0 .3-2.2v-.8c0-.4 0-.7-.1-1.1l-.3-.8c-.2-.7-.5-1.3-.8-2-.1-.3-.2-.6-.4-.8l-.9-1.1c-.5-.6-1.2-1.1-1.9-1.6-.3-.2-.5-.4-.8-.5-.3-.2-.5-.4-.8-.6-.4-.2-.9-.4-1.4-.5-.4-.2-.8-.3-1.3-.5-.4-.1-.7-.3-1.1-.4.5-.2 1-.3 1.5-.5s1-.5 1.5-.8l1.4-.9c.3-.2.5-.5.7-.7 1-1 1.7-2.1 2.1-3.4.1-.2.2-.4.2-.7.1-.6.2-1.2.2-1.9 0-.6-.1-1.1-.2-1.6s-.2-1.1-.4-1.6-.5-1-.8-1.5c-.3-.4-.7-.8-1.1-1.2-.1-.1-.3-.3-.5-.4-.6-.5-1.4-1-2.2-1.4-2-1-4.7-1.7-7.9-2.1h-.2-.1c-1.5-.2-3.2-.2-4.9-.2H62c-.2 0-.4-.1-.8-.1-.9 0-.9.1-1.8.1s-.9-.1-1.8-.1c-.5 0-.7 0-1 .1h-3.9-.5-.9-3.5c-.3 0-.5-.1-1-.1s-.8 0-1 .1h-.7c-.2 0-.4.1-.5.1-.3.1-.5.3-.6.7-.1.2 0 .4.1.6.1.3.2.5.5.6l.8.5c.1.1.3.2.6.4l.9.5 1.8 1.1.1.1c0 .1.1.1.1.2v1c0 .2-.1.3-.1.6 0 .9.1.9.1 1.8v1.8.5 5.7c0 .2-.1.4-.1.8 0 .5 0 .7.1.9v7.6.3.3 4.6.4 1.8 1.8 1.8.3 1.5h-1.2c-.1 0-.3-.1-.4-.1h-1.6c-.4 0-.7.2-.9.5-.1.2-.2.4-.2.6v.9c0 .2 0 .3.1.4.2.4.6.7 1 .7.5 0 .7 0 .9-.1h4.2.3 1.8c.9 0 .9.1 1.8.1.4 0 .7 0 .9-.1h3.7c.2 0 .4.1.8.1.5 0 .7 0 .9-.1h1.7c.2 0 .5.1 1 .1.4 0 .6 0 .9-.1h1.9c.2 0 .4.1.8.1h1.9c.6 0 1.3-.1 1.9-.2.3 0 .6-.1.9-.2.8-.1 1.6-.3 2.4-.5.2.1.4.1.5 0zM70 179c-.8 3.2-3 4.5-6.9 4.5 0-.6-.1-.8-.1-1.1v-1.3c0-.3.1-.5.1-1.1v-1.7-1.7-1.7c0-.4 0-.6-.1-.9v-3.6-.7-1.7c0-.3 0-.5-.1-.7v-1h.2c.1 0 .1.1.2.1.6 0 1.2.1 1.8.2.6.2 1.2.3 1.7.6.2.1.4.3.7.4 1.8 1.5 2.8 4.1 2.8 7.6 0 1.4-.1 2.7-.4 3.7.2 0 .1 0 .1.1zm-6.9-17.2c0-.2.1-.3.1-.6v-1.8-1.8-.8-8.4h.4l1.3.3c.4.1.7.2 1.1.4.3.2.5.4.8.7l.6 1c.2.4.4 1 .6 1.6l.3 1.7c.1.5.1 1.1.1 1.7 0 .3 0 .7.1 1-.1 1.7-.4 3.1-.9 4.1-.1.2-.3.4-.4.6-.4.6-1 1-1.7 1.3-.6.2-1.3.4-2.1.5v-1.5zm81.1 22.9c.3.2.5.4.8.6 1 .8 2.2 1.3 3.6 1.6.1 0 .3.1.5.1a.9.9 0 0 1 .5.1c.4 0 .9.1 1.3.1 2.6 0 5.3-1.1 8-3.1.1-.1.3-.2.4-.3v1.2c0 .2-.1.3-.1.6s.1.5.4.7c.2.2.5.4.8.4h4.3.8.7 1.9c.2.1.4.1.8.1h1.7c.4 0 .6 0 .8-.1h1.8c.2 0 .4.1.9.1.6 0 1.2-.6 1.2-1.2v-.9a1.11 1.11 0 0 0-1.1-1.1h-1.5v-2.7-.8-.7-1.9c0-.2.1-.4.1-.9 0-.7-.1-.8-.1-1.3v-3c0-.3.1-.5.1-1 0-.6 0-.8-.1-1.2v-6.5c0-.3.1-.5.1-1.1v-1.8c0-.5 0-.8-.1-1V153c0-.3.1-.5.1-1s0-.7-.1-1v-2-.8-.6-2.2c0-.2.1-.4.1-.8 0-.3-.2-.6-.5-.9h-.1-.1c-.3-.2-.6-.3-1-.2l-1.7.6-1.7.6-1.7.6c-.9.3-.9.2-1.8.5-.8.3-.8.4-1.5.6l-.5.2-1.5.5c-.6.2-.8.3-1.1.5l-1.3.5c-.3.1-.5.1-1.1.3a1.38 1.38 0 0 0-.4.3c-.2.2-.3.4-.3.6s0 .4.1.6c0 .2.1.4.2.5l1.4 1.2c.2.2.4.3.5.3l.9.8v2.8.6.5 1c0 .1 0 .1-.1.2-1.3-.6-3.1-1.2-5.3-1.2h-.6-1.4c-.3 0-.6.2-1 .3-1.2.3-2.3.7-3.4 1.3a4.67 4.67 0 0 0-1 .5l-1.5 1.2-.4.4c-.3.3-.6.6-.9 1-.2.2-.3.4-.5.6s-.5.5-.6.8a11.94 11.94 0 0 0-.8 1.6c-.3.5-.5 1.1-.7 1.7l-.3 1.1a15.47 15.47 0 0 0-.6 3.1c-.1.4-.1.7-.1 1.1v.5 1.3 1.1.7c0 .6.2 1.2.3 1.8.3 1.5.7 2.9 1.2 4.1.1.3.2.7.4 1l.6.9.9 1.1c-.1.4.2.7.4.9zm15-23.4c0 .1.1.3.1.4v6.1.9.7 2.1c-.1.2-.1.5-.1.9v1.8c0 .4 0 .6.1.8v1.9c0 .2-.1.5-.1.9s0 .7.1.9v.7c0 .1 0 .2-.1.3-.4.1-.7.2-1.1.2-.5 0-1.1-.1-1.6-.4-.4-.2-.8-.6-1.1-1.2-.1-.1-.2-.3-.3-.4-.2-.5-.5-1.2-.6-2 0-.2-.1-.5-.1-.8 0-.2-.1-.4-.1-.6-.1-.6-.1-1.2-.2-1.9 0-.3.1-.6.1-.9 0-.4-.1-.8-.1-1.3v-.4l.1-2.5c.1-.4.1-.7.2-1 .1-.4.1-.9.2-1.3.6-2.7 1.8-4.3 3.3-4.3.3 0 .7.1 1 .1 0 .2.1.3.3.3zm92.4 10.4c0-.2 0-.5-.1-.7-.1-1.4-.3-2.8-.7-4 0-.2-.1-.3-.1-.5 0-.1-.1-.1-.1-.2v-.1c0-.1-.1-.1-.1-.2-.4-1.1-1-2.2-1.7-3.2l-.6-1c-.4-.4-.8-.9-1.3-1.3l-1.5-1.1c-.5-.3-1-.7-1.6-.9-.5-.3-1.1-.5-1.7-.8l-1.7-.6c-.6-.2-1.2-.3-1.8-.4s-1.2-.1-1.8-.1-1.2-.2-1.8-.2c-.4 0-.8.1-1.1.1-.7 0-1.3.1-1.9.2-.2 0-.4 0-.5.1l-1.8.3c-.6.2-1.1.5-1.7.7 0 0-.1 0-.1.1-1.6.7-3.1 1.7-4.4 2.9-.7.7-1.4 1.5-2 2.3-.1.1-.2.2-.2.3l-.9 1.5c-.2.3-.2.6-.3 1-.2.4-.3.8-.4 1.3-.1.3-.3.6-.4 1-.1.3-.1.6-.1.9l-.2 2.5v1 .9c0 .3.1.5.1.8.4 2.5 1.4 4.7 2.9 6.7.2.2.3.5.5.7l.4.4.9.9a15.3 15.3 0 0 0 6.9 3.6c.3.1.5.2.8.2.2 0 .4.1.7.1l2.7.2h.1.1c1.1 0 2.1-.1 3.1-.2h.2c.6-.1 1.1-.1 1.7-.3.6-.1 1.1-.3 1.6-.5.4-.1.8-.3 1.1-.4 0 0 .1 0 .1-.1.1 0 .2-.1.3-.1h.1l.6-.3h.1c1.3-.7 2.4-1.5 3.4-2.5l.6-.6.6-.6c.2-.2.3-.5.4-.7l.9-1.5c.2-.2.3-.5.4-.7.2-.5.3-1.1.5-1.6.4-1.3.6-2.7.7-4.2.1-.5.1-.8.1-1.1zm-10.5 11.2c-.2 0-.7 0-1.7-.8-.4-.3-.9-.8-1.5-1.4-.4-.4-.8-.9-1.2-1.4l-1.1-1.5c-.4-.5-.7-1-1-1.6-.3-.5-.7-1-1.1-1.5-.3-.5-.5-1-.7-1.5-.2-.3-.4-.6-.6-.8l-.9-1.7c-.1-.1-.1-.2-.2-.3-.3-.5-.4-1.1-.6-1.6s-.6-1-.8-1.5v-.1c-.8-2-1.3-3.7-1.3-4.8 0-.4 0-1.6 1.1-1.6.2 0 .6.1 1.2.4.2.1.4.3.7.5.4.3.9.9 1.5 1.5.2.3.5.5.8.8.3.4.6.8 1 1.2l.6 1c.2.3.4.5.6.8.5.7 1 1.5 1.5 2.4.2.3.3.6.5.9.1.3.3.5.4.8.1.2.3.5.4.7 1.3 2.4 2.5 5 3.2 7 .1.3.1.5.2.8.1.2.1.4.2.6.1.5.2.9.2 1.2 0 .4 0 .9-.2 1.2-.4.1-.7.3-1.2.3zm-74.6 24.4a6.42 6.42 0 0 0 1 1.3c.2.2.4.3.6.5.6.5 1.3 1 2.1 1.3.8.4 1.7.6 2.7.8.3.1.7.1 1 .2.6.1 1.2.1 1.9.1s1.3-.1 2-.2h.3c.9-.1 1.8-.3 2.6-.6l.9-.3c.5-.2 1-.6 1.4-.9a6.42 6.42 0 0 0 1.3-1c.4-.4.7-.9 1-1.3l.3-.6c.3-.7.6-1.4.7-2.2 0-.1.1-.3.1-.5v-.3c.1-.5.1-.9.1-1.4 0-.6 0-1.1-.1-1.6v-.1c-.1-.6-.2-1.2-.4-1.7-.2-.6-.5-1.1-.8-1.6s-.7-.9-1-1.3l-1.2-1.1c-.2-.2-.5-.3-.8-.4-.2-.1-.4-.2-.7-.3-.8-.4-1.8-.6-2.7-.8-.3-.1-.6-.2-.9-.2h-1.2-.7c-1.8 0-3.5.3-4.9.7-.3.1-.6.1-.9.3-.4.2-.7.4-1 .7a3.04 3.04 0 0 0-.7.5c-.4.2-.7.5-1 .8a3.04 3.04 0 0 0-.5.7c-.2.2-.3.4-.4.6-.2.3-.3.6-.5.9l-.3.6c-.1.2-.1.4-.1.5-.2.7-.3 1.5-.4 2.3v.5c0 .6 0 1.2.1 1.7 0 .3.1.5.2.8l.6 1.8c0 .4.1.6.3.8zm5.9-6.9c.2-.3.4-.6.7-.8.2-.2.4-.4.6-.5.4-.3 1-.4 1.6-.5h.6.5c.8.1 1.5.3 2 .7l.3.3c.4.4.6.8.7 1.3.1.2.1.4.2.7 0 .3.1.6.1.9s0 .6-.1.9c-.1.2-.1.4-.2.6l-.3.8c-.1.2-.2.3-.4.5-.5.5-1.2.8-2.1.9h-.8-1c-.7-.1-1.4-.4-1.8-.9-.5-.5-.8-1.2-1-2.1v-.8-1.1l.4-.9zm16.4 2.8c0 .6.1 1.2.1 1.7.1.6.1 1.2.3 1.7.2.6.5 1.1.8 1.6s.7.9 1.1 1.2c0 0 .1 0 .1.1.4.4.9.8 1.4 1 .5.3 1.1.5 1.8.6.6.1 1.2.3 1.8.3.6.1 1.2.1 1.9.1.3 0 .7-.1 1-.1.8 0 1.6-.1 2.3-.3.2 0 .3 0 .4-.1l1.8-.6c.1 0 .1-.1.2-.1 0 0 .1 0 .1-.1l.1-.1a4.44 4.44 0 0 0 1.1-.8c.6-.6 1.1-1.2 1.5-2.1.2-.2.3-.5.4-.8s.2-.7.2-1.1c.1-.7.2-1.5.2-2.3v-2.6c0-.2.1-.4.1-.8 0-.6-.1-.8-.1-1.2v-1.1c0-.4.1-.6.1-1.2 0-.5 0-.7-.1-.9v-.8c0-.2-.1-.5-.3-.6-.1-.2-.3-.3-.6-.3-.4 0-.6.1-.8.1h-1.6c-.2 0-.4-.1-.8-.1h-1.6c-.5 0-.9.4-.9.9 0 .9.1.9.1 1.8v.9 1.7c0 .3-.1.5-.1 1.1v1.8c0 .9.1.9.1 1.8 0 .3 0 .6-.1.9-.1.4-.3.8-.5 1s-.5.4-.9.5-.8.1-1.2.1c-.6 0-1.1 0-1.5-.2-.2-.1-.4-.2-.6-.4-.3-.3-.5-.6-.6-1.1 0-.2-.1-.5-.1-.8 0-.9.1-.9.1-1.8v-1.8c0-.4 0-.7-.1-.9v-1.9c0-.2.1-.4.1-.9 0-.4 0-.7-.1-.9v-.9c0-.3-.2-.6-.4-.7-.1-.1-.3-.1-.4-.1h-.7-3.4c-.2 0-.4-.1-.7-.1-.5 0-.9.4-.9.9 0 .7.1.8.1 1.4v6.7c-.2.2-.2.4-.2.7zm-89.5-16.7c.4.1.8.3 1.2.4s.8.1 1.2.1c.3 0 .7.1 1 .1.4.1.8.1 1.3.1.3 0 .6-.1.8-.1.6 0 1.2-.1 1.7-.1h.8l1.7-.3c.6-.1 1.1-.3 1.6-.4l1.6-.7c.5-.2 1.1-.4 1.5-.7.2-.1.4-.3.6-.5.5-.3.9-.7 1.4-1.1a3.04 3.04 0 0 0 .7-.5c.3-.3.5-.7.8-1 .2-.3.4-.5.6-.8s.5-.6.7-.9c.3-.5.6-1 .8-1.5l.6-1.6c.2-.5.3-1.1.4-1.7.1-.3.1-.6 0-.9l.2-2.6v-1.1-.7c-.1-.6-.1-1.2-.2-1.8s-.4-1.1-.5-1.7l-.6-1.7-.9-1.5c-.3-.5-.7-.9-1.1-1.4-.2-.2-.4-.5-.7-.7l-.6-.6c-.1-.1-.3-.2-.4-.4-.3-.3-.6-.6-1-.8-.3-.2-.6-.3-.9-.5l-1.8-.9-.6-.3c-.2-.1-.4-.1-.6-.2-.9-.3-1.9-.6-2.9-.7-.6-.1-1.2-.3-1.8-.3h-.9-1c-1.1 0-2.1.1-3.1.3h-.1-.1-.3c-.1 0-.2 0-.3.1-.2 0-.3.1-.5.1h-.2l-1 .3a9.83 9.83 0 0 0-1.6.5c-.6.2-1.1.5-1.6.8l-1.5 1-1.4 1.2c-.2.2-.3.4-.5.6-1.2 1.3-2.2 2.8-2.8 4.4-.1.2-.2.5-.3.7s-.1.5-.2.7c-.2.6-.3 1.2-.4 1.8-.1.3-.2.6-.2.9v.9.9c0 1.1.1 2.1.3 3.1a.9.9 0 0 0 .1.5c.1.2.1.4.2.7l.6 1.7c.1.4.2.8.4 1.1l.9 1.6c.2.3.5.6.7.8.5.7 1.1 1.3 1.7 1.8.2.2.4.3.5.5.2.2.5.5.8.7l1.5.9c.1 0 .1.1.2.1 1.1.5 2.3 1 3.5 1.3zm-.9-25.7c.4 0 1.4.2 3.4 2.4.2.2.4.5.7.8.2.2.3.5.5.7s.3.4.5.6c.4.5.8 1.1 1.2 1.7.1.3.3.5.5.8s.4.5.5.7c.2.3.3.6.5.8l1.6 2.8c.1.2.1.3.2.5l.3.6c.3.6.6 1.1.8 1.7.1.4.2.8.4 1.1.3.6.5 1.2.7 1.7.1.4.3.7.5 1.1.3 1 .5 1.9.5 2.5 0 .7 0 1.7-1.1 1.7h-.3c-.3-.1-.7-.4-1.4-.9-.2-.2-.5-.4-.8-.6l-.7-.7c-.3-.3-.5-.6-.8-.9-.1-.2-.2-.3-.4-.5-.1-.2-.3-.3-.4-.5l-1.9-2.7c-.3-.5-.5-1-.8-1.5-.1-.2-.3-.4-.5-.6l-2-3.6v-.1c-.1-.1-.1-.3-.2-.4l-.6-1.3-.5-1.4-.6-1.6-.5-1.6c-.2-.6-.2-1.2-.2-1.6 0-.2 0-.7.1-1.1s.3-.6.8-.6zm32.1-15.4c-.1 0-.2.1-.3.1l-1.8.6c-.4.1-.6.2-.7.3l-3.6 1.3c-.2 0-.5.1-.9.2l-.9.4-.8.3c-.2.1-.4.2-.5.4-.1.1-.2.3-.3.4a.9.9 0 0 0 .1.5l.3.6.8.7.5.5a1.38 1.38 0 0 1 .4.3l.9.8v.1.1 1.1c0 .2-.1.4-.1.6v1.8 1.8c0 .4 0 .6.1.9v3.6c0 .3-.1.5-.1 1s0 .7.1.9v1.7c0 .3-.1.5-.1 1s.1.7.1 1v2.2.5.5 2.4.7.7 2.2.7.7 4.7h-1.6c-.2 0-.5.1-.6.2-.3.2-.6.5-.6.9 0 .2 0 .3.1.5v.4c0 .4.2.7.5.9.2.1.4.2.6.2h.7 3.2c.7 0 .7.1 1.6.1.4 0 .7 0 .9-.1h4.1.4.7 1.5c.6 0 .7.1 1.4.1h1.8c.6 0 1.1-.6 1.1-1.2v-.2-.6c0-.4-.2-.7-.5-.9-.2-.2-.4-.3-.6-.3h-.3-1.3v-4.3c0-.3.1-.5.1-1s0-.7-.1-1v-1.5c0-.3.1-.5.1-1s0-.7-.1-1v-3.8-.5-.6-18c0-.2.1-.4.1-.8v-1.8-.6-2.9c0-.4-.2-.7-.5-.9-.2-.1-.3-.2-.5-.2-.2-.1-.4-.1-.5 0l-1 .4-3.9 1.2z"/><path d="M207.7 146.2l-.8-.3-1.6-.3c-.5-.1-1.1-.1-1.7-.2-.5-.1-1.1-.1-1.7-.1-.5 0-1.1-.1-1.7-.1h-.5-1.1-.9-.8-.7-1.9c-.2 0-.4-.1-.9-.1-.7 0-.8.1-1.3.1h-2.9c-.3 0-.5-.1-1-.1-.6 0-.8 0-1.1.1h-6.3c-.4 0-.5-.1-1.2-.1-.4 0-.6.1-.8.1h-.8c-.5 0-.9.3-1.1.8-.1.3 0 .5.1.8.1.2.2.4.4.6.3.2.5.3.7.3l1.5.9c.1.1.3.3.7.5.2.1.4.2.5.2l.9.6v4.4c0 .2-.1.4-.1.9 0 .4 0 .6.1.8v4 .5.5 3.8c0 .3-.1.5-.1 1.1 0 .5.1.7.1 1v5.4.6.5 2.2c0 .2-.1.4-.1.8 0 .5 0 .7.1.9v3.1c0 .4-.1.6-.1 1.2a.9.9 0 0 0 .1.5v1.3h-2.5c-.2 0-.4-.1-.8-.1-.3 0-.6.1-.7.4-.2.2-.4.5-.4.8v.9a1.11 1.11 0 0 0 1.1 1.1h.6c.4 0 .6.1 1.2.1.3 0 .5 0 .7-.1h1.9c.2.1.4.1.9.1.9 0 .9-.1 1.7-.1.9 0 .9.1 1.7.1h1.7 1.7c.9 0 .9-.1 1.7-.1h1.7.6 2.1c.2 0 .4.1.8.1h1.7c.3 0 .6-.1.8-.4.2-.2.4-.5.4-.8v-.4c0-.1.1-.2.1-.4 0-.6-.6-1.1-1.2-1.1-.9 0-.9-.1-1.8-.1-.2 0-.4 0-.5.1h-.9V181v-.8-.9-2-.6-1.7-.9-2.5l5 8.7.4.9 1 1.6.9 1.6 1 1.6c.2.3.6.6 1 .6h1.7c.6 0 .8 0 1.2-.1h3.1c.2 0 .5.1.9.1s.6 0 .8-.1h1.8c.2.1.4.1.8.1h1.7c.8 0 .9-.1 1.6-.1h.3 1.6c.4 0 .7-.2.9-.5.1-.2.2-.4.2-.6v-.3c0-.2.1-.3.1-.6 0-.5-.3-.9-.7-1-.1-.1-.3-.1-.4-.1h-2l-2.4-3.9c-.1-.2-.2-.4-.4-.7s-.3-.4-.4-.6l-1.4-2.2c0-.1-.1-.1-.1-.2l-.9-1.5a1.38 1.38 0 0 0-.3-.4l-4.4-7v-.1c.2-.1.3-.1.5-.2l2-.9c.3-.1.6-.2.8-.4.5-.3 1-.7 1.5-1.1.4-.3.7-.7 1-1.1.1-.2.3-.3.4-.5.3-.4.6-.8.8-1.2.3-.5.4-1 .6-1.5.3-.9.5-1.9.6-2.9.1-.3.1-.6.1-.9s-.1-.5-.1-.8c-.1-.9-.2-1.7-.5-2.5v-.1c-.3-.8-.7-1.5-1.2-2.2a3.04 3.04 0 0 0-.5-.7l-.4-.4c-.5-.4-1-.9-1.5-1.2-.2-.2-.4-.4-.7-.5-.5-.3-1-.5-1.5-.7-.2-.1-.5-.2-.7-.2-1-.2-1.5-.4-2.1-.6zm-6.2 13.5c0 .3-.1.6-.1.9-.1.7-.3 1.3-.6 1.8-.2.2-.3.4-.5.7-.3.5-.6.9-1.1 1.2-.8.5-1.9.9-3.3 1.1v-1.2c0-.1.1-.3.1-.5 0-.3 0-.5-.1-.7v-4-.5-.4-3.6c0-.3.1-.5.1-1s-.1-.7-.1-1v-4.1h.5.1.4c.7.1 1.5.3 2.2.7l.6.6.6.6c.5.7.9 1.6 1.1 2.8.1.4.1.9.1 1.3 0 .3.1.5.1.8v1l-.1 2.7c.1.3 0 .6 0 .8zm104.2 20.1h0v-.1a1.08 1.08 0 0 0-.7-.3h-.4c-.1 0-.2 0-.3.1h-1c-.6 0-1.2 0-1.9-.2-.6-.1-1.2-.3-1.8-.5s-1.1-.5-1.7-.8c-.5-.3-1.1-.6-1.7-.9-.5-.3-1-.7-1.5-1.1l.6-.3c.7-.3 1.3-.7 1.9-1 .3-.1.6-.3.9-.5l1.5-1.2.4-.4c.3-.3.7-.6 1-1 1.3-1.5 2.2-3.2 2.6-4.9v-.2c.1-.6.3-1.3.3-1.9 0-.4-.1-.9-.2-1.3-.1-.3-.1-.6-.2-.9-.1-.4-.2-.9-.4-1.2s-.4-.6-.6-.8c-.8-1.2-2-2.1-3.4-2.8-.5-.2-.9-.5-1.5-.6-.6-.2-1.1-.3-1.7-.3-.4-.1-.9 0-1.3 0h-.4-.4-1.4c-.6.1-1.2.1-1.8.3l-.8.3c-1.4.4-2.8 1-4 1.8h-.1c-.1 0-.1.1-.2.1-.2.1-.3.2-.5.3-.1 0-.1.1-.2.1-.2.1-.4.3-.5.4h-.1l-.3.3c-.3.3-.7.6-.9.9-.1.2-.3.3-.4.5-.7.9-1.3 1.8-1.8 2.8l-.6 1c-.2.5-.3 1-.4 1.6v.1c-.2.5-.4 1-.5 1.6-.1.3-.1.7 0 1-.1.6-.1 1.2-.1 1.8 0 .2-.1.5-.1.7 0 .3 0 .5.1.7 0 .6.1 1.1.2 1.7 0 .3 0 .7.1 1 .1.5.3 1 .5 1.5.3.9.6 1.7 1.1 2.5l.3.8c.2.3.4.6.7.8l1.6 1.8.3.3c.3.3.6.6.9.8.4.3.9.6 1.4.9s1 .5 1.5.8l1.6.6c.5.2 1.1.3 1.6.4l1.6.3c.5.1 1.1 0 1.6 0 .6 0 1.2.1 1.7 0 .4 0 .7-.1 1.1-.2.6-.1 1.3-.2 1.9-.4.2 0 .3-.1.5-.1.6-.2 1.1-.3 1.7-.6l1.5-1s.1 0 .1-.1c1.4-.9 2.6-2.1 3.6-3.6-.1-.4-.2-1-.6-1.4zm-12.8-7.9s-.1.1 0 0c-.2.6-.4 1.1-.7 1.6-.1-.2-.3-.3-.4-.5l-.6-.9c-.2-.3-.5-.6-.7-.9l-.5-.8-.5-1.1c-.2-.5-.5-1-.7-1.5a9.83 9.83 0 0 1-.5-1.6l-.3-1.6c-.1-.6-.2-1.1-.2-1.7 0-.8.1-2.1 1.1-2.1.1 0 .3 0 .5.1.5.2 1 .6 1.6 1.2.2.2.3.5.5.8.4.5.7 1.1 1 1.7 0 .1.1.2.2.4a10.16 10.16 0 0 1 .6 3.4c0 1.3-.1 2.4-.4 3.3v.2zm-17.8-.1c0-.1-.1-.1-.1-.2-.4-.5-.7-1-1.2-1.5-.3-.3-.6-.5-1-.7-.2-.1-.3-.3-.5-.4l-2-1.2-3.6-1.9c-.1-.1-.3-.2-.5-.3s-.5-.2-.7-.3c-.7-.4-1.3-.8-1.6-1.1-.2-.3-.4-.5-.6-.7a2.79 2.79 0 0 1-.5-1.7 1.69 1.69 0 0 1 .3-1l.4-.4c.8-.5 1.8-.3 2.4.3l1.9 1.9a5.07 5.07 0 0 1 .6.7l1.2 1.3 1.3 1.2 1.3 1.2c.6.6 1.6.3 1.8-.5.1-.6.2-.8.2-1.1l1.1-4.4c.1-.5.2-.6.3-1.3.1-.6-.2-1.1-.7-1.3l-1.8-.6c-.2-.1-.4-.1-.5-.1-1.5-.4-3.1-.7-4.7-.8-.2 0-.3 0-.5-.1-.6 0-1.3-.1-1.9-.1s-1.2.1-1.8.1c-.6.1-1.2.1-1.8.2s-1.2.3-1.8.5c-.3.1-.6.2-.9.4-.6.2-1.1.5-1.6.8-.3.1-.6.3-.9.5-.5.4-1 .7-1.4 1.2-.4.4-.8.9-1.2 1.4-.3.4-.5.9-.7 1.4-.1.2-.1.4-.2.5-.2.5-.4 1-.5 1.5-.1.6-.1 1.2-.1 1.8 0 .2 0 .5.1.7 0 .7.1 1.4.3 2 .1.3.1.7.2 1s.3.5.4.8c.3.5.6 1.1 1 1.6.2.3.4.6.6.8s.4.4.7.5l1.6 1.2c.2.2.4.4.7.5.5.3 1 .7 1.6 1l1.8.9.9.4.9.5.9.5c.3.2.5.4.8.6.4.3.6.6.8.8.1.3.2.5.2.9 0 1.7-1.2 2.2-2.3 2.3h-.6c-.6 0-1.3-.3-1.6-.8l-5.5-7.4c-.1-.2-.2-.4-.4-.7-.1-.1-.3-.2-.5-.3s-.3-.1-.5-.1h0v-.1c-.5 0-1 .5-1.1 1l-.4 1.8c-.1.4-.1.7-.1.9l-.4 2.1c0 .1-.1.3-.1.6 0 .2-.1.3-.1.5l-.6 3.1c-.1.4 0 .7.3 1a.55.55 0 0 0 .5.3l1.7.6c.3.1.6.1.9.1.6.1 1.3.3 1.9.3.2.1.4.1.6.1.3 0 .5.1.8.1 1.3.2 2.6.2 3.6.3.3 0 .5.1.8.1.4 0 .9-.1 1.3-.1.3 0 .6 0 .9-.1.4 0 .8 0 1.3-.1.6-.1 1.1-.2 1.7-.4l1.6-.6c.5-.2 1.1-.4 1.6-.7s1-.6 1.4-1c.5-.4.9-.7 1.3-1.2.2-.2.3-.3.4-.5.4-.5.8-1 1.1-1.6.2-.2.3-.5.4-.8.2-.5.3-1.1.4-1.7 0-.1 0-.3.1-.5.1-.4.1-.8.1-1.3 0-1.9-.5-3.6-1.5-5.1zM130 199.3c.2-.2.5-.4.8-.6.2-.1.4-.1.5-.2.2-.1.4-.1.5-.2.3 0 .6-.1 1-.1h.8c.3 0 .5.1 1 .1h1.8c.6 0 .8 0 1.2-.1h4.2c.2 0 .4-.1.6-.3.2-.1.3-.4.3-.6 0-.9.1-.9.1-1.7v-1.7c0-.2-.1-.5-.3-.6-.2-.2-.4-.2-.6-.2h-.8c-.3 0-.5-.1-1-.1-.7 0-.8.1-1.3.1h-.9c-.5 0-.6-.1-1.3-.1-.9 0-.9.1-1.8.1H133c-.7 0-1.3 0-1.9.1a1.69 1.69 0 0 0-1 .3c-.6.1-1.2.3-1.8.5l-1 .3c-.5.2-1 .5-1.4.8-.5.3-.9.7-1.2 1.1-.4.4-.7.9-.9 1.4-.1.2-.2.3-.3.5-.6 1.1-.9 2.4-1 3.7 0 .2-.1.4-.1.7 0 .7 0 1.3.1 1.9s.3 1.3.5 1.8c.2.6.6 1.2.9 1.7.4.5.9.9 1.4 1.3l1.4 1c.2.1.5.2.7.2l1.8.6.8.3c.6.1 1.2.1 1.8.2h1 .8.6 1.1c.6 0 1.1-.1 1.6-.2s.9-.3 1.4-.4c.3-.1.6-.2.8-.2l.9-.3c.1-.1.3-.1.4-.2l1.1-.5a1.78 1.78 0 0 0 1-1.6v-4.5c0-.2.1-.4.1-.7 0-.9-.1-.9-.1-1.7h0v-.1c-.1-.4-.4-.8-.8-.8-.5 0-.7 0-1 .1h-2.6-.3c-.9 0-.9-.1-1.9-.1H134c-.5 0-.9.4-.9.9v1.5c0 .7-.1.7-.1 1.5 0 .3.2.5.4.6.1.1.3.2.5.2h2.1c.1 0 .3.1.3.3s-.1.5-.2.7c-.2.3-.5.4-.9.5-.3 0-.6.1-.9.2h-.9c-.5 0-1 0-1.4-.1-.2 0-.3-.1-.4-.1a4.77 4.77 0 0 1-1.6-.8c-.3-.2-.5-.5-.7-.8-.3-.6-.4-1.3-.4-2.3.2-1.7.5-2.7 1.1-3.3zm24.9 6.5l.6.9c0 .2.1.3.2.5.4.7.5.7.9 1.4.2.4.4.5.5.7l.4.7c.2.3.4.5.6.6.3.2.7.4 1.1.4.9 0 1-.1 1.6-.1h1.1c.6 0 .7.1 1.6.1.3 0 .6-.2.7-.5.2-.3.2-.6 0-.9l-1.1-1.8c-.4-.5-.5-.7-.8-1l-1.4-2.2c0-.1-.1-.2-.1-.2a4.44 4.44 0 0 0 1.1-.8l.4-.4c.2-.2.4-.4.5-.7.2-.3.3-.7.4-1.1 0-.1.1-.3.1-.4v-.2c.1-.4.1-.9.1-1.3 0-.5-.1-1-.2-1.5v-.1c-.1-.6-.3-1.1-.6-1.6s-.7-.9-1.1-1.2a5.3 5.3 0 0 0-1.5-.8c-.5-.2-1-.4-1.6-.5-.3-.1-.6-.1-.9-.1-.7-.1-1.5-.2-2.4-.2h-.9-.7-1-2.5c-.5 0-.7-.1-1.4-.1h-1.7c-.5 0-.9.5-.9.9v.6 3.2c0 .6-.1.7-.1 1.4v1.7c0 .9-.1.9-.1 1.7 0 .5.1.7.1 1v3.9.4.6 1.1c0 .3.2.6.4.7.1.1.3.1.4.1h2.2c.4 0 .7 0 .9-.1h1.3c.3 0 .5-.1.6-.3a.55.55 0 0 0 .3-.5l-.1-2.2v-.3-1.9h3zm-2.6-7.5h1c.1 0 .3.1.4.1h1.4c.9 0 1.5.1 1.8.3l.1.1c.2.2.3.5.3 1s-.2.9-.5 1.1-.9.4-1.9.4h-.6-2.2l.2-3zm75-.7c-.1-.4-.2-.8-.4-1.1s-.4-.5-.6-.6c-.2-.2-.4-.4-.7-.6-.6-.5-1.3-.8-2.2-1.1-.2-.1-.5-.2-.8-.2-.4-.1-.8-.1-1.3-.2h-.3c-.5 0-1-.1-1.6-.1h-.7c-.4 0-.6-.1-1.3-.1-.5 0-.8.1-1.1.1h-2.1-.9c-1 0-1-.1-2-.1-.3 0-.5.2-.7.4-.1.1-.2.3-.2.5v6c0 .3-.1.5-.1 1 0 .6 0 .8.1 1.1v1.4c0 .3-.1.5-.1 1.1v1.7c0 .5.1.7.1 1v2.3.2.2c.1.4.4.6.8.6h2.3.8 1.5a.55.55 0 0 0 .5-.3c.2-.2.3-.4.3-.6v-4h2.2.6c.4 0 .7.1 1 .1.6 0 1.2-.1 1.7-.2l.9-.3a11.64 11.64 0 0 0 1.5-.6c.3-.1.5-.2.7-.3.5-.4.9-.8 1.2-1.3s.6-1.1.7-1.7.1-1.2.1-1.8c0-.3 0-.7-.1-1 .4-.7.3-1.1.2-1.5zm-6.5 3.4c-.3.2-1 .3-1.8.3h-2v-2.9h1.4c.2.1.4.1.6.1h1.2c.2.1.5.1.6.2.2.1.3.3.4.5 0 .2.1.4.1.6v.5c-.2.4-.3.6-.5.7z"/></g><path d="M206.2 274.6c.4 0 .7.4 1.9 1-25 3.9-49.3 1.6-73.5 2.2 4.3-3.4 9.4-3.7 14.3-3.9 13.7-.5 27.4-.8 41-.8 5.4 0 10.8 1 16.3 1.5zm7.4 1.2H230c-6.2-3.7-13-3.6-16.4 0zm-98.1 1.1c4.4 1.4 8 2.6 12 0-4.1-2.8-7.6-1.3-12 0zm29.1-130c1.3-3.9 2-8.2 7.7-9.4-4.5-2.1-7.1-5.2-8-9.8-.6 4.5-2.7 7.7-7.7 9.1 4.9 1.9 6.8 5.6 8 10.1zm87.1 57.1c-.2.1-.3.1-.5.2-.7 1.9-1.4 3.8-2.2 5.7-.8 2-2.5 3.1-5.3 3.5 4.2 2.5 6.1 6 7 10.2 1.5-3.6 1.8-7.9 7-9.2-4.3-2.4-6-6-6-10.4zm-1.5-81.1l-5.3-8.4c-.6 3.2-2 5.9-4.5 7.4 1.6 2.4 3.1 4.6 4.7 6.8 1.2-2.3 2.3-4.9 5.1-5.8zm-119.9 92.4c3.2 2.6 3.2 2.6 5 7.6.8-2.7 1.6-5.5 5.6-6.9-4-1.8-5.6-4.3-5.5-7.9-1.4 2.8-1.3 6.1-5.1 7.2zm110-61.7c.1.8 1.1 1.4 2.1 2.6 1-1.3 2-2 2.1-2.8.2-1.2-.9-1.9-2.2-1.9-1.4 0-2.2 1-2 2.1zm-105.2-21.3c.7.5 1.4 1.4 2.2 1.5 1.3.2 2-.6 2-1.8s-.8-1.8-2.1-1.9c-1.1 0-1.7.7-2.1 2.2zm88.8-1.7c.3 1.1 1.2 1.6 2.5 1.3 1.2-.3 1.7-1 1.6-2.6-.8-.3-1.7-1-2.5-.9-1.3.1-1.8 1.1-1.6 2.2zm17.8 96.1c.8-.1 1.5-.8 2.3-1.2v-.8c-.7-.6-1.4-1.5-2.2-1.6-1.2-.2-1.8.7-1.8 1.8s.4 2 1.7 1.8zm-104.2-33.3c1.1.2 2-.4 1.8-1.5-.1-.7-.9-1.2-1.4-1.9-.3 0-.6 0-.8.1-.4.6-1.2 1.2-1.1 1.8.1.5.9 1.3 1.5 1.5zm46 35.3h.8c.4-.6 1.3-1.2 1.2-1.7-.1-.6-.9-1.4-1.5-1.6-1-.3-2 .3-1.8 1.4.1.6.9 1.2 1.3 1.9zm44.3 2.5c-.1-.6-.7-1.4-1.3-1.5-.5-.1-1.2.7-2.3 1.3 1 .7 1.6 1.4 2.2 1.5.5 0 1.4-.9 1.4-1.3zm-79.3-121.6c-.5.2-1.2.7-1.3 1.2-.1.3.6.8 1.2 1.6.6-.8 1.2-1.3 1.2-1.7s-.9-1.2-1.1-1.1zm-3.3 28.6c-.5.2-.9.6-1.6 1.1l1.5 1.1c.4-.5.8-.9 1-1.5 0-.1-.7-.8-.9-.7zm107.2 5.6c0 .3.6.9.9.8.4 0 .8-.5 1.4-1-.7-.4-1.1-.9-1.4-.8s-.8.6-.9 1zm6.5 90.1c0-.3-.6-.9-.9-.9-.4 0-.8.5-1.4 1 .7.5 1.1.8 1.5 1 .3-.4.8-.7.8-1.1zM126.6 227c.7.5 1.1.8 1.5 1 .3-.4.8-.8.9-1.2 0-.3-.6-.9-.9-.9-.5.1-.9.6-1.5 1.1zM218 108.1c0-.3-.6-.9-.9-.9-.4 0-.8.5-1.4 1 .7.5 1.1.8 1.5 1 .2-.3.7-.7.8-1.1zm-76.8 110.2c-.5.2-.9.6-1.6 1.1l1.5 1.1c.4-.5.8-.9 1-1.5 0-.1-.7-.8-.9-.7zm106.3-13.5c-1.8 0-3.2 1.4-3.2 3.2v30c0 .7-.6 1.2-1.2 1.2H107c-.7 0-1.2-.6-1.2-1.2v-30c0-1.8-1.4-3.2-3.2-3.2s-3.2 1.4-3.2 3.2v34.4c0 1.8 1.4 3.2 3.2 3.2h144.9c1.8 0 3.2-1.4 3.2-3.2V208c0-1.7-1.4-3.2-3.2-3.2zm0 52.5H102.6c-1.8 0-3.2 1.4-3.2 3.2h0c0 1.8 1.4 3.2 3.2 3.2h144.9c1.8 0 3.2-1.4 3.2-3.2h0c0-1.8-1.4-3.2-3.2-3.2zM222 97.6h21c.7 0 1.2.6 1.2 1.2v35.3c0 1.8 1.4 3.2 3.2 3.2s3.2-1.4 3.2-3.2V94.4c0-1.8-1.4-3.2-3.2-3.2H222c-1.8 0-3.2 1.4-3.2 3.2s1.4 3.2 3.2 3.2zm-119.4 37.8c1.8 0 3.2-1.4 3.2-3.2V98.8c0-.7.6-1.2 1.2-1.2h21c1.8 0 3.2-1.4 3.2-3.2s-1.4-3.2-3.2-3.2h-25.5c-1.8 0-3.2 1.4-3.2 3.2v37.8c.1 1.8 1.5 3.2 3.3 3.2z" fill="#738962"/><g fill="#596b4c"><path d="M125.2 138.3c-.5.2-.9.6-1.6 1.1l1.5 1.1c.4-.5.8-.9 1-1.5 0-.1-.7-.8-.9-.7zm4.4-27.6c0-.4-.9-1.1-1.1-1-.5.2-1.2.7-1.3 1.2-.1.3.6.8 1.2 1.6.6-.8 1.2-1.3 1.2-1.8zM238 233.1c-.4 0-.8.5-1.4 1l1.5 1c.3-.4.8-.8.9-1.2-.1-.2-.7-.8-1-.8zM220.4 122l4.7 6.8c1.2-2.3 2.3-5 5.1-5.9l-5.3-8.4c-.6 3.3-2 6-4.5 7.5zm11.3 82.1c-.2.1-.3.1-.5.2L229 210c-.8 2-2.5 3.1-5.3 3.5 4.2 2.5 6.1 6 7 10.2 1.5-3.6 1.8-7.9 7-9.2-4.3-2.4-6-6-6-10.4zm-7.6 20.6c-.7-.6-1.4-1.5-2.2-1.6-1.2-.2-1.8.7-1.8 1.8s.3 2 1.7 1.8c.8-.1 1.5-.8 2.3-1.2-.1-.2-.1-.5 0-.8zm-113.8-9.3c3.2 2.6 3.2 2.6 5 7.6.8-2.7 1.6-5.5 5.6-6.9-4-1.8-5.6-4.3-5.5-7.9-1.4 2.8-1.3 6.1-5.1 7.2z"/><path d="M132.1 239.3h-1.8-1.8c-.9 0-.9.1-1.8.1h-.9-3.7-.8-1.8-1.8-.7-4-.7-.8-2.1-.6-1.8c-.3 0-.6-.1-.9-.3-.2-.2-.4-.5-.4-.9v-2.6c.1-.3.1-.5.1-1v-1.8-1.8-1.8c0-.6-.1-.8-.1-1.2v-1.4-1c0-.9.1-.9.1-1.8 0-.5-.1-.7-.1-.9v-5c0-.4.1-.6.1-1.3 0-.4 0-.7-.1-.9v-2.5-.2-.2-3.8-1.5-.7-3.9-.8-1.8c0-.5 0-.8-.1-1v-.8c0-.4-.1-.9-.3-1.2-.2.2-.3.4-.5.4-.3 0-.6-.3-1.1-.5.5-.4.8-.7 1.1-.7h.1c-.1-.2-.3-.3-.5-.5l-.1-.1s-.1 0-.1-.1l-.1-.1h-.1c-.4-.2-.8-.3-1.3-.4-.1.1-.2.1-.2.2l-.2-.2c-.8.1-1.6.4-2.1 1l-.1.1h.1c.3 0 .6.4 1.1.8-.6.3-.9.7-1.3.7-.2 0-.3-.2-.5-.5-.1.4-.2.8-.2 1.2v1.8 1.8 1.8 1.8c0 .4 0 .6.1.9v5.3c-.1.2-.1.4-.1.9 0 .4 0 .6.1.9v5.4.8 1.8 1.8.6 2.1c0 .2-.1.4-.1.9 0 .6.1.8.1 1.2v1.3 1 1.8 1.8 1.8c0 .9.1.9.1 1.8s-.1.9-.1 1.8v1.8 1.8c0 .3.1.5.1.7.1.4.3.9.6 1.2.1-.1.3-.3.4-.2.2 0 .4.3.6.4-.1.1-.2.3-.4.4.1.1.2.2.3.2.1.1.3.1.4.2.4.2.8.2 1.2.2h3.1.5.6 5.6c.2.1.5.1.9.1h1.8c.9 0 .9-.1 1.8-.1h1.8 1.8c.7 0 .8 0 1.3-.1h.9c.5 0 .6.1 1.4.1h1.8c.4 0 .6 0 .8-.1h3.6.9 1.8 1.8 1.8 1.8.9 3.8c-.4-.5-.8-.9-.7-1 .1-.3.5-.6.9-.8.1 0 .6.4.6.6-.1.4-.4.7-.7 1.2h1.5c.2 0 .5.1 1 .1s.7-.1 1-.1h1.5c.3 0 .5.1 1 .1.4 0 .7-.1.9-.1h7.3c-.3-.6-.6-.9-.6-1.2 0-.2.5-.7.7-.6.3 0 .7.4.7.7s-.3.6-.7 1.1h.2.6.6 7.4c.2 0 .5.1.9.1.5 0 .7 0 .9-.1h5.2c.3 0 .5.1 1.1.1.9 0 .9-.1 1.8-.1h1.8 1.8 1.8c.9 0 .9.1 1.8.1.6 0 .8-.1 1.1-.1h1.7.7c.9 0 .9.1 1.8.1h1.8c.7 0 .8-.1 1.3-.1h5.1.8c.9 0 .9.1 1.8.1.7 0 .8-.1 1.3-.1h1.2 1.1 1 1.5c.3 0 .5.1 1.1.1h1.8 1.8 1.8 1.8c.7 0 .9 0 1.4-.1h10c.3 0 .5.1 1.1.1.5 0 .7 0 .9-.1h5.4c.2 0 .4.1.9.1.7 0 .8-.1 1.2-.1h4.6c.5 0 .6.1 1.3.1.9 0 .9-.1 1.8-.1h.9 1.4c.4 0 .6.1 1.3.1.5 0 .7 0 1-.1h.8a3.24 3.24 0 0 0 3.1-2.3c.1-.2.2-.5.2-.7-.2.1-.3.2-.4.2-.3-.1-.6-.5-.6-.7 0-.3.4-.6.6-.8l.4.4v-.4-3.2-.3c-.1.1-.3.3-.4.3s-.4-.3-.8-.6c.4-.3.7-.6 1-.6.1 0 .2.1.3.2v-1.7-1.8-.6c-.1.1-.2.3-.3.5-.3-.5-.7-.8-.6-1 .1-.3.4-.5.6-.8l.3.3V231c0-.2.1-.4.1-.8 0-.5 0-.7-.1-1v-.8c-.1.1-.3.1-.4.1-.2 0-.5-.4-.5-.7 0-.1.4-.5.6-.5.1 0 .2.1.4.1 0-.2.1-.4.1-.9 0-.9-.1-.9-.1-1.8v-.6-.7l-.3.3c-.2-.2-.5-.4-.8-.8.4-.3.6-.6.9-.6.1 0 .2.1.2.1v-.5-.8-1-1.1c-.1.1-.2.1-.3.1-.3 0-.5-.3-1-.6.4-.4.6-.7.9-.9l.4.4v-.1c0-.4 0-.7-.1-.9v-2-.6-.2c-.1.1-.2.2-.3.2-.2 0-.5-.2-1-.5.5-.4.7-.7.9-.7a.76.76 0 0 1 .4.2v-.8-1.8c0-.4 0-.6-.1-.8v-.6l-.3.3c-.2-.3-.5-.5-.6-.8 0-.1.4-.6.6-.6.1 0 .2 0 .3.1v-2-.9-.9h0c-.1.1-.2.2-.3.2-.2.1-.5-.2-1-.5.5-.4.7-.7.9-.7.1 0 .2.1.4.2v-3.7c-.1.1-.1.2-.2.4-.3-.5-.7-.8-.7-1.1s.4-.5.7-.7c.1.1.2.2.2.3v-.5c0-.6-.2-1.2-.5-1.6-.2-.3-.4-.5-.6-.7-.6-.5-1.4-.9-2.2-.9-.3 0-.7.1-1 .1-.2 0-.5.1-.7.2-.5.3-.9.7-1.2 1.2-.1.2-.2.3-.2.5-.1.3-.2.7-.2 1.1v1.2.6c0 .9-.1.9-.1 1.8 0 .5.1.7.1.9v1.9c0 .2-.1.4-.1.8 0 .5 0 .7.1.9v3.5c0 .3-.1.5-.1 1 0 .7 0 .9.1 1.3v4.9c0 .2-.1.5-.1.9v1.8 1.2 8.6c-.1.3-.1.5-.1 1v1.8c0 .4 0 .6.1.8v2c0 .2-.1.4-.1.8s0 .6.1.8v1c0 .7-.6 1.2-1.2 1.2h-4.5c.2.1.5.4.5.6s-.3.4-.7.9c-.2-.5-.5-.8-.4-1.1 0-.2.3-.4.5-.5h-4.2c.1.1.2.2.1.2-.1.3-.4.7-.7.8-.2.1-.5-.3-1-.7.2-.1.4-.3.5-.4h-.4-.7-.9-1.8-.9-.9-1.6c-.3 0-.5-.1-1.1-.1h-1.8-1.8c-.5 0-.8 0-1 .1h-3.9-.4c-.9 0-.9-.1-1.8-.1h-1.8c-.5 0-.8 0-1.1.1h-1.3c.1.1.1.2.1.2 0 .2-.2.4-.4.9-.2-.5-.5-.7-.4-.9 0-.1.1-.2.1-.2h-1.5c-.2 0-.4-.1-.9-.1s-.7 0-.9.1h-.9c.2.2.3.3.4.6.1.1-.3.5-.7.9-.3-.4-.6-.7-.6-.9s.2-.4.3-.6h-2c-.3 0-.5-.1-1-.1-.4 0-.7 0-.9.1h-.1c.1.2.1.3.1.4a1.41 1.41 0 0 1-.6.7c-.1 0-.6-.3-.6-.5s.2-.4.3-.6h-1.2-.7-1-1.1c.2.2.4.4.4.6.1.6-.4.7-.8.6a1.41 1.41 0 0 1-.7-.6c0-.1.2-.3.4-.5H190h-.6-.6-2.1c-.2 0-.5-.1-1-.1-.7 0-.9.1-1.4.1h-.8c-.5 0-.7-.1-1.4-.1-.5 0-.7.1-1 .1H178c-.5 0-.6-.1-1.3-.1-.5 0-.7.1-1 .1H174c-.2 0-.5-.1-.9-.1h-1.4c.2.3.4.5.4.6 0 .2-.4.6-.6.6s-.5-.3-.6-.6c0-.1.2-.3.4-.6h-1.8-1.8-.8c.2.2.5.4.5.7 0 .2-.3.4-.6.8-.2-.4-.5-.7-.5-.9s.3-.4.5-.6h-.4-1.2-1.1-1.4-4.7-.9-1.8-.7-1.1c.1.1.2.2.2.3-.1.4-.5.7-.7 1h-.4c-.1-.3-.4-.6-.3-.8s.2-.3.4-.5H149h-.6c.2.2.3.3.3.5s-.4.5-.9 1c-.3-.5-.6-.8-.6-1 .1-.2.2-.3.3-.5h-.1-2c-.2 0-.5-.1-.9-.1-.7 0-.8 0-1.3.1h-1-1.2-1.8-1.8c-.5 0-.7 0-.9.1h-1.7c-.3 0-.5-.1-1-.1-.8.4-.8.4-1.7.4zM102.8 199c.2 0 .4.1.9.2-.4.3-.6.5-.8.6-.1 0-.3-.2-.5-.4 0-.1.2-.3.4-.4zm-2.5 2c.2.3.5.6.6.9 0 .2-.3.4-.6.8-.3-.4-.7-.7-.6-1 0-.2.4-.5.6-.7zm0 20.1c-.1 0-.3-.2-.3-.4 0-.1.2-.4.3-.4.2 0 .3.2.6.3-.3.3-.5.5-.6.5zm.6 4.6c.1.2-.3.5-.5.9-.4-.6-.6-.8-.7-1.1 0-.1.4-.4.6-.4.2.1.6.4.6.6zm-.7-10.2c.2 0 .5.2.5.3 0 .2-.2.4-.4.8-.3-.3-.5-.5-.5-.7 0-.1.3-.4.4-.4zm-.2-4.3c0-.1.3-.3.4-.3s.3.2.3.3-.2.3-.3.5c-.2-.2-.3-.3-.4-.5zm.4 23.2c.1.2.4.4.4.6s-.3.4-.5.8c-.3-.3-.6-.6-.6-.7.2-.3.4-.5.7-.7zm0 6.3c-.2-.3-.4-.6-.4-.7.1-.2.3-.4.5-.6.2.2.5.4.5.6s-.3.4-.6.7zm-.1-9.5c-.2-.5-.4-.7-.4-.9s.4-.5.5-.5c.3.1.7.4.6.5 0 .3-.3.5-.7.9zm.3-24.1a.9.9 0 0 1-.6-.6c0-.1.3-.6.4-.6.3.1.6.3 1.1.7-.5.3-.7.6-.9.5zm2.3 15.7c.2 0 .6.3.5.4 0 .3-.3.5-.5.9-.3-.4-.5-.6-.5-.9-.1-.1.3-.4.5-.4zm-.6-9.1c0-.2.3-.3.4-.5.1.2.3.4.4.6 0 .2-.2.4-.4.8-.2-.4-.4-.7-.4-.9zm.6-4c-.3-.4-.6-.6-.6-.8s.3-.4.4-.6c.2.2.5.4.6.7.1.1-.2.3-.4.7zm-.2 17.8c.1 0 .3.3.6.5-.3.2-.5.4-.7.5-.2-.2-.4-.4-.4-.6-.1-.1.3-.4.5-.4zm0 4.9c.2.2.4.3.4.5 0 .1-.2.3-.4.6-.2-.3-.4-.5-.4-.6 0-.2.2-.4.4-.5zm.2 6.1c-.3-.5-.6-.7-.6-1 0-.2.4-.5.6-.4.2 0 .5.3.5.6 0 .1-.2.4-.5.8zm-.1-33.7c-.3 0-.5-.4-.7-.6.3-.2.5-.6.8-.7.1-.1.4.3.9.7-.5.3-.8.6-1 .6zm2.6 16.6c-.2-.3-.3-.5-.4-.7l.3-.2a.78.78 0 0 1 .4.4c.1.1-.1.2-.3.5zm.3 4.2c0 .2-.3.6-.4.6-.3-.1-.5-.3-1-.6.4-.2.7-.4.9-.4s.5.2.5.4zm-1-14.5c.1-.1.3-.2.3-.2a.78.78 0 0 1 .4.4s-.2.2-.3.4c-.2-.2-.3-.4-.4-.6zm.4-4c-.2 0-.4-.3-.8-.5.3-.3.6-.6.7-.6.3.1.5.4.7.6-.2.2-.4.5-.6.5zm-.2-5.8c.3.1.5.4.7.6-.2.2-.5.6-.6.5-.3-.1-.6-.4-1-.7.4-.2.7-.4.9-.4zm.2 44.2c-.4-.3-.6-.6-.8-.8.2-.3.5-.5.7-.8.2.2.6.5.7.8 0 .2-.4.4-.6.8zm0-4.8c-.3-.4-.5-.7-.5-.9.1-.2.4-.4.6-.5.1 0 .4.4.4.5.1.3-.2.5-.5.9zm-.1-4.9c-.3-.4-.6-.6-.6-.8.1-.3.4-.4.6-.6.2.3.5.5.7.8-.1.1-.3.3-.7.6zm2.7 7c-.2-.1-.4-.3-.9-.8.4-.1.6-.3.7-.3.2.1.4.4.5.7.1.1-.3.4-.3.4zm2 2.8c-.2-.5-.5-.8-.5-1s.5-.6.7-.6c.3.1.5.5.8.8-.3.2-.5.5-1 .8zm5-.5c-.2 0-.3-.2-.5-.3.1-.2.2-.4.4-.5.1 0 .3.2.5.3.1.1.1.2.2.3-.2.1-.4.2-.6.2zm-.1-4.6c-.2 0-.5-.3-.9-.5.4-.3.6-.6.8-.6.3 0 .5.4.7.6-.1.1-.3.4-.6.5zm2.4 2.3c-.2 0-.4-.2-.8-.4.4-.3.6-.7.8-.6.2 0 .4.4.6.6-.2.1-.3.4-.6.4zm2.2-3.5c.2.2.6.4.7.6.1.1-.3.4-.6.8-.2-.4-.5-.6-.5-.8s.3-.4.4-.6zm.3 6.2h-.3c-.2-.3-.4-.7-.4-1 0-.2.4-.5.6-.7.2.3.6.5.6.8s-.3.6-.5.9zm2.1-2.2c-.3-.5-.6-.9-.5-1.1.1-.3.4-.5.6-.8.3.3.6.6.7.9.1.2-.4.5-.8 1zm2.6 1.8c-.1 0-.3-.2-.6-.4.3-.2.5-.4.7-.4.1 0 .4.3.4.3l-.5.5zm4.7-4.7c-.2 0-.5-.4-.5-.6s.4-.5.6-.5.4.3.9.6c-.5.3-.8.6-1 .5zm118.5-.4c.1-.3.4-.5.6-.6.1 0 .6.3.6.5 0 .3-.3.5-.6.9-.3-.4-.7-.7-.6-.8zm-.1-24.1c0-.2.4-.5.6-.7.2.3.6.5.7.9 0 .2-.3.5-.5.8h-.4c-.1-.4-.4-.7-.4-1zm.8 18.6c.2.2.5.3.5.6 0 .1-.3.4-.4.6-.2.1-.3.2-.5.3-.1-.3-.3-.6-.2-.8.1-.3.4-.5.6-.7zm-.5-4.2c0-.2.4-.4.6-.5.1 0 .4.3.4.5s-.3.4-.5.7c-.3-.3-.6-.5-.5-.7zm.3 14.8c-.1 0-.4-.3-.4-.4.2-.3.3-.5.6-.7.1-.1.4.1.8.3l-1 .8zm.2-18.9c-.3-.1-.6-.5-.6-.7s.3-.5.5-.7c.3.2.5.5 1 .9-.4.3-.8.6-.9.5zm-.1-4.8c-.2 0-.4-.3-.6-.5.2-.2.3-.4.5-.4s.4.2.9.4c-.4.3-.6.5-.8.5zm0-9.7c-.2 0-.4-.2-.6-.4.2-.2.3-.5.5-.6.1-.1.4.3.8.5-.3.3-.5.5-.7.5zm0-15.3c.2 0 .4.4.6.6-.2.2-.4.5-.7.5-.2 0-.4-.3-.7-.6.3-.2.6-.5.8-.5zm.7 5.4c-.2.2-.4.5-.6.6-.2 0-.4-.3-.8-.6.4-.3.6-.5.8-.5s.3.3.6.5zm-1.3 4.6c.2-.2.4-.5.5-.5.2.1.4.4.6.6-.2.2-.4.5-.6.6s-.5-.2-.8-.2c.1-.2.2-.3.3-.5zm-1.7 36.4c-.3-.1-.5-.4-.7-.6.2-.2.5-.6.6-.5.3.1.6.4 1 .7-.5.2-.7.5-.9.4zm.1-10.4c.2 0 .4.3.6.4-.2.2-.3.4-.6.6-.2-.3-.4-.5-.6-.7.2-.1.4-.3.6-.3zm-.7-9.1c.1-.3.4-.5.6-.7.2.2.6.4.6.6 0 .3-.3.5-.6.9-.3-.3-.6-.6-.6-.8zm1.5-14.4c-.4.3-.6.7-.8.7-.3-.1-.6-.4-.9-.6.2-.2.4-.6.7-.7.3 0 .5.3 1 .6zm-.3 4.8c-.2.2-.4.5-.7.6-.1 0-.4-.3-.7-.6.4-.2.6-.5.8-.5.3 0 .4.3.6.5zm-.3-15.2c.1.3.3.6.3.9 0 .2-.4.5-.5.4-.3-.1-.5-.4-.7-.5a12.25 12.25 0 0 1 .9-.8zm-.2 4.7c.3.4.6.7.5.9-.1.3-.4.7-.6.7-.3 0-.6-.4-.8-.6.2-.3.5-.5.9-1zm-.1 14.7c.1 0 .6.4.6.6s-.4.5-.7.9l-.8-.8c.3-.3.6-.6.9-.7zm-.1 19.1c.2 0 .5.3.7.4-.2.2-.4.4-.6.5-.3 0-.5-.2-1.1-.3.6-.3.8-.6 1-.6zm-2.5 7.1c.2.2.5.4.6.6 0 .2-.3.5-.5.9-.3-.4-.6-.6-.6-.8 0-.3.3-.5.5-.7zm-2.5-2.4c.3.2.5.5.8.7-.2.2-.4.5-.6.5s-.5-.3-.9-.6c.4-.4.7-.7.7-.6zm-2.2 2.1c.2.3.6.5.6.8.1.2-.3.5-.6 1-.3-.5-.6-.8-.6-1 .1-.3.4-.6.6-.8zm-2.1-2.1c.1 0 .4.3.8.6-.4.3-.7.6-.9.6s-.4-.3-.6-.5c.2-.3.4-.6.7-.7zm-2.6 2.2c.2.2.6.5.7.8 0 .1-.4.4-.7.7-.4-.3-.6-.5-.8-.7.3-.2.5-.5.8-.8zm-2.5-2.3a1.21 1.21 0 0 1 .7.7c0 .1-.4.4-.8.9-.3-.4-.6-.7-.5-.9.1-.3.5-.7.6-.7zm-2.8-1.6c.1-.3.4-.5.6-.6.1 0 .5.3.5.5 0 .3-.2.5-.5 1-.4-.5-.7-.8-.6-.9zm.5 4c.2 0 .5.4.5.7 0 .2-.3.6-.5.6s-.5-.3-.9-.6c.4-.4.7-.7.9-.7zm-2.2-2.3c.1 0 .4.3.7.6-.4.3-.6.6-.8.5-.2 0-.4-.4-.6-.5.2-.2.5-.5.7-.6zm-2.5 3.7c-.3-.3-.6-.6-.5-.7.1-.3.4-.5.6-.7.2.2.5.4.5.7 0 .2-.3.4-.6.7zm0-6.1c.2 0 .6.3.6.5s-.3.5-.6.9c-.3-.4-.7-.7-.6-.8 0-.2.4-.5.6-.6zm-2.3 2.3c.2 0 .6.3.6.6 0 .2-.3.5-.5.9l-.9-.9c.2-.2.5-.5.8-.6zm-2.6 2.4c.3 0 .6.4 1.2.7-.5.3-.8.6-1 .5-.3-.1-.5-.4-.8-.6.2-.1.5-.6.6-.6zm-2.9-1.8c0-.2.5-.6.6-.6.3.1.5.4.8.6-.2.3-.5.5-.9 1-.2-.5-.5-.8-.5-1zm-1.5 2.9c-.3-.1-.5-.3-.6-.5 0-.1.3-.6.4-.5.3.1.5.3.8.6-.3.1-.5.4-.6.4zm-.2-5.8c.3 0 .5.3.9.5-.4.3-.7.6-.8.6-.3-.2-.5-.5-.8-.7.3-.1.5-.4.7-.4zm-2.2 2.4c.1 0 .4.3.8.7-.4.3-.7.5-.9.5s-.4-.3-.6-.5c.2-.3.4-.6.7-.7zm-2.5 2.4c.2 0 .5.3.6.6 0 .2-.3.4-.6.8-.3-.3-.5-.6-.7-.8.2-.2.4-.5.7-.6zm-2.4-2.5c.2 0 .6.4.7.6 0 .2-.4.5-.7.9-.4-.4-.8-.8-.7-.9a1.41 1.41 0 0 1 .7-.6zm-2.5 2.4c.2.2.5.4.5.6 0 .3-.2.5-.5 1-.3-.4-.7-.7-.6-.8.1-.3.4-.6.6-.8zm-2.3-2.3c.2.1.6.4.6.6s-.3.6-.6.7c-.2 0-.5-.4-.9-.7.4-.4.7-.7.9-.6zm-2.9 3c.1-.3.4-.5.6-.7.2.2.5.4.5.7 0 .2-.3.4-.6.7-.3-.3-.6-.6-.5-.7zm-2.7-2.3c.1-.3.5-.6.8-.9.2.2.6.5.6.7 0 .3-.3.7-.7 1.3-.3-.5-.7-.9-.7-1.1zm-1.5 1.5c.2 0 .7.4.6.5-.1.4-.4.8-.7.9-.2.1-.6-.3-1.2-.7.7-.2 1-.6 1.3-.7zm-2.6-2.2c.2 0 .4.3.6.5-.2.2-.3.5-.6.5-.2.1-.4-.2-.6-.3-.1-.2-.2-.3-.3-.5.3 0 .6-.2.9-.2zm-2.1-2.3c.2 0 .4.3.8.6-.3.3-.6.6-.7.5-.2-.1-.5-.4-.5-.6-.1-.2.2-.6.4-.5zm-.2 4.6c.2 0 .6.4.6.6 0 .3-.4.5-.6.8-.2-.2-.5-.4-.8-.8.4-.3.6-.6.8-.6zm-2.4-2.7c.3.3.6.6.7.9.1.2-.3.5-.6 1-.4-.5-.8-.8-.8-1.1 0-.2.4-.5.7-.8zm-2.3-1.9c.1.2.4.4.4.6s-.3.4-.5.5c-.1 0-.3-.3-.6-.5.3-.3.5-.5.7-.6zm-.8 5.3a2.36 2.36 0 0 1 .9-.8c.1 0 .7.5.6.6-.2.4-.5.7-.9 1.2-.3-.5-.7-.8-.6-1zm-1.7-3c.3 0 .6.4 1.2.7-.5.4-.9.8-1 .7-.3-.1-.6-.5-.8-.8-.1-.1.4-.7.6-.6zm-1.4 3c-.5.2-.7.5-1 .5-.1 0-.5-.4-.4-.5.1-.3.4-.6.6-.6.1 0 .4.3.8.6zm-.9-5.4c.3 0 .5.3.8.5-.2.3-.4.5-.8 1-.3-.5-.6-.7-.6-.9s.4-.6.6-.6zm-2.5 2c.2.3.6.6.7 1 0 .2-.4.5-.6.7l-.9-.9c.4-.3.6-.6.8-.8zm-2.3 4.3c-.4-.4-.8-.8-.8-.9.1-.3.5-.6.8-.7.2 0 .6.4.6.7.1.2-.3.5-.6.9zm-.9-5.9c.3-.1.6-.4.8-.3.2 0 .6.4.6.5 0 .3-.3.8-.5.8-.2.1-.6-.3-.9-.4v-.6zm-1.5 2c.1 0 .4.3.7.6-.4.3-.6.5-.8.5s-.4-.3-.6-.5c.2-.2.4-.5.7-.6zm-2.4 2.3c.2.2.5.4.6.7 0 .2-.3.4-.5.7-.3-.3-.6-.6-.6-.7 0-.2.3-.5.5-.7zm-2.2-2.6c.3.4.6.7.6.8-.1.3-.4.5-.7.6-.1 0-.6-.4-.5-.5 0-.3.3-.5.6-.9zm-2.5 3a3.61 3.61 0 0 0 .5.4c-.3.2-.5.4-.7.4-.1 0-.2-.1-.3-.2.2-.3.3-.5.5-.6zm-2.4-2.7c.2.3.5.5.7.8 0 .1-.3.3-.7.6-.2-.4-.5-.6-.5-.8.1-.2.4-.4.5-.6zm-2.4 2.3c.2 0 .5.4.7.6-.2.2-.4.5-.7.8-.3-.3-.7-.6-.6-.7 0-.3.4-.7.6-.7zm-2.5-2.3c.4.1.7.4 1.3.7-.5.4-.8.8-1 .7-.3-.1-.6-.5-.8-.8-.1-.1.4-.7.5-.6zm-2-2.3c.2 0 .5.4.5.5-.1.2-.3.5-.6.6-.2 0-.4-.3-.8-.6.4-.3.7-.6.9-.5zm-2.6 2c.3.2.6.5 1 .8-.4.3-.7.7-1 .7-.2 0-.6-.4-.6-.7 0-.2.4-.5.6-.8zm-2.4 2.6c.2.2.5.4.5.6 0 .1-.2.4-.5.7-.3-.3-.5-.5-.5-.7.1-.2.4-.4.5-.6zm-2.3-2.3c.2.2.5.4.6.7 0 .1-.3.4-.6.8-.3-.4-.6-.6-.5-.8 0-.3.3-.5.5-.7zm-2.7 2.3c.3.1.5.4.7.7-.2.2-.4.5-.6.5s-.5-.3-.9-.6c.4-.3.7-.7.8-.6zm-2.2-2.4c.3 0 .6.3 1.2.6-.5.4-.7.7-1 .9-.3-.3-.6-.6-.7-.9-.1-.1.3-.6.5-.6zm-2.2-2.2c.2.2.4.4.4.5 0 .2-.2.4-.5.7-.2-.4-.3-.6-.3-.8 0-.1.2-.3.4-.4zm-2.6 2.2c.2.2.5.5.7.8 0 .1-.3.4-.6.8-.3-.4-.5-.7-.5-.9s.3-.5.4-.7zm-2.2-2.3c.2 0 .6.3.6.5s-.3.5-.6 1l-.8-1c.3-.1.6-.4.8-.5zm-.2 4.7c.2.2.5.4.5.6s-.3.4-.5.8c-.3-.3-.6-.6-.6-.7.1-.3.4-.5.6-.7zm-2.2-2c.1 0 .3.1.6.3-.3.2-.5.3-.7.3-.1 0-.2-.2-.3-.3.1-.1.2-.3.4-.3zm-2.3 3.3c-.2-.2-.4-.4-.4-.5a.76.76 0 0 1 .2-.4c.2.2.4.3.5.5 0-.1-.1.2-.3.4zm0-5.1c-.1 0-.4-.2-.4-.4 0-.1.2-.4.3-.4.2 0 .3.2.6.4-.2.2-.4.4-.5.4zm12.2 45.3l-.3.6c-.3-.4-.5-.6-.6-.9-1.5-.2-3 .4-4.5 2.4-.2.2 0 .6.3.6h2.3c-.2-.3-.4-.5-.4-.6.1-.2.4-.4.6-.6.2.2.5.4.5.7 0 .1-.2.3-.4.6h3.2c.3-1.1.3-1 .7-2.1l-1.4-.7zm-28.9-95.3c-.4.6-1.2 1.2-1.1 1.8s.9 1.4 1.6 1.5c1.1.2 2-.4 1.8-1.5-.1-.7-.9-1.2-1.4-1.9-.3 0-.6 0-.9.1zm10.9 37.9c.3-.4.8-.8.9-1.2 0-.3-.6-.9-.9-.9-.4 0-.8.5-1.4 1l1.4 1.1zm92.3-74.4c.1.8 1.1 1.4 2.1 2.6 1-1.3 2-2 2.1-2.8.2-1.2-.9-1.9-2.2-1.9-1.4 0-2.2.9-2 2.1zm-105.2-21.3c.7.5 1.4 1.4 2.2 1.5 1.3.2 2-.6 2-1.8s-.8-1.8-2.1-1.9c-1.1 0-1.7.7-2.1 2.2zm69 153.2c-.2.1-.3.2-.5.2s-.4-.2-.5-.4c-1.1-.3-2.4-.5-3.9-.6.1.1.2.2.2.3s-.3.4-.6.7c-.2-.4-.5-.6-.5-.8 0-.1.1-.2.2-.2-2.8-.2-5.9-.2-9-.1.2.2.5.3.6.5 0 .2-.3.5-.6.9-.2-.4-.4-.6-.4-.8s.2-.4.3-.6l-4.5.4c0 .1-.2.4-.4.4-.1 0-.3-.1-.5-.3l-4 .7-.2.2c-.1-.1-.1-.1-.1-.2-2.3.5-4.2 1.2-5.1 1.9.4.3.7.7 1.1.7l26.8-.2c1.1 0 2.2-1.1 3.6-1.9l-2-.8zm-26.8 2.9c-.3-.5-.5-.8-.5-1s.4-.5.6-.5c.2.1.6.4.6.6.1.2-.3.4-.7.9zm5-.4c-.2 0-.5-.3-1-.6.5-.3.8-.6 1-.6s.5.3.7.5c-.2.3-.4.7-.7.7zm9.3 0c-.1 0-.6-.4-.6-.6 0-.3.4-.5.7-.9l.8.8c-.3.3-.5.6-.9.7zm3-2.2c-.2-.1-.3-.2-.5-.2-.2-.2-.5-.4-.7-.6.2-.2.5-.5.7-.5s.6.3.7.5-.1.5-.2.8zm1.9 2.2c-.3 0-.5-.3-1-.6.5-.3.8-.6 1.1-.5.2 0 .4.4.6.6-.2.2-.4.5-.7.5zm4.7 0c-.2 0-.4-.4-.6-.6.2-.2.5-.5.7-.5.3 0 .5.3 1 .6-.5.3-.8.5-1.1.5zm51.2-144.2c0 .3.6.9.9.8.4 0 .8-.5 1.4-1-.7-.4-1.1-.9-1.4-.8s-.8.6-.9 1z"/><path d="M136.6 136.9c5 1.9 6.8 5.6 8 10.1 1.3-3.9 2-8.2 7.7-9.4-4.5-2.1-7.1-5.2-8-9.8-.7 4.4-2.7 7.6-7.7 9.1zm80 149.9c.1-.3.1-.7.2-1-1.4-1-2.7-1.3-4.1-.6 0 .2-.2.4-.3.9-.1-.2-.2-.3-.3-.5-.4.3-.8.7-1.2 1.2h5.7zm0-10.9c-.1-.1-.1-.2-.1-.3 0-.2.4-.5.6-.5s.5.3.5.5c0 .1 0 .2-.1.3h3.9a1.38 1.38 0 0 0-.4-.3l.9-.9c.3.4.6.7.6.9 0 .1-.1.2-.1.3h3.7c-.1-.1-.1-.2-.1-.3 0-.3.4-.5.6-.8.2.3.5.5.6.8 0 .1 0 .2-.1.3h2.9c-3.4-2-6.9-2.9-10-2.7l.1.1c-.3.3-.5.7-.8.8-.1.1-.5-.3-.9-.7-1.9.4-3.6 1.2-4.8 2.5h3zm-75.4-57.5c-.5.2-.9.6-1.6 1.1l1.5 1.1c.4-.5.8-.9 1-1.5 0-.2-.7-.8-.9-.7zm66.6 12.9c-.1-.6-.7-1.4-1.3-1.5-.5-.1-1.2.7-2.3 1.3 1 .7 1.6 1.4 2.2 1.5.5 0 1.4-.9 1.4-1.3zm9.3-124c-.4 0-.8.5-1.4 1l1.5 1c.3-.4.8-.8.9-1.2-.1-.2-.7-.8-1-.8zM165.6 227c-.1-.6-.9-1.4-1.5-1.6-1-.3-2 .3-1.8 1.4.1.7.9 1.3 1.4 1.9h.8c.3-.6 1.1-1.2 1.1-1.7zm22.1-8.6c-.2-.4-.7-.9-1.2-1-.3-.1-.8.5-1.5 1 .8.5 1.2.9 1.7.9.4.1 1.1-.7 1-.9zm17.8-89.9c-1.3.1-1.8 1.1-1.5 2.2s1.2 1.6 2.5 1.3c1.2-.3 1.7-1 1.6-2.6-.9-.3-1.8-1-2.6-.9zm22-37.4h-.7c-.1.1-.2.3-.3.4-.1-.1-.2-.2-.3-.4h-1.3c-.3-.1-.5-.1-1-.1-.8 0-.9.1-1.6.1h-.3-.2-.1-.1c-.7.1-1.4.4-1.8.9-.3.2-.5.4-.7.7s-.2.6-.3.9c-.1.2-.1.5-.1.7 0 .6.1 1.2.4 1.7.2.3.4.5.7.7.6.5 1.3.9 2.2.9h1.8c.1-.2.3-.3.5-.5.2.2.4.4.5.6h.7c.5 0 .7 0 1-.1h1.6c.4-.3.6-.6.8-.5.2 0 .4.3.5.5h1.3 1.8.6l.6-.6c.2.2.5.4.6.6h1.7c.9 0 .9-.1 1.8-.1h.1c0-.3.3-.5.5-.7.2.2.5.5.6.7h1.3c.2 0 .5.1.9.1h1.3c.1-.2.3-.4.5-.6.2.2.5.4.6.6v.1c.1 0 .2.1.3.2.2.2.3.5.3.8v.9c-.1.2-.1.5-.1.9 0 .5.1.7.1 1v5.3c0 .1 0 .2-.1.3.1 0 .1.1.2.1-.1 0-.1.1-.2.1v.3c0 .7.1.8.1 1.2v1.2c0 .3-.1.5-.1 1.1v1.8 1.8 1.5.6 1.5.7 6 .5c0 .9-.1.9-.1 1.8 0 .5 0 .7.1.9v2 .5.1.9 5.5c0 .2-.1.4-.1.9 0 .9.1.9.1 1.8v1.8.8 1c0 .9.4 1.7 1 2.3.2.2.4.4.6.5.5.3 1.1.4 1.6.4h0c.6 0 1.2-.1 1.6-.4.2-.1.4-.3.6-.6.5-.5.8-1.1.9-1.9v-.4-.2c-.1.1-.2.3-.4.4-.3-.5-.6-.8-.5-1.1 0-.3.4-.5.7-.7l.3.3v-.4-1.8c0-.4 0-.6-.1-.8v-.7c-.1.1-.2.2-.3.2-.3-.1-.5-.4-1-.8l.9-.7c.1.2.3.3.4.5v-.3c0-.2.1-.4.1-.9v-1.8-1.1c-.1.1-.3.3-.3.2-.3 0-.5-.4-.7-.6-.1-.1-.1-.3-.2-.4.3-.1.6-.4.8-.3s.3.2.5.4c0-.4 0-.6-.1-.8v-1.8c0-.2.1-.4.1-.9v-.6c-.1.2-.2.3-.4.5-.3-.2-.5-.5-.9-.9.4-.3.6-.6.8-.6a.76.76 0 0 1 .4.2v-.4c0-.4 0-.6-.1-.8v-2-.6c-.1.1-.2.2-.2.3h-.4c-.2-.3-.5-.7-.4-.9 0-.3.5-.5.7-.7l.3.3v-.4-.9c0-.5.1-.6.1-1.3 0-.4 0-.6-.1-.8v-.3c-.1.1-.2.1-.3.1-.2 0-.6-.4-.6-.6.1-.3.4-.5.6-.7l.3.3v-3.6c0 .1-.1.1-.1.2-.4-.5-.7-.7-.8-1 0-.2.3-.5.5-.8l.4.4v-.2-1.8-1.2-.2c0 .1-.1.1-.1.2-.4-.5-.7-.8-.7-1.1 0-.2.5-.7.6-.7s.2.1.3.2v-3.6c-.1.1-.1.2-.2.3h-.3c-.2-.3-.5-.6-.5-1 0-.3.4-.6.6-.9l.4.4v-.4c0-.2.1-.4.1-.8 0-.7 0-.8-.1-1.3v-1.8c-.1.2-.3.3-.5.5-.3-.3-.6-.6-.5-.7.2-.3.4-.5.7-.6a1.44 1.44 0 0 0 .3.2v-.5c0-.4.1-.6.1-1.2 0-.5 0-.7-.1-1v-1.1c-.1.1-.2.2-.3.1-.3-.1-.6-.5-.6-.7 0-.3.4-.6.6-.8l.3.3v-.4c0-.3-.1-.7-.2-1 0-.2-.1-.5-.2-.7s-.3-.4-.5-.6c-.4-.4-.9-.7-1.4-.9-.3-.1-.6-.2-.9-.2-.9 0-.9.1-1.8.1h-6.4-.8-1-1.1s-.1 0-.1.1c-.1 0-.2 0-.3-.1h-2.6-.3-.3-2.4c-.2-.1-.5-.1-.9-.1-.9.6-.9.6-1.8.6zm-5.6 5.2l-.9-.9c.3-.2.5-.5.8-.6.2 0 .6.3.6.6.1.2-.2.5-.5.9zm2.3-2.4c-.3-.4-.7-.7-.6-.8.1-.3.4-.6.6-.6s.6.3.6.5c0 .3-.3.5-.6.9zm2.4 2.1c-.2 0-.4-.4-.6-.5.2-.2.4-.5.7-.6.1 0 .4.3.7.6-.3.2-.6.5-.8.5zm19 28.7c-.3-.4-.5-.6-.8-.8.3-.2.5-.7.8-.6.3 0 .6.4.7.7 0 .1-.4.4-.7.7zm.7 3.9c-.1.3-.4.6-.7 1-.3-.4-.5-.7-.5-.8.1-.3.4-.5.6-.6.2 0 .6.4.6.4zm-.7 4.3c.3 0 .6.4.7.7.1.1-.4.6-.5.6-.4-.1-.7-.3-1.2-.6.5-.4.8-.8 1-.7zm.1 4.9c.2 0 .6.4.6.6s-.3.5-.6.9c-.4-.4-.6-.7-.9-.9.4-.2.6-.6.9-.6zm0 5.7c-.2-.3-.5-.5-.5-.7 0-.1.3-.4.5-.4s.4.3.6.4c-.1.2-.3.4-.6.7zm0-23.7c-.2 0-.4-.3-.8-.5.4-.3.7-.6.8-.6.3.1.4.5.6.7-.2.1-.4.4-.6.4zm-.5-5.3c0-.2.4-.5.6-.5s.5.3.5.5-.2.5-.5.9c-.3-.4-.6-.6-.6-.9zm3 31.7c-.2.1-.3.2-.5.2-.2-.3-.5-.7-.5-1s.4-.5.7-.8c.2.2.6.4.7.7s-.3.6-.4.9zm-.1-4.6c-.3-.5-.6-.7-.6-.9.1-.2.3-.5.6-.6.1 0 .5.3.5.5 0 .3-.2.6-.5 1zm-.1-4.6c-.3-.5-.7-.8-.8-1.1 0-.2.4-.5.6-.8.3.3.7.6 1 1 .1.1-.4.5-.8.9zm.1-9.6c-.3-.5-.6-.8-.6-1.1 0-.2.3-.5.5-.7.2.3.5.6.6.9.1.2-.2.4-.5.9zm.5 3.6c0 .2-.2.5-.5 1-.4-.5-.7-.7-.7-1 0-.2.4-.5.6-.6.2.1.6.4.6.6zm-.6-8.7c-.1 0-.4-.3-.7-.6l.9-.7c.2.2.5.5.5.7a1.41 1.41 0 0 1-.7.6zm.1-4.9c-.2 0-.4-.3-.7-.5.2-.2.3-.5.5-.6.2 0 .5.2 1 .5-.4.3-.6.7-.8.6zm.8-10.1c-.4.3-.6.6-.9.6-.2 0-.4-.3-.6-.4.2-.3.4-.5.7-.8.2 0 .5.3.8.6zm-.9-14.8c.1 0 .6.3.6.5 0 .3-.3.5-.6.9-.3-.4-.7-.7-.6-.8.1-.2.4-.5.6-.6zm.9 5c-.5.5-.7.7-1 .8-.1 0-.4-.3-.4-.4.2-.3.3-.5.6-.7.1-.1.4.1.8.3zm-1 4.6c.3.1.4.3.7.5-.2.2-.4.5-.5.5-.2 0-.4-.3-.8-.6.3-.2.5-.4.6-.4zm.2 9.4c.2.1.4.4.6.6-.2.1-.4.4-.6.4s-.4-.2-.8-.5c.3-.2.6-.5.8-.5zm-2.5-16.7c.3.1.6.4 1 .7-.5.2-.8.5-1 .4-.3-.1-.5-.4-.7-.6.3-.1.5-.5.7-.5zm0 4.8c.2 0 .5.3 1 .6-.4.4-.7.8-.9.8-.3-.1-.6-.5-.8-.7.2-.3.4-.7.7-.7zm.4 5.4c0 .2-.2.4-.4.8-.3-.4-.5-.7-.5-.9s.4-.3.6-.5c0 .2.3.4.3.6zm-.4 4c.2 0 .7.5.7.7-.1.3-.4.7-.7.7-.2 0-.6-.4-1-.7.4-.3.7-.7 1-.7zm-5-14.2c.3.2.5.5.8.7-.2.2-.4.5-.6.5s-.5-.3-.9-.6c.4-.3.7-.6.7-.6zm-2.7-1.8c0-.2.5-.5.6-.5.2.1.5.4.6.6 0 .2-.3.4-.7.9-.3-.5-.5-.8-.5-1zm-1.6 1.8c.1 0 .4.3.8.6-.4.3-.7.6-.9.6s-.4-.3-.6-.5c.2-.3.4-.6.7-.7zm-2.6-2.6c.2 0 .7.5.7.6-.1.3-.4.7-.7.8-.2.1-.5-.3-1-.7.4-.3.7-.7 1-.7zm-2.5 2.6a1.21 1.21 0 0 1 .7.7c0 .1-.4.4-.8.9-.3-.4-.6-.7-.5-.9.1-.3.5-.7.6-.7zM229 94c-.3-.5-.7-.7-.6-.9.1-.3.4-.5.6-.6.1 0 .5.3.5.5s-.3.5-.5 1zm26.2 157.3c.2.3.4.4.4.6s-.3.3-.5.4c-.1-.2-.3-.3-.3-.5 0-.1.1-.2.2-.4a15.26 15.26 0 0 0-1.6 1.1h9c-2.4-1.9-4.8-2.4-7.2-1.2zm4.7 1c-.2 0-.4-.3-.7-.5.3-.2.6-.5.7-.5.2.1.4.3.5.5 0 .2-.3.5-.5.5zM91.6 263.8c-.4.2-.6.4-.8.5-.1 0-.4-.4-.4-.5s.1-.2.2-.3c-1.2-.3-2.5-.3-3.8-.1 0 .1.1.1.1.2.1.2-.4.6-.8 1.2-.3-.5-.6-.8-.7-1-1.5.4-3 .9-4.6 1.8.7.4 1.5.7 2.2.9v-.1c.2-.4.5-.7.8-1 .2.3.6.5.6.8 0 .2-.1.4-.3.6 1.4.2 2.8.2 4.2.1-.2-.3-.5-.5-.4-.5.2-.3.5-.5.7-.7.1.2.4.4.4.6s-.2.3-.3.6l3.8-.5-.1-.1c.4-.4.8-.6 1.1-.9.2.3.5.6.5.8.5-.1 1.1-.1 1.7-.1-1.5-1.2-2.7-1.9-4.1-2.3zm-3.7-16.5c-.1-.1-.1-.2-.1-.3 0-.2.5-.6.6-.6.3.1.7.4.8.7v.1l3.5-.2-.1-.1c.2-.2.5-.5.7-.5s.5.3.6.5h.1c0-.4 0-.7-.1-1.1-1-.5-2-.8-2.9-1l-.3.3c-.1 0-.3-.2-.6-.4-1.6-.1-3.3.3-4.9 1.5 0 .5.1.9.1 1.4l2.6-.3zm38.6 29.1l-.1-.1c-1.4-.7-2.8-1-4.2-.9 0 .1.1.1.1.2.1.2-.2.5-.5.9-.3-.4-.7-.7-.7-.9v-.2c-1.8.2-3.6.9-5.6 1.5 1.1.4 2.2.7 3.3 1 0-.2.4-.6.5-.6.3 0 .7.3.7.5 0 .1 0 .2-.1.3 1.3.3 2.6.4 3.9.2-.2-.2-.3-.3-.3-.5s.5-.6.6-.6c.3.1.6.5.8.7l-.1.1c.9-.2 1.8-.6 2.7-1.2-.3-.1-.6-.3-1-.4zm-48-19.2c-.2-.1-.5-.3-.8-.6.6-.4.9-.8 1.1-.7.3.1.6.5.7.9 0 .1-.1.2-.2.4l3.9-.3c-.1-.1-.1-.3-.1-.4 0-.3.4-.5.7-.7.2.3.5.6.5.8v.2c.3 0 .5 0 .8-.1v-1.3l-3.7-.7c-.1 0-.1 0-.2.1 0 0-.1 0-.2-.1-1.9-.3-3.9-.2-5.6 1.4 0 .5.1.9.1 1.4 1-.2 2-.3 3-.3z"/><path d="M242.6 263.6c0-.3.4-.5.6-.8.3.3.7.6.9.9v.1h1.4.6 1.5.1l-.1-.1c.2-.2.3-.5.5-.6.2 0 .4.2.8.4.7-.3 1.2-.8 1.6-1.5-.3-.3-.5-.5-.5-.7s.3-.5.5-.8l.3.3v-.3h0c0-.8-.3-1.6-.8-2.1-.2-.3-.5-.5-.8-.7-.5-.3-1.1-.5-1.6-.5h-1.8-1.8c-.9 0-.9-.1-1.8-.1h-1.8c-.5 0-.7.1-1 .1h-5.2c-.2-.1-.5-.1-1-.1h-1.8c-.9 0-.9.1-1.8.1s-.9-.1-1.8-.1H226h-1.8-1.8-1.4-.7c-.6 0-.7-.1-1.5-.1-.9 0-.9.1-1.8.1s-.9-.1-1.8-.1-.9.1-1.8.1h-.7-.4l-.1.1-.1-.1h-3c-.4 0-.6-.1-1.2-.1h-.6-1.1-1.8c-.6 0-.8 0-1.2.1h-2.9c-.4 0-.6-.1-1.2-.1H198l-.1.1v-.1h-.5c-.6 0-.8.1-1.1.1h-1.4c-.3 0-.5-.1-1.1-.1-.8 0-.9.1-1.5.1h-2.9c-.2 0-.4-.1-.7-.1 0 .1-.1.1-.1.2l-.2-.2h-1.7-1.8-1.8-1.8-.6-2.6-.4-.6-1.7c-.4 0-.6-.1-1.2-.1h-.2l-.1.1v-.1c-.2 0-.4 0-.5.1H170h-.1c-.1.1-.2.2-.3.4-.1-.2-.3-.3-.4-.4h-.1c-.4 0-.7 0-.9.1H166c-.2 0-.4-.1-.8-.1-.5 0-.7 0-.9.1h-1.8c-.2 0-.5-.1-.9-.1s-.6 0-.8.1h-2-.7-.7-7.5-.7-1.8-.8-8.9-1-.5l-.2.2c0-.1-.1-.1-.1-.2h-4.1c-.1.1-.2.2-.2.3-.1-.1-.1-.2-.2-.3h-.8c-.2 0-.4-.1-.9-.1h-1.8-1.8-.6-3.4c-.5 0-.6-.1-1.3-.1-.5 0-.8 0-1 .1h-2.3c-.1.1-.1.2-.2.3-.1-.1-.2-.2-.2-.3h-1-.6-.5-5.9-.7c-.9 0-.9-.1-1.8-.1-.7 0-.9.1-1.3.1h-1.1c-.4 0-.6-.1-1.2-.1s-1.2.1-1.7.4c-.3.2-.5.4-.8.7.1 0 .1-.1.2-.1.1-.1.5.4.8.6-.4.4-.7.8-1.2 1-.1 0-.2-.1-.5-.3-.1.3-.2.6-.2.9h0v.4a1.92 1.92 0 0 0 .4 1.2 3.04 3.04 0 0 0 .5.7l.1-.1.7.7c.3.2.7.2 1.1.2h.4.5c.4 0 .6.1 1.2.1h.2c-.1-.1-.1-.2-.1-.2.1-.3.5-.6.7-.9.2.3.5.5.5.8v.2h1.3c.2.1.5.1.9.1h1.3c-.1-.1-.1-.2-.1-.2.1-.4.5-.6.7-.9.3.3.7.5.7.8 0 .1 0 .2-.1.3.3 0 .5-.1 1-.1h1.8.3l-.1-.1c.5-.3.8-.6 1.2-.6.2 0 .6.4.6.5s0 .1-.1.2c.3 0 .5 0 .7-.1h1.9c.2 0 .4.1.9.1h.2c0-.1-.1-.1 0-.2.1-.2.4-.5.7-.5.2 0 .5.4.5.6 0 0 0 .1-.1.1h.5 1.8c.4 0 .6 0 .8-.1h.5s-.1 0-.1-.1c.2-.2.4-.5.5-.5.2 0 .4.3.8.5 0 0-.1 0-.1.1h.2c.2 0 .4.1.9.1h1.8c.4 0 .6 0 .8-.1h.1v-.1c0-.2.4-.4.6-.6.2.2.4.4.5.7h1 .7 1.3.2c.5-.3.8-.6 1.1-.7.1 0 .4.3.6.5l-.2.2h.6c.4 0 .6 0 .8-.1h2.3c-.1-.1-.1-.2-.2-.3.2-.1.4-.4.7-.4.2 0 .4.2.8.4-.1.1-.2.2-.3.2h2.6.5.5c-.1-.1-.3-.2-.5-.3.5-.3.9-.8 1.1-.7.3.2.6.5.7.9 0 0 0 .1-.1.1h1.2 2.5l-.1-.1c.2-.2.4-.5.6-.6.2 0 .5.2.9.5l-.2.2h3.2.2c0-.1-.1-.2-.1-.3 0-.3.5-.5.7-.8.2.3.6.6.7 1v.1h.6 2.9l-.4-.4c.5-.3.9-.7 1-.7.4.2.6.6.9.9-.1.1-.2.2-.3.2.5 0 .7 0 .9-.1h2.5a1.38 1.38 0 0 0-.4-.3c.5-.4.9-.8 1-.7.3.1.6.5.9.8l-.3.3h.7c.4 0 .6 0 .9-.1h1.8c.1 0 .3.1.5.1v-.2c0-.2.3-.4.4-.6.2.2.5.4.6.7.4 0 .6-.1 1.2-.1h2.3v-.1c0-.3.4-.6.7-1 .3.3.7.6.8.9v.1h2.6.8.3c-.1-.1-.1-.2-.1-.3s.4-.5.5-.4c.3.1.5.4.6.6v.1h3.5v-.1c0-.2.3-.5.6-.9.4.4.8.7.8.8s-.1.1-.1.2h2c.2.1.5.1.9.1h.6c-.1-.1-.1-.2-.1-.2 0-.1.5-.6.6-.5.3.1.6.4.9.7l-.1.1c.5 0 .7-.1 1-.1h1.5c.3.1.5.1 1 .1h.1c-.1-.1-.2-.3-.3-.4l.7-.7c.2.3.6.6.7 1v.1h.4 2.8c.2 0 .3.1.5.1a.76.76 0 0 1-.2-.4c0-.2.4-.5.7-.7.3.3.6.6.7.9v.2h.3 1.9.7.5c0-.1-.1-.1-.1-.2.2-.3.5-.6.8-.8.1 0 .6.4.6.6s-.1.3-.2.5h.1c.5 0 .7-.1 1-.1h2.6c0-.1-.1-.1 0-.2.1-.3.4-.5.6-.8.2.3.5.5.9.9h1.1c.3 0 .5.1 1.1.1.5 0 .7 0 1-.1h.3v-.1c.1-.3.4-.6.6-.9.2.2.6.5.6.7 0 .1 0 .2-.1.3h.8.4 1.8.8v-.1c0-.2.3-.4.5-.6.2.2.5.3.5.5v.2h.2 1.8 1.6a1.38 1.38 0 0 0-.4-.3c.5-.4.8-.8 1-.8.3 0 .6.4.9.7l-.3.3h.8.3 2.3c.1 0 .3 0 .4.1v-.1c0-.2.3-.4.4-.6.2.2.5.4.6.6v.2h1.4c.4 0 .7 0 .9-.1h1.5v-.2c.1-.3.4-.5.5-.8.2.3.5.5.6.8 0 .1 0 .1-.1.2h.2c.5 0 .7-.1 1-.1h2.4l-.1-.1c.4-.3.6-.6.9-.6.2 0 .4.3.7.5l-.1.1h1.6c.2 0 .4.1.9.1.6 0 .8-.1 1.2-.1v-.2c0-.2.4-.5.6-.5.2.1.6.3.6.6v.1h.1c.3 0 .5.1 1.1.1h1.8.6c-.9 1.1-.9 1-.9.9zm5.5-5.2c.2.1.4.4.6.6-.2.1-.4.4-.6.4s-.4-.2-.8-.5c.3-.3.6-.6.8-.5zm-2.3 2.5c.2 0 .5.3.5.5s-.2.5-.5.9c-.3-.5-.6-.7-.6-1 0-.1.4-.4.6-.4zm-2.6-2.5c.3.1.5.4.8.6l-.8.8c-.3-.4-.6-.7-.7-1 .1-.1.6-.5.7-.4zM102.7 262c-.3 0-.6-.4-1.1-.8.5-.3.9-.7 1.2-.7.3.1.6.5.6.8 0 .2-.5.7-.7.7zm2.5-2.3c-.3 0-.6-.5-1-.8.3-.3.5-.6 1-1 .4.5.9.8.8 1.1 0 .3-.6.7-.8.7zm2.4 2.3c-.3-.1-.7-.4-.7-.6 0-.3.4-.6.6-.8.3.2.5.5.9.9-.4.2-.7.5-.8.5zm2.8-2.9c-.2.1-.5.3-.7.2-.2 0-.4-.3-.5-.5.2-.1.4-.4.5-.4.3 0 .5.2.7.4v.3zm1.9 2.9c-.1-.1-.3-.2-.4-.3-.1-.2-.3-.4-.3-.5.2-.2.4-.3.6-.4.1 0 .4.2.4.3-.1.4-.2.6-.3.9zm2.3-2c-.4-.5-.7-.8-.8-1.1 0-.1.5-.6.7-.6.3.1.7.4.8.6 0 .3-.3.6-.7 1.1zm2.4 2.3c-.3-.4-.6-.7-.6-.9.1-.2.4-.5.6-.6.1 0 .6.3.5.5.1.3-.2.6-.5 1zm2.4-3c-.2 0-.4-.3-.6-.5.2-.2.4-.6.6-.6s.4.3.8.7c-.3.2-.6.5-.8.4zm2.4 2.9c-.3-.4-.6-.6-.7-.9a1.21 1.21 0 0 1 .5-.5c.2 0 .6.3.6.5.1.2-.1.5-.4.9zm2.5-2.5c-.3-.1-.6-.4-.8-.7 0-.1.4-.4.7-.8.3.4.8.7.7.8 0 .3-.5.7-.6.7zm2.2 2.3c-.4-.4-.8-.8-.7-.9.2-.3.6-.6.9-.8.2.3.6.5.6.8 0 .2-.4.5-.8.9zm2.5-2.3c-.3-.4-.6-.7-.7-1 0-.1.4-.5.6-.5a1.41 1.41 0 0 1 .7.6c0 .2-.3.5-.6.9zm2.3 2.5c-.3-.4-.6-.7-.6-1 0-.2.4-.4.6-.6.2.2.5.4.5.7.1.2-.2.5-.5.9zm2.3-2.4c-.3-.4-.6-.7-.6-.9.1-.3.4-.5.7-.7.2.2.7.5.7.7 0 .3-.4.6-.8.9zm2.5 1.8c-.1 0-.3-.2-.6-.4.3-.2.5-.4.6-.4.2 0 .3.2.4.4-.1.2-.3.4-.4.4zm2.5-2c-.3 0-.6-.3-1.1-.6.4-.3.7-.6 1-.6.2 0 .5.4.7.6-.2.2-.4.6-.6.6zm2.3 2.6c-.3-.3-.6-.6-.9-1l.8-.8c.3.4.7.7.6.9 0 .4-.3.7-.5.9zm2.4-2.3c-.3-.4-.7-.6-.7-.8 0-.3.3-.5.5-.8.2.2.6.4.6.6.1.2-.2.5-.4 1zm2.1 2c-.1 0-.5-.4-.4-.6 0-.2.4-.5.6-.5s.5.2.9.5c-.6.3-.8.6-1.1.6zm5 .2c-.3 0-.5-.4-1.1-.8.6-.2.9-.4 1.2-.4.2 0 .6.5.5.5-.1.3-.4.7-.6.7zm2.3-2.5c-.3 0-.6-.4-.8-.7.3-.2.5-.5.8-.6.2 0 .5.3 1 .5-.5.5-.8.9-1 .8zm2.3 3c-.2-.6-.5-1-.5-1.3.1-.3.5-.5.8-.7.2.3.6.6.5.9 0 .3-.4.6-.8 1.1zm2.6-3c-.2 0-.5-.4-.9-.7.4-.3.7-.6.9-.6.3.1.5.4.7.7-.2.2-.4.6-.7.6zm3.1 1.7c-.1.4-.5.7-.8 1-.3-.3-.8-.6-.9-1-.1-.5.2-1 .9-.8.7-.1 1 .3.8.8zm1.6-1.6c-.4-.1-.6-.4-1.2-.8.5-.3.9-.7 1.1-.7.3.1.6.5.8.8 0 .2-.5.7-.7.7zm2.4 2.5c-.3-.4-.5-.6-.5-.9 0-.1.3-.3.4-.4.2.2.4.3.5.6 0 .1-.2.3-.4.7zm2.4-2.5c-.1 0-.6-.4-.6-.6 0-.3.3-.7.6-.8.1-.1.5.3.9.6-.4.3-.6.7-.9.8zm2.3 2.3c-.2 0-.5-.4-1-.7.5-.4.8-.8.9-.7.4.1.6.5.9.7-.3.2-.5.6-.8.7zm2.4-2.1l-.7-.9c.2-.2.5-.5.7-.5.3 0 .5.4.8.6-.3.2-.5.4-.8.8zm2.3 2.1c-.2 0-.4-.3-.9-.6.4-.2.7-.5 1-.5.2 0 .4.3.7.5-.3.1-.5.5-.8.6zm2.5-2.4c-.3 0-.6-.4-1-.7.4-.3.7-.6 1-.6.2 0 .7.4.7.6-.1.3-.5.7-.7.7zm2.5 2.5h-.3c-.1-.2-.4-.5-.4-.7 0-.3.3-.5.5-.7.2.2.5.4.6.7 0 .2-.2.4-.4.7zm2.2-2.5c-.2-.2-.4-.4-.8-.7.3-.2.5-.4.7-.4s.5.3.5.4c0 .3-.2.5-.4.7zm2.5 2.4c-.3 0-.6-.3-1.1-.6.5-.4.8-.8 1-.8.3.1.6.4.7.8 0 .1-.4.6-.6.6zm2.1-2.2c-.3-.4-.5-.6-.6-.9a1.21 1.21 0 0 1 .5-.5c.3.1.5.4.6.6s-.2.4-.5.8zm2.6 2.7c-.3-.5-.7-.8-.7-1.2 0-.2.5-.6.7-.6s.6.4.6.7c0 .4-.3.7-.6 1.1zm3.2-3.5c-.1.3-.5.6-.8.8-.2-.3-.5-.6-.6-.9 0-.3.3-.6.7-1.1.4.6.8 1 .7 1.2zm1.4 3c-.2.1-.4-.3-.8-.6l.8-.8c.2.3.6.5.6.8 0 .1-.3.5-.6.6zm2.8-2.6a.76.76 0 0 1-.4.2c-.1-.2-.2-.5-.2-.7s.3-.5.4-.5c.2 0 .4.3.6.4-.1.3-.3.5-.4.6zm2.1 3.2c-.4-.6-.8-.9-.8-1.3 0-.3.5-.6.8-.9.3.3.8.6.9.9 0 .4-.5.8-.9 1.3zm2.5-2.7c-.3-.4-.6-.7-.6-1 0-.2.4-.4.5-.6.2.2.6.4.6.6 0 .3-.3.5-.5 1zm2.4 2.1c-.3-.1-.5-.4-1-.7.4-.3.8-.6.9-.5.3.2.5.5.6.8l-.5.4zm2.3-2.4c-.2 0-.5-.4-1-.7.5-.3.7-.6 1-.6.3.1.6.4.8.6-.3.3-.5.7-.8.7zm2.4 2.4c-.3-.1-.5-.5-.8-.7.3-.2.5-.6.8-.7.3 0 .6.3 1 .7-.5.3-.8.7-1 .7zm2.3-2.1c-.4-.4-.8-.7-.8-.9.1-.3.4-.7.7-.7.2 0 .6.4.7.7.1.2-.3.5-.6.9zm2.4 2c-.3 0-.6-.2-.8-.4a.76.76 0 0 0 .2-.4c.2-.1.5-.3.6-.2.2.1.4.4.5.6 0 .1-.4.4-.5.4zm2.4-2.6c-.2 0-.6-.3-.6-.4 0-.2.3-.5.5-.9.3.4.5.6.6.8 0 .2-.3.6-.5.5zm7.1 2.7c-.3 0-.5-.4-.8-.6.2-.2.4-.4.7-.8.3.3.6.5.8.7-.2.2-.5.7-.7.7zm2.4-2.6c-.2 0-.4-.2-.8-.4.4-.3.6-.6.8-.6s.4.4.6.6c-.2.1-.4.3-.6.4zm2.3 2.6c-.2-.3-.6-.6-.5-.8 0-.2.4-.4.6-.6.2.2.5.4.5.7 0 .2-.3.4-.6.7zm2.5-2.9c-.1 0-.3-.1-.6-.2.3-.2.4-.3.6-.4.1 0 .2.1.4.2-.1.1-.2.3-.4.4zm4.6.7c-.3-.4-.5-.7-.6-.9 0-.1.4-.5.6-.4.2 0 .5.3.6.6-.1.1-.4.3-.6.7zm2.5 2.2c-.2-.2-.6-.5-.6-.7 0-.3.3-.6.6-.8.1-.1.5.3.9.5-.4.5-.6.7-.9 1zm2.4-2.1c-.3-.2-.5-.4-.9-.8l.9-.9c.2.3.6.5.6.9 0 .2-.4.5-.6.8zm2.3 2c-.2 0-.5-.3-.9-.6.4-.4.7-.6.9-.8.2.2.5.5.5.7.1.3-.2.7-.5.7zm28.9-.1c-.1.1-.2.3-.3.4-.3-.4-.7-.6-.6-.8 0 0 0-.1.1-.1-1.4-.5-2.7-.8-4.1-.8.2.2.5.4.5.6 0 .3-.2.6-.4 1.2-.4-.4-.8-.7-.7-.9.1-.3.4-.6.7-.8a11.79 11.79 0 0 0-4.1.7c.1.1.2.1.2.2l-.9.9c-.2-.2-.4-.4-.5-.6-.8.3-1.5.7-2.2 1.2h5 7.3v-1.2z"/><path d="M99.3 108.6v1.8 1.8.1l1-.8c.1-.1.5.4.8.6-.4.4-.7.8-1.2 1-.1 0-.3-.2-.6-.4v3.4c0 .5-.1.6-.1 1.3 0 .5 0 .7.1 1v3.7.6.5 5.9.7c0 .9-.1.9-.1 1.8 0 .7.1.8.1 1.3v1c0 .4-.1.6-.1 1.2v1.8c0 .9.1.9.1 1.7v.3 1.6 1 1.3c0 .4-.1.6-.1 1.2s.1 1.2.4 1.7c0-.1 0-.1-.1-.2 0-.2.4-.7.5-.6.4.1.8.4.9.7.1.1-.3.5-.6.9.1 0 .1.1.2.1.2.2.5.3.8.4.3.2.6.3.9.3.1-.1.2-.2.3-.1h.2c.2 0 .5 0 .7-.1.3 0 .6-.1.9-.2.4-.2.7-.5 1-.9-.2-.1-.5-.3-.9-.6.4-.1.7-.3.8-.3s.3.2.4.3c.1-.2.1-.4.1-.6.1-.3.1-.5.1-.8v-4.3c0-.3.1-.5.1-1.1v-1.8-1.8-1.8c0-.9.1-.9.1-1.8v-1.8c0-.5-.1-.7-.1-1v-1.9c-.3.2-.5.5-.7.5s-.7-.5-.6-.5c.1-.3.4-.6.7-.9.2.2.4.3.6.6v-2.9c.1-.3.1-.5.1-1v-1.8c0-.9-.1-.9-.1-1.8s.1-.9.1-1.8v-1.8-1.8-.9c-.2.2-.5.5-.7.4-.3 0-.6-.5-1-.8.3-.3.5-.6 1-1 .2.3.5.5.7.7v-.2-1.4-.8c0-.6.1-.7.1-1.5 0-.9-.1-.9-.1-1.8s.1-.9.1-1.8-.1-.9-.1-1.8c-.2.2-.3.3-.5.3-.1 0-.3-.2-.4-.4.1-.1.2-.4.4-.4.1 0 .3.1.5.3v-.6-2.9c0-.2.1-.5.2-.7.2-.3.6-.5 1-.5h1.8.4c0-.2.5-.6.7-.6.3.1.5.4.7.6.6 0 .7 0 1.1-.1h2.7c.1-.1.1-.2.2-.2s.3.2.5.3h.7 1.8c.6 0 .8-.1 1.1-.1h.2c0-.2.4-.5.6-.7.2.2.5.5.6.7.3 0 .5.1 1.1.1.8 0 .9-.1 1.5-.1h1.3c.2-.1.3-.2.4-.2s.3.2.3.2h.8c.2.1.5.1.9.1h1.8c.6 0 1.2-.2 1.6-.5.5-.3.9-.7 1.2-1.2s.4-1 .4-1.6-.1-1.1-.4-1.6v-.1s0-.1-.1-.1c0-.1-.1-.1-.1-.2l-.1-.1a3.25 3.25 0 0 0-1.3-1c-.4-.2-.8-.3-1.2-.3-.5 0-.7 0-.9.1h-.4-.1-2.9c-.3 0-.5-.1-1-.1-.4 0-.7 0-.9.1h-2c-.2 0-.4-.1-.8-.1-.5 0-.7 0-.9.1h-.9c-.1 0-.1.1-.1.1s-.1 0-.1-.1h-.7c-.2 0-.5-.1-.9-.1s-.6 0-.8.1h-2.1-.8-.7-3.5c0 .1-.1.1-.1.2 0-.1-.1-.1-.1-.2h-3.9-.2c-.1.1-.2.3-.3.4-.1-.2-.2-.3-.3-.4-.6 0-1.1.2-1.6.4-.2.1-.3.2-.4.3-.7.6-1.2 1.5-1.2 2.5v6 1 .8 5.4c-.5.4-.5.6-.5 1.1zM129 92.5c.2 0 .4.3.9.6-.5.3-.8.6-1 .5-.2 0-.5-.4-.5-.6s.4-.5.6-.5zm-7.9 2.8c.1-.3.4-.5.6-.8.3.3.6.6.7.9 0 .2-.4.5-.8 1-.3-.5-.5-.9-.5-1.1zm-1.9-2.8c.2.2.6.4.7.6.1.1-.3.4-.6.8-.2-.4-.5-.6-.5-.8s.3-.4.4-.6zm-2.1 2.4c.2 0 .4.4.6.6-.2.2-.4.5-.6.5s-.4-.2-.8-.4c.3-.4.6-.7.8-.7zm-2.5-2.4c.3 0 .5.4.7.6-.2.2-.4.5-.7.5-.2 0-.5-.3-.9-.5.4-.3.7-.6.9-.6zm-7.1 2.5c.2.1.4.4.5.7 0 0-.3.4-.4.4-.2-.1-.4-.3-.9-.8.4-.2.7-.4.8-.3zm-2.5 12c.1.1.4.3.4.4 0 .2-.2.4-.4.7-.2-.3-.5-.5-.4-.6.1-.2.3-.3.4-.5zm-.4-14c.1-.2.4-.4.6-.5.1 0 .4.4.4.5 0 .2-.3.5-.6.9-.1-.4-.4-.7-.4-.9zm.4 4.1c.2.2.6.5.7.8.1.2-.3.4-.5.8-.4-.3-.6-.6-.8-.8.1-.3.3-.6.6-.8zm-4.6 18.9a6.53 6.53 0 0 0 .7.8c-.3.2-.5.6-.8.6-.2 0-.5-.4-.6-.6s.3-.4.7-.8zm.1 4.9c.1 0 .6.4.6.6 0 .3-.4.5-.8.9-.3-.4-.7-.7-.7-.8.3-.2.5-.5.9-.7zm-.2 21c-.3-.6-.6-.9-.6-1.3 0-.2.5-.6.6-.5.3.2.7.5.8.8 0 .2-.4.6-.8 1zm.9-5.8c-.3.2-.7.5-1 .5-.2 0-.6-.5-.5-.6.1-.3.5-.7.8-.7.2 0 .6.3.8.5-.1.1-.1.2-.1.3zm1.7-11.1c-.4-.4-.6-.7-.9-1 .2-.2.5-.6.7-.6s.6.3.7.6c0 .2-.3.5-.5 1zm.2 3.7c0 .2-.2.4-.4.9-.2-.5-.4-.7-.4-.8 0-.2.2-.4.4-.5.1.1.4.2.4.4zm-.4 4.1c.2.3.5.5.7.8 0 .1-.4.4-.7.7-.3-.3-.6-.5-.8-.8.3-.2.6-.4.8-.7zm-.2 11c-.3-.4-.6-.6-.6-.9 0-.2.5-.6.6-.5.3.2.5.5.8.8-.2.2-.4.3-.8.6zm2.7-2.6c-.3-.1-.5-.3-.8-.6.4-.2.6-.4.8-.4s.5.3.5.5-.4.5-.5.5zm-.3-4.9c-.2 0-.4-.3-.7-.5.2-.1.3-.4.5-.4s.5.2 1 .4c-.4.3-.6.5-.8.5zm-.4-19.4c.1-.3.5-.6.7-.9.2.3.5.5.5.8 0 .2-.2.5-.5 1-.4-.5-.8-.8-.7-.9zm-.2 4.7c.1-.3.5-.6.8-.7.1 0 .6.5.5.7 0 .3-.3.6-.7 1.2-.2-.6-.6-1-.6-1.2zm.9 8.9c.2 0 .6.4.5.6-.1.3-.4.6-.6.8-.2-.2-.5-.4-.9-.8.5-.3.7-.6 1-.6zm-2.1 8.8c-.4-.3-.8-.7-1.1-1l.7-.9c.4.5.7.8.7 1.1.1.2-.2.5-.3.8zm-.2-19.2l-.9-.9c.3-.2.5-.5.8-.6.2 0 .5.3.6.6 0 .2-.2.5-.5.9zm-.6-19.9c.1-.2.3-.3.5-.4.1.2.3.3.3.5 0 .1-.2.3-.4.6-.2-.4-.4-.6-.4-.7zm.3 4.2c.1 0 .3.2.7.5-.4.2-.6.4-.8.5-.1 0-.4-.3-.4-.4.1-.2.3-.5.5-.6zm0 4.7c.2 0 .5.3.5.6 0 .2-.3.5-.5.5s-.4-.2-.8-.4c.4-.3.6-.7.8-.7zm.2 4.6c.3.1.6.5.6.8 0 .1-.5.6-.7.6-.3 0-.6-.4-1.1-.8.5-.3.9-.6 1.2-.6zm-2.5 17.9c-.2 0-.5-.3-.7-.5.2-.2.4-.6.6-.6.3 0 .6.3 1.2.5-.5.4-.8.7-1.1.6zm-.3-38.5c.1-.2.3-.4.5-.6.2.2.5.4.5.6s-.3.4-.6.7c-.2-.3-.5-.5-.4-.7zm.4 4.3c.2 0 .4.3.6.4-.2.2-.3.4-.6.7-.2-.3-.5-.5-.5-.7.1-.1.4-.4.5-.4zm.6 5.2c0 .2-.3.4-.6.8-.2-.4-.4-.6-.4-.8s.3-.4.4-.6c.2.3.6.4.6.6zm-.8 4.1c.4.1.7.4 1 .6v.3c-.3.2-.6.5-.9.4-.3 0-.6-.4-.7-.7 0-.1.4-.6.6-.6zm37.7 171.2c.2-.2.4-.4.7-.5.1 0 .5.3.6.5h3.5c-.1-.5.1-.9.7-.8.3 0 .5.4.9.8h3.1c.1-.2.4-.5.6-.7.3.2.6.4.9.7h3.3l.8-.8c.2.2.4.5.8.8h3.2c.1-.3.4-.6.6-.9.2.3.5.6.7.9h3.5c.2-.3.4-.6.7-.8.1-.1.5.3 1 .7l-.1.1h3.3v-.1c0-.2.4-.4.6-.6.2.2.5.4.5.6v.1h3.6l-.1-.1c.3-.2.5-.6.8-.6s.5.4 1 .7h3.1c-.1 0-.1-.1-.2-.1l.9-.9.9.9h-.1l3-.1c0-.3.5-.6.7-1 .3.3.6.6.8.9l3.5-.1c.1-.2.3-.3.5-.5l.5.5 3.9-.2c.1-.2.3-.3.5-.5.1.2.3.3.4.5 5.3-.3 10.5-.9 15.8-1.6-.1-.2-.2-.4-.3-.5 0-.1.1-.2.1-.3l-.8-.4-5.5-.6-.1.1c0-.1-.1-.1-.1-.1-1.5-.2-2.9-.4-4.4-.5-.1.2-.3.3-.4.3-.2 0-.3-.2-.5-.4-1.1-.1-2.2-.2-3.3-.2-.5.3-.7.6-1 .6-.2 0-.6-.4-.6-.5s0-.1.1-.2h-.5-3.1l.1.1c-.2.2-.5.6-.7.6-.3-.1-.5-.4-.7-.6h-3.3c-.2.3-.5.6-.8.9l-.9-.9h-3.2c0 .2-.2.4-.5.8-.3-.4-.5-.6-.6-.8-1.3 0-2.5 0-3.8.1-.2.2-.4.4-.6.5-.1 0-.3-.2-.5-.4-1.2 0-2.4 0-3.6.1-.2.2-.4.3-.6.4-.2 0-.3-.1-.5-.3-1.2 0-2.4.1-3.5.1-.3.2-.4.4-.6.4-.2-.1-.3-.2-.5-.4-1.3 0-2.7.1-4 .1-.1.1-.2.1-.3.1s-.1 0-.2-.1c-1.4 0-2.8.1-4.2.1-.1.2-.2.3-.3.6-.1-.2-.3-.4-.4-.5-1.2 0-2.4.1-3.6.1h-.7c0 .1-.1.1-.1.2 0-.1-.1-.1-.1-.2-2.3.1-4.7.3-6.9.8.3.4.5.6.5.7 0 .2-.4.4-.6.6-.2-.2-.5-.4-.5-.6s.2-.4.4-.7c-2.2.5-4.3 1.5-6.2 3 .8.1 1.9.1 3 .1zm64.9-2.8c.2 0 .5.3.5.5s-.3.5-.4.7h-.4c-.1-.3-.4-.5-.3-.8 0-.1.4-.4.6-.4zm-4.9 0c.2 0 .5.3.5.5s-.2.4-.5.9c-.3-.4-.6-.7-.7-.9 0-.2.4-.5.7-.5zm-4.7 0c.3.1.6.3.6.6 0 .2-.3.4-.6.8-.3-.4-.6-.7-.6-.9s.4-.6.6-.5zm-4.7 0c.2 0 .6.3.6.6 0 .2-.3.5-.6.9-.4-.5-.6-.7-.7-1 .2-.2.5-.5.7-.5zm-5-.4c.4.2.8.6.9 1 .1.2-.5.9-.6.8-.4-.1-.7-.5-1.3-.9.5-.4.9-.9 1-.9zm-4.5.1c.2.3.5.6.5.9 0 .2-.4.5-.6.5-.3 0-.5-.3-.9-.6.4-.3.7-.6 1-.8zm-4.8-.1c.3.3.6.6.7.9.1.2-.3.5-.7 1-.4-.5-.8-.9-.8-1.1 0-.3.5-.5.8-.8zm-4.6.4c.2 0 .4.3.6.5-.2.2-.4.5-.6.6-.2 0-.4-.3-.8-.6.3-.2.6-.5.8-.5zm-4.9-.3c.3.3.7.5 1.1.9l-.9.9c-.3-.3-.7-.6-.7-.9-.1-.3.3-.6.5-.9zm-4.9.3c.1 0 .3.1.7.3-.4.2-.6.4-.9.5-.1 0-.3-.2-.5-.3.3-.2.5-.4.7-.5zm-4.7-.3c.2.2.5.4.5.7 0 .2-.2.5-.5.9-.3-.4-.5-.7-.5-.9.1-.3.4-.5.5-.7zm-4.9.3c.3.1.6.4.8.7-.2.2-.4.5-.6.4-.3-.1-.7-.3-1.2-.6.6-.3.9-.6 1-.5zm-4.6 0c.3 0 .5.3 1 .6-.5.3-.8.6-1.1.5-.2 0-.4-.4-.7-.6.3-.2.6-.5.8-.5zm57.8 10.2c-.3.3-.5.5-.7.5-.3-.1-.5-.4-.8-.7l.2-.2c-2.8-.9-5.7-1.2-8.7-.1.1.1.3.3.6.5-.4.3-.7.6-1 .6-.1 0-.5-.4-.5-.6 0-.1 0-.1.1-.2-.6.3-1.3.6-2 1.1 1.5.9 3.1 1.5 4.7 1.8-.1-.1-.2-.2-.2-.3 0-.2.2-.5.3-.7.2.2.5.3.5.5 0 .1-.1.3-.2.6 1.6.3 3.1.3 4.6 0-.2-.1-.4-.4-.6-.5.2-.2.4-.5.5-.5.2 0 .5.2 1 .5-.3.2-.5.4-.6.6 1.6-.3 3.1-1 4.4-1.9-.4-.5-1-.7-1.6-1zm-5.4.5l-.8-.8c.2-.2.5-.4.8-.7.3.3.7.7.7.8-.2.3-.5.5-.7.7z"/></g><path d="M208 80.5v-.9c0-.9.1-.9.1-1.8V76c0-.4-.1-.7-.1-.9v-1.9c0-.2.1-.4.1-.8s0-.6-.1-.8v-5.4-1.1-1.8c0-.4-.2-.8-.5-1.1s-.7-.5-1.2-.5h-4.2l-2 .1h-1.5c-.4 0-.8.2-1.2.3-3.4.5-6.7 1.5-9.7 3l-.6.3c-.5.3-1 .5-1.5.8s-1 .5-1.5.8c-.3.2-.5.4-.7.6-1.4 1-2.8 2.1-4 3.3-.2.1-.4.3-.6.5v.1c-.6.6-.6 1.5-.2 2.1.1.1.2.2.2.4.3.4.5.8.8 1.3.3.4.6.8.8 1.3.6 1 1.1 2 1.6 3.1.1.2.2.5.3.7 0 .1.1.1.1.2l.1-.1c.1-.1.4.3.8.5-.2.2-.4.3-.5.4.4.8 1.3 1.1 2.1.9.3-.1.6-.2.8-.5.2-.2.3-.5.5-.7l.1-.1h.1a5.73 5.73 0 0 1 1.1-1.1c.3-.2.6-.4.8-.6l1.5-1.2c.5-.4 1-.7 1.5-1.1.5-.3.9-.6 1.4-.9 1.1-.6 2.3-1 3.6-1.4v.1 6.4.8 1.2 10.7c0 .2-.1.5-.1.9 0 .6-.1 1.2-.1 1.8v1.1l-.3 1.5-.3.9c-.2.6-.4 1.2-.6 1.7-.2.6-.4 1.2-.6 1.7l-.3.6c-.6 1.2-1.3 2.4-2.1 3.4-.2.2-.4.4-.5.6-.4.5-.8.9-1.2 1.3-.3.3-.6.6-.9 1-.3.2-.5.5-.8.7s-.7.5-1 .7c-.5.4-1 .7-1.5 1a3.04 3.04 0 0 0-.7.5c-1.3.7-2.7 1.3-4.2 1.7v-2.7-.9-1.5-5.1-.7-1.8-1.8-.9-4.5c0-1.5-.1-2.9-.3-4.3 0-.3 0-.6-.1-.8-.1-.6-.2-1.1-.4-1.7-.1-.6-.2-1.1-.4-1.7-.1-.2-.1-.4-.2-.6-.2-.7-.4-1.3-.6-1.9-.1-.3-.1-.5-.2-.7-.2-.5-.4-1.1-.7-1.6-.1-.3-.3-.5-.4-.8-.4-.9-.9-1.7-1.4-2.5-.2-.4-.4-.9-.7-1.3-.3-.5-.7-.9-1-1.3 0-.1-.1-.1-.1-.2-.3-.4-.6-.9-.9-1.3-.4-.4-.8-.9-1.1-1.3l-.5-.5-.7-.7c-1-1-2-1.9-3.1-2.7-.3-.2-.5-.5-.8-.7-.5-.3-.9-.7-1.4-1l-1.5-.9c-.5-.3-1-.5-1.5-.8s-1-.6-1.5-.8-1.1-.5-1.6-.7c-.3-.1-.6-.2-1-.2-1.5-.5-3.1-1-4.8-1.3l-.9-.3c-.6-.1-1.1-.1-1.7-.2s-1.2-.1-1.7-.1c-.6 0-1.1-.1-1.7-.1h-2.1-2.1c-.9 0-1.7.8-1.7 1.7v1.4.8c0 .6-.1.7-.1 1.5 0 .9.1.9.1 1.8s-.1.9-.1 1.8.1.9.1 1.8v.7 3.5c0 .4-.1.6-.1 1.2v1.8 1.8c0 .6 0 .8.1 1.2v3c0 .4-.1.6-.1 1.3v1.8c0 .6.1.8.1 1.1v1.4c0 .3-.1.5-.1 1.1 0 .8.1.9.1 1.5v.3c0 .8 0 1.7.1 2.5 0 .3-.1.6 0 .9.1.6.1 1.2.2 1.7.1.6.2 1.1.4 1.7.1.6.3 1.1.4 1.7s.3 1.1.5 1.7c.1.2.1.4.2.5.3.8.6 1.7 1 2.5 0 .1.1.1.1.2s.1.2.1.3a11.94 11.94 0 0 0 .8 1.6l.6 1.2c.2.3.3.5.5.8.6.9 1.2 1.8 1.8 2.6l.6.9.6.6c.4.5.8 1 1.3 1.4.1.2.3.4.4.5.2.2.5.4.7.6.4.4.9.8 1.3 1.2l.7.7c.2.2.5.3.7.5s.4.3.6.5c.1-.2.3-.3.4-.4.1 0 .3.2.7.5-.2.1-.4.2-.5.3.2.1.4.2.5.4.2.2.4.3.6.4l.6.3c1.4.9 2.9 1.6 4.4 2.2.3.1.5.1.8.1s.6-.1.8-.2.4-.3.5-.6c.2-.3.2-.5.2-.9v-1c0-.2.1-.5.1-.9v-.1c-.1 0-.1-.1-.2-.1.1 0 .1-.1.2-.1v-1.5-1.9c0-.4 0-.7-.1-.9v-2.3-.5c0-.2 0-.3-.1-.5-.1-.4-.4-.7-.7-1a24.16 24.16 0 0 1-3.6-2.7c-.2-.2-.4-.5-.6-.7-.4-.4-.8-.9-1.2-1.3l-.6-.6c-.4-.5-.7-1-1-1.5-.1-.3-.2-.6-.4-.8-.2-.4-.5-.7-.7-1.1-.5-.9-.9-1.9-1.2-2.9-.1-.3-.1-.7-.2-1-.1-.2-.1-.5-.2-.7-.1-.7-.3-1.3-.4-2v-.8c0-.4-.1-.9-.1-1.3v-.5-8.7-.4-.9-1.4-1.3-1.8-1.8-1.8-.5-.9c0-.1.1-.2.1-.3.6.2 1 .4 1.6.6.4.2.8.3 1.3.4.3.1.6.3.9.4.4.2.7.5 1.1.7.5.3 1 .6 1.5 1s1 .7 1.4 1.1c.5.4.9.8 1.4 1.2.1.1.2.2.3.2l1.5 1.8c.1.3.3.6.5.8.2.3.5.6.7 1 1.9 3.2 3.1 6.9 3.1 10.9v.9c-.1.2-.1.4-.1.9 0 .6.1.8.1 1.1v1.5c0 .2-.1.5-.1 1v1.8.8 5c0 .5-.1.6-.1 1.3 0 .5.1.7.1 1v5.1 1 1.8.7 5.3c0 .3-.1.5-.1 1.1 0 .8.1.9.1 1.4v5.2.5.7 2.9.1.1.2c.2.8.8 1.4 1.6 1.4.5 0 .7 0 .9-.1h1.8.7 1 1.4 1 1.7c.6 0 1-.3 1.3-.7a1.69 1.69 0 0 0 .3-1v-4.8-.6-1-2.6l2.6-.6c.3 0 .6-.1.9-.2s.6-.2.9-.4c.7-.2 1.3-.5 1.9-.7.2-.1.4-.1.6-.2s.4-.2.5-.3c1.2-.5 2.3-1.1 3.4-1.7.3-.1.6-.3.9-.5.2-.2.5-.3.7-.5.6-.4 1.1-.8 1.7-1.2.2-.1.4-.2.6-.4.5-.4 1-.7 1.4-1.1.3-.3.6-.7.9-1l.3-.3.9-.9.3-.3.3-.3c.9-1 1.6-2 2.4-3 .2-.2.4-.5.6-.7.2-.3.4-.7.6-1 .6-1 1.2-2 1.6-3.1.1-.2.2-.3.2-.5.1-.1.1-.3.2-.4.4-.9.7-1.8 1-2.7v-.1c.2-.5.4-1.1.6-1.6.1-.6.3-1.1.4-1.7.1-.3.1-.5.1-.8.2-1.3.4-2.5.5-3.8 0-.2.1-.3.1-.5v-1.7-.7V90c0-.5.1-.6.1-1.3v-1.8-1.8c0-.5-.1-.7-.1-.9v-3.7zm-27.8-6.4c-.3 0-.6-.4-.8-.6.2-.3.5-.6.9-1 .3.4.6.7.5.9-.1.3-.4.8-.6.7zm2.1 2.3c-.2.1-.5-.2-.8-.2a.76.76 0 0 0 .2-.4c.2-.2.4-.5.5-.5.2.1.4.4.6.6 0 .2-.2.5-.5.5zm.2-4.6c-.2 0-.4-.3-.8-.6.4-.3.6-.5.8-.5s.4.3.6.5c-.2.2-.4.5-.6.6zm2.4-3.8c.2.3.5.5.5.8 0 .2-.2.5-.5 1-.3-.5-.7-.8-.7-1.1.1-.2.5-.5.7-.7zm-1 5.6c.5-.4.7-.7.9-.7s.5.3.7.5c-.2.2-.4.6-.6.6-.2.2-.5-.1-1-.4zm.9 5.4c-.2-.3-.5-.5-.6-.8 0-.1.4-.6.6-.6s.5.3.9.5c-.3.5-.6.7-.9.9zm2.3-8.4c.2.2.6.4.7.7 0 .2-.3.5-.6.9-.3-.5-.6-.7-.6-.9 0-.3.3-.5.5-.7zm0 5.9c-.1 0-.6-.4-.5-.5.1-.3.3-.5.6-1 .4.4.6.6.8.9-.3.2-.5.4-.9.6zm2.5-2.1c-.3-.3-.7-.6-.7-.7.1-.2.3-.4.5-.6.1.5.2.9.2 1.3zm-28.5 47.5c-.2-.3-.3-.4-.3-.6s.1-.3.2-.5c.1.1.3.2.3.3 0 .2-.1.4-.2.8zm2.2 2.4c-.3-.3-.6-.6-.5-.7.1-.3.4-.5.6-.7.2.2.5.4.5.7 0 .2-.3.4-.6.7zm.1-11c.2 0 .5.4.5.7 0 .2-.3.6-.5.6s-.5-.3-.9-.6c.4-.4.7-.7.9-.7zm-.1 4.7c.3.1.6.5.7.8 0 .1-.4.6-.5.5-.3 0-.6-.3-.8-.5l-.3-.6c.3 0 .7-.2.9-.2zm-2.1-7c.1 0 .4.3.7.6-.4.3-.6.6-.8.5-.2 0-.4-.4-.6-.5.2-.2.4-.5.7-.6zm-.1 4.7c.3.3.7.5.9.8.1.1-.4.5-.8 1-.4-.4-.7-.7-.7-.9 0-.4.3-.6.6-.9zm-2.4 3.5c-.1-.3-.3-.5-.2-.6.1-.2.3-.3.4-.3s.3.2.3.2c-.1.2-.2.4-.5.7zm0-4.5c-.3-.3-.6-.6-.5-.7.1-.3.4-.5.6-.7.2.2.5.4.5.7 0 .2-.3.4-.6.7zm-.5-5.7a.55.55 0 0 1 .5-.3c.2 0 .6.3.6.5s-.3.5-.6.9c-.3-.3-.6-.6-.6-.7 0-.2 0-.3.1-.4zm-1.9 7c.1 0 .3.2.6.4-.3.2-.5.4-.6.4-.2-.1-.3-.3-.5-.4.2-.2.3-.4.5-.4z" fill="#aa3535"/></svg>