<svg xmlns="http://www.w3.org/2000/svg" viewBox="0 0 500 325" xmlns:v="https://vecta.io/nano"><path d="M42.41 120.56h82.16v83.88H42.41zm300.36 45.88c-1.44-2.18-3.15-3.91-5.13-5.21s-3.97-2.25-5.98-2.84l-4.7-1.23-7.5-1.93-1.69-.45c-2.35-.62-4.18-1.24-5.51-1.86s-2.22-1.3-2.67-2.04c-.45-.73-.68-1.7-.68-2.88 0-1.3.28-2.37.85-3.22a7.28 7.28 0 0 1 2.16-2.12c.88-.57 1.85-.96 2.93-1.19 1.07-.22 2.15-.34 3.22-.34l1.4.06v-10.38c-.27 0-.53-.02-.8-.02-2.71 0-5.43.37-8.14 1.1-2.71.74-5.14 1.86-7.29 3.39a17.94 17.94 0 0 0-5.21 5.72c-1.33 2.29-1.99 4.99-1.99 8.09 0 2.77.52 5.13 1.57 7.08s2.42 3.57 4.11 4.88c1.7 1.3 3.62 2.36 5.76 3.18 2.15.82 4.35 1.51 6.61 2.08l5.38 1.4 1.15.3c2.15.51 4.07 1.1 5.76 1.78 1.7.68 3.07 1.53 4.11 2.54 1.05 1.02 1.57 2.35 1.57 3.98 0 1.53-.4 2.78-1.19 3.77s-1.78 1.77-2.97 2.33c-1.19.57-2.46.95-3.81 1.14-1.36.2-2.63.3-3.81.3-.27 0-.54-.04-22.4-.05v10.3h21.89c4.13 0 7.76-.48 10.89-1.44 3.14-.96 5.76-2.3 7.88-4.03 2.12-1.72 3.72-3.77 4.79-6.15 1.07-2.37 1.61-4.94 1.61-7.71 0-3.39-.72-6.17-2.16-8.35zm-165.17-6.57c2.71-1.3 4.76-2.97 6.15-5 1.38-2.03 2.08-4.58 2.08-7.63 0-2.82-.47-5.2-1.4-7.12s-2.25-3.46-3.94-4.62c-1.7-1.16-3.73-1.99-6.1-2.5s-5-.76-7.88-.76h-28.48v10.34h25.77c1.19 0 2.33.1 3.43.3s2.08.55 2.92 1.06c.85.51 1.53 1.22 2.03 2.12.51.9.76 2.06.76 3.48 0 2.54-.76 4.38-2.29 5.51s-3.48 1.7-5.85 1.7h-26.79v9.07h27.81c2.88 0 5.2.67 6.95 1.99 1.75 1.33 2.63 3.55 2.63 6.66 0 1.58-.27 2.88-.8 3.9-.54 1.02-1.26 1.82-2.16 2.42-.91.59-1.95 1.02-3.14 1.27-1.19.26-2.43.38-3.73.38h-27.55v10.34h29.33c2.71 0 5.35-.34 7.93-1.02 2.57-.68 4.86-1.72 6.87-3.14 2.01-1.41 3.6-3.23 4.79-5.47 1.19-2.23 1.78-4.87 1.78-7.93 0-3.78-.92-7.02-2.75-9.71-1.84-2.68-4.62-4.56-8.35-5.64zm67.61 25.94l-.3-3.98-.17-3.39c-.11-1.53-.33-3.05-.64-4.58s-.81-2.93-1.48-4.2c-.68-1.27-1.55-2.37-2.63-3.31-1.07-.93-2.43-1.62-4.07-2.08v-.17c3.39-1.36 5.84-3.33 7.33-5.93 1.5-2.6 2.25-5.68 2.25-9.24 0-2.32-.41-4.48-1.23-6.48-.82-2.01-2.01-3.77-3.56-5.3s-3.42-2.73-5.59-3.6c-2.18-.88-4.62-1.31-7.33-1.31h-32.64v10.34h27.89c3.05 0 5.34.66 6.87 1.99s2.29 3.46 2.29 6.4-.76 5.26-2.29 6.61c-1.53 1.36-3.81 2.03-6.87 2.03h-27.89v9.49h26.62c3.33 0 5.74.74 7.21 2.21s2.43 3.79 2.88 6.95l.76 7.63c.17 2.66.62 4.95 1.36 6.87h13.31c-.62-.85-1.09-1.88-1.4-3.09-.31-1.22-.54-2.5-.68-3.86zm14.27-18v24.95h13.31v-23.22l22.47-37.3h-14.84l-20.94 35.57zm97.31 24.95h13.31v-49.33h18.14v-11.19h-31.45v60.52zm39.3-36.36h39.2v10.34h-39.2zm0-24.16h41.83v11.19h-41.83zm0 49.33h42.51v11.19h-42.51zm48.19-1.86h13.31v13.06h-13.31z" fill="#fff"/><path d="M90.96 153.32c1.5-2.6 2.25-5.68 2.25-9.24 0-2.27-.4-4.39-1.18-6.36h4.79c3.05 0 5.34.66 6.87 1.99s2.29 3.46 2.29 6.4-.76 5.26-2.29 6.61c-1.53 1.36-3.81 2.03-6.87 2.03h-6.87c.37-.46.73-.93 1.02-1.44zm-27.29-13.61c1.53-1.33 3.81-1.99 6.87-1.99h.21c3.05 0 5.34.66 6.87 1.99s2.29 3.46 2.29 6.4-.76 5.26-2.29 6.61c-1.53 1.36-3.81 2.03-6.87 2.03h-.21c-3.05 0-5.34-.68-6.87-2.03-1.53-1.36-2.29-3.56-2.29-6.61s.76-5.07 2.29-6.4zM59.6 187.9c.74-1.92 1.19-4.21 1.36-6.87l.76-7.63c.45-3.17 1.41-5.48 2.88-6.95 1.29-1.29 3.33-1.97 6.04-2.14 2.71.16 4.75.85 6.04 2.14 1.47 1.47 2.43 3.79 2.88 6.95l.76 7.63c.17 2.66.62 4.95 1.36 6.87H59.6zm35.39 0c-.62-.85-1.09-1.88-1.4-3.09-.31-1.22-.54-2.5-.68-3.86l-.3-3.98-.17-3.39c-.11-1.53-.33-3.05-.64-4.58s-.81-2.93-1.48-4.2c-.11-.2-.25-.36-.36-.55h5.57c3.33 0 5.74.74 7.21 2.21s2.43 3.79 2.88 6.95l.76 7.63c.17 2.66.62 4.95 1.36 6.87H94.98z"/></svg>