<svg xmlns="http://www.w3.org/2000/svg" xmlns:xlink="http://www.w3.org/1999/xlink" viewBox="0 0 350 350" xmlns:v="https://vecta.io/nano"><path d="M98.2 132.24h153.61v156.82H98.2z"/><path d="M188.96 193.5c2.8-4.86 4.2-10.62 4.2-17.28 0-4.24-.75-8.2-2.21-11.89h8.95c5.71 0 9.98 1.24 12.84 3.72 2.85 2.49 4.28 6.47 4.28 11.97s-1.43 9.83-4.28 12.36c-2.85 2.54-7.13 3.8-12.84 3.8h-12.85c.69-.87 1.36-1.74 1.91-2.7zm-51.03-25.44c2.85-2.48 7.13-3.72 12.84-3.72h.39c5.71 0 9.98 1.24 12.84 3.72 2.85 2.49 4.28 6.47 4.28 11.97s-1.43 9.83-4.28 12.36c-2.85 2.54-7.13 3.8-12.84 3.8h-.39c-5.71 0-9.98-1.27-12.84-3.8-2.85-2.54-4.28-6.66-4.28-12.36s1.43-9.48 4.28-11.97zm-7.61 90.1c1.37-3.59 2.22-7.87 2.54-12.84s.79-9.72 1.43-14.26c.85-5.92 2.64-10.25 5.39-13 2.4-2.4 6.22-3.69 11.29-3.99 5.07.3 8.88 1.59 11.29 3.99 2.75 2.75 4.54 7.08 5.39 13 .63 4.54 1.11 9.3 1.43 14.26.32 4.97 1.16 9.25 2.54 12.84h-41.28zm66.16 0c-1.16-1.58-2.04-3.51-2.62-5.78a49.64 49.64 0 0 1-1.27-7.21c-.27-2.54-.45-5.02-.56-7.45l-.32-6.34a67.75 67.75 0 0 0-1.19-8.56c-.58-2.85-1.51-5.47-2.77-7.84-.2-.37-.46-.68-.68-1.03h10.42c6.23 0 10.72 1.37 13.47 4.12s4.54 7.08 5.39 13c.63 4.54 1.11 9.3 1.43 14.26.32 4.97 1.16 9.25 2.54 12.84h-23.85z" fill="#fff"/><path d="M101.64 62.64c1.31-1.14 3.27-1.71 5.89-1.71h.18c2.62 0 4.58.57 5.89 1.71s1.96 2.97 1.96 5.49-.65 4.51-1.96 5.67-3.27 1.74-5.89 1.74h-.18c-2.62 0-4.58-.58-5.89-1.74s-1.96-3.05-1.96-5.67.65-4.35 1.96-5.49zm-3.49 41.31c.63-1.65 1.02-3.61 1.16-5.89l.65-6.54c.39-2.71 1.21-4.7 2.47-5.96 1.1-1.1 2.85-1.69 5.18-1.83 2.32.14 4.07.73 5.18 1.83 1.26 1.26 2.08 3.25 2.47 5.96l.65 6.54c.15 2.28.53 4.24 1.16 5.89H98.14z"/><use xlink:href="#B"/><use xlink:href="#B" x="67.09"/><g fill="none" stroke="#000" stroke-linecap="round" stroke-linejoin="round" stroke-width="1.88"><path d="M141.45 79.85v10.52"/><path d="M146.71 85.11h-10.52m72.65-5.26v10.52"/><path d="M214.1 85.11h-10.52"/></g><defs ><path id="B" d="M169.32 62.64c1.31-1.14 3.27-1.71 5.89-1.71h.18c2.62 0 4.58.57 5.89 1.71s1.96 2.97 1.96 5.49-.65 4.51-1.96 5.67-3.27 1.74-5.89 1.74h-.18c-2.62 0-4.58-.58-5.89-1.74s-1.96-3.05-1.96-5.67.65-4.35 1.96-5.49zm-3.49 41.31c.63-1.65 1.02-3.61 1.16-5.89l.65-6.54c.39-2.71 1.21-4.7 2.47-5.96 1.1-1.1 2.85-1.69 5.18-1.83 2.32.14 4.07.73 5.18 1.83 1.26 1.26 2.08 3.25 2.47 5.96l.65 6.54c.15 2.28.53 4.24 1.16 5.89h-18.93z"/></defs></svg>