<svg xmlns="http://www.w3.org/2000/svg" viewBox="0 0 442 552" xmlns:v="https://vecta.io/nano"><path d="M233.8 332.7l-23.1-.9c-10.3-.6-20.4-2.1-30.4-5-16-4.6-29.6-13.1-40.8-25.5-7.1-7.8-12.1-17-15.9-26.8-3-7.8-5.3-15.8-6.6-24.1-.9-6-1.7-12-2-18.1-.4-6.4-.5-12.8-.2-19.2.3-6.1 1-12.2 1.8-18.2 1.6-11.1 4.6-21.8 9.2-32.2 6-13.8 15.2-25 26.6-34.6 10.7-8.9 22.8-14.6 36.2-17.9 7.6-1.8 15.4-2.9 23.2-3.7 9.9-.9 19.9-1.2 29.9-.8 7.2.3 14.4 1.1 21.6 2.1 9.8 1.2 19.4 3.2 28.9 6.2 6.7 2.1 11.3 8.4 11.3 15.4l.3 23.3.4 13.4c.1 3.9-.9 7.4-4.1 10-3.4 2.8-7.6 1.6-9.4-2.4-2.5-5.9-4.9-11.8-7.7-17.6-3.9-7.9-8.8-15.2-15-21.5-2.1-2.2-4.3-4.4-7.6-4.9-5.5-1-11.3 3.6-11.2 9.2.1 4 .7 8 1 12l1.3 16.3 1.1 19.1c.1 2.8.3 5.7.3 8.5l.2 38.9c0 6.7-.3 13.3-.7 20l-2.5 32-1.4 13.8c-.4 3.8 1 6.9 4.2 9 3.3 2.2 6.7 2.4 10.2.4 4.9-2.8 8.7-6.8 12.1-11.2 5.3-6.8 9.2-14.5 12.9-22.3l7.3-16.4c1.3-2.9 3.3-3.8 6.3-2.9 4 1.3 6.2 5.1 5.7 9.7l-1.6 16.6c-.6 6.5-.9 13-2.1 19.4-2.5 12.6-10.4 20.6-22.6 24.3-9.6 2.8-19.4 4.4-29.4 5.2-5.7.7-11.5 1-17.7 1.4h0zm-1.9-114.4h0v-81c0-.7 0-1.3-.1-2-.6-3.7-2.7-6.2-6-7.6-3.2-1.3-6.3-1-9.1 1-3 2.2-5.6 4.9-7.9 7.9-4.7 6-7.9 12.8-10.5 19.8-3.5 9.6-5.6 19.5-7 29.5-.7 5.1-1.2 10.3-1.5 15.5a289.61 289.61 0 0 0-.6 18.7c0 6 .4 12 .7 18 .3 4.6.7 9.2 1.3 13.7a218.87 218.87 0 0 0 2.6 14.1c2.1 9.8 5.4 19.2 10.6 27.8 3.2 5.3 7.2 10 12.3 13.6 3 2.1 6.3 2.4 9.6.8s5.3-4.2 5.5-7.9c.1-2.8 0-5.5 0-8.3l.1-40.2v-33.4h0z" fill="#f3dad8"/><path d="M274.3 417.3h0v-24.1-.6c-.2-1.1-1-1.8-2.2-2.3-1.2-.4-2.3-.3-3.3.3-1.1.7-2.1 1.5-2.9 2.4-1.7 1.8-2.9 3.8-3.9 5.9-1.3 2.8-2.1 5.8-2.6 8.8-.3 1.5-.4 3.1-.6 4.6l-.2 5.5a45.78 45.78 0 0 0 .3 5.3c.1 1.4.2 2.7.5 4.1.2 1.4.6 2.8.9 4.2.8 2.9 2 5.7 3.9 8.3 1.2 1.6 2.6 3 4.5 4 1.1.6 2.3.7 3.5.2s2-1.2 2-2.4V439v-12l.1-9.7h0zm6.6 0h0v-24.1-.6c.2-1.1 1-1.8 2.2-2.3 1.2-.4 2.3-.3 3.3.3 1.1.7 2.1 1.5 2.9 2.4 1.7 1.8 2.9 3.8 3.9 5.9 1.3 2.8 2.1 5.8 2.6 8.8.3 1.5.4 3.1.6 4.6l.2 5.5a45.78 45.78 0 0 1-.3 5.3c-.1 1.4-.2 2.7-.5 4.1-.2 1.4-.6 2.8-.9 4.2-.8 2.9-2 5.7-3.9 8.3-1.2 1.6-2.6 3-4.5 4-1.1.6-2.3.7-3.5.2s-2-1.2-2-2.4V439v-12l-.1-9.7h0zm-89.6-10.5c-.1 0-.3-.1-.3-.2-2.4-7-6.6-14.4-13.6-14.4-11.4 0-12.8 17.6-12.8 24.8 0 10.1 1.9 24.8 13.2 24.8 7.6 0 10.2-4.9 14.4-14.9.1-.1.2-.2.3-.2h2.3c.2 0 .4.1.4.3h0l-1.3 15.3c0 .1-.1.2-.2.3-5.3 2.8-11.8 3.7-18.2 3.7-10.8 0-17-1.8-22.3-6.6-5-4.5-7.8-12.5-7.8-21.8 0-8.4 2.2-16.6 7.3-21.8s10.4-8.1 23.9-8.1c4.5 0 13.4 1.1 17.4 3.4.1.1.2.2.1.3v14.7c0 .2-.1.3-.3.3l-2.5.1h0z" fill="#fff"/><g fill="none" stroke="#fff" stroke-width="1.88" stroke-linecap="round" stroke-linejoin="round"><path d="M225 410.1v14.3"/><path d="M232.1 417.3h-14.2"/></g></svg>