<svg xmlns="http://www.w3.org/2000/svg" viewBox="0 0 500 325" xmlns:v="https://vecta.io/nano"><path d="M128.59 151.8a.47.47 0 0 1-.41-.26c-2.91-8.51-8.07-17.54-16.58-17.54-13.89 0-15.55 21.41-15.55 30.22 0 12.31 2.28 30.22 16.07 30.22 9.21 0 12.38-5.97 17.47-18.13.07-.15.22-.26.41-.26h2.8c.22 0 .44.18.44.41v.04l-1.58 18.57c0 .15-.07.29-.22.33-6.49 3.43-14.37 4.53-22.11 4.53-13.15 0-20.63-2.17-27.08-8.07-6.08-5.53-9.47-15.22-9.47-26.49 0-10.24 2.65-20.16 8.84-26.46s12.68-9.84 29.04-9.84c5.53 0 16.32 1.4 21.11 4.13.11.07.22.22.18.33v17.87c0 .22-.18.41-.41.41h-2.95zm191.72 37.33c0 5.12.48 5.53 5.38 5.79.22 0 .41.18.41.41h0v2.54c0 .22-.18.41-.41.41h-24.91a.41.41 0 0 1-.41-.33l-.74-3.94c-.04-.22-.26-.37-.52-.33-.07 0-.11.04-.15.07-5.53 3.98-9.88 5.9-14.59 5.9-12.9 0-19.97-9.43-19.97-27.23 0-20.78 9.29-27.93 27.34-27.93 2.1-.04 4.16.18 6.19.66.22.07.44-.07.52-.29v-8.29c0-2.91-.52-4.02-2.17-4.35l-2.62-.37c-.22-.04-.37-.22-.37-.41v-2.58c0-.22.18-.37.37-.41l26.16-2.25c.07-.04.18-.04.26 0h0a.43.43 0 0 1 .18.33l.04 62.6zm-21.96-33.46c0-7.11-3.1-7.22-4.75-7.22-3.21 0-6.41 6.01-6.41 21.85s3.83 21.52 7.55 21.52c2.69 0 3.68-2.69 3.68-5.27l-.07-30.88zm58.55-10.1l.11.07c.11.07.18.18.15.33v43.15c0 5.16.48 5.79 6.96 5.79.22 0 .41.18.41.41v2.51c0 .22-.18.41-.41.41h-34.78c-.22 0-.41-.18-.41-.41v-2.47c0-.22.18-.41.41-.41h0c4.9-.29 5.38-.63 5.38-5.79v-32.94c0-2.8-.52-3.91-2.17-4.24l-2.65-.44c-.22-.04-.37-.22-.33-.41v-2.54c0-.22.18-.41.37-.41l26.57-2.65a.4.4 0 0 1 .41.04zm-20.75-10.76c0-4.86 3.28-8.59 9.51-8.59s9.62 3.68 9.62 8.59-3.32 8.59-9.62 8.59-9.51-3.72-9.51-8.59zm85.3 54.31c0 5.12.48 5.53 5.38 5.79.22 0 .41.18.41.37v2.58c0 .22-.18.41-.41.41h-24.95a.41.41 0 0 1-.41-.33l-.74-3.94c-.04-.22-.26-.37-.52-.33-.07 0-.11.04-.15.07-5.53 3.98-9.84 5.9-14.55 5.9-12.9 0-19.97-9.43-19.97-27.23 0-20.78 12.01-27.93 27.34-27.93 2.1-.04 4.16.18 6.19.66.22.07.44-.07.52-.29v-8.29c0-2.91-.52-4.02-2.17-4.35l-2.62-.37c-.22-.04-.37-.22-.37-.41v-2.58c0-.22.18-.37.37-.41l26.2-2.25c.07-.04.18-.04.26 0h0a.43.43 0 0 1 .18.33v62.6zm-22-33.46c0-7.11-3.1-7.22-4.75-7.22-3.21 0-6.41 6.01-6.41 21.85s3.83 21.52 7.55 21.52c2.69 0 3.68-2.69 3.68-5.27l-.07-30.88zm-210.51 33.79v-29.48c0-7.77-2.73-16.14-22.7-16.14h0c-7.37 0-15.92 1.07-21.81 5.9-2.73 2.14-4.31 5.42-4.35 8.88.15 4.46 4.68 7.15 8.84 7.07 7.37-.11 6.45-8.18 9.03-12.9.74-1.51 1.84-2.8 3.17-3.8.48-.29 2.98-.77 3.13-.99h0c3.1 0 4.75 1.84 4.75 7.85v6.12c0 .11-.04.26-.11.33-3.21 2.69-17.65 6.74-20.01 7.37-8.59 2.69-11.05 7.15-11.05 13.67 0 9.21 8.22 15.7 18.42 15.7 6.34 0 9.47-3.32 12.9-5.97.18-.15.44-.11.59.07q0 0 .04.07c1.73 3.98 5.53 5.82 12.09 5.82 4.57.07 9.1-.37 13.6-1.25.18-.07.29-.22.29-.41v-2.58c0-.22-.18-.41-.37-.41-1.55-.22-6.45-.81-6.45-4.94zm-19.82-4.31c0 4.75-1.03 6.08-3.28 6.08-3.54 0-6.74-5.38-6.74-11.28 0-8.4 3.57-9.95 9.4-13.23.22-.11.48-.04.59.18.04.07.04.15.04.18v18.06zm87.66 3.94V160.3h0c.96-10.76-3.91-17.39-16.14-16.43-7 .52-10.24 3.06-15.92 6.89-.18.15-.44.11-.55-.07-.04-.04-.07-.11-.07-.18l-1.47-7.26c-.04-.22-.26-.37-.48-.33l-24.1 3.8c-.22.04-.37.22-.37.41v2.58a.41.41 0 0 0 .33.41l2.65.44c1.66.29 2.17 1.44 2.17 4.24v35.63c0 2.8-.37 3.46-3.35 3.87-.22.04-.37.22-.37.41v2.51c0 .22.18.41.41.41h28.52c.22 0 .41-.18.41-.41v-2.58a.41.41 0 0 0-.33-.41c-2.87-.48-3.35-2.43-3.35-5.23v-26.83c0-7.37 2.06-9.84 5.38-9.84 2.87 0 4.86 2.28 4.86 9.21v28.85c0 2.8-.37 3.46-3.35 3.87a.44.44 0 0 0-.33.41v2.51c0 .22.18.41.41.41h31.76c.22 0 .41-.18.41-.41v-2.47c0-.22-.18-.41-.41-.41-7.41.04-6.71-1.29-6.71-5.2zm-95.25 39.24c1.22 0 2.36.55 3.17 1.44.15.15.37.15.52 0l1.73-1.33a.39.39 0 0 0 0-.59h0a7.24 7.24 0 0 0-5.53-2.58c-4.38.29-7.7 4.09-7.41 8.51.26 3.98 3.43 7.15 7.41 7.41a7.11 7.11 0 0 0 5.01-2.06c.15-.15.18-.41 0-.59h0l-1.62-1.47c-.15-.15-.41-.15-.55 0a4.06 4.06 0 0 1-2.84 1.14c-2.73-.29-4.72-2.73-4.42-5.45a5.02 5.02 0 0 1 4.42-4.42h.11zm22.51-3.02c-4.38-.29-8.18 3.06-8.47 7.44s3.06 8.18 7.44 8.47 8.18-3.06 8.47-7.44v-.52c.15-4.24-3.21-7.81-7.44-7.96zm0 12.9c-2.73.29-5.2-1.69-5.49-4.42s1.69-5.2 4.42-5.49 5.2 1.69 5.49 4.42c.04.18.04.33.04.52.11 2.62-1.88 4.86-4.46 4.97h0zm51.11-13.15H224.8s-.11.07-.07.11v14.55c.04.22.22.37.44.33h2.21c.22 0 .41-.18.41-.41v-5.45h5.93c.22 0 .41-.18.41-.41v-2.17c0-.22-.18-.41-.41-.41h-5.97v-2.98h7.37c.22 0 .41-.18.41-.41v-2.28c.04-.26-.15-.44-.37-.48zm22.03 3.13c.22 0 .41-.18.41-.41v-2.28c0-.22-.15-.41-.37-.41h-10.35s-.11.07-.07.11v14.55c.04.22.22.37.44.33h10.02c.22 0 .41-.18.37-.41v-2.28c0-.22-.18-.41-.41-.41h-7.37v-2.73h5.9c.22 0 .41-.18.41-.41v-2.17c0-.22-.18-.41-.41-.41h-5.93v-2.98h7.37v-.11zm21.96 0c.22 0 .41-.18.41-.41v-2.28c0-.22-.15-.41-.37-.41h-10.35s-.11.07-.07.11v14.55c.04.22.22.37.44.33h10.02c.22 0 .41-.18.37-.41v-2.28c0-.22-.18-.41-.41-.41h-7.37v-2.73h5.93c.22 0 .41-.18.41-.41v-2.17c0-.22-.18-.41-.41-.41h-5.93v-2.98h7.33v-.11zm-65.81-3.13h-10.35s-.04.07 0 .11v14.55c0 .15.11.26.22.33h2.17c.22 0 .41-.15.41-.37v-5.49h5.93c.22 0 .41-.18.41-.41v-2.17c0-.22-.18-.41-.41-.41h-5.79v-2.98h7.37c.22 0 .41-.18.41-.41v-2.28c.04-.26-.15-.44-.37-.48zm102.51 3.28c1.22 0 2.36.55 3.13 1.44.15.15.41.15.55 0l1.73-1.33c.15-.18.15-.44 0-.59-1.36-1.66-3.39-2.58-5.53-2.58-4.38.29-7.7 4.09-7.41 8.51.26 3.98 3.43 7.15 7.41 7.41 1.88 0 3.65-.74 4.97-2.06.15-.15.18-.37.04-.55l-.04-.04-1.58-1.47c-.15-.15-.41-.15-.55 0a4.06 4.06 0 0 1-2.84 1.14c-2.73-.29-4.72-2.73-4.42-5.45a5.02 5.02 0 0 1 4.42-4.42h.11zm22.51-3.02c-4.38-.33-8.22 2.95-8.55 7.33s2.95 8.22 7.33 8.55 8.22-2.95 8.55-7.33c0-.18.04-.41.04-.59a7.79 7.79 0 0 0-7.37-7.96zm0 12.9c-2.73.29-5.2-1.69-5.49-4.42s1.69-5.2 4.42-5.49 5.2 1.69 5.49 4.42c.04.18.04.33.04.52.11 2.62-1.88 4.86-4.46 4.97h0z" fill="#fff"/><path d="M176.77 100.18h144.6v2.02h-144.6zm29.59-28.24h8.43v1.66h-6.55v3.67h6.42v1.66h-6.42v3.91h6.55v1.66h-8.43V71.95zm12.27 10.13c.62.68 1.83 1.3 3.05 1.3s1.96-.53 1.96-1.3c0-.9-1.04-1.2-2.2-1.47-1.54-.36-3.35-.77-3.35-2.73 0-1.45 1.24-2.69 3.46-2.69 1.56 0 2.69.57 3.46 1.3l-.75 1.19c-.53-.64-1.54-1.11-2.69-1.11s-1.86.45-1.86 1.19c0 .79.98 1.05 2.11 1.32 1.58.36 3.46.79 3.46 2.88 0 1.56-1.28 2.78-3.67 2.78-1.52 0-2.86-.47-3.78-1.41l.81-1.24zm10.64.41v-5.59h-1.51V75.4h1.51v-2.48h1.69v2.48h1.84v1.49h-1.84v5.21c0 .64.3 1.11.88 1.11.4 0 .75-.17.92-.36l.43 1.28c-.36.34-.88.58-1.77.58-1.43 0-2.16-.81-2.16-2.24zm7.79-.13c.64 0 1.19.53 1.19 1.17s-.55 1.19-1.19 1.19-1.17-.55-1.17-1.19a1.18 1.18 0 0 1 1.17-1.17zm11.1.66c4.7-3.61 6.87-5.5 6.87-7.47 0-1.47-1.22-2.11-2.45-2.11-1.49 0-2.63.62-3.41 1.54l-1.11-1.22c1.04-1.3 2.75-1.99 4.5-1.99 2.26 0 4.38 1.28 4.38 3.78s-2.35 4.65-5.8 7.3h5.85v1.66h-8.84v-1.49zm17.43-11.26c3.48 0 4.91 3.37 4.91 6.47s-1.43 6.49-4.91 6.49-4.91-3.39-4.91-6.49 1.43-6.47 4.91-6.47zm0 1.68c-2.22 0-2.99 2.35-2.99 4.8s.77 4.82 2.99 4.82 2.99-2.37 2.99-4.82-.77-4.8-2.99-4.8zm10.76.98l-2.03 2.13-1.11-1.15 3.37-3.44h1.66V84.5h-1.88V74.41zm8.56 3.61c-1.43-.43-2.69-1.37-2.69-2.99 0-2.28 2.28-3.27 4.46-3.27s4.44 1 4.44 3.27c0 1.62-1.28 2.56-2.71 2.99 1.54.49 2.9 1.64 2.9 3.27 0 2.18-2.13 3.42-4.63 3.42s-4.67-1.22-4.67-3.42c0-1.64 1.36-2.79 2.9-3.27zm1.77.85c-.79.09-2.77.73-2.77 2.2 0 1.22 1.26 1.98 2.77 1.98s2.75-.75 2.75-1.98c0-1.47-2-2.11-2.75-2.2zm0-5.44c-1.47 0-2.56.7-2.56 1.88 0 1.34 1.79 1.83 2.56 1.96.77-.13 2.54-.62 2.54-1.96 0-1.19-1.13-1.88-2.54-1.88z" fill="#ffdf8a"/></svg>