<?xml version="1.0" encoding="UTF-8"?><svg id="Layer_1" xmlns="http://www.w3.org/2000/svg" viewBox="0 0 305.49 305.49"><defs><style>.cls-1{fill-rule:evenodd;}</style></defs><path class="cls-1" d="m152.75,3.05C70.11,3.05,3.05,70.11,3.05,152.75s67.05,149.69,149.69,149.69,149.69-67.05,149.69-149.69S235.22,3.05,152.75,3.05Zm98.87,69c17.86,21.76,28.57,49.52,28.9,79.55-4.22-.81-46.43-9.42-88.97-4.06-.97-2.11-1.79-4.38-2.76-6.66-2.6-6.17-5.52-12.5-8.44-18.51,47.08-19.16,68.51-46.76,71.27-50.33Zm-98.87-46.92c32.47,0,62.18,12.18,84.75,32.15-2.27,3.25-21.59,29.06-67.05,46.11-20.94-38.48-44.16-69.98-47.73-74.85,9.58-2.27,19.64-3.41,30.04-3.41Zm-54.39,12.01c3.41,4.55,26.14,36.21,47.41,73.87-59.75,15.91-112.51,15.59-118.19,15.59,8.28-39.61,35.07-72.57,70.79-89.46ZM24.81,152.91v-3.9c5.52.16,67.54.97,131.35-18.18,3.73,7.14,7.14,14.45,10.39,21.76-1.62.49-3.41.97-5.03,1.46-65.92,21.27-100.98,79.39-103.91,84.26-20.29-22.57-32.8-52.6-32.8-85.4Zm127.94,127.77c-29.55,0-56.82-10.07-78.42-26.95,2.27-4.71,28.25-54.71,100.34-79.88.32-.16.49-.16.81-.32,18.02,46.6,25.33,85.72,27.28,96.93-15.42,6.66-32.31,10.23-50.01,10.23Zm71.27-21.92c-1.3-7.79-8.12-45.14-24.84-91.08,40.1-6.33,75.17,4.06,79.55,5.52-5.52,35.56-25.98,66.24-54.71,85.56Z"/></svg>