<svg xmlns="http://www.w3.org/2000/svg" viewBox="0 0 259.22 165.3" xmlns:v="https://vecta.io/nano"><style><![CDATA[.I{stroke-miterlimit:10}.J{stroke-dasharray:0 0 2.21 2.21}.K{stroke:#8cdbcd}]]></style><g stroke-width=".28" fill="none" class="K"><circle cx="129.61" cy="83.11" r="58.68"/><circle cx="129.61" cy="83.11" r="50.39"/><circle cx="129.61" cy="83.11" r="42.1"/><g class="I"><path d="M204.72 83.11H54.51"/><path d="M129.61 158.21V8m-8.25 150.21V8m16.5 150.21V8"/></g></g><g opacity=".5" fill="none" stroke-width="2.22" class="K"><circle cx="129.61" cy="83.11" r="58.68"/><circle cx="129.61" cy="83.11" r="50.39"/><circle cx="129.61" cy="83.11" r="42.1"/><g class="I"><path d="M129.61 158.21V8m-8.25 150.21V8m16.5 150.21V8"/></g><circle cx="129.61" cy="83.11" r="58.68"/><circle cx="129.61" cy="83.11" r="50.39"/><circle cx="129.61" cy="83.11" r="42.1"/><g class="I"><path d="M204.72 83.11H54.51"/><path d="M129.61 158.21V8m-8.25 150.21V8m16.5 150.21V8"/></g></g><path d="M124.72 74.87v17.94l42.14 17.2 21.43-27.79-53.8-43.67V19.7h-9.77v16.54c-23.64 2.45-42.13 22.49-42.13 46.77 0 25.93 21.09 47.02 47.02 47.02v-9.77c-20.54 0-37.25-16.71-37.25-37.25s15.8-36.32 35.56-37.21l46.81 38-11.07 14.35-29.17-11.9V74.87h-9.77zm-12.76-52.66C85.08 30.03 66.3 55.03 66.3 83.02c0 34.91 28.4 63.31 63.31 63.31v-9.77c-29.52 0-53.54-24.02-53.54-53.53 0-23.67 15.88-44.81 38.61-51.42 1.16-.34 2.34-.63 3.52-.89v-9.93c-2.1.38-4.2.84-6.25 1.43z"/><g stroke-width=".55" fill="none" class="K"><circle cx="129.61" cy="83.11" r="58.68" transform="matrix(.707107 -.707107 .707107 .707107 -20.8 115.99)" stroke-dasharray="0 0 2.22 2.22"/><circle cx="129.61" cy="83.11" r="50.39" stroke-dasharray="0 0 2.23 2.23"/><circle cx="129.61" cy="83.11" r="42.1" transform="matrix(.707107 -.707107 .707107 .707107 -20.8 115.99)" stroke-dasharray="0 0 2.2 2.2"/><g class="I"><path d="M204.72 83.11h-1.11"/><path d="M201.4 83.11H56.72" class="J"/><path d="M55.61 83.11h-1.1m75.1 75.1v-1.11"/><path d="M129.61 154.89V10.21" class="J"/><path d="M129.61 9.11V8m-8.25 150.21v-1.11"/><path d="M121.36 154.89V10.21" class="J"/><path d="M121.36 9.11V8m16.5 150.21v-1.11"/><path d="M137.86 154.89V10.21" class="J"/><path d="M137.86 9.11V8"/></g></g></svg>