<svg xmlns="http://www.w3.org/2000/svg" viewBox="0 0 500 325" xmlns:v="https://vecta.io/nano"><path d="M213.43 102.21h-43.39V60.76h12.39v29.05h31v12.4zm116.52 56.37h-12.39v-11.12h-59.55v-12.39h71.94v23.51zm-159.72-46.14h43.19v12.39h-43.19zm159.81 12.39h-50.46l5.66-12.39h44.8v12.39z" fill="#fff"/><path d="M322.07 180.23c1.51 0 2.79-.53 3.84-1.58s1.58-2.33 1.58-3.84-.53-2.8-1.58-3.88c-1.05-1.07-2.34-1.61-3.84-1.61a5.33 5.33 0 0 0-3.88 1.61 5.26 5.26 0 0 0-1.61 3.88c0 1.51.54 2.79 1.61 3.84a5.35 5.35 0 0 0 3.88 1.58zm-81.48 28.94c-.24-.39-.16-.72.25-.97l1.54-.68c.67-.42 1.12-1.02 1.36-1.81s.09-1.62-.44-2.48c-.54-.86-1.27-1.41-2.19-1.63s-1.9-.02-2.92.62-1.61 1.55-1.77 2.73a4.76 4.76 0 0 0 .69 3.26c.89 1.43 2.18 2.45 3.86 3.08 1.69.63 4.65.78 6.89.48l-.15-.77c-3.27.09-6.32-.52-7.14-1.83zm13.88-24.06c.19.36.09.63-.29.83l-1.39.48c-.61.32-1.04.81-1.31 1.48-.26.67-.19 1.4.22 2.19s1.01 1.31 1.8 1.56c.79.26 1.65.14 2.58-.35s1.51-1.24 1.72-2.26.09-1.98-.39-2.88c-.68-1.3-1.73-2.28-3.15-2.93-1.42-.66-3.12-.92-5.08-.81l.08.68c2.85.14 4.58.81 5.21 2zm-.39 9.35l-5.92-1.74c-1.98-.52-3.67-1.19-5.05-2.02-1.39-.83-2.08-1.82-2.08-2.98s.56-2.13 1.67-2.91c.78-.55 1.69-.93 2.54-1.33.02-.01.05-.02.06-.04.01-.03 0-.06 0-.09l-.1-.34-.09-.34c-.13-.47-2.88.42-3.3.57-1.1.38-2.16.91-3.11 1.58-2.29 1.61-3.57 3.66-3.81 6.14-.25 2.48.3 4.49 1.64 6.01 1.34 1.53 3.04 2.65 5.08 3.35l6.23 1.86c2.11.54 3.91 1.23 5.39 2.08 1.49.85 2.23 1.93 2.23 3.26s-.97 2.75-2.56 3.81c-.3.2-.1.66.25.59 2.06-.4 3.72-1.13 4.98-2.19 2.02-1.72 3.04-4 3.04-6.85 0-2.15-.69-3.93-2.08-5.33-1.39-1.41-3.06-2.43-5.02-3.07zm23.22 13.36c-.33-.54-.64-1.19-.93-1.95s-.43-2.92-.43-6.48v-15.13h7.19v-1.24h-7.19v-9.49h-.87c-.58 2.81-1.63 5.01-3.16 6.6s-3.29 2.55-5.27 2.88h-4.59v1.24h4.59v16.55c0 4.26.91 7.21 2.73 8.87 1.82 1.65 4.46 2.48 7.94 2.48 2.36 0 4.53-.7 6.51-2.11v-1.24c-.62.41-1.71.62-3.26.62s-2.64-.54-3.26-1.61zm49.64-24.8h-11.78v1.24h2.48v26.04h-3.1v1.24h15.5v-1.24h-3.1v-27.28zm32.21 26.32c-.54-.56-.81-1.93-.81-4.12v-11.16c0-4.3-.92-7.3-2.76-8.99s-4.92-2.54-9.24-2.54l-2.82.13c1.52.52 3.66 1.35 4.57 2.76.64 1 .7 2.34.8 3.49l.14 3.91v3.04l-2.48.31c-5.37.62-9.14 1.69-11.28 3.19-2.15 1.51-3.22 3.65-3.22 6.42 0 2.07.73 3.63 2.2 4.68s3.34 1.58 5.61 1.58c4.26 0 7.42-1.07 9.49-3.22.87 2.03 3 3.04 6.39 3.04 1.53 0 2.87-.16 4.03-.47s1.94-.67 2.36-1.09v-.62c-1.45.33-2.44.22-2.98-.34zm-10.11-1.77c-.95 1.24-2.06 1.86-3.32 1.86s-2.37-.42-3.32-1.27-1.53-2.06-1.74-3.63c-.17-2.15.34-3.82 1.52-5.02s2.72-1.92 4.62-2.17l2.23-.31v10.54zm27.66-24.55h-12.4v1.24h3.1v26.04h-3.1v1.24h15.5v-1.24h-3.1v-27.28zm20.15 27.28v-16c0-7.98-3.68-11.97-11.04-11.97-2.63 0-5.91.6-7.15 3.26l-.41.9c1.15-1.11 2.51-1.68 4.09-1.68 1.74 0 3.04.62 3.91 1.86s1.3 3.33 1.3 6.26v17.36h-3.1v1.24h15.5v-1.24h-3.1zm-271.74-30.35c1.47 1.26 2.2 3.73 2.2 7.41h1.24v-10.54h-10.51l.03 1.24c3.23 0 5.58.64 7.04 1.89zm-25.08-1.89h3.1v32.24h-3.1v1.24h12.4v-34.72h-12.4v1.24zm21.7 21.7h1.24v-12.4h-1.24c0 2.23-.39 3.72-1.18 4.46-.78.74-2.65 1.11-5.61 1.12v1.24c2.96 0 4.83.35 5.61 1.05s1.18 2.21 1.18 4.53zm-3.1 10.54h-.03v1.24h10.57v-11.78h-1.24c0 7.03-3.1 10.54-9.3 10.54zm25.92-3.22c-1.28-2.07-1.92-5.38-1.92-9.95s.5-7.77 1.49-9.61 2.5-2.76 4.53-2.76H152v-1.75c-.86-.2-4.97-.74-6.02-.74-3.64 0-6.68 1.32-9.11 3.97-2.44 2.65-3.66 6.39-3.66 11.22s1.2 8.62 3.6 11.35 5.31 4.09 8.74 4.09c1.34 0 2.61-.23 3.82-.67v-2.08c-.06 0-.13.01-.19.01-1.8 0-3.34-1.03-4.62-3.1zm36.18.8c-.87-1.24-1.3-3.33-1.3-6.26v-18.6h-25.11v40.3h-3.1v1.24h15.5v-1.24h-3.1v-39.06h6.51v16c0 7.98 3.68 11.97 11.04 11.97 1.94 0 3.75-.38 5.43-1.15.21-.1.39-.2.59-.3v-1.62c-.78.39-1.63.59-2.54.59-1.74 0-3.04-.62-3.91-1.86zm18.85-24.86h-12.4v1.24h3.1v27.28h12.4v-1.24h-3.1v-27.28zm18.54 16.12h13.98c0-5.87-1.31-10.13-3.94-12.77s-5.91-3.97-9.86-3.97-7.31 1.21-10.08 3.63-4.15 6.13-4.15 11.13c0 2.94.47 5.44 1.4 7.5.93 2.07 2.22 3.62 3.88 4.65 1.65 1.03 3.35 1.77 5.08 2.2 1.74.43 3.69.65 5.86.65s4.35-.5 6.54-1.49 3.74-2.25 4.65-3.78l-.87-.62c-.83 1.2-2.14 2.13-3.94 2.79s-3.4.99-4.81.99c-5.25 0-8.08-3.64-8.49-10.91l-.06-1.24v-.68c0-3.56.39-6.71 1.18-9.46.78-2.75 2.07-4.12 3.84-4.12s3.07 1.43 3.88 4.28 1.21 6.18 1.21 9.98h-5.3v1.24zm81.2-16.12h-13.96v1.24h4.65v26.04h-3.1v1.24h15.51v-1.24h-3.1v-27.28zm10.56-.78c-1.82-.57-3.68-.5-5.59.2-1 .37-1.97.91-2.91 1.61v1.41c1.92-1.38 3.53-1.88 4.81-1.48.5.16.66.5.5 1.03l-.83 1.72c-.27.85-.21 1.7.16 2.56s1.11 1.46 2.21 1.8 2.13.27 3.08-.22c.96-.49 1.64-1.38 2.05-2.69.41-1.3.24-2.52-.49-3.65-.74-1.13-1.74-1.9-3-2.29zm26.41 11.67c1.2.66 2.31.83 3.34.52s1.82-.97 2.38-1.98.67-1.95.35-2.83-.87-1.53-1.65-1.96l-1.79-.67c-.48-.27-.6-.63-.35-1.09.65-1.18 1.67-2.05 4.67-2.13l-.22-.12c-1.27-.68-2.79-.77-4.11-.2 0 0-.02 0-.03.01-1.87.81-3.26 2.05-4.18 3.72-.64 1.16-.83 2.4-.58 3.73a4.11 4.11 0 0 0 2.17 2.98zM180.42 239.5c-.2-.25-.44-.49-.72-.7a5.83 5.83 0 0 0-.86-.57l-.9-.45-6.26-2.81-5.04 11.23 6.39 2.87 1.17.47c.4.14.79.25 1.16.31.32.06.63.09.93.09h.2a3.11 3.11 0 0 0 1.1-.26c.34-.16.66-.38.95-.68.28-.29.52-.67.73-1.12.2-.44.32-.87.36-1.29.04-.44-.01-.87-.17-1.27-.12-.32-.32-.63-.57-.93a2.13 2.13 0 0 0 .33-.11 2.28 2.28 0 0 0 .85-.6c.23-.25.44-.57.61-.96.19-.43.3-.84.34-1.21.03-.38 0-.75-.11-1.09-.1-.33-.27-.64-.49-.92zm-4.32 8.36a3.16 3.16 0 0 1-.75-.11c-.42-.11-.94-.3-1.53-.56l-4.39-1.97 1.41-3.14 4.27 1.92c.57.25 1.04.51 1.4.77.34.24.59.48.75.71.14.21.21.43.22.65 0 .25-.06.53-.19.83-.13.28-.28.5-.44.65-.14.13-.32.2-.54.23l-.21.01zm2.37-5.46c-.09.1-.21.17-.39.21-.09.02-.19.03-.31.03-.16 0-.35-.02-.57-.06-.4-.07-.92-.25-1.54-.54l-4.01-1.8 1.14-2.55 4.01 1.8c.45.2.82.39 1.11.58.28.18.5.34.67.5.18.17.25.29.29.37a.98.98 0 0 1 .09.31c0 .1 0 .19-.03.28a2.35 2.35 0 0 1-.14.37 2.2 2.2 0 0 1-.32.51zm24.35 5.44c-.52-.69-1.2-1.29-2.02-1.79-.8-.48-1.72-.88-2.71-1.17a11.71 11.71 0 0 0-1.97-.41c-.38-.05-.77-.07-1.13-.07l-.75.03c-.61.06-1.2.18-1.74.38-.56.2-1.07.49-1.53.85a5.39 5.39 0 0 0-1.21 1.34c-.34.52-.62 1.13-.83 1.83-.31 1.04-.38 2.02-.22 2.91s.51 1.69 1.04 2.4c.52.69 1.2 1.29 2.03 1.79.81.49 1.72.88 2.73 1.18 1 .29 1.99.46 2.92.48h.23c.87 0 1.69-.14 2.43-.41.82-.31 1.55-.8 2.16-1.46s1.08-1.52 1.38-2.56c.31-1.04.38-2.02.22-2.91a5.64 5.64 0 0 0-1.03-2.39zm-5.22 7.7c-.74 0-1.59-.14-2.52-.41-1.77-.52-3-1.28-3.66-2.24-.64-.95-.76-2.07-.36-3.43.4-1.35 1.1-2.23 2.16-2.69.51-.22 1.1-.33 1.76-.33.74 0 1.59.14 2.53.41 1.76.52 2.99 1.27 3.63 2.23.63.94.75 2.07.34 3.43-.4 1.37-1.1 2.25-2.15 2.7-.5.22-1.09.33-1.74.33zm26.03 3.37c-.04.27-.15.51-.33.74-.19.23-.46.43-.8.58a4.45 4.45 0 0 1-1.35.33c-.19.02-.39.03-.6.03-.39 0-.82-.03-1.27-.1-.7-.1-1.31-.26-1.82-.48-.49-.2-.89-.44-1.2-.71-.28-.25-.48-.51-.59-.79-.11-.27-.14-.53-.1-.8l1.22-8.22-2.11-.31-1.21 8.14c-.1.64-.05 1.25.15 1.82.19.57.54 1.1 1.02 1.55.47.44 1.07.82 1.8 1.12.71.3 1.57.52 2.54.67.63.09 1.23.14 1.78.14l.84-.04c.79-.08 1.48-.27 2.05-.55.59-.3 1.07-.7 1.43-1.19.35-.49.58-1.06.67-1.7l1.22-8.14-2.13-.32-1.2 8.22zm12.39-5.05l5.59.08-.2 10.26 2.13.04.2-10.26 5.59.11.04-2.04-13.31-.26-.04 2.07zm23.064-2.4l2.123-.173.998 12.269-2.123.173zm28.446 6.12l-.56-.04a5.89 5.89 0 0 0 .53-1.38c.2-.82.2-1.74 0-2.74-.21-1.07-.59-1.97-1.14-2.68s-1.23-1.27-2.02-1.65c-.78-.38-1.65-.6-2.61-.66l-.68-.02c-.73 0-1.49.08-2.27.23-.68.13-1.33.31-1.94.54s-1.18.51-1.69.83c-.52.33-.98.71-1.37 1.14-.4.43-.73.93-.97 1.46s-.39 1.12-.46 1.74-.03 1.29.11 2c.21 1.07.59 1.97 1.14 2.68a5.59 5.59 0 0 0 2.03 1.65c.78.37 1.67.6 2.63.66l.66.02c.74 0 1.51-.08 2.3-.23a11.67 11.67 0 0 0 2.37-.71c.65-.27 1.24-.61 1.76-1.01l1.55.23 1.76.18.49.03.41-2.23-.96.02a13.24 13.24 0 0 1-1.07-.04zm-4.15-.58l-1.47-.36-.55-.16-.52 1.97.54.14.71.17c.03 0 .06.01.09.02-.41.14-.86.25-1.35.35-.68.13-1.33.2-1.91.2-.2 0-.39 0-.58-.02-.7-.06-1.32-.23-1.83-.5a3.36 3.36 0 0 1-1.23-1.11c-.33-.48-.56-1.08-.7-1.78-.13-.69-.14-1.33-.02-1.9a3.4 3.4 0 0 1 .72-1.49c.37-.44.88-.83 1.51-1.16.65-.33 1.45-.59 2.37-.77.68-.13 1.32-.2 1.89-.2l.58.02c.7.06 1.31.23 1.81.5a3.33 3.33 0 0 1 1.22 1.11c.33.48.56 1.08.7 1.78.15.76.14 1.46 0 2.06a3.44 3.44 0 0 1-.69 1.36l-1.31-.24zm23.87-16.21l-1.99.68 2.68 7.87c.09.26.1.52.04.81s-.21.59-.44.88c-.25.31-.6.62-1.05.91-.46.3-1.03.57-1.69.79-.67.23-1.28.37-1.83.41l-.48.02c-.34 0-.64-.03-.91-.1-.36-.09-.66-.23-.89-.42-.22-.19-.37-.4-.46-.66l-2.68-7.87-2.03.7 2.67 7.78c.21.61.54 1.13.97 1.55.44.42.98.73 1.62.91.45.13.95.19 1.49.19l.62-.03c.77-.06 1.63-.26 2.56-.57.93-.32 1.73-.69 2.37-1.12.66-.43 1.19-.91 1.57-1.43.39-.54.63-1.11.72-1.71s.03-1.21-.18-1.82l-2.68-7.78zm25.17-.37l-8.16 4.06-1.5-3.02 5.56-2.77-.92-1.84-5.56 2.77-1.22-2.45 8.04-4.01-.92-1.85-9.95 4.96 5.49 11.01 10.06-5.01-.92-1.85zm51.91-21.8v4.75h-1.64v-4.75h-2.57v-1.32h6.79v1.32h-2.58zm14.01 4.75v-4.26l-2.25 4.26h-1.57l-2.25-4.26v4.26h-1.64v-6.07h2.23l2.45 4.6 2.45-4.6h2.22v6.07h-1.63z"/><path d="M317.56 60.76v29.05h-47.39l15.84 12.4h43.94V60.76h-12.39zm-84.86 82.93l-9.37-8.62h-53.29v32.81h12.39v-20.42h56.58v-3.77h-6.31z" fill="#fff"/><path d="M249.98 100.14v12.6l29.6 12.08 15.05-19.52-37.79-30.67V61.39h-6.86v11.62c-16.6 1.72-29.6 15.8-29.6 32.85 0 18.21 14.82 33.03 33.03 33.03v-6.86c-14.43 0-26.16-11.74-26.16-26.16s11.1-25.51 24.98-26.14l32.88 26.69-7.77 10.08-20.49-8.36v-7.99h-6.86zm-8.97-36.99c-18.88 5.49-32.07 23.05-32.07 42.71 0 24.52 19.95 44.47 44.47 44.47v-6.86c-20.74 0-37.6-16.87-37.6-37.6 0-16.62 11.15-31.48 27.12-36.12.82-.24 1.64-.44 2.47-.62v-6.98c-1.48.27-2.95.59-4.39 1.01z"/></svg>