<svg xmlns="http://www.w3.org/2000/svg" viewBox="0 0 259.22 165.3" fill="#fff" xmlns:v="https://vecta.io/nano"><path d="M148.68 108.71c-.48-.77-.31-1.4.5-1.91l3.03-1.32c1.31-.82 2.2-2 2.67-3.55.48-1.55.18-3.17-.87-4.86s-2.49-2.75-4.29-3.19c-1.81-.44-3.71-.03-5.72 1.22s-3.16 3.04-3.47 5.36c-.3 2.32.15 4.45 1.36 6.39 1.74 2.8 4.27 4.81 7.57 6.03 3.3 1.23 9.12 1.54 13.5.93l-.29-1.51c-6.4.17-12.38-1.02-13.98-3.59zm27.21-47.16c.37.7.18 1.24-.56 1.63l-2.72.95c-1.19.62-2.04 1.59-2.56 2.91-.52 1.31-.37 2.74.43 4.28s1.98 2.56 3.52 3.06 3.23.27 5.06-.68c1.83-.96 2.95-2.43 3.37-4.43s.17-3.88-.75-5.65c-1.33-2.55-3.39-4.46-6.18-5.75s-6.11-1.81-9.96-1.58l.15 1.33c5.58.27 8.98 1.58 10.21 3.92zm-.77 18.33a204.05 204.05 0 0 0-11.6-3.4c-3.89-1.01-7.19-2.33-9.9-3.95s-4.07-3.56-4.07-5.83 1.09-4.17 3.28-5.71c1.52-1.07 3.3-1.83 4.98-2.61.04-.02.09-.04.12-.09s.01-.12 0-.17l-.19-.67-.18-.67c-.25-.91-5.64.83-6.46 1.11-2.16.75-4.22 1.79-6.1 3.1-4.5 3.16-6.99 7.17-7.47 12.03-.49 4.86.59 8.79 3.22 11.79s5.95 5.18 9.96 6.56 8.08 2.59 12.21 3.65c4.13 1.05 7.66 2.41 10.57 4.07 2.92 1.66 4.37 3.79 4.37 6.38s-1.9 5.4-5.01 7.46a.64.64 0 0 0 .49 1.15c4.03-.79 7.29-2.21 9.75-4.3 3.97-3.36 5.95-7.84 5.95-13.43 0-4.21-1.36-7.7-4.07-10.45s-6-4.76-9.84-6.01zm-56.04-28.43c2.87 2.47 4.31 7.31 4.31 14.52h2.43V45.31h-20.6l.06 2.43c6.34.02 10.94 1.25 13.8 3.7zm-49.15-3.71h6.08v63.18h-6.08v2.43h24.3V45.31h-24.3v2.43zm42.53 42.53h2.43v-24.3h-2.43c0 4.37-.77 7.29-2.31 8.75-1.53 1.45-5.2 2.18-11 2.19v2.43c5.8 0 9.46.69 11 2.06 1.54 1.38 2.31 4.33 2.31 8.87zm-6.08 20.65h-.05v2.43h20.71V90.26h-2.43c0 13.77-6.08 20.66-18.23 20.66z"/></svg>