<svg xmlns="http://www.w3.org/2000/svg" viewBox="0 0 350 350" fill="#fff" xmlns:v="https://vecta.io/nano"><path d="M180.6 172.3l10.3 20.9c.9 1.9 2.7 3.1 4.7 3.4l23 3.3c5.2.8 7.2 7.1 3.5 10.8L205.5 227c-1.5 1.4-2.2 3.5-1.8 5.6l3.9 22.9c.9 5.2-4.5 9.1-9.1 6.6l-20.6-10.8c-1.8-1-4-1-5.9 0l-20.6 10.8c-4.6 2.4-10-1.5-9.1-6.6l3.9-22.9c.4-2-.3-4.1-1.8-5.6l-16.7-16.2c-3.7-3.6-1.7-10 3.5-10.8l23-3.3c2.1-.3 3.8-1.6 4.7-3.4l10.3-20.9c2.5-4.7 9.1-4.7 11.4-.1h0zm26.5-80.4h0c0 2.6-2.1 4.8-4.8 4.8h-56.9c-2.6 0-4.8-2.1-4.8-4.8h0c0-2.6 2.1-4.8 4.8-4.8h56.9c2.7.1 4.8 2.2 4.8 4.8h0zm-7.1 19.7c-6.2-3-14.5-4.5-25-4.5-6.9 0-14.6.6-22.9 1.7v-1.6c0-3.2-2.6-5.7-5.7-5.7h0c-3.2 0-5.7 2.6-5.7 5.7v8.2h.1 0c0 2.1 1.9 3.8 4 3.5l.9-.1c5.3-.7 9.9-1.3 13.8-1.6s8.3-.6 13.2-.6c8.8 0 15.1.7 19 2.2s5.9 3.7 5.9 6.5v.2c0 2.9-2 5-5.9 6.5s-10.3 2.2-19 2.2c-4.9 0-9.3-.2-13.2-.6l-13.8-1.6-.9-.1c-2.1-.3-4 1.4-4 3.5h0-.1v8.2c0 3.2 2.6 5.7 5.7 5.7h0c3.2 0 5.7-2.6 5.7-5.7V142c8.3 1.2 16 1.7 22.9 1.7 10.4 0 18.8-1.5 25-4.5s9.3-7.6 9.3-13.9-3.1-10.8-9.3-13.7h0z"/></svg>