<svg xmlns="http://www.w3.org/2000/svg" viewBox="0 0 500 325" fill="#c6ac3e" xmlns:v="https://vecta.io/nano"><path d="M324.15 154.22c6.07-5.92 2.72-16.23-5.67-17.44l-37.36-5.43c-3.33-.48-6.21-2.58-7.7-5.59l-16.71-33.85c-3.75-7.6-14.59-7.6-18.34 0l-16.71 33.85a10.21 10.21 0 0 1-7.7 5.59l-37.36 5.43c-8.39 1.22-11.74 11.53-5.67 17.44l27.03 26.35a10.22 10.22 0 0 1 2.94 9.05l-6.38 37.2c-1.43 8.35 7.34 14.73 14.84 10.78l33.41-17.57a10.21 10.21 0 0 1 9.52 0l33.41 17.57c7.5 3.94 16.27-2.43 14.84-10.78l-6.38-37.2a10.22 10.22 0 0 1 2.94-9.05l27.03-26.35zm-101.58-9.19h49.71a4.18 4.18 0 1 1 0 8.36h-49.71a4.18 4.18 0 1 1 0-8.36zm47.68 45.73c-5.42 2.6-12.69 3.9-21.83 3.9-6.05 0-12.72-.5-20-1.51v1.37c0 2.77-2.25 5.02-5.02 5.02s-5.02-2.25-5.02-5.02v-7.19h.08c0-1.86 1.63-3.29 3.47-3.05l.83.11c4.62.63 8.63 1.11 12.03 1.43s7.25.48 11.55.48c7.65 0 13.18-.65 16.61-1.95s5.14-3.2 5.14-5.7v-.16c0-2.5-1.71-4.4-5.14-5.7s-8.96-1.95-16.61-1.95c-4.3 0-8.15.16-11.55.48s-7.41.8-12.03 1.43l-.83.11a3.08 3.08 0 0 1-3.47-3.05h-.08v-7.19c0-2.77 2.25-5.02 5.02-5.02s5.02 2.25 5.02 5.02v1.37c7.28-1.01 13.94-1.51 20-1.51 9.14 0 16.41 1.3 21.83 3.9s8.13 6.67 8.13 12.19-2.71 9.59-8.13 12.19zm88.78-19.75c-1.24.12-2.41-.4-3.35-1.22a3.45 3.45 0 0 0-.73-.49c-.82-.41-1.95-.61-3.4-.61s-2.52.17-3.31.5-1.18.81-1.18 1.44c0 .57.31 1.01.92 1.32.61.32 1.66.57 3.14.76l3.4.47c2.96.41 5.24.93 6.83 1.56s2.72 1.44 3.38 2.43c.6.89.92 2.03.98 3.42.1 2.31-.78 4.59-2.61 6-2.29 1.77-5.93 2.65-10.95 2.65-4.63 0-8.15-.73-10.54-2.17-.02-.01-.05-.03-.07-.04-2.98-1.84-1.57-6.48 1.93-6.48h.84c1 0 1.97.42 2.63 1.18.92 1.04 2.61 1.57 5.06 1.57 1.51 0 2.66-.17 3.45-.5s1.18-.83 1.18-1.49c0-.57-.3-.99-.9-1.28-.6-.28-1.65-.52-3.17-.71l-3.12-.43c-2.77-.38-4.97-.91-6.59-1.58-1.62-.68-2.8-1.54-3.52-2.6-.73-1.06-1.09-2.37-1.09-3.95 0-2.49 1.17-4.42 3.5-5.79s5.59-2.06 9.78-2.06 7.2.6 9.41 1.8h0c2.88 1.58 1.98 5.93-1.29 6.24l-.64.06zm28.66 13.73c.32 1.77-.84 3.52-2.61 3.83a25.94 25.94 0 0 1-4.55.39c-3.53 0-6.09-.74-7.68-2.22s-2.39-3.89-2.39-7.23v-9.03h-1.32a3.4 3.4 0 0 1-3.4-3.4h0a3.4 3.4 0 0 1 3.4-3.4h1.32v-1.84a4.68 4.68 0 0 1 4.68-4.68h0a4.68 4.68 0 0 1 4.68 4.68v1.84h3.97a3.4 3.4 0 0 1 3.4 3.4h0a3.4 3.4 0 0 1-3.4 3.4h-3.97v8.37c0 1.1.28 1.91.83 2.43s1.44.78 2.67.78a7.33 7.33 0 0 0 .79-.04c1.72-.16 3.28 1.01 3.59 2.72h0zm23.41.67h0c-1.32 1.32-2.77 2.29-4.33 2.88-1.56.6-3.36.9-5.41.9-3.34 0-5.91-.65-7.7-1.96-1.8-1.31-2.69-3.19-2.69-5.65 0-2.68 1.16-4.7 3.47-6.05 2.32-1.35 5.93-2.1 10.85-2.22l5.48-.14v-1.09c0-1.01-.39-1.79-1.18-2.34s-1.91-.83-3.36-.83-2.64.21-3.57.61c-.46.2-.84.45-1.13.73-.66.65-1.61.89-2.53.83l-.73-.05c-3.3-.24-4.27-4.62-1.38-6.23h0c2.28-1.26 5.46-1.89 9.52-1.89 8.67 0 13 3.36 13 10.07V185c0 1.92-1.56 3.48-3.48 3.48h-1.76a3.07 3.07 0 0 1-3.07-3.07zm-.33-7.47l-4.92.14c-2.21.06-3.78.31-4.73.73-.95.43-1.42 1.13-1.42 2.1 0 1.51 1.45 2.27 4.35 2.27 1.07 0 2.06-.13 2.95-.38.9-.25 1.63-.61 2.2-1.09 1.04-.88 1.56-1.89 1.56-3.03v-.76zm13.57 5.87v-14.46c0-3.13 2.54-5.67 5.67-5.67h0c1.93 0 3.5 1.57 3.5 3.5h0c2.3-2.62 5.2-3.92 8.7-3.92h0c1.57 0 2.77 1.39 2.55 2.94l-.19 1.32c-.25 1.74-1.76 2.97-3.51 2.97h-.03c-2.3 0-4.13.54-5.48 1.61-.6.47-1.06 1.02-1.37 1.65-.32.63-.47 1.28-.47 1.94v8.13a4.68 4.68 0 0 1-4.68 4.68h0a4.68 4.68 0 0 1-4.68-4.68z"/><rect x="81.21" y="163.67" width="9.36" height="24.82" rx="4.68"/><path d="M76.77 167.55c0-2.14-1.74-3.88-3.88-3.88H69.3l-.24-1c0-1.98 1.31-2.98 3.92-2.98l1.92-.04h11.8a3.91 3.91 0 0 0 3.91-3.91h0a3.91 3.91 0 0 0-3.91-3.91H74.58c-.76 0-1.52-.03-2.29-.07l-1.16-.03c-3.53 0-6.28.83-8.25 2.48s-2.95 3.96-2.95 6.92v2.53h-.85c-2.14 0-3.88 1.74-3.88 3.88h0c0 2.14 1.74 3.88 3.88 3.88h.85v12.38a4.68 4.68 0 0 0 4.68 4.68h0a4.68 4.68 0 0 0 4.68-4.68v-12.38h3.59c2.14 0 3.88-1.74 3.88-3.88h0zm32.26 12.85l-5.04-13.83a4.42 4.42 0 0 0-4.15-2.9h0a4.42 4.42 0 0 0-4.05 6.18l6.13 14.07c1.21 2.78 3.95 4.57 6.98 4.57h0c3.03 0 5.77-1.79 6.98-4.57l6.22-14.26c1.23-2.82-.84-5.98-3.92-5.98h0a4.27 4.27 0 0 0-4.01 2.79l-5.16 13.94zm45.14-4.53c0-4.13-1.26-7.32-3.78-9.57s-6.07-3.38-10.64-3.38c-3.09 0-5.77.58-8.04 1.72-2.27 1.15-4 2.74-5.2 4.77s-1.8 4.36-1.8 6.97c0 4.1 1.29 7.26 3.88 9.5 2.58 2.24 6.22 3.36 10.92 3.36s8.05-.88 10.49-2.64c2.64-1.9 1.21-6.1-2.04-6.1h-1.04c-.92 0-1.75.44-2.4 1.1-.93.94-2.52 1.41-4.77 1.41-1.86 0-3.32-.4-4.37-1.2-1.06-.8-1.66-1.98-1.82-3.52h18.2a2.41 2.41 0 0 0 2.41-2.41h0zm-20.42-2.55c.19-1.26.83-2.28 1.91-3.07 1.09-.79 2.4-1.18 3.95-1.18 3.75 0 5.7 1.42 5.86 4.25h-11.72z"/></svg>