<svg xmlns="http://www.w3.org/2000/svg" viewBox="0 0 350 350" xmlns:v="https://vecta.io/nano"><style><![CDATA[.F{stroke-linecap:round}.G{stroke-linejoin:round}]]></style><path d="M326.1 150.8h0c0 2.4-2 4.4-4.4 4.4h-52.2c-2.4 0-4.4-2-4.4-4.4h0c0-2.4 2-4.4 4.4-4.4h52.2c2.4 0 4.4 1.9 4.4 4.4zm-6.5 18c-5.7-2.7-13.3-4.1-22.9-4.1-6.4 0-13.4.5-21 1.6v-1.4a5.34 5.34 0 0 0-5.3-5.3h0a5.34 5.34 0 0 0-5.3 5.3v7.6h.1 0c0 1.9 1.7 3.5 3.6 3.2l.9-.1c4.9-.7 9.1-1.2 12.6-1.5a144.73 144.73 0 0 1 12.1-.5c8 0 13.9.7 17.5 2.1s5.4 3.4 5.4 6v.2c0 2.6-1.8 4.6-5.4 6s-9.4 2.1-17.5 2.1c-4.5 0-8.6-.2-12.1-.5-3.6-.3-7.8-.8-12.6-1.5l-.9-.1c-1.9-.2-3.6 1.3-3.6 3.2h0-.1v7.6a5.34 5.34 0 0 0 5.3 5.3h0a5.34 5.34 0 0 0 5.3-5.3v-1.4c7.6 1.1 14.6 1.6 21 1.6 9.6 0 17.2-1.4 22.9-4.1s8.5-7 8.5-12.8-2.8-10.4-8.5-13.2h0z" fill="#fff"/><g fill="none" class="F G"><g stroke="#fff" stroke-width="13.22"><path d="M60.4 150.1l6.7 21.2c4.7 14.9-6.4 30-22 30h0c-15.6 0-26.7-15.1-22-30l6.7-21.2"/><path d="M33.9 152.2l-7-3.5m36.3 0l-7.1 3.5"/></g><g stroke="#c6ac3e" stroke-width="4.41"><path d="M25.5 163.4h0"/><path d="M22 180.1c.9 11.5 10.5 21.3 23 21.3 15.5 0 26.6-15 22.1-29.8" stroke-dasharray="0,0,0,17.22"/><path d="M64.5 163.4h0"/></g></g><path d="M173.9 168.3c-9.1-.2-16.3.8-23.6 2.2v-15.1h47a2.22 2.22 0 0 0 2.2-2.2v-2.3a2.22 2.22 0 0 0-2.2-2.2h-51.6a2.22 2.22 0 0 0-2.2 2.2V176c0 .7.3 1.3.8 1.7s1.2.6 1.8.4l.8-.1c7.6-1.5 15.4-3.1 26-3 10.1.1 16.8 1.6 19.8 4.6 1.2 1.3 1.9 2.9 1.8 4.8-.1 5.7-9.3 10.1-21 10.1-16.1 0-25.6-6-28.1-7.8-.9-.7-2.3-.5-3 .4l-1.5 1.9c-.4.5-.5 1.1-.4 1.7a2.37 2.37 0 0 0 .9 1.5c3 2.1 14.2 9.2 32 9.2 16.3 0 28.1-7.1 28.1-16.9-.2-7.3-5-16.1-27.6-16.2h0z" fill="#fff"/><g fill="none" stroke="#fff" stroke-width="1.88" class="F G"><path d="M105.8 166v18"/><path d="M114.8 175h-18m145.4 4.5h-18m18-9h-18"/></g></svg>