<svg xmlns="http://www.w3.org/2000/svg" viewBox="0 0 500 325" xmlns:v="https://vecta.io/nano"><path d="M250 284.56c-67.3 0-122.06-54.76-122.06-122.06S182.7 40.44 250 40.44 372.06 95.2 372.06 162.5 317.3 284.56 250 284.56z" fill="#fff"/><path d="M249.75 140.98c.08-1.62-.14-3.22.05-4.83-.12-1.22.05-2.4-.11-3.62l.02-.55c-5.52.03-11.02 3.62-11.6 10.81 2.38.14 4.78-.02 7.18 0 .45-.03.75.01 1.2.09.44-.08.74-.13 1.2-.1.69.09 1.37.05 2.05.02.02-.63.09-1.18.01-1.82z" fill="#c24022"/><path d="M193.42 213.49c-.81.2-1.47.59-2.25.87-1.17.34-2.26.78-3.41 1.18-.92.44-1.84.74-2.82 1.04-.4.22-.69.31-1.14.39-.39.23-.66.36-1.1.48-.81.21-1.47.57-2.27.81-.28.1-.41.44-.59.21-.19-.24.18-.27.35-.52.71-1.23 1.57-2.31 2.34-3.5l3.39-4.96 2.63-4.02c1.32-2.02.15-3.77-1.27-5.27-.95-2.04-3.58-2.95-5.43-1.54-.56.58-.86 1.32-1.38 1.93-.7 1-1.02 2.19-1.86 3.08-.2.61-.55 1.03-.91 1.55-.32.76-.78 1.36-1.22 2.06-.73 1.44-1.73 2.7-2.39 4.15l-2.78 4.61c-1.32 1.92-.91 4.52.35 6.36.48.45.88.86 1.15 1.47 1.13 1.16 1.95 2.78 3.65 3.18 1.92.88 4.01.07 5.88-.59 1.77-.39 3.43-1.03 5.18-1.5l4.55-1.5a22.37 22.37 0 0 0 3.43-1.07c.81-.16 1.51-.45 2.3-.68 1.57-.15 2.88-1.62 2.9-3.19.24-1.46-1.03-2.38-1.69-3.51-1.55-2.15-3.17-2.66-5.59-1.51zm22.99 12.91c-.87-.39-1.67-.85-2.57-1.14-1.58-.15-3.1.9-3.59 2.4-.4.49-.46 1.04-.86 1.54-.12.44-.25.69-.54 1.04-.33.74-.56 1.46-1.02 2.12-.27.76-.7 1.37-1.07 2.09-.41 1.13-1 2.1-1.5 3.18l-3.43 6.81c-1.19 2.47.77 4.38 2.95 5.22 1.37.67 2.93 1.25 4.31.25 1.27-.68 1.42-2.29 2.21-3.37.55-.85.71-1.82 1.35-2.61a2.89 2.89 0 0 1 .51-1.06c.13-.43.24-.69.5-1.06.6-1.04 1.02-2.09 1.52-3.18.39-.5.46-1.04.83-1.55.48-.66.6-1.42 1.06-2.09 1.64-3.29 4.26-6.65-.65-8.59zm36.49 20.21c4.18-.94 6.03-6.47 2.97-9.54-2.76-2.68-6.91-2.91-10.55-3.13-1.76-.09-3.47-.27-5.23-.32-2.51-.3-4.6-.42-6.61 1.4-2.25 2.22-1.49 5.03-1.96 7.8-.1 1.99-.14 3.92-.38 5.9.13.82-.11 1.55-.03 2.37 0 .45-.08.74-.18 1.17a3.34 3.34 0 0 1-.05 1.18c-.02 3.84 2.74 6.12 6.45 6.01 1-.02 1.94.28 2.95.14.61.13 1.14.21 1.77.11a2.45 2.45 0 0 0 1.17.1c3.92.41 8.15.58 11.65-1.51 4.4-3.39 3.47-10-1.95-11.69zm-12.76-4.39c.04-.67.17-1.22.12-1.89-.13-.61.02-.81.63-.6.82-.01 1.57.01 2.37.2 1.18.06 2.41.03 3.54.28 2.82.39 2.09 4.24-1.29 3.58-.64-.12-1.18.04-1.82-.05-.84-.02-1.58-.19-2.42-.18-1.82.05-1.18.2-1.13-1.34zm8.28 10.86c-.86.89-2.16.87-3.32.75-.43.04-.71.04-1.14-.07-.6.08-1.1-.04-1.7-.13-.6-.08-1.1.06-1.71-.02q-.28-.02-.57-.03c-.28-.02-.4.16-.58-.06-.19-.21.06-.3.08-.58.01-.43 0-.72 0-1.14.07-.77.16-1.48.21-2.27-.27-.95.72-.45 1.26-.47 2.03-.02 4.06.26 6.06.46 1.68.34 2.23 2.16 1.4 3.55zm49-11.46c-.65-.1-1.17.26-1.75.5-.59.27-1.13.36-1.68.71l-5.03 2.13c-.9.49-1.82.85-2.75 1.29-.81.64-.74-.44-1.05-.94l-.49-1.15c-.13-.29-.4-.27-.29-.56.11-.28.3-.11.57-.23l.56-.24c.71-.49 1.49-.57 2.2-1.03l3.91-1.65c1.64-.66 3.51-1.2 4.07-3.08.81-2.64-1.97-5.06-4.52-3.99-.56.31-1.06.52-1.64.8a2.06 2.06 0 0 0-1.11.48c-1.21.27-2.19 1.04-3.37 1.38-.72.42-1.45.66-2.18 1.06-.43.08-.73.5-1.13.42-.27-.1-.08-.28-.2-.55l-.48-1.06c-.07-.35-.62-.82-.52-1.06.11-.27.29-.12.55-.24.56-.26 1.06-.39 1.6-.69l3.71-1.66c.71-.38 1.45-.48 2.15-.89.55-.27 1-.55 1.6-.67.34-.27.65-.37 1.05-.51 3.22-2.32.45-7.52-3.18-5.81-.91.4-1.84.65-2.68 1.17-.6.14-1.09.33-1.65.6-.67.45-1.43.56-2.1 1.03-.63.09-1.02.48-1.62.66l-2.14.94c-.59.19-1.1.35-1.59.74-1.88.57-3.73 1.55-4.5 3.46-1.29 2.55.24 4.92 1.12 7.31.39.5.6.99.74 1.61.45.69.59 1.44.93 2.17.73 1.21 1.09 2.52 1.74 3.75.31 1.17.99 2.13 1.42 3.25.91 2.22 3.29 3.59 5.66 3.41 1.04-.09 1.85-.68 2.82-.94.92-.45 1.76-.93 2.75-1.25.44-.14.7-.28 1.08-.54.63-.13 1.08-.44 1.67-.71a2.67 2.67 0 0 0 1.09-.51c.77-.31 1.51-.52 2.22-.96.65-.11 1.04-.52 1.67-.7.81-.23 1.44-.68 2.24-.91 3.29-1.43 2.15-6.57-1.48-6.36zm31.85-35.57c-5.08-3.56-10.21 1.52-13.72 4.95-.22.21-.25.17-.47.37-.56.84-1.42 1.37-2.15 2.07-1 1.42-3.19 1.63-2.72-.6.42-1.62 1.64-3.23 3.05-4.16 1.25-.86 3.35-.44 4-2.12.44-.61.7-1.29 1.25-1.8 1.16-1.96-.03-4.68-2.29-5.11-5.05.33-8.84 4.99-11.21 9.04-1.93 2.92-3.38 6.86-2.01 10.31 1.44 3.48 5.93 5.44 9.38 3.7 2.8-1.16 5.09-3.37 7.2-5.51 1.19-1.13 2.35-2.39 3.72-3.28 1.81-.65 1.98 1.72 1.27 2.85-3.53 6.52-4.64 2.71-7.82 5.71-1.47 2.01-3.3 3.87-1.24 6.27 4.06 3.31 10.18-2.33 12.5-5.66 4-4.7 7.93-12.86 1.24-17.04zm-159.25-86.74c.45.46 1 .55 1.45 1 .69.43 1.31.83 2.06 1.14.32.34.56.48 1 .61l1.97 1.28c.55.3.92.7 1.53.87.71.73 1.72.93 2.45 1.61.86.51 1.75.89 2.51 1.52 2.51 1.12 3.88.14 5.17-2.07.97-1.38 1.93-3.1.97-4.75-.53-.88-1.38-1.32-2.21-1.85-.49-.41-1.04-.47-1.49-.94-.43-.16-.66-.32-.99-.63-.73-.35-1.35-.75-2.02-1.2-.65-.5-1.4-.67-2-1.23l-.99-.63c-.44-.14-.68-.27-1.01-.6l-2.51-1.52c-.97-.7-2.06-1.07-3.04-1.78-2.06-1.82-4.94-2.12-6.31.63-.32.5-.67.86-.84 1.43-.51.58-.91 1.29-.78 2.09-.24 1.84 1.26 2.68 2.52 3.57.82.56 1.71.92 2.56 1.44zM191 97.49l1.66 2.43c.17.43.33.66.65.98l.92 1.51c.84 1.57 1.94 2.94 2.83 4.48 1.29 1.92 3.91 1.87 5.49.35.62-.44 1.4-.66 1.79-1.35 1.63-1.73.16-3.72-.81-5.32-.31-.57-.68-.97-1.04-1.51-.28-.59-.5-1.1-.98-1.55-.34-.56-.49-1.09-.94-1.57-.42-.5-.6-1.02-.96-1.56-.16-.26-.19-.24-.35-.5s-.55-.29-.38-.54c.17-.24.34.1.62.19 1.11.42 2.2.77 3.36 1.04.81.15 1.43.56 2.21.77l5.02 1.59a3.38 3.38 0 0 1 1.11.37c.78.17 1.52.34 2.24.69 4.53 1.48 9.12-3.65 6.66-7.87-.79-1.37-1.53-2.74-2.48-4-.42-.49-.49-1.05-.98-1.47-.77-1.15-1.32-2.42-2.23-3.47-.22-.59-.62-.95-.95-1.49-.41-.93-1.02-1.65-1.59-2.48-.3-.55-.57-1-.96-1.48-.32-.75-.8-1.32-1.56-1.63-1.53-1.02-3.41 0-4.69.99a3.43 3.43 0 0 0-1.5 4.91c.54.89 1.17 1.64 1.63 2.58.45.47.74.94 1.02 1.52.54.64.95 1.3 1.34 2.04.41.5.6 1.02.98 1.54.13.34.89.75.71 1.05-.17.24-.32-.14-.6-.23-.42-.12-.7-.22-1.11-.38-1.17-.25-2.24-.61-3.37-1.01-.95-.28-1.84-.57-2.79-.88-.57-.26-1.07-.43-1.69-.48-1.63-.7-3.35-1.04-5.01-1.62-5.34-1.56-9.37 4.42-6.1 8.87 1.05 1.42 1.86 2.98 2.83 4.49zm44.27-27.25c.12.62.19 1.15.06 1.77.15.61.09 1.14.08 1.77.12 1 .14 1.94.13 2.94l.26 5.29c-.1 1.2.1 2.35.03 3.53.13 2.85 2.49 5.12 5.27 5.44 1.02-.12 2-.04 3.02-.08.44-.09.75-.15 1.21-.15l4.85-.18c1.43.11 2.8-.14 4.24-.12 3.76.39 5.12-2.54 4.15-5.81-1.27-2.15-3.4-1.77-5.52-1.7-.65.02-1.17.22-1.81.06-.64.04-1.17.18-1.81.05l-3.61.19c-.58.17-.76.03-.59-.56-.13-.98-.02-1.92-.16-2.91.05-1.18-.02-2.32-.16-3.49.09-.61.05-1.13-.04-1.75.02-.62.04-1.14-.08-1.74 0-1.94.02-3.89-.34-5.8-.78-1.96-3.02-2.3-4.88-1.93-2.44-.46-4.67 1.5-4.33 4.01.14.45.15.73.04 1.18zm65.33 8.42l-4.72-2.33c-1.12-.41-2.05-1.07-3.14-1.56l-3.16-1.51c-.36-.27-.62-.39-1.05-.52-.72-.34-1.37-.71-2.14-.93-4.04-.89-6.05 1.67-7.49 5.03-.18.61-.55 1-.78 1.59-.17.61-.47 1.05-.81 1.58-.13.44-.25.7-.53 1.06-.28.76-.54 1.49-1.05 2.12-.38.72-.47 1.49-1.03 2.13l-1.3 2.66c-1.65 3.14.31 7.06 3.66 8.01.43.17.68.35 1.04.64.44.11.73.21 1.12.46 1.23.73 2.53 1.18 3.79 1.88l6.46 3.28c3.61 1.69 6.68-3.33 3.5-5.67-.68-.47-1.4-.83-2.17-1.11-.37-.28-.64-.41-1.09-.54a3.01 3.01 0 0 0-1.1-.52c-.52-.38-1.02-.61-1.63-.81-.51-.42-1.07-.49-1.6-.88-.98-.32-1.77-.93-2.74-1.3-.61-.13-.64-.42-.22-.84.14-.28.1-.3.24-.58l.56-1.12c.12-.64.34-.76.83-.3 1.07.62 2.2.98 3.26 1.63 1.35.5 2.46 1.36 3.81 1.86 1.34.82 2.86 1.54 4.43.93 2-.95 2.59-3.66 1.06-5.36-.96-.72-2.06-1.2-3.09-1.79-.4-.23-.69-.33-1.13-.45-.51-.4-1.06-.51-1.58-.9-1.17-.36-2.11-1.17-3.27-1.58-.51-.21-1.53-.38-.79-1.04l.76-1.57c.13-.26-.05-.49.22-.59.28-.09.29.16.55.29l.53.24c1.03.57 2.01 1.14 3.12 1.56.49.42 1.04.41 1.55.79.9.41 1.67.95 2.61 1.26 1.5.91 3.23 1.56 4.87.63 2.04-1.37 1.92-4.75-.35-5.82zm33.56 34.54a22 22 0 0 0-2.36-3.38c-.46-.88-1.1-1.6-1.67-2.42-.57-1.06-1.39-1.9-1.93-2.96-.6-.57-.85-1.29-1.4-1.89-.59-1.05-1.31-1.93-2.03-2.89-1.06-1.87-2.1-3.37-4.51-2.79-5.92 2.43-2.39 5.92.01 9.49 1.11 1.26.86.75-.28 1.6l-3.84 2.64c-.49.38-.89.71-1.44.99-.51.36-.85.78-1.45.97-.3.34-.53.5-.96.66-.52.33-.88.72-1.44.99-.81.58-1.51 1.18-2.39 1.66-1.04.9-1.6 2.22-1.35 3.63.32.68.77 1.29 1.17 1.94.89 1.33 2.03 3.21 3.93 2.74.99-.02 1.77-.71 2.6-1.17 1.18-.72 2.18-1.59 3.31-2.38.58-.24.96-.6 1.43-1 .76-.31 1.25-.88 1.97-1.24l4.27-3.03c.38-.41.64-.33.8.2a4.33 4.33 0 0 1 .69.96c.85 1.07 1.54 2.26 2.35 3.39 1.19 1.49 3.59 2.09 4.98.54 2.08-.92 2.35-3.68.9-5.32-.41-.7-.79-1.35-1.36-1.92z" fill="#00364f"/><path d="M152.53 159.34c-1.02-.21-2.03-.06-3.08-.08-.53.24-1.58-.33-1.64.48l-.1 3.65c.17.84-.02 1.59 0 2.43.12.46.13.75.03 1.22.09.46.08.76-.02 1.22l.07 2.43c.03.57.68.41 1.08.43.88.05 1.69 0 2.56 0 .85-.09.33-1.1.41-1.66a2.9 2.9 0 0 0 .05-1.21c0-1.14 5.62.64 7.21-2.91 1.37-4.76-2.37-6.56-6.57-6.01zm.92 5.38c-1.03-.16-1.75.25-1.51-1.18-.38-1.91 1-.83 2.24-1.17 1.84.42 1.02 2.72-.72 2.34zm18.93 6.39c.8.09 1.54.03 2.35.06.45.05.74 0 1.17-.09.55 0 .43-.59.5-.98-.11-.65.74-2.29-.21-2.39-.83-.06-1.58.01-2.41.03-.83-.03-1.57-.14-2.4-.02-.38-.08-1.04.05-1.07-.47v-2.31c-.06-.8.11-1.52-.05-2.31.15-.59.13-1.12.07-1.73.16-1.74-.04-1.54-1.6-1.61-.67.16-2.53-.39-2.72.46-.08.65.06 1.18.05 1.83-.15 1.03-.02 2.01-.01 3.04-.05.84-.13 1.61.04 2.43-.21 1.22.03 2.41-.02 3.65.02.63.58.5 1.01.41.62.11 1.15.09 1.77-.02 1.2-.02 2.33.15 3.53.03zm22.7-.43c.06.81 1.09.29 1.61.41.63.17 1.16 0 1.8 0 .63 0 .53-.57.49-1.01l-.07-4.26.01-4.26-.03-1.82c0-.56-.57-.44-.97-.45-.43-.05-.71-.03-1.13.05-.42-.07-.7-.09-1.13-.03-.43-.07-.7-.06-1.13.02-.42.03-.42.49-.61.79-.25.37-.4.62-.52 1.05-.19.79-.7 1.37-.88 2.18-.2.59-.44 1.06-.77 1.59-.44 1.61-1.23.44-1.49-.51-.25-.97-.81-1.76-1.19-2.68-.21-.59-.29-1.12-.69-1.62-.12-1.3-1.41-.71-2.32-.89-.59.19-1.1.01-1.72.1-.96-.18-1.03.17-1.05 1.02v6.08c-.02 1.44.22 2.83.01 4.25.14.7 1.13.3 1.65.41.43.08.72.13 1.17.1.92.03 1.1-.22 1.04-1.11l.04-1.82c-.2-1.25.76-1.42 1.08-.22.15.63.48 1.08.69 1.69.26.47.2 1.36.9 1.34.64.14 1.2.02 1.85.04.82.15 1.03-.06 1.3-.81.28-1.01.78-1.85 1.09-2.84.63-.83 1 .16.94.8-.09.82-.11 1.61.03 2.42zm108.57-4.25c.1 1.41.13 2.82.07 4.25.1.69 1.12.27 1.62.48.62.1 1.13-.1 1.75.01.43-.08.72-.1 1.16-.05 2.61 0 6.87.46 7.59-2.86.32-2.18-.64-2.15-1.66-3.44.27-.84 1.31-1.4 1.28-2.48-.06-2.86-3.61-3.22-5.81-3.03-.84-.04-1.62-.14-2.44.02a3.13 3.13 0 0 0-1.22 0c-.63-.12-1.18-.13-1.83-.04-.54.02-.44.65-.52 1.05.13 2.04.09 4.05 0 6.08zm3.93-3.92c.14-.88 1.21-.27 1.8-.4 2.17-.6 3.07 1.68.71 1.68-.72.06-1.32.02-2.04-.05-.68-.03-.43-.76-.48-1.23zm.48 3.82c1.1-.13 2.34-.06 3.39.17.97.98 0 2.15-1.26 1.87-.57.01-1.04.04-1.6-.07-.38.04-.98.14-1.01-.4.05-.52-.3-1.52.47-1.58zm27.25.24c-1.19-.11-2.25-.02-3.43-.01-.58.14-.68 1.01-1.28 1.25-1.57.62-3.85-.02-3.95-1.96-.23-2.17.95-3.93 3.29-3.38.93.07 1.06 1.13 1.74 1.24.42-.1.7-.1 1.13-.06.77-.16 1.5-.1 2.24-.34 1.2-.27-.41-1.95-.65-2.54-3.23-2.92-9.56-2.42-11.7 1.63-2.58 7.41 4.58 10.88 10.7 8.12.97-.42 3.32-3.27 1.91-3.96zm20.14 1.07c-.08-.45-.1-.75-.05-1.22.06-.85-.04-1.59-.02-2.43.07-.46.07-.76-.01-1.22.06-.45.09-.76.06-1.22-.19-1.59.7-2.53-1.6-2.24-.59-.11-1.09.05-1.69-.02-.94-.14-1.03.2-1.02 1.05-.15.69.45 2.73-.46 2.85-.78.19-1.53.05-2.33 0a4.99 4.99 0 0 1-1.16.04c-.8-.07-.38-1.7-.47-2.28-.12-.56.44-1.58-.44-1.64-1.15 0-2.23-.12-3.37-.02-.79.09-.34 1.11-.51 1.65l.09 6.69c.03.83-.11 1.59-.04 2.43-.12.93.14 1.08 1.02 1.11.77 0 1.48.02 2.25-.09.86.07 1.17-.09 1.01-.99.04-4.4-.4-3.08 2.8-3.36.52.13 1.52-.21 1.63.5.09 1.16-.01 2.26 0 3.42.09.95 2.03.29 2.69.44 1.01-.13 1.66.38 1.56-1.05.09-.84-.06-1.6.07-2.44z" fill="#c24022"/><path d="M228.81 162.53c.98.11 1.91-.13 2.89.02.46-.1.74-.09 1.19.02 1.98-.11 3.96-.06 5.96 0 .63-.08 1.16-.09 1.79 0 .83-.09 1.56 0 2.39 0 1.41-.08 2.76-.13 4.18-.01 1.8-.2 3.57.05 5.37-.05l8.95.05h5.39c1.41-.06 2.8-.16 4.2.01.81-.24 1.57.04 2.4-.07 1.2-.06 2.36.11 3.54-.02 2.75.48 2-1.39 2.07-3.25v-3.57c-.05-.45-.02-.75.06-1.19-.09-.45-.1-.74-.02-1.19-.24-2.38.12-4.76-.07-7.15-.04-.64.18-1.16-.02-1.79.24-.67.03-1.55-.85-1.45-1.21-.21-2.39.04-3.6-.08-1.03.4-.6-.56-.54-1.15-.06-.62-.13-1.15-.09-1.78l.03-5.93c.07-.63.09-1.16-.04-1.78.25-1.58-.03-3.15.06-4.74l-.02-2.37c.08-.63.1-1.17-.05-1.78.32-1.96.1-3.12-1.99-3.76-2.11-1.15-4.33-2.06-6.52-3.06-.66-.53-1.44-.64-2.18-1.01-.71-.42-1.38-.8-2.16-1.05-.7-.44-1.45-.61-2.18-1.02-.87-.54-1.78-.87-2.71-1.29-.61-.2-1.03-.55-1.63-.78-.57-.28-1.1-.41-1.65-.74-.53-.36-1.08-.44-1.63-.79-.97-.57-2.14-.34-3.16-.04-.87.54-1.78.87-2.73 1.26-.5.42-1.05.49-1.62.78l-8.7 4.07c-.49.45-1.06.46-1.61.82-.91.49-1.82.79-2.74 1.23-1.27.62-2.44 1.35-3.8 1.81-1.38.34-1.51 1.76-1.46 2.96.04 1.01-.12 1.95-.02 2.96-.1 1.01.21 1.97-.04 2.96.16 1.2-.16 2.38.1 3.56l-.1 4.15c.04 1.01.18 1.95.04 2.97a20.83 20.83 0 0 1-.04 2.37c0 .65.58 1.63-.55 1.14-1.2.08-2.4.15-3.6-.01-1.36.12-.86 2.39-.92 3.34.1.81 0 1.56-.03 2.38.06 1.4.13 2.77-.02 4.17.13.62.05 1.16 0 1.79v2.98c.01 1.02.12 1.97 0 2.98.15 1.26-.29 2.26 1.54 2.1.81.12 1.54-.12 2.35.06l4.58-.05zm25.73-5.08c-.21.21-.33-.06-.62-.06a9.3 9.3 0 0 1-1.18-.03c-.82.1-1.55.03-2.37.05-.64.12-1.14-.12-1.78.02h-2.96c-.59.16-.75 0-.55-.58l.02-1.18c-.09-1.01-.04-1.95 0-2.96-.17-.8.05-1.54 0-2.37.1-3.38-1.09-2.19 2.31-2.38.82-.02 1.57.17 2.37-.05.81.15 1.55.05 2.37.1.62-.16 1.15-.07 1.78-.03 1.1-.43.55.53.55 1.16.05 1 .02 1.96 0 2.96.03 1.2.2 2.37 0 3.55.02.44-.03.75.09 1.18.08.33.2.43 0 .64zm2.12-14.57c-.63-.17-1.16-.02-1.8 0l-3.59-.08c-.52-.04-1.03-.02-1.54 0-.68.03-1.36.07-2.05-.02-.46-.03-.75.02-1.2.1-.44-.07-.74-.11-1.2-.09-2.39-.02-4.8.14-7.18 0 .59-7.19 6.09-10.78 11.6-10.81 5.59-.03 11.2 3.61 11.75 10.9-.99-.07-1.99-.16-3.01-.01-.63-.1-1.17-.05-1.8 0zm12.38 6.24c.05 1 .02 1.96 0 2.96.03 1.2.2 2.37 0 3.55.02.44-.03.75.09 1.18.08.33.2.43 0 .64-.21.21-.33-.06-.62-.06a9.3 9.3 0 0 1-1.18-.03c-.82.1-1.55.03-2.37.05-.64.12-1.14-.12-1.78.02-1.01.05-1.96.04-2.96 0-.59.16-.75 0-.55-.58l.02-1.18c-.09-1.01-.04-1.95 0-2.96-.17-.8.05-1.54 0-2.37.1-3.38-1.09-2.19 2.31-2.38.82-.02 1.57.17 2.37-.05.81.15 1.55.05 2.37.1.62-.16 1.15-.07 1.78-.03 1.1-.43.55.53.55 1.16zm-38.47-8.67c.09-1.01.08-1.98.05-2.99.04-1.42-.11-2.78.02-4.19-.15-.82.06-1.57-.06-2.39 0-.64.13-1.17 0-1.8.12-1.79.02-3.64-.03-5.41.42-.28 1.07-.07 1.58-.08.83-.09 1.56-.03 2.39-.05a2.8 2.8 0 0 1 1.19.05c.44-.04.75-.09 1.19-.11l4.78.1c1.02-.09 1.97-.04 2.99 0 .99-.17 1.97.08 2.99 0 2.81-.12 5.58 0 8.37-.04.46.06.75.02 1.2-.07.63.02 1.16.12 1.79.03 1.4.08 2.78.04 4.19.08 1.42-.12 2.78-.08 4.19 0 .51 0 1.19-.35 1.53.12.11.4-.09.76-.04 1.19.12.63-.04 1.16.07 1.79-.02 1.03-.01 1.98-.09 2.99.17 1.21.02 2.37.07 3.59.13.82-.11 1.57.03 2.39-.12.83.02 1.57-.07 2.39a2.7 2.7 0 0 1-.01 1.2c.09.63.05 1.16.04 1.8 0 .45-.04.75-.06 1.2 0 .3.3.42.09.63s-.33-.06-.63-.06c-2.2.12-1.69.38-1.96-1.75-1.71-13.15-18.46-18.9-28.02-9.8-2.57 2.19-4.23 5.36-5.07 8.61-.1.98-.27 1.94-.33 2.93-.42.13-.74 0-1.18.02-1.57.17-1.24.39-1.21-1.17.08-.45.07-.75-.02-1.2zm2.26 7.48c.82-.02 1.57.17 2.37-.05.81.15 1.55.05 2.37.1.62-.16 1.15-.07 1.78-.03 1.1-.43.55.53.55 1.16.05 1 .02 1.96 0 2.96.03 1.2.2 2.37 0 3.55.02.44-.03.75.09 1.18.08.33.2.43 0 .64-.21.21-.33-.06-.62-.06a9.3 9.3 0 0 1-1.18-.03c-.82.1-1.55.03-2.37.05-.64.12-1.14-.12-1.78.02-1.01.05-1.96.04-2.96 0-.59.16-.75 0-.55-.58l.02-1.18c-.09-1.01-.04-1.95 0-2.96-.17-.8.05-1.54 0-2.37.1-3.38-1.09-2.19 2.31-2.38z" fill="#00364f"/><path d="M275.6 209.82c.12-.45-.03-.76-.1-1.19.09-.81-.01-1.56-.04-2.38a3.41 3.41 0 0 0-.06-1.19c0-1.01.03-1.96-.11-2.97.1-1.01-.06-1.96-.07-2.97-.13-1.21.08-2.36-.15-3.56-.03-.63.05-1.16-.08-1.78.1-.63.05-1.16-.08-1.78.09-1.4-.03-2.76-.04-4.16-.13-.81-.21-1.56-.11-2.38-.12-.62-.16-1.16-.02-1.78-.25-1.39-.15-2.76-.17-4.16-.12-1-.22-1.98-.08-2.97a2.01 2.01 0 0 1-.05-1.19c-.26-1.39-.04-2.76-.15-4.16-.1-.82.03-1.57-.16-2.38-.03-.6.41-1.57-.61-1.21-.64-.1-1.15.15-1.78-.01-1.01.14-1.95.04-2.97 0-1.01 0-1.97-.05-2.97.09-.45-.11-.73-.12-1.19 0a2.98 2.98 0 0 0-1.19.01c-1.19-.11-2.36-.04-3.56-.02-.45-.09-.74-.1-1.19-.02a2.52 2.52 0 0 0-1.19.02c-.81-.08-1.57-.14-2.38 0-1.4-.15-2.76-.05-4.16 0-.45-.09-.74-.1-1.19 0-1.01-.15-1.96.12-2.97-.04h-1.19c-1.04-.36-.63.57-.53 1.19l-.02 6.51c-.1.45-.1.73.01 1.18-.17.62 0 1.14 0 1.78-.13.81-.05 1.55 0 2.37l-.12 2.96c-.02.45.03.75.12 1.18-.05 1-.16 1.97 0 2.96-.09.81.06 1.55-.08 2.37.19.81-.04 1.55.02 2.37.07 1.4.01 2.75 0 4.14l-.06 5.33c-.04.64.2 1.15.01 1.78.13 1.19.15 2.37 0 3.56.11 1.59-.09 3.16.07 4.74l-.09 2.37c.12.62.05 1.18.05 1.78 10.52 1 21.28-1.32 30.58-6.36zm-35.7 1.53c.1-.45.09-.73-.02-1.18.1-1 .07-1.95.09-2.95.06-1.2-.17-2.34-.02-3.54.04-1.19-.18-2.35.05-3.54-.14-1.01 0-1.94-.03-2.95-.11-.63.1-1.15-.08-1.77.14-.62-.02-1.15.1-1.77a3.34 3.34 0 0 1 0-1.18c.02-.63-.16-1.15-.03-1.77l-.09-4.14c.13-.82-.04-1.56.11-2.36a2.15 2.15 0 0 1-.01-1.18c-.07-.44-.08-.74-.03-1.18.06-4.55-.13-9.05.04-13.6.31-1.22-.99-.34-1.81-.65-1.38.11-2.71.06-4.1.02-.61.11-1.14.11-1.76.03-.8-.03-1.54.1-2.34-.05-.44.04-.73.1-1.17.12-.45-.11-.72-.12-1.17 0-.62-.01-1.14-.09-1.76-.02-.58-.18-.78-.08-.67.56.03 1.6-.11 3.16-.07 4.76-.06 1.21-.18 2.35-.08 3.57-.15 2.58-.28 5.14-.27 7.72a2.98 2.98 0 0 0-.02 1.19c-.13 1.01-.14 1.96-.07 2.97-.18 1-.1 1.96-.11 2.97-.22 1-.04 1.96-.08 2.97-.04.82-.27 1.57-.07 2.38-.19.99-.16 1.97-.11 2.97-.12.45-.13.73-.03 1.19-.07.81-.21 1.56-.1 2.38.05 1.02-.1 1.96-.15 2.97-.01.64.1 1.17-.07 1.78.05.45.08.74.04 1.19-.46 1.08 3.33 2.08 4.18 2.63 3.7 1.73 7.68 2.92 11.69 3.61.15-1.36-.03-2.73.02-4.12z" fill="#c24022"/><path d="M250 288.82c-69.65 0-126.32-56.67-126.32-126.32S180.35 36.18 250 36.18 376.32 92.85 376.32 162.5 319.65 288.82 250 288.82zm0-242.56c-64.1 0-116.25 52.15-116.25 116.25S185.9 278.76 250 278.76s116.25-52.15 116.25-116.25S314.1 46.26 250 46.26z" fill="#00364f"/></svg>