<?xml version="1.0" encoding="UTF-8"?><svg id="Layer_1" xmlns="http://www.w3.org/2000/svg" viewBox="0 0 305.49 305.49"><path d="m90.75,4.09c-15.93.75-26.81,3.3-36.31,7.03-9.84,3.84-18.18,8.98-26.48,17.31-8.31,8.34-13.41,16.69-17.22,26.54-3.69,9.53-6.18,20.41-6.89,36.35-.7,15.97-.86,21.06-.78,61.71.08,40.64.26,45.75,1.02,61.72.76,15.92,3.3,26.8,7.03,36.31,3.84,9.84,8.98,18.18,17.31,26.48,8.33,8.3,16.69,13.4,26.55,17.21,9.52,3.68,20.41,6.19,36.34,6.89,15.97.7,21.06.86,61.7.78,40.66-.08,45.76-.26,61.72-1.01,15.93-.76,26.8-3.31,36.31-7.03,9.84-3.85,18.18-8.98,26.48-17.31,8.3-8.33,13.4-16.69,17.21-26.55,3.69-9.52,6.19-20.41,6.89-36.33.7-15.98.86-21.08.79-61.72-.08-40.65-.26-45.74-1.02-61.7-.76-15.94-3.31-26.81-7.03-36.32-3.85-9.84-8.98-18.17-17.31-26.48-8.33-8.3-16.69-13.41-26.55-17.21-9.53-3.69-20.41-6.2-36.34-6.89-15.97-.71-21.06-.86-61.72-.79-40.64.08-45.74.25-61.71,1.02m1.75,270.61c-14.59-.64-22.52-3.06-27.8-5.09-6.99-2.71-11.98-5.95-17.24-11.16-5.24-5.23-8.5-10.21-11.23-17.19-2.05-5.28-4.52-13.2-5.2-27.79-.74-15.78-.91-20.51-.98-60.48-.08-39.96.07-44.69.76-60.49.63-14.58,3.07-22.52,5.09-27.8,2.71-7,5.94-11.98,11.16-17.24,5.23-5.25,10.21-8.5,17.19-11.23,5.28-2.06,13.19-4.51,27.78-5.2,15.79-.75,20.52-.91,60.47-.98,39.97-.08,44.7.06,60.49.76,14.58.64,22.52,3.05,27.79,5.09,7,2.71,11.99,5.93,17.24,11.16,5.25,5.23,8.5,10.2,11.23,17.2,2.06,5.26,4.51,13.19,5.2,27.77.75,15.79.92,20.52.99,60.48.08,39.97-.07,44.7-.76,60.49-.64,14.59-3.06,22.52-5.09,27.81-2.71,6.99-5.94,11.98-11.17,17.23-5.23,5.23-10.2,8.5-17.19,11.23-5.27,2.06-13.19,4.51-27.77,5.2-15.79.74-20.52.91-60.49.98-39.96.08-44.69-.07-60.48-.76m122.03-201.97c.02,9.91,8.08,17.94,17.99,17.92,9.92-.02,17.95-8.08,17.93-17.99-.02-9.91-8.08-17.95-18-17.93-9.92.02-17.95,8.08-17.93,17.99m-138.64,80.16c.08,42.45,34.56,76.79,77,76.71,42.45-.08,76.8-34.55,76.72-77-.08-42.44-34.57-76.8-77.02-76.71-42.44.08-76.79,34.57-76.71,77.01m26.96-.05c-.05-27.55,22.25-49.94,49.8-49.98,27.55-.05,49.94,22.24,49.99,49.8.05,27.56-22.25,49.94-49.8,49.99-27.55.05-49.94-22.24-49.99-49.8"/></svg>