<?xml version="1.0" encoding="UTF-8"?>
<svg id="Layer_1" data-name="Layer 1" xmlns="http://www.w3.org/2000/svg" version="1.1" viewBox="0 0 305.5 305.5">
  <defs>
    <style>
      .cls-1 {
        fill: #000;
        stroke-width: 0px;
      }
    </style>
  </defs>
  <path class="cls-1" d="M90.8,4.1c-15.9.8-26.8,3.3-36.3,7-9.8,3.8-18.2,9-26.5,17.3-8.3,8.3-13.4,16.7-17.2,26.5-3.7,9.5-6.2,20.4-6.9,36.3-.7,16-.9,21.1-.8,61.7,0,40.6.3,45.8,1,61.7.8,15.9,3.3,26.8,7,36.3,3.8,9.8,9,18.2,17.3,26.5,8.3,8.3,16.7,13.4,26.5,17.2,9.5,3.7,20.4,6.2,36.3,6.9,16,.7,21.1.9,61.7.8,40.7,0,45.8-.3,61.7-1,15.9-.8,26.8-3.3,36.3-7,9.8-3.9,18.2-9,26.5-17.3s13.4-16.7,17.2-26.6c3.7-9.5,6.2-20.4,6.9-36.3.7-16,.9-21.1.8-61.7,0-40.7-.3-45.7-1-61.7-.8-15.9-3.3-26.8-7-36.3-3.9-9.8-9-18.2-17.3-26.5-8.3-8.3-16.7-13.4-26.6-17.2-9.5-3.7-20.4-6.2-36.3-6.9-16-.7-21.1-.9-61.7-.8-40.6,0-45.7.2-61.7,1M92.5,274.7c-14.6-.6-22.5-3.1-27.8-5.1-7-2.7-12-6-17.2-11.2-5.2-5.2-8.5-10.2-11.2-17.2-2-5.3-4.5-13.2-5.2-27.8-.7-15.8-.9-20.5-1-60.5,0-40,0-44.7.8-60.5.6-14.6,3.1-22.5,5.1-27.8,2.7-7,5.9-12,11.2-17.2,5.2-5.2,10.2-8.5,17.2-11.2,5.3-2.1,13.2-4.5,27.8-5.2,15.8-.8,20.5-.9,60.5-1,40,0,44.7,0,60.5.8,14.6.6,22.5,3.1,27.8,5.1,7,2.7,12,5.9,17.2,11.2,5.2,5.2,8.5,10.2,11.2,17.2,2.1,5.3,4.5,13.2,5.2,27.8.8,15.8.9,20.5,1,60.5,0,40,0,44.7-.8,60.5-.6,14.6-3.1,22.5-5.1,27.8-2.7,7-5.9,12-11.2,17.2-5.2,5.2-10.2,8.5-17.2,11.2-5.3,2.1-13.2,4.5-27.8,5.2-15.8.7-20.5.9-60.5,1-40,0-44.7,0-60.5-.8M214.5,72.7c0,9.9,8.1,17.9,18,17.9,9.9,0,17.9-8.1,17.9-18,0-9.9-8.1-18-18-17.9s-17.9,8.1-17.9,18M75.9,152.9c0,42.4,34.6,76.8,77,76.7,42.4,0,76.8-34.6,76.7-77,0-42.4-34.6-76.8-77-76.7-42.4,0-76.8,34.6-76.7,77M102.8,152.8c0-27.6,22.2-49.9,49.8-50,27.6,0,49.9,22.2,50,49.8,0,27.6-22.2,49.9-49.8,50s-49.9-22.2-50-49.8"/>
</svg>