<svg version="1.1" id="Layer_1" xmlns="http://www.w3.org/2000/svg" x="0" y="0" viewBox="0 0 147.2 104.6" style="enable-background:new 0 0 147.2 104.6" xml:space="preserve"><style>.st1{fill:#fff}</style><path d="M18.3 44.8c.3-3.4.9-6.8 1.7-10.2.3-1.3 1.6-2.7 3.2-3.5C34 25.7 44.4 19.4 54.9 13.3 62.8 8.7 70.3 1.9 80 1.8c9.6-.1 19 4.2 27.6 8.3 1.7.8 3.9 3 4.8 4.8.7 1.5.2 2.3-1.2 2-23.5-4.7-55.1 18.7-87.7 30.6-2.7.9-5.4-.5-5.2-2.7zm67.4 58c7.3-1.5 14.6-4 21.8-7.5 1.7-.8 3.9-3 4.8-4.8 1.2-2.4 2.2-4.8 3.1-7.2.8-2.1-1-2.9-3.4-1.7-9.1 4.3-18 9.2-26.4 13.9-3.7 2-3.3 7.9.1 7.3zM40.6 6.3c-2.9 1.1-5.9 2.3-8.8 3.7-1.7.9-3.9 3-4.8 4.8-.6 1.2-1.1 2.4-1.6 3.6-1 2.2.9 2.9 3.5 1.3 3.7-2.3 7.4-4.6 10.9-6.9 3.8-2.4 4.1-7.7.8-6.5zM18.3 60.9c.4 3.4.9 6.8 1.7 10.2.5 2.2 3.6 4.4 5.9 4.1 27.5-4.4 61.6-28 92-31.2 1.8-.2 2.9-1.4 2.6-2.8-.5-3.5-1.3-7-2.2-10.5-.6-2.1-3.4-4.2-5.6-4.3C85.8 25.4 52 49.7 20.5 58c-1.4.4-2.3 1.5-2.2 2.9zm98.1-6.9c-31.9 6.6-65.9 30.7-89.9 31-1.2 0-1.6.8-1 2.1 3.5 8 15.5 14.6 24.2 13.8 5.1-.5 10.1-3.7 14.7-5.7 6-2.7 11.8-5.7 17.7-8.6 11.3-5.6 22.6-11.3 34.4-15.7 1.8-.7 3.3-2.1 3.6-3.6.7-3.5 1.1-7 1.3-10.5 0-1.8-2.5-3.4-5-2.8z" style="fill:#fff;fill-opacity:8.000000e-02"/><path class="st1" d="M45.7 68.8c-.2-.6-.4-1.3-.8-2.1h-4.8l-.8 2.1h-3.8l4.2-10.9h5.5l4.2 10.9h-3.7zM44 64.3c-.4-1-.8-2.1-1.2-3.1l-.4-1c-.3.9-.9 2.3-1.5 4.1H44zM62.4 61.5c0 .9-.2 1.6-.6 2.2-.4.6-1.1 1-2.2 1.3.1.2.2.3.3.4l2.4 3.4h-4.1c-.4-.8-1.1-2-2.1-3.5h-2.2v3.5h-3.5c.1-1.9.1-3.8.1-5.4 0-1.7 0-3.5-.1-5.4H57c2 0 3.4.3 4.2 1 .8.5 1.2 1.4 1.2 2.5zm-8.5-.7v1.7h2c.8 0 1.5 0 1.9-.1.4-.1.7-.1.9-.3.2-.1.3-.3.3-.5s-.1-.4-.2-.5c-.2-.1-.5-.2-.9-.3-.4-.1-1.1-.1-2-.1h-2zM67.1 66.1c3.8 0 6.6-.1 8.3-.2-.1.4-.1.8-.1 1.3v1.6H63.6c.1-1.9.1-3.8.1-5.4 0-1.7 0-3.5-.1-5.4h11.7v2.7h-8.1v1.4h2.1c1.6 0 3.2 0 4.9-.1v2.6c-1.7-.1-3.3-.1-4.9-.1h-2.1v1.6zM89.2 57.9c-.1 1.7-.1 3.5-.1 5.4 0 1.9 0 3.8.1 5.4h-5.4l-3.6-8.2.3 8.2h-3.9c.1-1.9.1-3.8.1-5.4 0-1.7 0-3.5-.1-5.4h5.5l3.6 8.4-.3-8.4h3.8zM99.9 68.8c-.2-.6-.4-1.3-.8-2.1h-4.8l-.8 2.1h-3.8L94 57.9h5.5l4.2 10.9h-3.8zm-1.7-4.5c-.4-1-.8-2.1-1.2-3.1l-.4-1c-.3.9-.9 2.3-1.5 4.1h3.1zM1.8 29.4h3.3v20.9h14.1v1.5H1.8V29.4zM24.2 34.2c-.6 0-1.2-.2-1.6-.5-.4-.4-.6-.8-.6-1.4 0-.6.2-1.1.6-1.4s.9-.5 1.6-.5c.6 0 1.2.2 1.6.5s.6.8.6 1.4c0 .6-.2 1.1-.6 1.4-.5.3-1 .5-1.6.5zm-1.5 1.9h2.9v15.7h-2.9V36.1zM32.3 37.4H29l.4-1.3h2.8v-1.7c0-1.4.4-2.5 1.2-3.2.8-.7 2-1.1 3.6-1.1 1.2 0 2.1.2 2.8.6l-.4 1.3c-.4-.4-1-.6-1.7-.6-.8 0-1.4.2-1.9.7-.4.5-.7 1.1-.7 2v2h4.4l-.4 1.3h-4v14.4h-2.9V37.4zM48.6 50.8c1.5 0 2.7-.4 3.6-1.1 1-.7 1.6-1.7 1.9-2.9h2.4c-.4 1.6-1.3 2.9-2.8 3.9-1.5.9-3.2 1.4-5.3 1.4-1.7 0-3.3-.3-4.6-1-1.3-.7-2.3-1.6-3-2.8-.7-1.2-1.1-2.7-1.1-4.3 0-1.7.4-3.1 1.1-4.4.7-1.2 1.7-2.2 3-2.8 1.3-.7 2.8-1 4.6-1 2.6 0 4.6.7 6.1 2.1 1.5 1.4 2.2 3.4 2.3 6H42.7v.1c0 2.1.5 3.8 1.5 5 1.1 1.2 2.5 1.8 4.4 1.8zm-.1-13.7c-1.6 0-2.9.5-3.9 1.4-1 .9-1.6 2.3-1.8 4H54c-.2-1.7-.8-3.1-1.8-4-.9-.9-2.1-1.4-3.7-1.4zM60.7 29.4h10.4c2.7 0 4.8.5 6.4 1.4 1.6.9 2.4 2.2 2.4 3.8 0 1.4-.6 2.6-1.7 3.6s-2.6 1.6-4.4 1.9c2.4.2 4.3.8 5.6 1.7 1.3.9 1.9 2.2 1.9 4 0 1.9-.8 3.4-2.4 4.5-1.6 1-3.9 1.5-6.9 1.5H60.7V29.4zm9.2 10c2.2 0 3.8-.4 5-1.2 1.2-.8 1.7-1.9 1.7-3.4 0-1.3-.5-2.3-1.6-2.9-1.1-.6-2.7-1-5-1h-6v8.5h5.9zm2.3 10.9c1.8 0 3.2-.4 4.2-1.2 1-.8 1.5-2 1.5-3.4 0-1.6-.7-2.7-2.1-3.5-1.4-.8-3.4-1.2-6.1-1.2H64v9.3h8.2zM90.5 52.1c-2.1 0-3.6-.4-4.7-1.2-1.1-.8-1.6-2-1.6-3.6s.7-2.9 2-3.7c1.3-.9 3.2-1.3 5.7-1.3h4.7v-1.2c0-1.3-.4-2.3-1.2-3-.8-.7-1.9-1-3.4-1-1.4 0-2.5.3-3.4 1-.9.6-1.4 1.6-1.5 2.8h-2.3c.2-1.6 1-2.9 2.2-3.7s3-1.3 5.1-1.3c2.4 0 4.2.5 5.5 1.5 1.3 1 1.9 2.4 1.9 4.2v5.2c0 1.8.2 3.6.5 5.2h-2.8c-.2-1-.4-1.9-.4-2.8-1.4 1.9-3.5 2.9-6.3 2.9zm.7-1.2c1 0 1.9-.2 2.7-.7.8-.5 1.4-1.1 1.9-1.9.5-.8.7-1.6.7-2.6v-2.2h-3.9c-1.9 0-3.3.3-4.2.9-.9.6-1.3 1.5-1.3 2.8 0 1.2.4 2.1 1.1 2.7.6.7 1.7 1 3 1zM104.2 36.1h2.9v2.8c.5-.9 1.3-1.7 2.4-2.2 1.1-.6 2.3-.8 3.6-.8 2.1 0 3.7.5 4.9 1.6 1.2 1.1 1.8 2.5 1.8 4.4v10h-2.9V41.5c0-1.4-.4-2.5-1.2-3.2-.8-.8-1.9-1.2-3.3-1.2-1.6 0-2.9.5-3.9 1.6-1 1-1.4 2.4-1.4 4.2v8.9h-2.9V36.1zM136.4 51.8l-6.7-8.5-2.8 2.5v6H124V29.9h2.9v13.7l8.8-7.6h2.3l-6.4 5.5 8 10.1h-3.2zM137.9 30.2h3.1v.6h-1.2v3h-.7v-3h-1.2v-.6zm7.6 0v3.5h-.8v-2.2l-1.2 2.2h-.3l-1.2-2.2v2.2h-.6v-3.5h.7l1.3 2.4 1.3-2.4h.8z"/></svg>