<?xml version="1.0" encoding="UTF-8"?><svg id="Layer_1" xmlns="http://www.w3.org/2000/svg" viewBox="0 0 305.49 305.49"><path d="m281.35,2.98H24.14C12.45,2.98,2.98,12.45,2.98,24.14v257.22c0,11.69,9.47,21.16,21.16,21.16h257.22c11.69,0,21.16-9.47,21.16-21.16V24.14c0-11.69-9.47-21.16-21.16-21.16ZM92.2,255.11c0,3.71-.01,3.73-3.75,3.74-12.71,0-25.43-.04-38.14.04-2.43.01-3.42-.56-3.41-3.28.08-45.79.08-91.58,0-137.37,0-2.62.8-3.3,3.33-3.27,12.9.11,25.8.12,38.7,0,2.62-.03,3.33.82,3.32,3.35l-.05,136.81Zm-22.61-159.3c-14.48,0-26.01-11.44-26.02-25.83-.02-14.63,11.46-26.2,25.98-26.2,14.48,0,26.08,11.64,26.06,26.16-.01,14.37-11.58,25.87-26.02,25.87Zm185.87,163.09c-12.72-.11-25.43-.13-38.15,0-2.94.03-3.61-1.07-3.6-3.78.08-23.56.17-47.11-.04-70.67-.05-5.92-.57-11.97-1.88-17.73-2.32-10.24-9.05-15.3-19.5-15.42-3.33-.04-6.77.12-9.97.92-10.38,2.59-14.78,10.46-16.49,20.14-.84,4.75-1.13,9.64-1.16,14.47-.11,22.81-.1,45.62.01,68.42.01,2.88-.85,3.67-3.64,3.64-12.72-.12-25.43-.11-38.15,0-2.6.02-3.58-.67-3.58-3.46.08-45.71.07-91.42,0-137.13,0-2.53.69-3.38,3.32-3.35,12.34.13,24.69.14,37.03,0,2.7-.03,3.34.94,3.27,3.4-.14,5.12-.04,10.24-.04,16.21,7.02-11.02,15.99-18.24,27.79-21.32,14.36-3.74,28.57-2.53,42.09,3.53,13.63,6.11,20.01,17.92,23.26,31.78,2.36,10.04,2.92,20.28,2.89,30.57-.06,25.43-.07,50.85.02,76.28,0,2.71-.8,3.53-3.48,3.51Z"/></svg>