<?xml version="1.0" encoding="UTF-8"?>
<svg id="Layer_1" data-name="Layer 1" xmlns="http://www.w3.org/2000/svg" version="1.1" viewBox="0 0 305.5 305.5">
  <defs>
    <style>
      .cls-1 {
        fill: #000;
        stroke-width: 0px;
      }
    </style>
  </defs>
  <path class="cls-1" d="M281.4,3H24.1C12.4,3,3,12.4,3,24.1v257.2c0,11.7,9.5,21.2,21.2,21.2h257.2c11.7,0,21.2-9.5,21.2-21.2V24.1c0-11.7-9.5-21.2-21.2-21.2h0ZM92.2,255.1c0,3.7,0,3.7-3.8,3.7-12.7,0-25.4,0-38.1,0-2.4,0-3.4-.6-3.4-3.3,0-45.8,0-91.6,0-137.4,0-2.6.8-3.3,3.3-3.3,12.9.1,25.8.1,38.7,0,2.6,0,3.3.8,3.3,3.3v136.8c0,0,0,0,0,0ZM69.6,95.8c-14.5,0-26-11.4-26-25.8,0-14.6,11.5-26.2,26-26.2s26.1,11.6,26.1,26.2c0,14.4-11.6,25.9-26,25.9ZM255.5,258.9c-12.7-.1-25.4-.1-38.1,0-2.9,0-3.6-1.1-3.6-3.8,0-23.6.2-47.1,0-70.7,0-5.9-.6-12-1.9-17.7-2.3-10.2-9.1-15.3-19.5-15.4-3.3,0-6.8.1-10,.9-10.4,2.6-14.8,10.5-16.5,20.1-.8,4.8-1.1,9.6-1.2,14.5-.1,22.8-.1,45.6,0,68.4,0,2.9-.9,3.7-3.6,3.6-12.7-.1-25.4-.1-38.2,0-2.6,0-3.6-.7-3.6-3.5,0-45.7,0-91.4,0-137.1,0-2.5.7-3.4,3.3-3.3,12.3.1,24.7.1,37,0,2.7,0,3.3.9,3.3,3.4-.1,5.1,0,10.2,0,16.2,7-11,16-18.2,27.8-21.3,14.4-3.7,28.6-2.5,42.1,3.5,13.6,6.1,20,17.9,23.3,31.8,2.4,10,2.9,20.3,2.9,30.6,0,25.4,0,50.9,0,76.3,0,2.7-.8,3.5-3.5,3.5h0Z"/>
</svg>