<svg xmlns="http://www.w3.org/2000/svg" xmlns:xlink="http://www.w3.org/1999/xlink" viewBox="0 0 504.14 497.09" xmlns:v="https://vecta.io/nano"><style><![CDATA[.H{letter-spacing:0em}.K{fill:#90744a}.L{font-family:BCSklonar-Light,BC Sklonar}.M{font-weight:300}.N{font-size:12.97px}.O{font-family:BCSklonar-Bold,BC Sklonar}]]></style><defs><linearGradient id="A" x1="323.35" y1="242.68" x2="361.68" y2="309.07" gradientUnits="userSpaceOnUse"><stop offset=".16" stop-color="#775b35"/><stop offset=".42" stop-color="#e4bf87"/><stop offset=".78" stop-color="#90744a"/></linearGradient><path id="B" d="m152.26,158.24h19.26c5.18,0,9.29,2.74,9.29,7.92v57.99c0,5.08-4.01,7.92-9.29,7.92h-19.26c-5.96,0-9.68-4.4-9.68-8.41v-57.01c0-4.3,3.81-8.41,9.68-8.41Zm3.42,62.39c0,.29.29.68.68.68h10.66c.39,0,.68-.39.68-.68v-45.49c0-.1.08-.18.18-.18h2.99c1.03,0,1.55-1.25.82-1.98l-3.26-3.26c-.46-.46-1.09-.72-1.75-.72h-10.32c-.38,0-.68.31-.68.68v50.95Z"/><path id="C" d="M185.72 89.07c2.25-2.62 4.69-5.07 7.24-7.4 2.2-2.01 4.49-3.92 6.84-5.74 1.65-1.27 3.32-2.5 5.04-3.68l1.29-.9c.39-.26.95-.68 1.43-.73.75-.09 1.11 1 .65 1.5-.49.53-1.29.85-1.89 1.25l-2.05 1.4c-1.35.95-2.69 1.92-4.01 2.92-2.44 1.84-4.78 3.81-6.98 5.93a85.07 85.07 0 0 0-4.83 5.04c3.54-.54 7.74-.78 8.49-.99l-4.16 1.57-4.08.66.82.08c4.7.74 6.67 3.46 6.67 6.92 0 4.94-3.54 11.62-7.29 15.08-5.48 5.11-9.35 6.14-11.66 6.14-2.8 0-4.78-2.8-4.78-5.85 0-6.1 6.88-15.49 11.95-21.84-.66 0-1.33-.19-1.33-.4 0-.37.21-.41.21-.41l2.45-.55zm1.15 1.32l-2.84 3.17c-3.75 4.7-10.01 13.89-10.09 19.86 0 1.69.7 3.42 3.01 3.42 7.42 0 18-12.73 18-20.27 0-1.44-.41-2.88-1.4-4.08-1.52-1.73-5.07-2.06-6.67-2.1z"/><path id="D" d="M207.17 89.07c9.19-10.67 22.2-18.95 22.2-18.95s.58-.41.91-.41c.21 0 .45.08.66.41.16.21.16.62.16.74 0 .33-.62.62-.62.62-7.5 5.03-13.97 9.72-20.6 17.18 3.54-.54 9.63-1.02 10.37-1.23l-2.41 1.28-7.71 1.18.82.08c4.7.74 6.28 3.46 6.28 6.92 0 4.94-3.54 11-7.29 14.46-5.48 5.11-8.96 6.14-11.27 6.14-2.8 0-4.78-2.8-4.78-5.85 0-6.1 6.88-14.87 11.95-21.22-.66 0-.95-.25-.95-.45 0-.37.21-.41.21-.41l2.06-.49zm1.15 1.32l-2.84 3.17c-3.75 4.7-10.01 13.26-10.09 19.24 0 1.69.7 3.42 3.01 3.42 7.42 0 17.61-12.11 17.61-19.65 0-1.44-.41-2.88-1.4-4.08-1.52-1.73-4.67-2.06-6.28-2.1z"/></defs><path d="M446.54 106.17v363.25H238.97V106.17z" fill="#111"/><path d="m352.19,239.03h-19.26c-5.18,0-9.29,2.74-9.29,7.92v57.99c0,5.08,4.01,7.92,9.29,7.92h19.26c5.96,0,9.68-4.4,9.68-8.41v-57.01c0-4.3-3.81-8.41-9.68-8.41Zm-3.42,62.39c0,.29-.29.68-.68.68h-10.66c-.39,0-.68-.39-.68-.68v-45.49c0-.1-.08-.18-.18-.18h-2.99c-1.03,0-1.55-1.25-.82-1.98l3.26-3.26c.46-.46,1.09-.72,1.75-.72h10.32c.38,0,.68.31.68.68v50.95Z" fill="url(#A)"/><path d="M274.51 106.17v300.1h-35.54v-300.1z"/><path d="M265.17 27.67v363.25H57.6V27.67z" fill="#111"/><text transform="translate(177.2 292.04)"><tspan fill="#fff" font-size="15.86" font-weight="700" class="O"><tspan x="0" y="0">BARBARA</tspan></tspan><tspan class="K L M N"><tspan x="-3.17" y="18.74">VISIONARY</tspan></tspan><tspan class="K L M N"><tspan x="-24.58" y="37.48">916.555.8368</tspan></tspan><tspan class="K L M N"><tspan x="-60.25" y="56.22">B@1OFFEXOTICS.COM</tspan></tspan></text><use xlink:href="#B" fill="#181818"/><path d="m147.93,159.69h19.26c5.18,0,9.29,2.74,9.29,7.92v57.99c0,5.08-4.01,7.92-9.29,7.92h-19.26c-5.96,0-9.68-4.4-9.68-8.41v-57.01c0-4.3,3.81-8.41,9.68-8.41Zm3.42,62.39c0,.29.29.68.68.68h10.66c.39,0,.68-.39.68-.68v-45.49c0-.1.08-.18.18-.18h2.99c1.03,0,1.55-1.25.82-1.98l-3.26-3.26c-.46-.46-1.09-.72-1.75-.72h-10.32c-.38,0-.68.31-.68.68v50.95Z"/><use xlink:href="#B" x="-1.44" fill="#111"/><text transform="matrix(0 -1 1 0 87.48 166.59)" font-size="11.53" class="K"><tspan x="0" y="0" class="L M">1</tspan><tspan class="H O" x="6.34" font-weight="700" y="0">OFF</tspan><tspan x="25.37" y="0" class="L M">EXOTICS.COM</tspan></text><path d="M169.43 71.61h-11.64c-3.13 0-5.61 1.65-5.61 4.79v35.04c0 3.07 2.42 4.79 5.61 4.79h11.64c3.6 0 5.85-2.66 5.85-5.08V76.7c0-2.6-2.3-5.08-5.85-5.08zm-2.07 37.7c0 .18-.18.41-.41.41h-6.44c-.24 0-.41-.24-.41-.41V81.82c0-.06-.05-.11-.11-.11h-1.81c-.62 0-.94-.75-.5-1.2l1.97-1.97c.28-.28.66-.44 1.05-.44h6.24c.23 0 .41.19.41.41v30.79zm31.91-37.7c-.83 0-1.3.47-1.3 1 0 1.24 2.54 2.6 2.54 4.96v19.74L190.4 73.43c-.35-.83-.77-1.83-2.6-1.83h-7.68c-.83 0-1.3.47-1.3 1 0 1.24 2.54 2.6 2.54 4.96v32.68c0 2.36-2.54 3.72-2.54 4.96 0 .53.47 1 1.3 1h10.34c.95 0 1.65-.59 1.65-1.48 0-1.36-2.54-2.78-2.54-4.02V92.44l10.17 22.11c.53 1.06.95 1.65 2.54 1.65h4.31c1.3 0 2.13-.83 2.13-2.07V73.17a1.59 1.59 0 0 0-1.59-1.59h-7.86zm14.4 44.62c-.83 0-1.3-.47-1.3-1 0-1.24 2.54-2.6 2.54-4.96V77.59c0-2.36-2.54-3.72-2.54-4.96 0-.53.47-1 1.3-1h20.68c1.42 0 2.01.59 2.01 2.01v6.74c0 .89-.18 1.18-.65 1.54-.95.71-5.55 3.84-6.26 3.84-.47 0-1-.47-1-1.12v-6.5h-4.85c-.41 0-.77.35-.77.71v14.48l5.26-3.31c.53-.35 1.06-.59 1.54-.59.71 0 1.12.59 1.12 1.24v5.44c0 1-.24 1.48-1.12 2.01l-6.8 4.31v6.62c0 .41.35.71.77.71h4.85v-3.72c0-.89.18-1.18.65-1.54.95-.71 5.55-3.84 6.26-3.84.47 0 1 .47 1 1.12v12.47c0 1.42-.59 2.01-2.01 2.01h-20.68z" class="K"/><g fill="#fff"><path d="m181.68,83.31c.49.62.91,1.24.91,2.18-.08,1.28-.7,2.92-1.65,4.53-.82,1.36-1.77,2.72-3.05,4.04-3.25,3.38-7.62,6.43-11.04,6.43-.95,0-1.77-.62-2.27-1.57-.29-.58-.45-1.24-.45-1.94.04-1.28.87-3.3,2.22-5.36.58-.87,1.24-1.73,1.94-2.55,2.1-2.43,4.98-4.61,7.54-5.97,0,0,2.27-1.15,3.75-1.15.41,0,.74.08.95.29.08.04.7.54,1.15,1.07Zm-1.89.41c-.95,0-2.22.45-3.42,1.07-1.4.78-3.63,2.55-5.68,4.66-2.35,2.35-4.57,5.27-5.15,7.54-.08.37-.16.74-.16,1.07,0,.74.41,1.48,1.65,1.48,1.81,0,4-1.48,6.06-3.17,2.55-2.1,4.86-4.7,6.39-6.8.41-.54,2.02-3.13,2.02-4.57,0-.25-.12-.54-.25-.74-.37-.41-.82-.54-1.44-.54Z"/><use xlink:href="#C"/><use xlink:href="#D"/></g><path d="M318.01 360.85h-11.64c-3.13 0-5.61 1.65-5.61 4.79v35.04c0 3.07 2.42 4.79 5.61 4.79h11.64c3.6 0 5.85-2.66 5.85-5.08v-34.45c0-2.6-2.3-5.08-5.85-5.08zm-2.07 37.7c0 .18-.18.41-.41.41h-6.44c-.24 0-.41-.24-.41-.41v-27.49c0-.06-.05-.11-.11-.11h-1.81c-.62 0-.94-.75-.5-1.2l1.97-1.97c.28-.28.66-.44 1.05-.44h6.24c.23 0 .41.19.41.41v30.79zm31.92-37.7c-.83 0-1.3.47-1.3 1 0 1.24 2.54 2.6 2.54 4.96v19.74l-10.11-23.88c-.35-.83-.77-1.83-2.6-1.83h-7.68c-.83 0-1.3.47-1.3 1 0 1.24 2.54 2.6 2.54 4.96v32.68c0 2.36-2.54 3.72-2.54 4.96 0 .53.47 1 1.3 1h10.34c.95 0 1.65-.59 1.65-1.48 0-1.36-2.54-2.78-2.54-4.02v-18.26l10.17 22.11c.53 1.06.95 1.65 2.54 1.65h4.31c1.3 0 2.13-.83 2.13-2.07v-40.96a1.59 1.59 0 0 0-1.59-1.59h-7.86zm14.39 44.61c-.83 0-1.3-.47-1.3-1 0-1.24 2.54-2.6 2.54-4.96v-32.68c0-2.36-2.54-3.72-2.54-4.96 0-.53.47-1 1.3-1h20.68c1.42 0 2.01.59 2.01 2.01v6.74c0 .89-.18 1.18-.65 1.54-.95.71-5.55 3.84-6.26 3.84-.47 0-1-.47-1-1.12v-6.5h-4.85c-.41 0-.77.35-.77.71v14.48l5.26-3.31c.53-.35 1.06-.59 1.54-.59.71 0 1.12.59 1.12 1.24v5.44c0 1-.24 1.48-1.12 2.01l-6.8 4.31v6.62c0 .41.35.71.77.71h4.85v-3.72c0-.89.18-1.18.65-1.54.95-.71 5.55-3.84 6.26-3.84.47 0 1 .47 1 1.12v12.47c0 1.42-.59 2.01-2.01 2.01h-20.68z" class="K"/><g fill="#fff"><path d="m330.27,372.54c.49.62.91,1.24.91,2.18-.08,1.28-.7,2.92-1.65,4.53-.82,1.36-1.77,2.72-3.05,4.04-3.25,3.38-7.62,6.43-11.04,6.43-.95,0-1.77-.62-2.27-1.57-.29-.58-.45-1.24-.45-1.94.04-1.28.87-3.3,2.22-5.36.58-.87,1.24-1.73,1.94-2.55,2.1-2.43,4.98-4.61,7.54-5.97,0,0,2.27-1.15,3.75-1.15.41,0,.74.08.95.29.08.04.7.54,1.15,1.07Zm-1.89.41c-.95,0-2.22.45-3.42,1.07-1.4.78-3.63,2.55-5.68,4.66-2.35,2.35-4.57,5.27-5.15,7.54-.08.37-.16.74-.16,1.07,0,.74.41,1.48,1.65,1.48,1.81,0,4-1.48,6.06-3.17,2.55-2.1,4.86-4.7,6.39-6.8.41-.54,2.02-3.13,2.02-4.57,0-.25-.12-.54-.25-.74-.37-.41-.82-.54-1.44-.54Z"/><use xlink:href="#C" x="148.58" y="289.24"/><use xlink:href="#D" x="148.58" y="289.24"/></g></svg>