<svg xmlns="http://www.w3.org/2000/svg" viewBox="0 0 500 325" xmlns:v="https://vecta.io/nano"><path d="M164.83 86.01h-39.92c-10.74 0-19.25 5.67-19.25 16.41v120.16c0 10.54 8.31 16.41 19.25 16.41h39.92c12.36 0 20.06-9.12 20.06-17.43V103.43c0-8.92-7.9-17.43-20.06-17.43zm-7.09 129.28c0 .61-.61 1.42-1.42 1.42h-22.09c-.81 0-1.42-.81-1.42-1.42v-94.26a.36.36 0 0 0-.36-.36h-6.19c-2.14 0-3.21-2.59-1.7-4.1l6.76-6.76c.96-.96 2.26-1.5 3.62-1.5h21.39c.78 0 1.42.64 1.42 1.42V215.3zM267.17 86.01c-2.84 0-4.46 1.62-4.46 3.44 0 4.26 8.71 8.92 8.71 17.02v67.69l-34.67-81.87c-1.22-2.84-2.63-6.28-8.92-6.28H201.5c-2.84 0-4.46 1.62-4.46 3.44 0 4.26 8.71 8.92 8.71 17.02v112.05c0 8.11-8.71 12.77-8.71 17.02 0 1.82 1.62 3.44 4.46 3.44h35.45c3.24 0 5.67-2.03 5.67-5.07 0-4.66-8.71-9.52-8.71-13.78V157.5l34.87 75.8c1.82 3.65 3.24 5.67 8.71 5.67h14.79c4.46 0 7.29-2.84 7.29-7.09V91.47c0-3.02-2.44-5.46-5.46-5.46h-26.95zm49.36 152.98c-2.84 0-4.46-1.62-4.46-3.44 0-4.26 8.71-8.92 8.71-17.02V106.48c0-8.11-8.71-12.77-8.71-17.02 0-1.82 1.62-3.44 4.46-3.44h70.92c4.86 0 6.89 2.03 6.89 6.89v23.1c0 3.04-.61 4.05-2.23 5.27-3.24 2.43-19.05 13.17-21.48 13.17-1.62 0-3.44-1.62-3.44-3.85v-22.29h-16.62c-1.42 0-2.63 1.22-2.63 2.43v49.64l18.03-11.35c1.82-1.22 3.65-2.03 5.27-2.03 2.43 0 3.85 2.03 3.85 4.26v18.64c0 3.45-.81 5.07-3.85 6.89l-23.3 14.79v22.69c0 1.42 1.22 2.43 2.63 2.43h16.62v-12.77c0-3.04.61-4.05 2.23-5.27 3.24-2.43 19.05-13.17 21.48-13.17 1.62 0 3.44 1.62 3.44 3.85v42.75c0 4.86-2.03 6.89-6.89 6.89h-70.92z" fill="#111"/><path d="M206.85 126.12c1.7 2.12 3.11 4.24 3.11 7.49-.28 4.38-2.4 10.03-5.65 15.54-2.82 4.66-6.07 9.32-10.45 13.84-11.16 11.58-26.13 22.04-37.86 22.04-3.25 0-6.07-2.12-7.77-5.37-.99-1.98-1.55-4.24-1.55-6.64.14-4.38 2.97-11.3 7.63-18.36 1.98-2.97 4.24-5.93 6.64-8.76 7.2-8.33 17.09-15.82 25.85-20.48 0 0 7.77-3.95 12.85-3.95 1.41 0 2.54.28 3.25.99.28.14 2.4 1.84 3.95 3.67zm-6.5 1.41c-3.25 0-7.63 1.55-11.72 3.67-4.8 2.68-12.43 8.76-19.49 15.96-8.05 8.05-15.68 18.08-17.66 25.85-.28 1.27-.57 2.54-.57 3.67 0 2.54 1.41 5.09 5.65 5.09 6.21 0 13.7-5.09 20.76-10.88 8.76-7.2 16.67-16.1 21.89-23.31 1.41-1.84 6.92-10.74 6.92-15.68 0-.85-.42-1.84-.85-2.54-1.27-1.41-2.83-1.84-4.94-1.84zm20.35 18.37c7.73-8.97 16.08-17.4 24.83-25.38 7.54-6.88 15.38-13.43 23.45-19.67 5.64-4.36 11.4-8.58 17.28-12.61l4.41-3.1c1.35-.89 3.24-2.32 4.89-2.52 2.58-.31 3.8 3.44 2.22 5.14-1.7 1.82-4.42 2.92-6.47 4.28l-7.03 4.79a463.02 463.02 0 0 0-13.74 10.01c-8.37 6.32-16.38 13.08-23.95 20.34-5.76 5.53-11.26 11.32-16.57 17.29 12.15-1.84 26.56-2.68 29.1-3.39l-14.27 5.37-13.98 2.26 2.82.28c16.1 2.54 22.88 11.87 22.88 23.73 0 16.95-12.15 39.84-25 51.71-18.79 17.52-32.06 21.05-39.97 21.05-9.6 0-16.38-9.6-16.38-20.06 0-20.91 23.59-53.12 40.96-74.87-2.26 0-4.57-.66-4.57-1.36 0-1.27.71-1.41.71-1.41l8.39-1.89zm3.95 4.52l-9.75 10.88c-12.85 16.1-34.32 47.61-34.61 68.09 0 5.79 2.4 11.72 10.31 11.72 25.43 0 61.73-43.66 61.73-69.51 0-4.94-1.41-9.89-4.8-13.98-5.23-5.93-17.37-7.06-22.88-7.2zm69.6-4.52c31.5-36.58 76.13-64.98 76.13-64.98s1.98-1.41 3.11-1.41c.71 0 1.55.28 2.26 1.41.57.71.57 2.12.57 2.54 0 1.13-2.12 2.12-2.12 2.12-25.71 17.23-47.88 33.34-70.63 58.9 12.15-1.84 33.01-3.5 35.56-4.21l-8.26 4.4-26.45 4.05 2.82.28c16.1 2.54 21.54 11.87 21.54 23.73 0 16.95-12.15 37.71-25 49.58-18.79 17.52-30.72 21.05-38.63 21.05-9.61 0-16.38-9.6-16.38-20.06 0-20.91 23.59-50.99 40.96-72.74-2.26 0-3.25-.85-3.25-1.55 0-1.27.71-1.41.71-1.41l7.06-1.7zm3.95 4.52l-9.75 10.88c-12.85 16.1-34.32 45.48-34.61 65.96 0 5.79 2.4 11.72 10.31 11.72 25.43 0 60.38-41.53 60.38-67.38 0-4.94-1.41-9.89-4.8-13.98-5.23-5.93-16.03-7.06-21.54-7.2z" fill="#fff"/></svg>