<svg xmlns="http://www.w3.org/2000/svg" viewBox="0 0 350 350" xmlns:v="https://vecta.io/nano"><path d="M206.18 11.19h-63.65c-17.13 0-30.7 9.05-30.7 26.17v191.61c0 16.8 13.25 26.17 30.7 26.17h63.65c19.71 0 31.99-14.54 31.99-27.79V38.98c0-14.22-12.6-27.79-31.99-27.79zm-11.31 206.15c0 .97-.97 2.26-2.26 2.26h-35.22c-1.29 0-2.26-1.29-2.26-2.26V67.03a.58.58 0 0 0-.58-.58h-9.88c-3.41 0-5.12-4.13-2.71-6.54l10.78-10.78a8.15 8.15 0 0 1 5.77-2.39h34.1a2.26 2.26 0 0 1 2.26 2.26v168.34z" fill="#90744a"/><text fill="#90744a" font-family="BoucherieBlock-Bold,Boucherie Block" font-size="65.71" font-weight="700"><tspan x="120.35" y="338.99">1</tspan><tspan x="206.83" y="338.99">o</tspan></text><g fill="none" stroke="#fff" stroke-linecap="round" stroke-linejoin="round" stroke-width="1.88"><path d="M174.3 306.79v14.26"/><path d="M181.43 313.92h-14.26"/></g></svg>