<svg xmlns="http://www.w3.org/2000/svg" viewBox="0 0 500 325" xmlns:v="https://vecta.io/nano"><g opacity=".1" fill="#2c2134"><path d="M68.58 186.72c.81 7.03 1.42 14.05 1.99 21.18.74 4.79 1.92 10.22-.1 14.72-2.3 2.97-14.69 4.07-18.12 2.58-7.7-.96-7.21-10.09-8.28-15.87-1.9-10.48-3.3-21.09-3.95-31.65-.97-9.43-3.22-18.64-3.9-28.06-.08-5.98-1.88-11.73-1.86-17.6-1.48-5.8-4.42-17.58 2.95-20.25 10.25-2.51 20.74-4.68 31.19-6.73 4.7-.38 9.28-2.94 13.95-1.75 8.62-.12 15.03 7.01 19.22 13.87.46 2.36 1.26 4.51 2.55 6.63.18 2.44.92 4.6 2.06 6.79 3.17 32.01 3.52 51.03-34.25 53.33-3.02-.22-4.19-.27-3.43 2.83zm-6.31-49.48c.04 2.6.65 5.53 1.33 8.35.43 4-.2 8.89 1.18 12.28 2.5 4.22 10.72 1.73 13.54-1.3.87-1.96 1.08-4.39 1.37-6.63.39-2.3-.09-4.48-.94-6.65-.47-4.64-1.08-9.47-3.87-13.32-2.39-2.9-6.76-2.04-9.9-1.52-3.83 1.56-3.01 5.27-2.72 8.8zm66.31 4.53c-1.33-3.39-1.06-6.93-.61-10.46-.6-2.35-.71-4.61-.22-6.97-1.1-5.96 1.47-11.57 1.95-17.32 2.62-3.86 4.26-8.43 7.98-11.45 8.39-6.35 19.21-8.7 29.62-9.19 19.88-3.23 27.66 15.64 29.96 32.02 1.97 21.19 5.86 42.56 4.98 63.9 1.02 29.36-18.18 38.77-44.9 35.21-6.49-1.85-13.85-4-16.99-10.6-5.52-4.96-6.69-15.3-8-22.42-1.89-14.21-2.66-28.42-3.77-42.74zm25.51-18.45c1.34 3.46 1.08 7.08.79 10.72.7 2.37.94 4.67.69 7.13 1.68 5.84.17 12.12 2.18 17.8-.51 3.6-.02 7.19.7 10.73.92 6.99-.41 14.56 3.17 20.87 2.21 2.81 7.1 2.34 10.14 1.36 3.59-1.82 3.6-6 3.42-9.53-.87-16.83-1.88-33.67-4.05-50.37-1.02-5.9.21-12.5-2.62-17.98-3.18-3.09-10.92-1.61-13.46 1.73-.89 2.26-.72 5.13-.95 7.54zm104.82-43.47c5.73.03 22.62.88 22.29 8.5.05 3.64.61 7.24-.29 10.8.99 4.35-.65 9.37-6.05 9.4-2.16-1.07-5.16-.39-7.81-1.41-9.19-2.57-14.34-1.21-13.03 9.55.94 5.17 3.27 7.95 7.27 11.38 2.14 2.95 4.46 5.73 7.34 7.9 5.3 5.13 8.46 11.63 11.12 18.3 1.46 3.35 3.25 6.51 3.09 10.24 1.66 13.59 2.7 30.31-8.25 40.54-5.3 5.73-12.93 8.58-20.52 9.2-3.82.47-7.62 1.42-11.26-.02-5.91.6-11.61-1.81-16.9-3.89-1.43-1.79-2.68-3.95-3.15-6.18 1.17-5.66-2.49-13.41 2.36-17.75 4.37-3.12 9.25.93 13.87 1.7 1.03.21 2.25-.28 3.5-.15 2.18.76 4.26 1.2 6.46-.29 10.87-2.76 8.98-15.76 2.39-22.22-7.87-10.5-18.59-19.89-23.24-32.26-1.35-3.39-2.15-6.89-3.16-10.4.29-2.26.73-4.84.72-7.16.16-5.82.53-11.97 3.14-17.12 1.77-7.59 6.32-12.35 12.99-15.74 5.14-3.31 11.31-2.75 17.12-2.94zm85.54 126.37c-1.02 10.44-3.84 13.82-14.84 11.97-3.48-.84-8.04.69-9.98-2.92-4.22-2.82-2.08-11.79-1.79-16.35-.87-4.77.89-9.28 1.27-13.99-.53-3.64 1.24-6.88.72-10.51 1.7-9.18 1.06-18.76 2.77-27.95.43-3.6-.53-7.13 1.12-10.47.1-1.17-.61-2.4-.5-3.57s.95-2.26 1.05-3.43c-.88-4.57 1.75-10.44.36-14.69-2.01-4.43-14.17.36-15.13-8.73.24-2.63.8-5.2 1.37-7.76-.36-4.47-.66-10.99 5-12 2.27-.9 4.54-.3 6.75.56 2.33-.14 4.59-.09 6.88.5 8.81 2.51 18.05 3.15 27.02 5.09 4.38.68 9.63.58 12.85 4.03 1.4 1.97.34 4.72.27 6.99.65 4.02.45 15.17-4.98 15.59-2.82-.1-9.27-2.61-11.58-.27-3.03 8.77-1.99 19.29-2.9 28.52-1.45 3.34-1.11 6.9-1.14 10.47-1.14 4.58-1.4 9.31-1.21 13.99-.99 5.8-1.8 11.59-1.57 17.48-1.1 5.74-1.9 11.63-1.8 17.48zm66.14 19.32c-3.69.32-6.41-2.08-8.14-4.88-.23-3.12 0-6.59.36-9.81.59-10.01 2.25-19.75 3.33-29.71-.66-2.34-.86-4.77-.56-7.3-.55-2.33-1.07-4.76-1.41-7.18-1.26-7.03-2.64-14.69-5.2-21.3-.66-5.9-3.35-12.14-4.32-18.26-.35-5.78-3.52-11.38-2.82-17.22-.2-1.28-1.03-2.36-1.14-3.37.14-2.66.43-5.35 1.83-6.66 2.84-1.74 4.61-.35 7.17.24 2.5.19 4.88.72 7.23 1.57 2.38.78 4.78 1.22 7.27 1.38 6.42 2.69 5.86 9.14 6.09 14.99 1.04 2.91 1.38 6.76 1.08 10.07 1.1 4.97 2.64 11.85 2.48 16.65.11 1.92 2.97 2.55 3.51.67 1.46-6.49 5.8-14.42 8.07-20.92 1.39-2.71 1.69-4.21 2.06-6.87 2.13-3.77 4.92-8.42 9.8-8.16 3.65.35 6.88 2.07 10.51 2.56 2.88.62 7.43.04 8.99 2.79 1.26 3.9-.8 8.93-3.51 12.36-3.23 7.29-7.41 14.47-11.07 21.45-3.61 4.61-4.51 10.58-8.71 14.97-2.48 7.56-7.83 14.02-10.04 21.6-2.03 7.94-1.51 16.47-3.68 24.5.84 14.63-5.67 17.45-19.17 15.86z"/></g><path d="M53.12 173.75c-.05 8.9 2.11 17.36 3.22 26.07-.55 3.94 1.67 8.41-.87 11.76-4.78 4.73-13.03 4.9-19.41 5.31-11.48-.2-8.14-17.09-11.16-24.72 1-5.07-1.52-9.81-1.38-14.91.15-3.15-1.7-5.79-.94-8.93-1.08-3.94-.64-8.07-2.2-11.79-.21-3.01-.08-6.03-1.12-8.91.21-6.08-1.75-11.78-2.15-17.82-.6-7-1.39-13.98-2.52-20.77.09-2.05-.39-4.03-.91-5.93.67-2.92 1.08-6.11 4.18-7.45 3.88-3.2 9.12-3.41 13.87-4.49 7.69-1.24 15.32-3.5 23.09-4.72 8.42-2.34 18.39-4.4 25.28 2.39 7.3 3.27 11.15 15.07 13.3 22.36 1.92 5.84.83 11.92 2.23 17.86-1.35 5.94-.43 12.28-1.51 18.22-1.99 3.76-2.63 7.9-5.41 11.13-3.59 2.12-6.45 5.47-10.42 6.87-6.31 2.68-14.97 4.13-21.43 4.92-2.5.38-4.35 1.17-3.74 3.54zm-6.89-52.63c.42 5.62.46 12.42 2.43 17.71-.88 6.42 3.44 6.19 8.48 5.69 3.5-.13 5.37-2.82 7-5.47 3.01-6.62-.61-25.44-8.06-28.4-7.3-.02-11.86 2.4-9.85 10.46zm213.43-61.55c7.2-.21 14.27 1.26 20.9 3.65 5.64 4.66 2.4 13.1 2.93 19.49-.1 1.92-1.05 4.09-3.36 4.78-1.35.67-3 1.66-4.55.36-6.31-.13-13.9-4.37-19.65-.07-4.48 5.48-.93 14.3 3.89 18.7 3.53 3.66 8.15 6.37 11.18 10.51 2.74 4.45 6.23 8.15 8.71 12.7 2.53 2.2 2.74 5.4 3.73 8.38 1.19 1.84 1.76 3.69 1.7 5.87 1.32 3.89 1.34 8.12 1.09 12.19.56 6.19-.08 12.51-2.4 18.28-.41 4.6-4.29 10.27-8.39 12.23-3.42 5.22-10.05 6.39-15.42 8.4-1.86.43-3.78.34-5.68.08-2.71.98-5.63.5-8.4 1.04-8.4-1.76-19.25-.21-24.8-7.83-.86-2.79.31-5.97-.85-8.78.17-2.93.86-5.81.52-8.76-.02-4.35 6.08-5.46 9.57-4.34 7.14 1.88 16.48 5.77 22.88.08 3.97-3.09 3.4-5.91 4.02-10.35-.16-3.29-2.88-5.55-4.56-8.48-1.77-2.62-3.55-5.42-6.4-7.2-1.36-2.84-3.73-4.83-5.94-6.94-1.08-1.88-2.5-3.22-4.28-4.34-3.72-4.95-7.52-9.51-9.96-15.22-5.09-8.34-3-23.36-.43-32.27.17-5.1 3.96-9.04 6.93-12.85 5.7-8.24 17.69-9.46 27-9.32zm92.36 129.6c.49 3.79-1.24 7.61-3.23 10.71-1.57.82-3.45 1.45-5.33 1.97-6.14-1.34-15.06.33-19.32-5.45-2.89-4.23-.63-10.06-.8-14.95.61-2.95 1.09-5.91.46-8.88.68-1.98.81-3.85.49-5.9.1-.98.99-1.89 1.08-2.87s-.39-2.02-.29-3c.47-2.94.88-5.9.67-8.86.68-6.89 2.23-13.67 2.24-20.6.96-7.85 1.52-15.69 2.79-23.51-1.04-3.89 1.43-8.04.57-11.83-.14-6.5-16.8-.53-16.37-10.28.04-3.28 1.26-6.32.59-9.58 1.11-2.74.32-6.29 2.12-8.65 3.49-4.11 9.03-1.13 13.43-1.22 3.97 1.19 8.07.76 11.93 2.05 8.06.75 15.97 2.35 23.91 3.81 2.24-.33 3.96-.1 5.98.97 1.83.27 3.74.78 5.27 1.68 2.27 2.43 3.09 4.75 2 7.92.34 3.16-.24 6.27-.82 9.36-.09 1.8.14 4.33-.94 5.77-5.04 5.59-17.78-6.16-17.35 5.42-1.02 6.89-2.86 13.78-2.05 20.74-1.71 3.84-.66 7.91-1.84 11.79.43 3.06-.78 5.87-.54 8.92-.85 2.93-.18 5.94-1 8.88-.2 4.04-.78 7.85-1.44 11.83.69 2.98.05 5.94-.32 8.95.18 2.1-.31 3.98-1.14 5.88.5 3.02.54 6.08-.76 8.91zm72.15 24.05c-10.89-2.39-9.29-10.27-8.38-19.05 1.13-4.98.42-10.34 2.45-15.05-.68-6.12 1.99-11.94.67-18.22.19-3.16-1.69-5.86-1.21-9.06-.97-1.86-1.65-3.73-1.72-5.87.2-3.19-1.64-5.87-1.57-9.01-.8-3.46-2.47-6.86-2.77-10.16-1.98-3.33-1.84-7.66-3.24-11.29-.12-3.93-2.24-7.48-2.53-11.48-1.72-4.67-1.51-9.75-2.26-14.52-.87-1.98-1.3-4.11-.42-5.77-.47-3.63 2.8-3.82 5.22-3.32 3.96-.65 7.43 1.95 11.41 1.5 2.92.6 5.35 2.44 8.41 1.86 6.41 1.86 5.69 10.9 7.19 16.21-.59 1.86-.41 3.7.44 5.72-.13 1.88-.16 3.85.18 5.78 1.75 4.55 1.46 9.55 2.05 14.26.21 1.5 1.04 2.47 1.07 2.79.02 1.27.44 2.32 1.13 2.45 2.73.13 1.96-1.94 2.78-4.61 1.41-2.55 2.79-5.59 3.43-8.58 1.22-1.73 2.01-3.62 2.34-5.71 2-2.47 1.99-6.11 3.63-8.51 3.12-7.03 5.44-14.56 14.63-11.1 4.13.81 8.16 1.87 12.23 2.88 4.04-.32 7.17 1.29 6.97 5.71-.08.61-1.15 1.37-1.62 2.57-.31.79-.15 1.91-.59 2.89-1.97 3.29-3.18 7.05-4.94 10.51-4.96 7.34-8.53 15.36-13.24 22.81-2 2.32-3.28 5.35-4.53 8.25-2.03 2.42-3.72 5.16-4.51 8.28-3.39 4.81-6.08 10.03-7.2 15.77-3.5 8.43-2.57 18.12-4.56 26.82-.89 4.66-.52 10.24-3.95 13.86-3.36 1.72-7.44 1.86-11.16.68-1.96.14-3.89.15-5.83-.28zm-226.58-67.85c.25-2.99-.78-5.86-.27-8.86-.68-2.88-1.42-5.78-1.07-8.79-1.25-2.78-1.08-5.78-1.09-8.78-1.29-8.75-1.41-17.86-3.89-26.43-.09-2.05-.53-3.94-1.42-5.75-.15-2.12-.79-3.88-2.12-5.51-5.29-15.17-24.3-17.84-38.1-14.01-9.6.88-16.6 5.06-24.08 10.82-3.05 2.76-4.82 6.41-5.63 10.4-1.92 2.51-1.86 5.55-2.09 8.59-1.58 5.78-1.01 11.86-.57 17.77.11 7 1.22 13.82 1.76 20.8 1.48 5.89.9 12.07 2.02 18.02.09 1.02-.54 2.09-.44 3.09s.88 1.95.99 2.95c.74 6.95.6 14.57 3.97 20.78.13 2.25.88 3.94 2.51 5.47 1.35 2.78 2.26 5.79 5.09 7.39 1.23 1.71 2.71 3 4.69 3.82 3.53 1.81 7.53 3.27 11.56 3.33 3.04.05 5.96 1.14 9.03.46 8.55.08 18.39-2.28 26.1-6.05 1.36-1.64 2.89-2.8 4.76-3.72 2.18-3.45 5.93-5.82 5.93-10.33 2.72-4.47 1.76-9.71 3.56-14.51-1.05-6.89.34-13.9-1.19-20.96zm-36.29 29.68c-2.1-.07-4.24-.47-5.92-1.34-2.48-3.06-4.31-7.17-3.66-11.2-2.1-7.5-.6-15.71-2.69-23.32-.33-9.88-2.2-19.45-2.2-29.24.41-4.82-3.59-11.36 1.52-14.58 2.35-3.02 8.6-3.66 11.67-1.5 3.96 2.56 4.61 12.66 4.02 17.01.6 6.86 2.59 13.77 1.91 20.62.03 4 .71 7.88 1.63 11.74-.7 3.01.28 5.87.72 8.85-.16 1.98-.21 3.96.09 5.94.78 2.96.13 6 .59 9.03.07 4.71-3.29 7.17-7.68 8z" fill="#c44b24"/><g opacity=".1" fill="#eee7c9"><path d="M220.85 182.5c.09-1.11.11-2.23-.02-3.36-.02-4.35 6.08-5.46 9.57-4.34 7.14 1.88 16.48 5.77 22.88.08 3.97-3.09 3.4-5.91 4.02-10.35-.05-.99-.33-1.88-.74-2.73-.43 1.67-1.27 3.17-3.28 4.74-6.4 5.69-15.74 1.8-22.88-.08-3.49-1.12-9.59 0-9.57 4.34.34 2.95-.35 5.83-.52 8.76.39.95.51 1.94.54 2.94zM46.24 129.45c.42 5.62.46 12.42 2.43 17.71-.88 6.42 3.44 6.19 8.48 5.69 3.5-.13 5.37-2.82 7-5.47 1.12-2.46 1.32-6.59.76-10.96-.17 1-.42 1.89-.76 2.63-1.63 2.65-3.5 5.34-7 5.47-5.03.49-9.36.73-8.48-5.69-1.75-4.71-1.98-10.62-2.3-15.83-.72 1.57-.82 3.67-.13 6.45zm357.37-39.94l.03.19c.94-1.3 3.07-1.3 4.78-.94 3.96-.65 7.43 1.95 11.41 1.5 2.92.6 5.35 2.44 8.41 1.86 6.41 1.86 5.69 10.9 7.19 16.21-.59 1.86-.41 3.7.44 5.72-.13 1.88-.16 3.85.18 5.78 1.75 4.55 1.46 9.55 2.05 14.26.21 1.5 1.04 2.47 1.07 2.79.02 1.27.44 2.32 1.13 2.45 2.73.13 1.96-1.94 2.78-4.61 1.41-2.55 2.79-5.59 3.43-8.58 1.22-1.73 2.01-3.62 2.34-5.71 2-2.47 1.99-6.11 3.63-8.51 3.12-7.03 5.44-14.56 14.63-11.1 4.13.81 8.16 1.87 12.23 2.88 2.05-.16 3.86.18 5.12 1.12.05-.43.09-.83.23-1.18.47-1.2 1.54-1.95 1.62-2.57.2-4.42-2.93-6.03-6.97-5.71-4.08-1.01-8.1-2.07-12.23-2.88-9.19-3.46-11.51 4.07-14.63 11.1-1.64 2.4-1.63 6.04-3.63 8.51-.33 2.09-1.12 3.98-2.34 5.71-.64 2.99-2.02 6.03-3.43 8.58-.82 2.67-.05 4.74-2.78 4.61-.69-.13-1.11-1.17-1.13-2.45-.03-.32-.86-1.29-1.07-2.79-.59-4.71-.3-9.71-2.05-14.26-.34-1.93-.31-3.9-.18-5.78-.85-2.02-1.03-3.86-.44-5.72-1.5-5.31-.79-14.35-7.19-16.21-3.06.58-5.49-1.26-8.41-1.86-3.99.46-7.45-2.15-11.41-1.5-2.42-.5-5.7-.31-5.22 3.32-.88 1.66-.45 3.79.42 5.77zm-177.87.57c.17-5.1 3.96-9.04 6.93-12.85 5.7-8.24 17.69-9.46 27-9.32 7.2-.21 14.27 1.26 20.9 3.65 1.8 1.49 2.69 3.36 3.09 5.42.43-5.09.96-10.4-3.09-13.76-6.63-2.4-13.71-3.86-20.9-3.65-9.31-.14-21.3 1.08-27 9.32-2.97 3.82-6.76 7.75-6.93 12.85-1.71 5.93-3.2 14.57-2.51 22.14.4-5.05 1.41-9.99 2.51-13.8zm59.41 53.87c.06-2.18-.51-4.03-1.7-5.87-1-2.98-1.2-6.18-3.73-8.38-2.49-4.55-5.97-8.25-8.71-12.7-3.03-4.14-7.65-6.85-11.18-10.51-2.23-2.04-4.18-5.02-5.19-8.19-2.27 5.42.97 12.67 5.19 16.52 3.53 3.66 8.15 6.37 11.18 10.51 2.74 4.45 6.23 8.15 8.71 12.7 2.53 2.2 2.74 5.4 3.73 8.38 1.19 1.84 1.76 3.69 1.7 5.87 1.24 3.67 1.33 7.65 1.13 11.51a45.57 45.57 0 0 0-.03-7.66c.25-4.07.23-8.3-1.09-12.19zM80.1 88.84c-6.9-6.8-16.86-4.73-25.28-2.39-7.77 1.23-15.4 3.49-23.09 4.72-4.75 1.07-9.99 1.28-13.87 4.49-3.1 1.33-3.52 4.52-4.18 7.45.42 1.53.81 3.11.9 4.74.56-1.64 1.46-3.07 3.28-3.85 3.88-3.2 9.12-3.41 13.87-4.49 7.69-1.24 15.32-3.5 23.09-4.72 8.42-2.34 18.39-4.4 25.28 2.39 7.3 3.27 11.15 15.07 13.3 22.36 1.48 4.51 1.17 9.16 1.6 13.79.12-1.44.31-2.86.63-4.26-1.39-5.94-.31-12.02-2.23-17.86-2.15-7.29-6-19.1-13.3-22.36zm292.86-15.73c-2.01-1.07-3.74-1.31-5.98-.97-7.94-1.46-15.86-3.06-23.91-3.81-3.87-1.29-7.96-.86-11.93-2.05-4.41.08-9.95-2.89-13.43 1.22-1.8 2.37-1.01 5.91-2.12 8.65.67 3.26-.56 6.3-.59 9.58-.06 1.26.18 2.26.62 3.05.18-1.41.27-2.83-.03-4.29 1.11-2.74.32-6.29 2.12-8.65 3.49-4.11 9.03-1.13 13.43-1.22 3.97 1.19 8.07.76 11.93 2.05 8.06.75 15.97 2.35 23.91 3.81 2.24-.33 3.96-.1 5.98.97 1.83.27 3.74.78 5.27 1.68.96 1.02 1.64 2.03 2.05 3.09.08-1.16.08-2.33-.04-3.51 1.09-3.17.27-5.49-2-7.92-1.53-.9-3.43-1.41-5.27-1.68zm-175.37 72.26c.25-2.99-.78-5.86-.27-8.86-.68-2.88-1.42-5.78-1.07-8.79-1.25-2.78-1.08-5.78-1.09-8.78-1.29-8.75-1.41-17.86-3.89-26.43-.09-2.05-.53-3.94-1.42-5.75-.15-2.12-.79-3.88-2.12-5.51-5.29-15.17-24.3-17.84-38.1-14.01-9.6.88-16.6 5.06-24.08 10.82-3.05 2.76-4.82 6.41-5.63 10.4-1.92 2.51-1.86 5.55-2.09 8.59-1.19 4.37-1.16 8.91-.88 13.42.15-1.71.43-3.41.88-5.09.23-3.05.17-6.08 2.09-8.59.8-3.99 2.57-7.63 5.63-10.4 7.48-5.76 14.48-9.94 24.08-10.82 13.79-3.83 32.81-1.16 38.1 14.01 1.33 1.63 1.96 3.39 2.12 5.51.89 1.81 1.33 3.7 1.42 5.75 2.48 8.56 2.6 17.67 3.89 26.43.01 3-.16 6 1.09 8.78-.36 3.01.38 5.9 1.07 8.79-.5 3.01.53 5.87.27 8.86 1.02 4.69.75 9.36.76 13.99a18.13 18.13 0 0 1 .44-1.37c-1.05-6.89.34-13.9-1.19-20.96zm-50.75-27.09c0 9.79 1.86 19.36 2.2 29.24 2.09 7.61.59 15.82 2.69 23.32-.65 4.03 1.18 8.13 3.66 11.2 1.68.87 3.82 1.27 5.92 1.34 4.38-.83 7.75-3.29 7.68-8-.32-2.12-.1-4.24-.21-6.34-.78 3.42-3.75 5.3-7.47 6.01-2.1-.07-4.24-.47-5.92-1.34-2.48-3.06-4.31-7.17-3.66-11.2-2.1-7.5-.6-15.71-2.69-23.32-.33-9.88-2.2-19.45-2.2-29.24.11-1.33-.11-2.8-.38-4.29-1.94 3.49.73 8.64.38 12.62z"/></g><path d="M167.15 236.94a9.87 9.87 0 0 0-1.01-.21c-2.08-.28-3.25.11-3.37 1a.9.9 0 0 0 .04.41c.06.34.28.63.68 1 .49.47.7 1.03.52 2.37l-.97 7.16c-.12.35-.24.69-.33 1.41-.14 1.04-.4 1.86-.75 2.57-.25.51-.5.98-.8 1.38-.9.85-2.12 1.16-3.59.96-.51-.07-.96-.21-1.36-.4a4.61 4.61 0 0 1-.89-.67c-.21-.2-.42-.42-.62-.66-.46-.79-.65-1.88-.56-3.24l.15-.85.42-2.91.39-2.92c.11-.79.11-1.16.12-1.56l.19-1.37c.06-.47.15-.83.26-1.13.24-.44.57-.66.89-.83.46-.26.67-.54.78-.86.1-.15.17-.31.2-.52.04-.28-.03-.54-.22-.79-.16-.27-.46-.52-.99-.73-.17-.06-.37-.09-.59-.12-.41-.11-.88-.21-1.46-.29-.44-.06-.81-.09-1.16-.1-.35-.1-.66-.18-.93-.15-.65.07-1.02.32-1.23.63-.18.17-.29.38-.33.61-.03.21 0 .39.07.57.02.35.15.69.52 1.04.41.4.75.83.58 2.12l-.43 2.97-.53 2.96c-.11.78-.06 1.17-.02 1.57l-.19 1.43c-.19 1.39-.16 2.66.11 3.79 0 .4.04.78.19 1.12.32.76.89 1.43 1.51 1.99.26.24.58.41.92.57.61.38 1.34.69 2.17.91.44.21.9.41 1.42.48.92.12 1.8.14 2.57.07.64-.06 1.19-.31 1.71-.57 2.54-.91 3.91-3.2 4.4-6.15l.08-.36.09-.78.98-7.23a10.38 10.38 0 0 0 .18-1.03c.03-.26.07-.49.12-.71.16-.51.43-.86.88-1.13.73-.42.96-.65 1.03-1.17.1-.75-.61-1.31-1.82-1.63zm20.72 2.16c-1.46-.15-2.3.04-2.74.4-.31.19-.47.44-.5.75-.06.54.24.94.85 1.46.32.28.51.7.57 1.26.03.28.04.59 0 .95l-.05.5c-.11.86-.21 1.02-.33 2.17l-.2 2.69-.26 2.69c-.01.12-.01.24 0 .35l-.22 2.22s-.03.01-.04.02l-.7-1.68c-.02-.19-.06-.38-.14-.56l-.89-2.33c-.24-.58-.44-.84-.64-1.1l-3.08-7.4-.25-.67a5.41 5.41 0 0 0-.29-.59c-.42-.85-.91-1.41-1.6-1.73-.33-.24-.71-.44-1.2-.49-.4-.04-.52.05-.76.09l-.37-.04c-1.78-.18-2.56.44-2.63 1.15-.03.27.02.48.14.69.08.26.25.52.57.83.45.39.6.87.48 2.1-.09.91-.04 1.25-.02 1.74l-.99 9.86c-.12 1.17-.48 1.6-1.01 1.95-.45.29-.71.5-.86.77-.09.11-.17.24-.18.42-.09.92.4 1.7 2.81 1.94 1.28.13 2.05 0 2.5-.28a1.25 1.25 0 0 0 .67-1.06c.04-.39-.06-.66-.38-1-.1-.12-.22-.24-.38-.38-.45-.42-.67-.93-.55-2.1l.05-.95.36-3.6c.09-.3.18-.64.24-1.24l.18-2.91v-.04l.28-2.82 4.94 11.63c.07.35.14.7.42 1.35l1.08 2.61c.32.73.65 1.17 1.07 1.43.32.3.7.46 1.25.51 1.29.13 1.91-.36 2.09-2.07l.11-1.13c.07-.32.15-.62.21-1.27.04-.42.03-.69 0-.93l.3-3c.07-.22.13-.48.17-.88l.26-2.4.23-2.41c.07-.65.05-.95.04-1.29l.11-1.13c.04-.43.13-.77.24-1.07.22-.39.52-.64.85-.84.47-.28.68-.57.79-.9.1-.15.17-.31.19-.51.08-.77-.4-1.51-2.8-1.76zm27.8 12.33c-.35-.2-.73-.38-1.19-.47 2.45-.66 4.12-2.25 4.23-4.46.08-1.46-.36-2.65-1.2-3.55a3.01 3.01 0 0 0-.55-.58c-.57-.44-1.3-.74-2.11-.97-.07-.02-.15-.03-.22-.05-.26-.07-.53-.12-.8-.17-.05 0-.11-.02-.17-.02l-1.11-.12-.54-.03c-1.03-.1-1.2-.27-2.54-.34-1.02-.05-1.38.05-1.94.1l-1.16-.06c-.82-.04-1.45.06-1.88.29-.55.2-.88.54-.9 1.01-.03.55.38 1.06.96 1.58.27.25.55.48.71.93.05.29.07.64.05 1.1l-.1 1.8-.08.99c-.07 1.4-.22 1.39-.29 2.79l-.14 2.8c-.04.75.03 1.11.08 1.49l-.07 1.32c-.04.71-.17 1.17-.35 1.51-.19.24-.41.41-.62.56-.6.46-.91.97-.94 1.54-.02.47.21.82.68 1.06.34.17.81.29 1.43.32l.47.02c.81.07.97.16 2.05.21l2.53.07c.87.05 1.68.02 2.41-.03.89-.07 1.7-.15 2.38-.36.86-.26 1.59-.64 2.17-1.08.67-.51 1.25-1.14 1.58-1.85.17-.35.22-.75.23-1.16.09-.39.15-.8.17-1.22.13-2.54-1.19-4.19-3.27-5zm-6.5-6.47c.03-.55.13-.99.43-1.3.42-.24 1.08-.32 2.13-.27 2.13.11 3.28 1.24 3.17 3.19-.07 1.34-.74 2.32-1.8 2.89-.24.1-.49.18-.74.26a6 6 0 0 1-2.14.29c-.57-.03-.95-.15-1.18-.36-.22-.21-.3-.5-.28-.89v-.14c.24-1.75.31-1.81.4-3.67zm-.88 12.95l.24-4.48c.05-.89.61-1.29 2.28-1.21a7.46 7.46 0 0 1 1.59.25l.62.25c.57.23 1.03.52 1.38.91.02.03.05.05.07.08.09.11.18.23.25.36a3.54 3.54 0 0 1 .16.34c.05.12.09.24.13.37.05.18.1.36.12.56a.5.5 0 0 0 .02.12 4.76 4.76 0 0 1 .02.85c-.01.22-.06.41-.09.61-.16.53-.48.92-.79 1.29-.29.34-.59.67-.96.93a4.88 4.88 0 0 1-1.48.39l-1.45-.16c-.75-.04-1.36-.13-1.77-.37-.25-.26-.37-.62-.35-1.1zm33.08 2.5c-.68-.39-.99-.8-1.32-1.87l-.29-.93c-.09-.52-.09-.84-.37-1.72-.35-1.1-.52-1.24-.82-2.03l-.59-1.87-.38-1.24-.77-2.61-.77-2.62c-.21-.66-.37-.97-.54-1.28l-.41-1.28c-.3-.93-.78-1.17-1.82-1.19l-4.23-.08c-.59-.01-1.01.06-1.3.23-.39.18-.58.49-.59.97-.01.62.26 1.04.74 1.32.27.18.62.3 1.04.38l.48.09v.03c-.07 1.21-.34 1.1-.75 2.24-.22.61-.26.92-.31 1.25l-.77 2.12c-.19.3-.37.55-.6 1.19-.28.78-.29 1.06-.39 1.52l-.61 1.67c-.2.4-.37.63-.65 1.39l-.9 2.26c-.14.4-.27.8-.46 1.16-.25.27-.55.5-.91.7-.87.44-1.08.7-1.09 1.25-.02.94.62 1.42 2.19 1.59a8.1 8.1 0 0 0 1.32.14c.95.02 1.72.09 2.27-.02 1.06-.21 1.59-.84 1.6-1.58.01-.55-.42-.86-1.11-1.13-.57-.22-.71-.47-.7-.87 0-.26-.02-.51.04-.68.35-1 .52-.94.87-1.94.12-.35.2-.64.33-.84.18-.1.4-.13.71-.13l5.01.1c.75.02 1.14.37 1.39 1.18l.23.81c0 .14.02.3.09.54.08.32.21.62.2.94 0 .2-.08.39-.24.55-.16.17-.39.31-.69.43-.17.07-.31.14-.42.21-.49.24-.75.49-.76 1.04 0 .4.24.69.67.91.37.27.99.46 1.88.56.48.14 1.02.3 1.68.31.99.02 1.82-.05 2.41-.17.68-.14 1.07-.46 1.27-.88.16-.22.24-.48.25-.8.01-.55-.19-.81-1.1-1.32zm-9.99-12.33c.1-.29.12-.59.12-.88l.67-2.01.84 2.69c.01.06.03.12.04.18l.84 2.89a2.42 2.42 0 0 0 .25.56l.66 2.13s-.03.06-.06.09l-.05.07-5.37-.11 1.29-3.86c.24-.51.44-.8.76-1.75zm46.61-7.2l-1.16.1c-.4-.05-.75-.1-1.04-.02-.64.18-.98.5-1.14.85-.18.21-.27.44-.26.7.02.55.41.88.85 1.06a3 3 0 0 1 .74.46c.15.17.25.36.26.57 0 .26-.06.54-.28.89l-1.05 1.91-1.05 1.92-.76 1.55-.21.4-.17-.25c-.32-.57-.55-1.21-.9-1.73-.41-.62-.98-1.13-1.38-1.76l-.47-.68-.75-1.18c-.21-.25-.36-.51-.38-.88-.01-.35.21-.59.66-.83.65-.31.9-.64.88-1.19 0-.25-.07-.47-.22-.68-.18-.39-.55-.74-1.32-.88-.28-.05-.61.01-.99.09a11.75 11.75 0 0 0-1.33 0c-1.79.07-2.91.45-3.41 1.02-.33.21-.53.47-.52.8.02.63.42 1.07 1.34 1.61.56.33.8.61 2.08 2.52l1.55 2.23c.22.33.49.62.77.92l1.59 2.39c.17.41.33.82.56 1.18l.26 1.65.08 2.12c.02.55-.02.96-.1 1.29-.18.39-.46.62-.72.83-.56.45-.81.97-.78 1.55 0 .23.09.42.25.58.29.44.95.75 2.12.84.36.11.77.21 1.25.19.89-.03 1.62-.13 2.13-.3.6-.19.91-.53 1.06-.9.14-.21.21-.45.2-.7-.02-.52-.26-.8-.91-1.27a1.8 1.8 0 0 1-.6-.76c-.1-.37-.15-.86-.18-1.49-.01-.39-.07-.63-.14-.83l-.11-3.05.03-.11c.02-.06.04-.11.05-.17l3.36-5.85c.35-.49.6-.71 1.11-1.6.68-1.18 1.27-1.83 1.98-2.15.35-.2.52-.44.61-.7.16-.21.23-.44.22-.72-.05-1.24-1.36-1.65-3.63-1.57zm8.94 19.08c-.07-1.41-.78-2.75-2.5-2.67a2.4 2.4 0 0 0-1.03.27c-.01 0-.02 0-.03.01-.01 0-.02.01-.03.02-.27.12-.5.27-.67.49-.4.53-.5 1.27-.47 1.9.06 1.15.81 2.1 1.98 2.03-.02.15-.07.3-.12.44-.33.78-1.13 1.43-1.09 2.16a.77.77 0 0 0 .34.62c.18.15.42.22.71.21.19 0 .37-.07.54-.16.66-.3 1.28-1.05 1.72-2.01.2-.33.37-.69.48-1.09s.14-.81.15-1.23c.03-.33.04-.66.02-.99zm32.68-5.19c-.09-1-.5-1.72-1.07-1.67-.2.02-.35.13-.49.37-.18.14-.34.4-.48.91-.25.77-.5 1.38-1.16 1.44-.31.03-.6 0-1.02-.33-.7-.66-1.76-2.14-3.87-5.27 2.28-1.17 4.27-3.04 4.69-5.36.14-.44.23-.89.18-1.37-.05-.53-.23-1-.45-1.43-.54-1.38-1.71-2.35-3.48-2.79-.36-.1-.74-.19-1.15-.23-.73-.08-1.57-.21-2.46-.13-1.35.12-1.47.26-2.61.38l-.83.07-2.47.11c-1.26.11-1.99.37-2.38.71-.45.3-.59.68-.55 1.12.04.52.38.78 1 1.22a1.98 1.98 0 0 1 .68.79c.11.35.18.8.24 1.39l.33 2.83c0 .07.01.13.02.19l.36 4.15a5.64 5.64 0 0 0-.02 1.35l.17 2.85c.06.66.1 1.18.03 1.58-.1.24-.23.45-.41.62-.59.52-.85.86-.8 1.4.08.89 1.03 1.53 3.58 1.31a11.23 11.23 0 0 0 1.22-.17c.37.03.7.04.96-.05 1.03-.35 1.35-1.06 1.3-1.65-.05-.57-.4-.88-1.07-1.28-.15-.09-.3-.2-.44-.34-.29-.34-.49-.85-.56-1.61l-.17-1.92-.07-1.41a2.86 2.86 0 0 1 .05-.85c.14-.38.4-.6.75-.64a1.13 1.13 0 0 1 .75.19c.29.33.6.87 1.07 1.62.29.48.66.87 1.02 1.25 1.13 1.76 2.18 3.13 3.13 4.1.28.32.55.61.83.83.89.72 1.72 1.03 2.42.97.82-.07 1.51-.44 2-.99.49-.54.86-1.27 1.06-2.01.12-.44.16-.89.16-1.33.02-.32.02-.63 0-.93zm-9.93-6.38l-1.06.6c-.51.18-1.02.3-1.49.34-.33.03-.6 0-.79-.1-.13-.16-.21-.37-.23-.65l-.25-2.74c-.08-.92-.19-1.22-.28-1.73l-.09-1c-.08-.92.23-1.38 2.41-1.57 2.98-.26 4.46.68 4.62 2.58.13 1.49-.62 2.73-1.69 3.63l-1.15.65zm62.9 2c-.2-1.28-1.2-2.32-2.71-2.08-.75.12-1.29.46-1.64.92 0 .01-.02.02-.03.03a2.56 2.56 0 0 0-.22.39c0 .01-.01.02-.02.04-.05.12-.09.25-.13.38 0 .03-.02.06-.03.09-.02.1-.03.19-.04.29 0 .07-.02.14-.02.2v.04c0 .14 0 .29.03.44.19 1.25 1.2 2.29 2.74 2.05.8-.12 1.36-.51 1.69-1.03.35-.51.48-1.14.38-1.78zm-4.17-4.51c.19.49.45.63 1.02.54.48-.07.76-.32.78-.82l-.03-1.14.02-1.39-.02-2.53-.08-2.53c-.02-.48-.11-.95-.19-1.39l-.2-3.65c-.07-.42-.19-.72-.42-.91-.34-.37-.96-.46-2.13-.28-1.06.17-1.6.41-1.85.78-.27.27-.32.63-.24 1.13.08.53.88 3.45 1.74 6.53l.21.79.61 2.46c.15.54.35 1.03.53 1.5l.26.9zm-222.92 3.08c-.37-.06-.83.18-1.32 1.04-.25.39-.48.83-.75 1.12-.22.13-.45.19-.7.15-.6-.1-1.01-.62-1.96-3.07-.07-.41-.15-.86-.32-1.34l-.96-2.31a5.25 5.25 0 0 0 .99-.34c1.01-.32 1.97-.78 2.79-1.37.51-.25.98-.54 1.33-.94.63-.73 1.12-1.69 1.28-2.69.1-.58-.01-1.13-.17-1.66-.34-2.16-2.25-3.79-5.74-4.45l-.35-.09-.76-.11-5.1-.84c-1.62-.27-2.48-.12-2.91.26a.99.99 0 0 0-.41.68c-.02.13 0 .25.04.35.06.34.3.64.67 1.08.42.48.64 1.07.43 2.35l-.79 4.77-.16.85-.23 1.53-.68 4.11c-.11.66-.28 1.13-.52 1.47-.21.18-.43.32-.65.44-.32.16-.51.34-.64.53-.24.2-.38.42-.44.73-.14.86.59 1.69 2.98 2.12.06.01.11.03.17.04l.51.06c2.25.29 3.16-.2 3.3-1.02.09-.57-.17-.93-.72-1.49-.43-.42-.64-1.07-.46-2.15l.54-3.3c.06-.38.18-.67.33-.87.23-.18.52-.21.83-.16.65.11.94.45 1.41 1.99l.87 2.51c.33.92.75 1.71 1.08 2.42l.09.18c1.08 2.24 2.18 3.47 3.3 3.65.4.07.78.04 1.14-.04.38-.05.73-.17 1.05-.38.61-.4 1.17-1.01 1.55-1.68.39-.68.63-1.48.74-2.16.16-.99-.12-1.87-.69-1.97zm-7.49-13.6c1.24.2 2.14.45 2.78.91a3.44 3.44 0 0 1 .88.91c.24.48.31 1.03.21 1.65-.07.41-.2.78-.37 1.11-.31.4-.71.74-1.1 1.07-.68.59-1.47.95-2.36 1.18-.95.25-1.86.41-2.67.28-.68-.12-.86-.27-.76-.9.12-.71.07-1.07.04-1.44l.66-4.02c.07-.4.19-.69.49-.87.43-.11 1.12-.06 2.2.12zm122.9 18.85c-.28-.51-.7-.91-1.17-1.25-.06-.05-.13-.1-.19-.14-.47-.33-.99-.59-1.57-.79-.45-.17-.92-.29-1.45-.36 1.16-.37 2.12-.94 2.82-1.67.34-.24.65-.5.85-.84a4.56 4.56 0 0 0 .59-2.26c0-.52-.17-.98-.37-1.41-.41-1.47-1.44-2.52-2.93-3.1-.31-.18-.64-.34-1.01-.42-.27-.06-.55-.05-.84-.03-.47-.06-.97-.09-1.49-.08l-2.21.02a10.46 10.46 0 0 0-.88-.03l-1.18.05-1.91.02c-1.67.02-2.5.6-2.49 1.46 0 .17.05.32.12.46.1.36.32.7.75 1.04.47.37.7.73.71 2 0 .73.09 1.08.17 1.45l.06 5.78c-.05.29-.09.63-.09 1.18 0 .78.06 1.13.11 1.52v1.29c.03 1.3-.31 1.82-.77 2.19-.2.17-.35.34-.49.52-.32.32-.55.63-.55 1.02 0 .57.44.95 1.21 1.12.31.08.68.12 1.13.12h1.32l1.21-.02 2.53.03 2.41-.11c.47-.07.88-.22 1.27-.38 3.55-.89 4.91-3.09 4.88-5.78a5.67 5.67 0 0 0-.11-1.12c-.07-.54-.21-1.03-.44-1.45zm-3.84 4.74a3.53 3.53 0 0 1-.56.6c-.62.47-1.43.73-2.37.84h-1.01c-.68 0-1.23-.07-1.63-.27-.38-.24-.57-.63-.58-1.2v-1.09c.06-.29.14-.57.13-1.16l-.01-2.24c0-.44.09-.79.38-1.04.35-.19.87-.3 1.65-.31 1.47-.01 2.58.28 3.35.88.23.25.43.53.6.8l.42.68c.14.43.23.9.24 1.44 0 .65-.11 1.19-.33 1.64l-.29.42zm-6.22-12.99c0-.45.06-.82.24-1.11.35-.42 1.04-.61 2.35-.62.5 0 .94.05 1.34.16.38.18.69.42.98.66.61.5.87 1.15.89 2.17l-.06 1.31c-.45 1.25-1.59 2.07-3.17 2.32-.34 0-.69-.02-1.05-.02-.51 0-.91-.05-1.2-.18-.23-.19-.33-.48-.33-.87l-.02-2.42.05-1.4zm87.34-7.38c.6-.59.85-.95.8-1.46-.11-.94-1.53-1.47-3.36-1.26-1.27.14-2.06.5-2.47.97-.36.28-.54.62-.5 1 .03.27.12.48.28.66.09.27.25.52.61.72.4.23.76.45 1 .99a5.28 5.28 0 0 1 .19.99l.49 4.36c-.05.35-.09.72-.01 1.41l.38 2.87.18 1.2c0 1.18-.24 2.14-.69 2.89-.29.3-.61.56-.91.81-.64.54-1.38.94-2.4 1.06-.45.05-.87.07-1.27.05-.74-.11-1.38-.41-1.9-.93-.31-.4-.55-.9-.79-1.46-.29-.68-.57-1.45-.68-2.43l-.17-1.12-.87-7.66c-.14-1.29.08-1.92.52-2.32.57-.56.8-.88.74-1.45-.1-.83-.97-1.37-3.63-1.07-2.61.29-3.39 1.02-3.3 1.85a1.16 1.16 0 0 0 .28.65c.15.23.38.44.75.65.17.1.36.22.54.39.24.33.42.83.51 1.64l.18 1.61c-.04.35-.07.72 0 1.38l.35 2.99c.11 1 .23 1.33.35 1.88l.12 1.09c.48 4.26 2.63 6.98 7.06 6.93.39.06.8.1 1.23.05.59-.07 1.12-.24 1.62-.42 1.74-.45 3-1.28 3.84-2.38l.12-.16.09-.12c.19-.26.37-.54.51-.83.34-.74.69-1.55.78-2.43.08-.76-.07-1.59-.17-2.44v-.11l-.06-.51-.18-2.53c-.08-.69-.17-1.06-.26-1.4l-.52-4.64c-.06-.5-.04-.89.07-1.23a2.74 2.74 0 0 1 .55-.74zm23.03 11.29l-.17-.91-1.34-9.71c.02-.37.06-.67-.04-1.38-.08-.61-.13-1.11-.08-1.51.09-.28.21-.52.4-.71.26-.25.44-.46.57-.66.26-.27.41-.51.37-.84-.11-.77-.95-1.58-3.34-1.25-2.32.32-3.01 1.34-2.9 2.11.07.54.49.87 1.21 1.23.31.17.57.44.76.82.15.32.26.7.32 1.17l.52 3.76c-.02.45-.07.78.04 1.61a4.65 4.65 0 0 0 .37 1.35l.55 3.98-6.81-9.31c-.12-.21-.27-.44-.53-.8l-1.44-2.04c-.27-.37-.56-.65-.85-.88-.55-.54-1.11-.85-1.8-.94-.32-.07-.66-.1-1.05-.04-.43.06-.52.11-.8.17l-.31.04c-.68.09-1.19.27-1.55.49-.6.35-.83.81-.77 1.26a.85.85 0 0 0 .17.41c.16.3.46.51.96.8.53.28.89.78 1.06 2.01l.66 4.77a7.08 7.08 0 0 0 .07 1.01l.33 1.91.23 1.65c.07.82-.01 1.07.15 2.24s.02 1.61-.41 2.07c-.27.28-.42.51-.51.73a1.06 1.06 0 0 0-.13.71c.13.91.74 1.53 3.13 1.2 2.45-.34 2.9-1.13 2.77-2.01-.03-.18-.09-.32-.17-.45-.13-.28-.37-.52-.85-.79-.54-.3-.81-.69-.97-1.86l-.36-2.89c-.1-.75-.25-1.1-.4-1.47l-.38-2.73c.05-.42.12-.79.01-1.58-.05-.36-.19-.67-.36-.96l-.26-1.9 2.54 3.43c.13.33.27.66.67 1.2l1.73 2.23a5.62 5.62 0 0 0 .81.9l1.82 2.46c.12.34.26.68.66 1.23l1.79 2.19c.44.57.81.94 1.21 1.14.4.26.84.34 1.43.26.61-.08 1.03-.27 1.29-.63.37-.37.53-.95.39-1.91l-.43-2.38z" fill="#d19300"/></svg>