<svg xmlns="http://www.w3.org/2000/svg" viewBox="0 0 335.06 134.06" xmlns:v="https://vecta.io/nano"><path d="M179.47 101.59c-6.16 1.34-3.32 7.3 1.18 8.93h.16c.1.1.31.3.42.38h0v.19h0c.01.1.01.19 0 .29h0v.93h0c-.11.16-.25.3-.42.42h0s-.19 0 0 0c-.84.33-1.97.15-2.85.19h-.22c-1.55-.34-2.85-3.23-4.38-2.24a.96.96 0 0 0 0 1.41c2.22 2.42 6.58 4.62 9.41 1.98 2.98-3.23-.08-5.82-3.1-7.2h0l-.58-.58h0c-.09-.1-.17-.22-.22-.35h0v-.96h0a3.38 3.38 0 0 0 0-.45h0l.19-.22h0c.69.01 1.77-.08 2.43.19 1.55.3 2.58 3.18 4.17 2.2 1.25-2.4-4.07-5.27-6.19-5.11zm19.88 5.83a1.03 1.03 0 0 0-.7-1.22l-8.42-1.98c-1.24-.31-1.75 1.58-.51 1.92l3.49.8-2.85 11.55c-.36 1.22 1.54 1.77 1.89.54l2.88-11.65c.91.02 3.85 1.54 4.22.03zm.29 11.42c-1.54-.36-1.81 1.79-.32 1.89 1.56.37 1.65-1.8.22-1.89h.1zm23.39-2.65c4.26-4.39-2.36-8.5-6.69-7.2a.96.96 0 0 0-.99.96c.26 2.28-1.95 12.23-.13 12.87 4.6 2.66 13.34-1.41 7.81-6.63zm-5.89-4.74v-.58c1.11-.13 2.3-.16 3.36.22a12.5 12.5 0 0 1 .61.38h0l.22.22v.16h0a.7.7 0 0 1 .19.29h0s0 .19 0 0 0 .19 0 .22h0s0 .26 0 0v.93h0a1.57 1.57 0 0 1-.35.42h0c-1.35.01-2.71.05-4.03-.22v-2.05zm5.47 8.03c0-.22 0 0 0 0v.26h0v.22h0c-.1.1-.31.3-.42.38h-.16l-.54.29h0c-1.5.03-3.04-.01-4.48-.48.07-.83.35-3.49.29-4.29 1.34.21 2.71.24 4.06.22l.32.19h.22l.42.42s.22.26 0 0c-.03.18.04.37.16.51 0 0 0 .29 0 0v.38h0c-.02.15.12 1.69.13 1.89zm12.81-9.12c.08-1.16-1.69-1.42-1.95-.29-1.66 4.22-3.01 8.58-4.71 12.8a1.03 1.03 0 0 0 .7 1.22c1.8.04 1.6-2.55 2.34-3.9h5.63l1.44 3.2c.63 1.15 2.36.12 1.7-.99l-5.15-12.03zm-2.88 7.97c.61-1.73 1.28-3.46 1.92-5.19l2.14 5.09-4.06.1zm40.52 3.36c-1.43 1.72-3.33 3.03-5.51 3.46l-1.34.35h-1.28c-1.74.07-3.69 0-5.31-.7h-.32c-.54-.28-1.56-.84-2.05-1.22h0c-.8-.61-1.52-1.39-2.18-2.14h0c-.13-.15-1.02-1.51-1.22-1.98v-.54c-.36-.84-.6-1.72-.74-2.62 1.79-1.12 2.37-3.69 1.41-5.54-1.83-2.96-6.01-2.51-8.83-1.41-.42.13-.71.52-.7.96l1.34 12.39a1.02 1.02 0 0 0 .99.99c.54-.02.96-.46.96-.99l-.58-5.44c1.15-.21 2.32-.36 3.49-.45.72 3.89 3.05 7.29 6.4 9.38 9.7 6.38 22.22-5.15 16.1-4.35l-.64-.13zm-20.71-8.9h0a2.78 2.78 0 0 1-.19.74h0c.01.11-.02.34 0 .45h0l-.26.26h0c-1.56 0-3.11.22-4.64.51 0-1.44-.29-2.88-.45-4.32 1.53-.54 3.24-.64 4.8-.26.13.06.25.13.35.22h0l.26.26h0c.03.21-.02 1.89 0 2.14h.13zm14.76-7.13c-.68-1.9-8.08 1.38-10.08 1.34-.52.16-.83.69-.7 1.22.88 1.61 3.3-.08 4.71-.1.84 1.86 1.79 13.63 3.78 12.67 1.9-.24-1.83-11.01-1.86-13.12 1.25-.66 4.29-.1 4.16-2.02zm12.45-4.36a.99.99 0 0 0-1.12-.84c-2.12.53.8 5.11.93 6.7l-5.57 2.08c-.86-1.43-1.1-6.24-2.98-6.02a.99.99 0 0 0-.71 1.21l4.19 12.81c.14.52.66.83 1.18.7 1.88-.78-.95-5.09-1.09-6.69l5.57-2.08c.84 1.41 1.27 7.03 3.12 6.61.53-.15.84-.7.69-1.23l-4.22-13.25z" fill="#fff"/><g fill="#ecd214"><path d="m174.32,40.84l-1.18.22,1.18-.22Z"/><path d="M173.13 41.06l-.9.16.9-.16zm127.94 39.5h0a2.74 2.74 0 0 0-.51.45l.51-.45zm-79.73-15.78c.42-.38.8-.83 1.18-1.22l-1.31 1.34h0l.13-.13zm74.22 20.42l1.06-.93c-.35.29-.75.59-1.06.93zm30.82-32.71c-7.84 9.78-16.09 19.28-25.16 27.91 10.47-9.34 19.43-20.33 27.97-31.37-1.13.99-1.9 2.26-2.82 3.46zm-123.9 28.97h0l-.83.61h0l.83-.61z"/></g><path d="M292.87 87.19c-3.49 2.62-7.28 5.08-11.14 7.14.7-.45-.64 0-1.25.35 13.62-6.72 23.8-18.33 34.06-29.19 4.26-4.4 8.09-9.29 11.94-14.02 3.17-4.32 7-8.67 8.58-13.8-.57-1.09-3.05-1.7-4.38-1.95-2.18 1.31-3.92 4.68-5.51 6.69-5.2 7.62-11.42 14.62-17.54 21.54-9 9.29-18.78 18.04-29.99 24.65-12.38 4.69-9.7-8.07-5.34-14.72 2.22-3.81 4.3-7.54 6.82-11.17 4.3-5.48 9.47-10.27 14.92-14.53-.29-.42-.19-.51-.48-.93s0 0 0 0l-3.9-5.22-.32.22c-1.56-1.71-7.32 5.65-8.77 6.53-5.56 4.28-10.9 8.98-16.29 13.6-1.87 1.73-4.25 3.22-6.11 4.9-.76.63-3.93 3.23-4.32 3.01 1.32-4.54 5.7-9.76 8.35-13.89.45-.67 1.41-1.86 1.6-2.18 1.44-2.08 1.6-1.82.67-3.42-.69-1.33-2.39-2.57-3.49-3.55-1.47-1.15-.9-1.25-2.62-.7-.75.35-1.45.8-2.08 1.34-7.15 6.42-14.71 12.28-21.86 18.69 1.96-3.8 2.85-8.13 5.7-11.43 0-.19-.51 0-.54-.22s-.22-1.66-1.25-2.46c-1.28-.79-4.31-2.39-5.38-1.25-.45.64 0-.19-.22 0-2.83 5.57-7.51 9.86-12 14.08l.45-.48c-5.84 5.84-12.22 11.42-18.69 16.55l1.12-.8-2.62 1.89.67-.48c-9.43 6.48-19.1 13.21-29.99 17.12-3.47 2.02-9.03-1.53-5.47-5.06 4.38-3 8.98-5.5 13.19-8.74 6.8-4.26 13.6-8.91 19.01-14.88 3.11-4.17 6.73-9.1 5.6-14.6-.79-5.99-8.25-8.92-13.15-5.63-2.52 1.24-5.46 2.09-7.91 3.42-12 6.26-21.01 17.94-25.09 30.79-.83 5.43-3.07 5.95-7.55 8.07-1.86 1.45-4.61 2.74-6.66 4.07-5 3.3-10.71 5.77-15.65 9.12-2.49 1.29-5.26 2.89-8.1 3.46-7.84.78-5.12-10.94-3.14-15.17 2.17-5.84 5.74-11.07 9.7-15.84 4.79-5.32 9.67-10.57 13.99-16.39 4.02-6.56 6.32-10.93 14.53-12.23 9.73-3.37 20.14-4.24 30.18-6.18-3.41.28-7.09.55-10.4 1.34-3.04.02-6.02-.06-9.03.51l1.18-.19v-.54c-1.32.2-3.99.56-5.31.7-.69-.22-3.17 1.24-2.66.03-2.07.59-1.66-.22 1.15-.93 1.73-.56 4.2-1.08 5.95-1.28v-.54c-.61 0-.58.42-1.22.38v-.26c2.44-.49 5.35-1.12 7.81-1.5 0 0 0-.22-.67 0 2.2-.18 5.71-1.79 8.07-1.89-1.03-.73-2.82.29-3.49-.58.61 0 1.18-.45 1.79-.61-3.43 1.12-7.28.88-10.82 1.25-3.44.32-7.16 1.01-10.59.64-.33-.75 2.03-3.66 2.56-4.39 1.2-1.87 3.69-4.75 4.77-6.34.93-1.53 6.62-6.68 4.58-8.45.49-3.87-3.22-6.75-4.32-10.21l-.35.42c-2.38-1.24-4.8 6.03-5.99 7.65l-11.2 16.29c-2.23 2.7-3.58 6.43-7.07 7.78-5.03 2.15-10.78 1.39-16.13 1.6-3.02-.21-5.61.46-8.61 1.12-1.91.39-3.9.44-5.6 1.47-.22.35-.29.64 0 .9l-3.2 2.05c-.19.35-3.62.22-3.49.9 1.61.04 5.22-.34 6.24-.64-.01 1.83-6.65 3.86-2.11 5.19.7.16 1.44.26 1.98.42s.48.8.8.86c.93 0 1.86-.06 2.78-.19 1.87-.33 6.95-.65 8.07-1.7-.03-.26 0 0 0 .22.58-.35 1.86-.19 2.43-.45h0c1.2-.27 2.42-.47 3.65-.61.53-.15 1.14-.12 1.57.26.64 0 1.47-.42 1.5-.22s0 0 0-.22a1.16 1.16 0 0 1 1.31 0c.19.32-.42 1.22-1.25 2.34-1.6 2.32-3.46 4.33-5.12 6.21-1.19 1.84-3.57 4.38-5.09 6.18-2.55 3.63-6.02 6.97-9.38 10.02-1.64 1.91-11.22 11.25-13.19 9.83 1.24-5.24 3.9-10.29 2.4-15.62-1.56-5.44-6.86-10.07-12.74-8.61-1.75 0-7.2.55-7.78 1.79v.19c-3.53 2.06-5.76 5.79-8.93 8.32-5.86 5.45-11.87 10.79-17.83 16.1-10.87 10.23-21.84 21.17-33.61 30.25-9.64 5.46-7.82-4.75-3.81-9.86 2.84-4.46 6.24-8.67 8.77-13.35 7.71-10.88 14.44-22.6 22.28-33.32 3.92-.83 7.94-2.17 11.91-2.88 3.39-.87 7.09-.96 10.47-1.95 1.58-.38 3.8-.35 5.38-.64 1.55-.44 3.75-.8 5.35-1.06 4.48-.59 8.97-1.57 13.38-2.59-5.55 1-11.56 1.59-17.22 1.98 6.26-.59 13.08-2.05 19.4-2.75v-.26c-1.28-.07-3.35.08-4.67.35-.63-.19-2.89 1.02-2.37-.06-1.8.49-1.53-.14.96-.83 1.6-.34 3.77-.78 5.28-1.28v-.54c-.54 0-.51.19-1.06.16s-.22-.19 0-.26c.77 0-.22 0-1.95.22-2.17.37-5.33.74-7.62.93-1.73.19-2.72.42-2.02.26.23-.09.46-.17.7-.22l-.7.22s-.22-.35-.64-.26c1.73-.07 5.14-1.38 7.11-1.66-.48-.45-1.79-.32-3.2 0h0l.7-.19s-.8-.26-.64-.32l1.57-.42c-2.83.35-5.71.52-8.55.96-2.69 0-5.96-.13-8.61.38-2.59.12-5.28 1.17-7.87.86-1.66.05-9.46 3.05-7.07-1.06 2.36-2.52 4.16-5.83 6.27-8.87 4.26-6.06 8.48-12.24 12.45-18.5 2.61-4.33 7.28-9.63 8.64-14.24-2.99 3.33-5.28 7.53-8.03 11.07-3.19 4.31-6.76 8.96-9.51 13.22-4.02 5.03-7.41 10.52-11.27 15.72-1.08 1.31-2.08 4.06-3.84 4.48 4.26-6.46 8.1-13.17 12.32-19.65 1.56-2 3.04-4.33 4.48-6.43 3.42-4.04 5.79-8.62 8.1-13.44 1.66-3.05 3.09-6.47 4.48-9.63.33-.83 2.02-4.59 1.7-4.83-1.26.85-3.74 4.53-5.15 6.05-1.62 2.08-3.01 4.6-4.8 6.53-2.2 3.13-4.95 6.55-6.11 10.27-4.96 6.34-9.28 13.37-14.08 19.81l-6.59 9.6c-2.63 4.02-4.05 5.34-9.03 5.63-2.82.46-5.96 1.12-8.77 1.47-6.56.48-13.55.95-19.68 3.49-.22 0-2.98 2.4-2.02 2.62.32 0 3.65-.61 3.78 0l-2.88 2.21c-2 1.16-7.35 2.62-1.76 3.58 3.44.37 11.68 1.67 14.02-.7v.22c.48-.35 1.63-.29 2.14-.54h0c1.05-.3 2.12-.53 3.2-.7v.32c.42 0 1.02-.32 1.12.19.54 0 1.7-.51 1.73-.26s0 0 0-.19c7.67-1.99 7.23-.93 2.91 4.61-3.54 5.77-8.12 12.06-11.71 17.92-4.69 7.58-10.68 14.31-13.38 22.85-4.91 10.94 5.02 22.46 16.48 18.12 6.59-2.24 11.74-7.65 16.84-12.19 5.16-4.62 10.13-9.7 15.36-14.24-2.84 13.76 8.75 23.69 20.93 14.75 4.82-3.74 9.37-8.39 12.71-13.51l.32.29c1.71-1.93 3.04-4.4 4.45-6.53 4.29.3 8.5-1.36 12.23-3.33 1.11-.29 3.72-2.71 3.46-.64-3.27 11.82 6.03 26.09 19.17 20.74 3.26-1.05 6.29-2.85 9.25-4.54 3.19-1.7 6.44-3.58 9.51-5.47 4.79-2.45 9.64-5.41 14.15-8.35 9.44 22.95 45.99-10.4 57.87-17.76.08 1.71-3.32 4.71-4.38 6.15-1.66 1.95-1.63 1.44-.74 3.2 1.22 1.89 2.89 3.79 4.99 4.67 3.11-1.41 5.34-5.44 8.16-7.39 5.85-5.22 11.44-11.07 17.54-16 8.22-6.42-7.02 13.6-6.18 15.52 5.58 7.75 9.29 3.9 14.24-1.7 1.37-1.74 2.08-2.22 3.91-3.78 2.55-2.78 4.92-5.01 7.81-7.3 1.78-1.46 5.78-5.43 3.84-.45-7.3 11.6-.96 26.2 13.89 21.12 6.24-2.64 12.39-6.24 17.38-10.85-.32.42-2.34 1.4-2.82 1.66zm-123.1-8.45c2.67-4.8 6.31-9.08 10.66-12.45 2.57-2.5 17.53-12.7 11.2-2.08-6.7 6.85-15.24 11.49-23.11 16.87.38-.8.8-1.57 1.25-2.34zm2.85-38.92c.1 0 2.31-.33 2.34-.29-.91.17-3.22 1.12-2.34.29zM81.14 52.46l2.66-.51c-1.18.29-2.27.74-2.66.8v-.29zm-3.62 48.01c-2.8 3.69-10.82 14-15.3 13.99h0c-5.08-2.18 5.02-20.93 7.97-23.49 1.66-.99.19-.93 1.54 0 1.14.98 1.45 2.51 2.34 3.68 1 1.14 2.32 1.98 3.07 3.33 1.18 1.7 1.47-.32.38 2.34v.16zm11.39-21.44c-.68 3.27-2.2 6.75-4.03 9.6-3.67 3.96-5.03-5.77-4.51-8 1.42-.67 2.14-2.29 2.91-3.33 0-.22-.54-.22-.45-.42 1.51-1.47 3.8-2.6 5.89-1.73.86.97.3 2.8.19 3.87zm135.26-9.99c-1.47 3.48-4.64 5.72-7.52 7.97-2.28 1.7-3.84 3.7-6.18 5.22l-4.06 3.23c-.66.28-2.84 2.92-2.4 1.09-5.42 5.05-12.36 7.99-18.5 11.91 4.65-3.95 10.38-6.27 15.24-9.95l12.74-10.11c4.04-3.6 7.98-7.47 11.81-11.3-.38.7-.74 1.28-1.12 1.95zm7.75-9.06c-.85 1.69-1.62 3.42-2.85 4.87.92-1.69 2.02-4.17 3.26-5.63a9.74 9.74 0 0 1-.42.77z" fill="#ffd527"/><path d="m297.16,83.99l-.38.32c1.44-.9,2.66-2.09,3.87-3.26h.22c-1.32.89-2.58,1.81-3.71,2.94Z" fill="#ecd214"/><path d="M186.32 36.58c1.28 0 2.24-1.41 3.55-2.18.59-.94 1.27-1.81 2.05-2.59l-1.34 2.14c2.34-1.86 6.75-4.59 5.57-8a17.51 17.51 0 0 1-2.72 3.62l2.53-4c-.75-1.54-2.15-2.35-3.81-1.63-1.86 3.2-3.95 6.5-6.34 9.38 1.54-2.41 4.4-7 5.95-9.09-2.22 1.39-4.29 3.01-6.18 4.83-2.4 2.14-1.79 2.43-1.66 4.51.24 1.34 1.14 2.48 2.4 3.01zm25.03 2.92c1.11-.05 2.2-.32 3.2-.8 1.14-1.85 2.23-3.69 3.74-5.25l-3.1 4.9c3.29-2.01 6.79-4.95 7.39-8.93 0-.74-1.25-.48-2.3-1.63-.38-.31-.89-.43-1.38-.32-4.52 1.05-9.25 4.85-9.47 9.76a2.08 2.08 0 0 0 1.92 2.27z" fill="#ffd527"/></svg>