<svg xmlns="http://www.w3.org/2000/svg" viewBox="0 0 421.4 172.61" xmlns:v="https://vecta.io/nano"><style><![CDATA[.J{stroke-dasharray:0 0 2.37 2.37}.K{stroke-dasharray:0 0 2.36 2.36}.L{stroke-miterlimit:10}]]></style><g fill="none" stroke="#efd700" stroke-width=".59" class="L"><path d="M39.79 89.51h316.03M23.09 143.22h302.24M14.14 154.9h298.91M50.23 76.66h315.53M75.68 49.8h307.95M93.98 29.95h307.84M104.75 18.27H410.4"/><path d="M146.08 13.15L11.22 159.46m148.1-146.31L24.47 159.46M191.32 13.15L56.46 159.46M229.42 13.15L94.56 159.46M239.83 13.15L104.98 159.46M254.27 13.15L119.41 159.46M286.12 13.15L151.26 159.46M342.23 13.15L207.37 159.46M364.85 13.15L229.99 159.46M390.74 13.15L255.88 159.46"/></g><path d="M127.8 78.51c-.28.02-.55.13-.82.14.31-.02.61-.13.82-.14zm85.82.22l-1.13.06 1.13-.06z"/><path d="M212.49 78.79l-.84.05c.22 0 .52-.03.84-.05zm1.13-.18c.11 0 .22-.04.31-.04-.11 0-.21.03-.31.04zm111.8 52.96l.17-.12-.54.34.36-.22zm-71.48-24.76l1.24-.99-1.38 1.08c.02-.01.03-.02.05-.03l.09-.06zm69.18-5.82l-.06.03c.02.01.06-.04.05-.04z"/><path d="M323.08 101.05zm-3.32 34.11l1.11-.72-.37.21c-.25.15-.49.33-.73.51zm35.64-29.07c.29-.21.57-.43.83-.68l.89-.94-.91.77-.8.85z"/><path d="M357.12 104.47l1.06-.89c.4-.4.74-.86 1.1-1.3l-1.25 1.24-.9.96z"/><path d="M359.27 102.27l.6-.6 1.85-1.89-1.87 1.82c-.21.21-.4.43-.58.66zm-6.91 6.65l-1.93 1.76-1.89 1.8-1.91 1.78-1.95 1.73-1.9 1.79-1.87 1.6c-.62.54-1.33.97-1.96 1.5l-1.88 1.59-1.88 1.6c-.64.51-1.17 1.16-1.82 1.67s-1.37.92-2.02 1.42l-1.99 1.45-1.96 1.49-1.81 1.35 1.44-.91 2.08-1.53 2.03-1.59 2.08-1.53 2.08-1.53 2.02-1.61 1.95-1.69 1.96-1.68c.65-.56 1.22-1.22 1.86-1.79l1.89-1.75c.64-.58 1.38-1.04 2.01-1.62s1.17-1.26 1.8-1.85l1.96-1.68 1.79-1.85 1.9-1.74.97-1.02-1.21.97-1.83 1.87zM234.4 119.8s.02 0 .02-.01l-.83.43c.01 0 .02-.01.03-.02l.77-.4z"/><path d="M317.01 136.7l-2.2 1.12-2.16 1.2-2.26.98-2.26.97-2.28.88c.68-.34-.61 0-1.2.16l2.19-.8 2.28-.98 2.26-1.03c.75-.36 1.57-.56 2.31-.94.73-.38 1.42-.85 2.14-1.26l2.19-1.19c.71-.43 1.36-.95 2.06-1.4l2.05-1.41 2.04-1.42 1.96-1.52c.67-.49 1.43-.85 2.09-1.35l1.98-1.51 1.92-1.58 1.98-1.5 1.88-1.57 1.83-1.63 1.97-1.46 1.95-1.48c.62-.52 1.15-1.16 1.78-1.69l1.87-1.58 1.83-1.63 1.89-1.56c.6-.55 1.05-1.27 1.64-1.83l1.85-1.61 1.71-1.76 1.74-1.72 1.73-1.74 1.57-1.89c.69-.8 1.29-1.78 1.86-2.67.33-.52 1.14-1.12 1.06-1.76-.05-.41-.84-.95-1.69-1.43-.83-.47-1.71-.99-2.1-.93-.6.09-1.34.79-2.2 1.56-.62.55-1.23 1.25-1.87 1.94l-1.86 1.95-1.77 2.04-1.93 1.72-1.79 1.87-1.89 1.76-1.86 1.79-1.96 1.68-1.87 1.76-1.98 1.63-.87.8-1.34 1.13-.8.72-.87.71-2.04 1.56c-.67.53-1.45.92-2.12 1.44-.68.52-1.22 1.22-1.91 1.73l-2.1 1.47-2.11 1.46c-.7.49-1.5.83-2.21 1.3l-2.23 1.45-2.26 1.41-2.23 1.47c-.77.44-1.64.71-2.42 1.13l-2.34 1.28-2.22 1.18-2.3 1.03c-.77.34-1.51.79-2.3 1.02-.83.25-1.67.44-2.48.49a6.91 6.91 0 0 1-2.52-.27c-.93-.28-1.59-.75-2.07-1.27-.56-.61-.91-1.36-.97-2.21-.05-.74.13-1.56.36-2.41.2-.74.52-1.49.88-2.27.33-.72.59-1.51 1.01-2.23l1.31-2.06 1.44-1.97c.51-.71 1.08-1.32 1.53-1.9l1.44-1.96 1.57-1.86 1.58-1.86 1.6-1.84 1.76-1.7c.6-.56 1.3-.99 1.91-1.52l1.9-1.52 1.91-1.51 2.01-1.37c.67-.45 1.25-1.04 1.94-1.48.68-.43 1.47-.7 2.18-1.11l1.99-1.29c-.22-.4-.1-.48-.31-.9.05-.03-.02 0 .03-.04l-1.49-2.65-1.46-2.67c-.06.03-.26.16-.32.19-.39-.69-1.25-.39-2.36.26-.73.43-1.57.95-2.29 1.52l-2.2 1.65-2.08 1.45-2.19 1.28c-.73.43-1.39.97-2.12 1.4-.73.42-1.54.71-2.27 1.14-.35.2-1.02.75-2.01 1.37l-2.05 1.31-2 1.38-2.07 1.27-2.05 1.31-2.04 1.32c-.71.44-1.5.71-2.17 1.12l-2.06 1.29-2.09 1.24c-1.26.69-2.16 1.11-2.29.97-.19-.21.42-1.05 1.28-2.19l1.46-2.05 1.61-1.93c.55-.63 1.23-1.16 1.79-1.78l1.62-1.93 1.71-1.84 1.76-1.8c1.61-1.75 1.71-1.48 1.06-3.08a7.5 7.5 0 0 0-1.22-1.97l-1.55-1.75c-1.21-1.27-.67-1.28-2.32-1-.66.11-1.34.57-2.1.98l-1.98 1.18-1.87 1.36-1.88 1.35-2.1 1.31c-.71.43-1.5.7-2.2 1.14l-2.12 1.27c-.7.44-1.3 1.03-2 1.47l-2.12 1.28-2.03 1.41c-.69.45-1.49.73-2.18 1.18l-2.07 1.48 1.32-2.04 1.21-2.03 1.11-2.09c.43-.67.96-1.27 1.43-1.89.48-.63 1.08-1.2 1.64-1.75.06-.18-.48-.07-.47-.26.33-.59 0-1.58-.83-2.44-.61-.63-1.51-1.08-2.28-1.5-1.05-.57-2.04-.89-2.52-.43-.17.06-.06-.2-.21-.1-.37.67-.98 1.16-1.49 1.81-.48.61-.92 1.27-1.49 1.85l-1.74 1.63-1.79 1.58-1.93 1.41-1.94 1.39-1.86 1.32-.63.48.5-.38-1.92 1.31-2.16 1.71-2.27 1.55-2.22 1.63-2.33 1.47-2.38 1.39-2.11 1.38-2.14 1.32-1.84 1.12 1.14-.62-1.16.63-.29.17c-.15.09-.32.16-.48.23l-.73.39.69-.37-1.8.76c-.74.39-1.38.99-2.12 1.37-.75.38-1.56.64-2.31 1.01l-2.21 1.21c-.76.36-1.59.56-2.35.9l-2.29 1.05-2.33.94-2.32.96-2.37.84-2.34.93c-.79.28-1.62.45-2.41.71-.62.21-1.46.58-2.45.83-.8.21-1.67.33-2.54.45-.89.12-1.78.33-2.58.23-.93-.12-1.66-.59-2.24-1.18-.53-.53-.87-1.22-.9-2.29-.03-.95.51-1.56 1.31-2.11.68-.47 1.5-.87 2.37-1.19l2.51-.95c.71-.33 1.37-.77 2.08-1.11s1.47-.56 2.18-.9 1.34-.82 2.05-1.16l2.1-1.05 2.14-.97 2.29-1.06 2.26-1.13c.75-.38 1.42-.91 2.16-1.31s1.57-.64 2.3-1.05l2.14-1.34 2.09-1.41 2.1-1.41 1.94-1.62c.63-.56 1.2-1.19 1.78-1.79.58-.61 1.05-1.31 1.58-1.96l1.58-1.96c.45-.69.88-1.42 1.2-2.18a12.8 12.8 0 0 0 .73-2.38c.17-.82.21-1.66.18-2.48-.04-.83-.17-1.66-.44-2.44-.27-.76-.66-1.52-1.19-2.18-.49-.61-1.16-1.1-1.9-1.59-.87-.57-1.66-1.06-2.47-1.27-.94-.25-1.88-.21-2.78-.12-.91.09-1.78.43-2.68.69l-2.67.75c-.88.25-1.77.52-2.7.64l-2.36.76-2.39.78c-.76.34-1.46.81-2.21 1.19-.74.38-1.43.85-2.15 1.27l-2.2 1.19c-.7.45-1.31 1.04-1.99 1.52l-2.08 1.4-1.89 1.65c-.63.55-1.16 1.2-1.76 1.78l-1.91 1.71c-.59.62-1.07 1.33-1.62 1.98l-1.61 1.98-1.45 2.1-1.37 2.15-1.33 2.18-1.11 2.31-.83 1.94c-.27.73-.52 1.45-.92 1.86-.44.45-1.15.8-1.95 1.14l-2.11.9-2.21.64c-.74.32-1.42.78-2.16 1.1l-2.27.85-2.23.94-2.19 1.03-2.25.88-2.26.88-2.24.87-2.22.9-2.27.79c-.75.29-1.4.81-2.15 1.09l-2.25.84c-.82.3-1.84.49-2.82.8-.95.3-1.9.52-2.84.51-.98-.01-1.95-.14-2.73-.84-.63-.57-1.07-1.28-1.31-2.03s-.16-1.58-.12-2.4c.03-.8.08-1.61.26-2.38.19-.83.47-1.61.71-2.3l.81-2.35c.34-.76.89-1.41 1.28-2.14l1.25-2.14 1.38-2.06 1.43-2.03c.52-.64 1.14-1.2 1.7-1.81l1.67-1.83 1.68-1.83 1.84-1.67c.61-.56 1.36-.96 1.98-1.51s1.12-1.24 1.75-1.78 1.35-.97 1.98-1.51l1.83-1.68 1.95-1.54 1.8-1.71 1.79-1.71 1.92-1.91 1.83-2c.59-.69 1.04-1.5 1.64-2.17.62-.68 1.29-1.3 1.94-1.91.68-.63 1.47-1.09 2.2-1.58.67-.45 1.41-.92 2.29-1.1.81-.17 1.69-.17 2.54-.27l2.52-.36 2.58-.48 2.6-.33 2.6-.31 2.62-.11 2.62-.11 2.62-.18 2.62-.07 2.62.02 2.62-.11 2.62-.07 2.51-.12-2.36-.11-2.47-.14c-.82-.04-1.65.06-2.48.05-.82-.02-1.64.1-2.47.13-.75.02-1.51-.15-2.26-.2s-1.49-.2-2.24-.27-1.51 0-2.26-.04l-1.64-.02 1.12-.04c0-.12.16-.46 0-.51-.78-.01-1.64.02-2.5.02-.82 0-1.66-.03-2.48-.03-.86 0-1.74.16-2.52.15-.17-.05.03-.36.02-.48-.57-.04-.58.16-1.14.05-.57-.39.61-.6 2.31-.76l2.82-.34 2.83-.08v-.52c-.57-.04-.6.32-1.17.22-.12-.02-.07-.22.04-.26l2.45-.14 2.47-.16 2.48-.08c0-.12 0-.21-.58-.18l2.55-.17 2.52-.4 2.59-.12c-.34-.37-1.2-.46-2.15-.48h-.41c-.16-.13-.71-.41-.58-.44.57-.06 1.14-.29 1.71-.35-.86.03-1.71.23-2.55.24-.85 0-1.7 0-2.54-.01-.85-.02-1.68-.2-2.53-.23l-2.53-.11-2.5-.08c-.77-.04-1.64.04-2.51-.01s-1.72-.29-2.48-.35c-1.36-.12-2.26-.25-2.33-.42-.13-.3.35-.98 1.21-1.95l1.7-1.78 1.69-1.8 1.8-1.69 1.73-1.75 1.74-1.66 1.85-1.54c.6-.61 1.03-1.34 1.43-1.92.64-.92.92-1.62.36-2.06.34-.42.31-1.4 0-2.57l-.76-2.52c-.32-.84-.81-1.62-1.13-2.38-.44-1.06-.65-2.05-.8-2.53l-.36.34c-.53-.58-1.28-.22-2.02.48-.51.49-1.08 1.1-1.54 1.73l-1.36 1.86c-.58.7-1 1.53-1.59 2.22l-1.79 2.05-1.85 1.99-1.89 1.96-1.7 1.91-1.73 1.89c-.58.63-1.05 1.36-1.64 1.98l-1.83 1.79-1.73 1.79-1.61 1.91c-.61.6-1.28 1.12-1.93 1.58-.72.51-1.48.82-2.25 1-.81.19-1.62.44-2.48.51l-2.54.1c-.83 0-1.67-.17-2.53-.23l-2.53-.14-2.52-.24-2.52-.29-2.53-.21c-.86-.03-1.71.03-2.54.07l-3 .21-3 .14c-.81-.02-1.56.23-2.31.5-.27.31-.35.55-.05.84-.34.18-3.2 1.43-3.26 1.5-.23.28-3.36-.27-3.33.38 0 .07 1.54.16 3.01.19l2.85.02c.02.62-.86 1.1-1.85 1.6-.95.49-2.01.95-2.03 1.63-.01.77.63 1.03 1.25 1.27l1.79.63c.52.23.33.81.64.9.3.09 1.32.14 2.59.18l2.59.02 2.59-.07c1.44-.07 2.47-.23 2.46-.48 0 .12.02.09.02.21.56-.26 1.72.04 2.29-.1 0 .12-.01-.05 0 .07 1.13-.28 2.3.09 3.44-.08 0 .12.01-.03.02.09.55-.02 1.06.04 1.1.15l.31.28c.6 0 1.4-.2 1.41 0 0-.12.04-.11.04-.23.46-.17.88-.13 1.2.18.13.32-.54 1.07-1.44 2l-1.77 1.76-1.85 1.69-1.91 1.61-1.74 1.79c-.6.57-1.29 1.05-1.9 1.62l-1.85 1.66-1.77 1.76-1.89 1.62-2 1.66c-.6.47-1.38.9-2.14 1.48-.65.5-1.41.94-2.14 1.48-.68.5-1.25 1.2-1.97 1.71-.7.5-1.49.9-2.2 1.39l-2.17 1.42-2.25 1.29c-.85.49-1.54 1.08-2.23 1.36-1.21.51-2.23.63-2.59.21-.1-.12.39-1.02.88-2.12l.95-2 .87-2.04 1-1.99c.26-.94.38-1.93.49-2.91s.19-1.97.09-2.95c-.1-.97-.45-1.9-.8-2.83-.31-.82-.74-1.54-1.23-2.23-.49-.71-.9-1.5-1.54-2.07s-1.44-.94-2.2-1.35c-.75-.4-1.55-.7-2.38-.94-.17-.05-1.18-.06-2.52-.09l-2.54-.18c-.89.01-1.77.12-2.54.17-1.43.11-2.46.3-2.3.66.05.11.07.11.12.22-.7.27-1.35.63-1.97 1.02l-1.84 1.25c-.59.45-1.08 1.02-1.66 1.49l-1.78 1.34-2.04 1.42-2.08 1.36-1.99 1.5-2.01 1.47-2.11 1.33-2.12 1.31-2.01 1.47-2.14 1.28c-.69.47-1.26 1.09-1.94 1.57l-2.11 1.31-2.02 1.43-2.02 1.44-1.96 1.52-2.08 1.35-1.96 1.53-2.03 1.43-2.06 1.38c-.67.48-1.41.87-2.09 1.34l-2 1.46-1.98 1.5c-.68.47-1.46.8-2.14 1.26l-2.06 1.38c-.69.46-1.27 1.07-1.97 1.52l-2.1 1.31c-.7.44-1.49.74-2.19 1.17-.7.44-1.33 1-2.03 1.43-.61.37-1.35.8-2.16 1.14-.75.32-1.56.59-2.33.76-.88.21-1.73.09-2.41-.07-.81-.18-1.54-.56-1.7-1.53-.1-.61.13-1.4.4-2.41.21-.78.45-1.58.86-2.33.38-.71.91-1.36 1.41-2.05l1.56-1.94 1.57-1.94c.58-.62 1.29-1.11 1.84-1.69l1.68-1.85 1.56-1.91 1.61-1.87 1.55-1.92 1.62-1.86 1.68-1.81 1.7-1.79 1.65-1.83c.54-.62.96-1.34 1.5-1.96l1.65-1.83 1.67-1.82 1.57-1.91 1.62-1.86 1.63-1.85c.54-.62 1.18-1.16 1.72-1.77s.98-1.32 1.53-1.94l1.69-1.8 1.55-1.92c.54-.62 1.17-1.16 1.71-1.77l.34-.17c.72 0 1.45-.17 2.22-.26l2.24-.15 2.21-.32 2.21-.27 2.47-.13 2.47-.22c.82-.03 1.65.06 2.48.04l2.47-.05c.82-.02 1.64-.19 2.47-.22l2.53-.07c.84-.02 1.69.18 2.53.16.84-.01 1.68-.2 2.52-.22l2.53-.08h2.53l2.52-.19h2.53c.84-.05 1.67-.24 2.51-.31l2.6-.17-2.76.11-2.68.01-2.68-.09-2.68-.09-2.68-.1-2.67-.21 2.6.11 2.61-.06 2.61-.03 2.61-.05 2.61-.04 2.61.02 2.58-.01c0-.12.14-.17-.03-.23-.69 0-1.41-.17-2.18-.16l-2.21.04-2.21.08c-.17-.06 0-.33-.02-.45-.51-.03-.5.14-1 .04-.52-.37.5-.52 1.99-.71.77-.1 1.67-.08 2.54-.15.94-.08 1.83-.28 2.51-.36l-.02-.49c-.51-.03-.5.09-1 0-.12-.02-.19-.19-.07-.24.73-.05-.21-.02-1.84-.06-.7-.02-1.52.09-2.38.07l-2.38-.09-2.37-.09c-1.63-.04-2.58.03-1.9-.01 0-.03 0-.07-.02-.11.22-.02.44-.09.67-.11-.26.02-.49.09-.67.11-.04-.15-.15-.34-.54-.31.27-.02 1.19.03 2.27-.1l2.25-.32 2.24-.2c-.4-.47-1.61-.52-2.84-.43h-.06l.68-.09c.17-.05-.7-.33-.53-.39l1.5-.18c-.9.06-1.79-.04-2.67-.05-.9 0-1.78-.14-2.67-.18s-1.79.09-2.68.03l-2.67-.25-2.66-.28c-.88-.04-1.78 0-2.68-.01-.82 0-1.64-.04-2.47-.04-.82 0-1.64.18-2.47.18-.82 0-1.64-.23-2.47-.23-.82 0-1.64.16-2.47.16-.47 0-1.22.1-1.96.16-.76.06-1.56.06-1.99-.15-.98-.49-.65-1.23.02-1.94.49-.51 1.25-.98 1.74-1.53l1.76-1.91 1.68-1.98 1.73-1.93 1.78-1.89 1.82-1.86c.57-.63 1.05-1.36 1.64-2.02l1.78-1.89 1.68-1.98 1.83-1.85 1.68-1.98 1.66-2 1.7-1.97c.59-.67 1.28-1.22 1.83-1.85l1.68-1.98 1.73-1.94c.63-.76 1.1-1.5 1.55-2.09.96-1.24 1.44-2.05 1.31-2.2-.02-.02-.78.61-1.87 1.72l-1.75 1.85-1.74 1.87-1.69 1.91-1.78 1.83-1.86 1.75-1.72 1.89-1.69 1.91-1.83 1.77c-.57.6-1.24 1.11-1.81 1.71s-1 1.34-1.56 1.94c-.57.6-1.25 1.1-1.81 1.7l-1.72 1.79c-.57.6-1.01 1.32-1.58 1.92l-1.74 1.77-1.81 1.99-1.92 1.89-1.81 2-1.88 2.15c-.72.81-1.4 1.48-2.22 1.48l1.52-1.75c.53-.6.96-1.28 1.48-1.9.52-.61 1.15-1.12 1.67-1.74l1.49-1.89 1.61-1.79c.51-.62.86-1.37 1.37-1.99l1.56-1.83 1.62-1.78 1.56-1.87c.54-.6 1.17-1.12 1.72-1.72l1.59-1.85 1.64-1.8c.55-.59 1.25-1.05 1.79-1.65l1.56-1.87 1.58-1.85 1.53-1.89c.23-.3.65-1.09 1.33-2.08l1.41-2.03 1.4-2.03 1.39-2.04 1.25-2.14 1.31-2.09 1.25-2.13c.71-1.26 1.09-2.01.93-2.14-.13-.1-.72.45-1.85 1.5l-1.8 1.75-1.87 1.68-1.74 1.81-1.66 1.89c-.57.59-1.24 1.1-1.84 1.72l-1.74 1.82-1.7 1.86-1.7 1.86-1.74 1.81-1.83 1.74c-.58.62-1.05 1.33-1.62 1.94-.58.62-1.27 1.13-1.83 1.73l-1.66 1.89-1.77 1.79-1.63 1.92-1.74 1.81-1.64 1.91-1.79 1.77-1.85 1.98-1.82 2.01-1.83 2-1.81 2.01-1.88 1.95c-.73.8-1.41 1.27-2.05 1.58-.78.39-1.57.46-2.52.5l-2.59.02-2.76.09-2.76.09-2.77.03-2.77-.18-2.77-.12-2.78-.11-2.78.12-2.51.17c-.84.05-1.68.18-2.5.31-.85.14-1.73.2-2.48.52-.23.1-3.06 1.83-2.22 2.17.32.02 3.46-.1 3.5.49 0-.1-2.91 1.66-2.93 1.67-.32.18-1.26.41-2.2.68-.97.27-1.94.65-2.08 1.03-.17.48.78.89 2.17 1.36.75.25 1.64.49 2.62.7l2.65.62c.92.14 1.84.16 2.71.24 1 .09 1.92.12 2.71.1 1.48-.02 2.39-.13 2.35-.64 0 .12.09.13.1.25.49-.27 1.52-.08 2.03-.23 0 .12-.02-.04 0 .08 1-.3 2.05-.08 3.06-.26 0 .12.01.19.02.31.4-.03.96-.15.99.34.52.09 1.63-.26 1.65-.02 0-.12-.05-.07-.06-.19l2.85-.22c1.32-.07 2.61-.11 2.79.23.23.46-.56 1.44-1.44 2.4l-2.06 2.05s-.55.77-1.57 1.93l-1.65 1.87-1.69 1.83-1.71 1.82c-.54.61-.96 1.35-1.52 1.99-.55.62-1.22 1.14-1.77 1.76-.55.63-.99 1.35-1.54 1.97l-1.64 1.88-1.63 1.89-1.72 1.81-1.58 1.93-1.68 1.84-1.66 1.81-1.62 1.85c-.51.62-.93 1.34-1.43 2l-1.52 1.93-1.33 2.07c-.43.71-.71 1.49-1.07 2.21l-.99 2.24c-.29.78-.52 1.55-.69 2.34-.18.81-.5 1.6-.53 2.41-.03.82.05 1.65.2 2.46.15.79.54 1.52.88 2.29.32.72.57 1.52 1.08 2.21.46.63 1.04 1.22 1.66 1.83.61.6 1.25 1.12 1.89 1.55.7.47 1.43.87 2.16 1.16.77.31 1.59.37 2.39.49.8.13 1.6.13 2.41.09.8-.04 1.6-.09 2.41-.26.78-.16 1.61-.23 2.39-.5.76-.26 1.47-.69 2.22-1.03l2.2-1.06 2.19-1.08 2.05-1.33 2.05-1.32 1.98-1.42 2.02-1.37 1.98-1.42 2.01-1.36 2.03-1.34 1.95-1.45c.67-.46 1.27-1.02 1.93-1.48l2.02-1.35 1.98-1.41 2.07-1.36c-.28.77-.53 1.62-.7 2.45-.17.81-.41 1.63-.47 2.47s.07 1.68.14 2.51c.06.84.2 1.66.39 2.47.2.82.39 1.65.73 2.4a11.22 11.22 0 0 0 1.29 2.16c.5.66 1.13 1.23 1.8 1.75.64.5 1.4.82 2.2 1.15.73.31 1.47.77 2.34.92.82.14 1.66.11 2.49.08.82-.03 1.61-.27 2.43-.45.79-.18 1.6-.33 2.39-.63l2.28-.97c.73-.37 1.42-.82 2.13-1.26l2.06-1.37 1.94-1.53 1.99-1.48 1.86-1.64 1.84-1.66c.62-.6 1.08-1.34 1.64-1.88l.26.31 1.75-1.71c.57-.58 1.03-1.27 1.58-1.86l1.61-1.9 2.43.19c.8 0 1.59-.06 2.37-.14l2.35-.37 2.32-.53c.76-.22 1.5-.51 2.25-.79l2-.68c1.11-.44 1.48-.52 1.27.55-.09.46-.33 1.11-.6 2.03-.25.84-.42 1.7-.55 2.57s-.32 1.74-.32 2.62.24 1.75.36 2.61c.12.87.08 1.78.34 2.62.25.84.78 1.58 1.17 2.37.39.78.8 1.55 1.34 2.25a12.91 12.91 0 0 0 1.79 1.91c.65.56 1.33 1.13 2.12 1.57.73.4 1.47.77 2.21 1 .78.25 1.6.29 2.39.38.8.09 1.61.14 2.41.1.8-.05 1.58-.24 2.38-.39.78-.15 1.56-.36 2.33-.58l2.34-.6c.76-.27 1.46-.69 2.21-.97l2.25-.87 2.4-.85 2.34-1.02 2.39-.9 2.33-1.05c.79-.32 1.64-.48 2.42-.81l2.33-1.04 2.37-.94 2.35-.99 2.34-1.01 2.3-1.12c.2.85.38 1.68.67 2.39.34.8.89 1.44 1.33 2.07.49.7.94 1.4 1.55 1.91.63.54 1.4.86 2.14 1.22.73.36 1.46.72 2.27.92a14.84 14.84 0 0 0 2.43.39l2.47.12c.81-.03 1.62-.25 2.44-.36.81-.11 1.61-.29 2.42-.46l2.4-.57 2.38-.66 2.27-.83 2.27-.84 2.24-.91 2.23-.94 2.19-1.04 2.22-.96 2.22-.97c.3-.14 1.01-.74 2.11-1.34.64-.35 1.46-.62 2.26-1.06l2.15-1.26c.71-.4 1.51-.69 2.24-1.1.74-.41 1.38-.97 2.1-1.36l2.2-1.16 2.25-1.08 2.2-1.03c.21.26-.38 1.01-1.26 1.88l-1.75 1.64-1.82 1.56c-1.8 1.59-1.68 1.14-1.07 2.71a8.86 8.86 0 0 0 1.03 1.89l1.35 1.69c.63.72 1.25 1.28 1.64 1.38.45.11 1.31-.49 2.31-1.21l2.15-1.56 2-1.76 1.99-1.26 1.93-1.33 1.96-1.29 1.91-1.37 2.03-1.48 2.03-1.48 2-1.52c.68-.48 1.47-.84 2.15-1.3l2.09-1.4 2.13-1.34c1.23-.71 2.1-1.19 2.28-.99.29.32-.05 1.25-.82 2.37-.42.61-1.06 1.21-1.65 1.95l-1.59 1.99-1.57 2.01-1.66 1.93-1.59 1.99c-.7 1-1.11 1.81-1.1 2.27.02.46.48 1.18 1.13 1.91l1.56 1.62c.72.63 1.52.99 1.9 1.19.67.35 1.5.33 2.46-.05.71-.29 1.52-.67 2.29-1.19.69-.46 1.33-1.09 2.01-1.62l2.02-1.6 1.97-1.68c.29-.2 1.13-.58 2.13-1.3.59-.43 1.16-1.08 1.9-1.61l2.07-1.37 2-1.48c.71-.48 1.5-.82 2.16-1.25l2.1-1.34c1.21-.7 2.02-1.02 2.21-.82.3.3-.08 1.27-.71 2.22l-1.45 1.99-1.17 2.33-.97 2.43c-.26.84-.52 1.69-.63 2.55-.12.87-.19 1.76-.13 2.63.06.86.35 1.7.63 2.55.27.83.51 1.61.88 2.28.42.75 1.06 1.28 1.59 1.84.58.6 1.19 1.09 1.88 1.49.7.4 1.39.83 2.18 1.05a12.64 12.64 0 0 0 2.41.41c.79.06 1.62.09 2.44.03l2.43-.27c.79-.14 1.57-.45 2.35-.66.79-.21 1.54-.53 2.3-.79l2.28-.84 2.25-.94 2.32-1.12 2.29-1.18 2.24-1.27c.49-.28.93-.64 1.38-.99l-.59.36-2.16 1.18zm-112.43-23.61l1.55-1.97 1.7-1.84c.59-.59 1.32-1.04 1.94-1.6l1.8-1.74 2.15-1.59c.73-.51 1.54-.9 2.3-1.37l2.3-1.34 2.37-1.23 2.4-1.2c.54-.21 1.49-.46 2.41-.73.94-.28 1.88-.43 2.47-.25.64.19.88.79.17 2.15-.38.72-.87 1.47-1.53 2.13-.59.58-1.42.96-2.15 1.49-.69.5-1.34 1.1-2.1 1.55l-2.25 1.33-2.35 1.14-2.36 1.12-2.39 1.33-2.48 1.15-2.46 1.2-2.51 1.08-2.42 1.2 1.45-2zm7.6-35.51h1.99.22-.03l-2.24.29c-.1-.06-.06-.25.05-.29zm-85.97-.06l2.53-.12-2.56.4c-.11-.05-.08-.25.03-.28zm-9.43 43.67c-.41.72-1.21 1.35-2.01 2.02l-2.15 1.91-1.78 1.51c-.55.49-1.23.9-1.85 1.42l-1.82 1.44-1.92 1.31c-.71.4-1.35.89-2.05 1.12-.78.25-1.59.27-2.33.21-.02-.01-.03-.06-.06-.06 0-.01-.05.05-.06.03-.78-.44-1.15-1.3-1.09-2.35.04-.77.5-1.6.84-2.53.29-.79.51-1.67.92-2.5l1.22-2.38 1.44-2.25 1.53-2.18 1.15-1.74c.42-.55.91-1.05 1.36-1.59l1.34-1.74c.54-.66 1.17-1.18 1.67-1.39 1.66-.71.29-.84 1.41.03.33.26.66 1 .94 1.8.26.76.55 1.51.77 1.89.33.57.82 1.11 1.3 1.65.49.56.81 1.22 1.09 1.81.96 2.06 1.47.23.15 2.54zm13.24-18.31c-.25.69-.58 1.45-.95 2.25-.33.72-.81 1.4-1.21 2.12l-1.27 2.07c-.5.72-.98 1.39-1.52 1.89-1.01.96-1.86.93-2.45.21-.46-.57-.7-1.59-.9-2.65-.17-.89-.2-1.87-.18-2.77.03-1.1.14-2.13.44-2.74.49-.27 1.09-.53 1.52-.87.79-.63.93-1.36 1.59-1.81.11-.2-.47-.28-.36-.47.79-.54 1.74-1.07 2.7-1.24.97-.18 2.02-.01 2.9.54.58.95.02 2.57-.33 3.46zm125.99 8.24l-1.35 1.75c-.52.65-1.22 1.26-1.98 1.84-.69.53-1.53.92-2.31 1.41l-2.32 1.38-2.3 1.43c-.68.44-1.27 1.01-1.95 1.44s-1.43.75-2.12 1.16l-2.09 1.2-2.07 1.25-2.11 1.25c-.18.04-.18-.44-.24-.54-.73.4-1.41.94-2.15 1.33l-2.19 1.21-2.26 1.07-2.28 1.03-2.23 1.13c-.7.31-1.62.54-2.56.83l-2.54.83c-.94.34-1.77.72-2.38 1.17a12.78 12.78 0 0 1 2.03-1.24l2.17-1 2.21-.92 2.2-.93c.74-.35 1.56-.54 2.3-.91l2.17-1.18 2.23-1.06c.73-.38 1.41-.85 2.13-1.25l2.13-1.24 2.21-1.28 2.15-1.38c.73-.44 1.54-.74 2.26-1.19l2.16-1.36 2.1-1.46 2.14-1.39 2.06-1.51 1.99-1.59 2.1-1.45 1.96-1.48-1.29 1.66zm8.31-7.36l-1.55 2.18c-.53.72-1.02 1.37-1.7 1.93l1.74-2.46c.6-.82 1.2-1.61 2-2.33l-.48.68zm56.93 30.43l-.38.24 1.89-1.03 2.1-1.49c.07-.04.13-.09.2-.13l-1.82.95c-.69.45-1.3 1.02-1.99 1.45zm-96.02-57.84c1.2.09 2.25-1.03 3.55-1.56.67-.75 1.37-1.47 2.22-2.12l-.7.84-.79.95.48-.25c1.75-.95 2.92-1.71 3.53-2.28l1.55-1.55c.43-.46.67-1.03.73-1.72.02-.26-.02-.55-.13-.87l-.54.64c-.77.89-1.48 1.69-2.43 2.36l2.53-3.04.29-.33c-.19-.46-.49-.97-.89-1.54-.18-.28-.59-.44-1.24-.49-.36-.03-.74 0-1.16.07l-2.17 2.58-4.87 5.11 4.97-5.79 1.68-1.81c-1.25.3-4.59 2.5-6.31 3.66-2.5 1.68-1.96 2.01-2.11 3.97-.1 1.24.61 2.26 1.8 3.19zm22.71 5.89c.95.07 1.93-.05 2.94-.37l1.27-1.51c.87-1.01 1.73-1.99 2.86-2.85l-.7.84-2.25 2.69-.53.6c.46-.18.92-.39 1.39-.64 1.75-.95 2.92-1.71 3.53-2.28l1.55-1.55c.43-.46 1.42-2.05 1.47-2.74.05-.68-1.08-.59-1.91-1.78-.18-.28-.59-.44-1.24-.49-1.5-.12-3.5.66-5.99 2.34-2.5 1.68-3.82 3.49-3.97 5.45-.1 1.24.43 2 1.59 2.29z"/><g fill="none" stroke="#efd700" stroke-width=".59" class="L"><path d="M39.79 89.51h1.18"/><path d="M43.33 89.51h310.13" class="K"/><path d="M354.64 89.51h1.18M23.09 143.22h1.19"/><path d="M26.64 143.22h296.32" class="K"/><path d="M324.14 143.22h1.19M11.57 154.9h1.19"/><path d="M15.11 154.9h295.58" class="K"/><path d="M311.86 154.9h1.19M50.23 76.66h1.19"/><path d="M53.77 76.66H363.4" stroke-dasharray="0 0 2.35 2.35"/><path d="M364.58 76.66h1.18M75.68 49.8h1.19"/><path d="M79.24 49.8h302.02" class="J"/><path d="M382.44 49.8h1.19M93.98 29.95h1.19"/><path d="M97.53 29.95h301.92" class="J"/><path d="M400.63 29.95h1.19M104.75 18.27h1.18"/><path d="M108.32 18.27h299.7" stroke-dasharray="0 0 2.39 2.39"/><path d="M409.21 18.27h1.19m-264.32-5.12l-.81.88"/><path d="M143.67 15.77L12.82 157.71" class="J"/><path d="M12.02 158.58l-.8.88m148.1-146.31l-.8.88"/><path d="M156.92 15.77L26.07 157.71" class="J"/><path d="M25.27 158.58l-.8.88M191.32 13.15l-.8.88"/><path d="M188.91 15.77L58.07 157.71" class="J"/><path d="M57.27 158.58l-.81.88M229.42 13.15l-.8.88"/><path d="M227.01 15.77L96.17 157.71" class="J"/><path d="M95.37 158.58l-.81.88M239.83 13.15l-.8.88"/><path d="M237.43 15.77L106.58 157.71" class="J"/><path d="M105.78 158.58l-.8.88M254.27 13.15l-.8.88"/><path d="M251.86 15.77L121.02 157.71" class="J"/><path d="M120.22 158.58l-.81.88M286.12 13.15l-.81.88"/><path d="M283.71 15.77L152.87 157.71" class="J"/><path d="M152.06 158.58l-.8.88M342.23 13.15l-.8.88"/><path d="M339.82 15.77L208.98 157.71" class="J"/><path d="M208.17 158.58l-.8.88M364.85 13.15l-.8.88"/><path d="M362.44 15.77L231.6 157.71" class="J"/><path d="M230.8 158.58l-.81.88M390.74 13.15l-.8.88"/><path d="M388.33 15.77L257.49 157.71" class="J"/><path d="M256.69 158.58l-.81.88"/></g></svg>