<svg xmlns="http://www.w3.org/2000/svg" viewBox="0 0 325 325" xmlns:v="https://vecta.io/nano"><path d="M273.7 157.6c-6-1.7-12.5-6.8-18.6-9.2-9.1-3.6-18.5-7.3-27.9-10-2.4-.7-5.4-.7-7.5-2.2-1.1-.7-1.8-1.1-2.2-1.3.2-.2.4-.6.5-1.4s2.9-5.5 3.8-6.7c3.5-4.1 6.3-3 11.7-5.6 1.3-.6 3.4-1 3.9-2.7 0 .9 1.4-1.4 1.7-1.4-1-3.6-4.3 2.9-5.6.2-1.6-.8.4-2.8.9-3.9-.9.6-7.2-11.9-11-4.7-5.8 5.4.2-6.6-4.1-5.9-1.4.2-2.3 5-2.4 5.6 1.4 1.1-2.4 8.9-2.4 11.3-2.5 2.5-15.2 11.2-12.6 13.9-7.2 0-8.6-4.7-11.9-11-2.3-4.4-2.6-9.9-6.6-12.8-1.1-.8-11.6-4.2-11.6-3-4.3-2.8 5.4-5.5 6.4-5.7 3.5-.6 3.9 1.5 6.5-2.6 1.1-1.7 2.8-7.3 2.8-9.1-.1-4-4.7-7.7-3.6-12.7 1.2-5.5 4.8-6.2 1-12.5-5.6-9.3-16.1-6.1-25.5-5.7-6.6.2-17.3-.3-23.8 1.7-7.4-1.6-17.4.3-25 .3-1.3.9 2.3 4.2 2.8 4.2 2.3.1 4.3-.2 6.4-.2 1 0 3.4-.9 4.1-.7.7 3.3 16.1 1.2 20.1 3.8 4.8 3.2-3.6 2.9-6.2 2.6-3.9-.4-15.9-4.8-19.1-.7.1-.1-11-.3-10.1.9-.1-.1 9.3 3.2 10.1 3.4-.6-.2 22.3 2.9 22.2 3.6-.6 4.3-32.2-1.9-36.1.5-6 3.6.4 3.2 3.6 3 7.9-.6 15.6 3 23.8 3-.8 6.9-19.1-.9-22.7 6.2.9 1.2 4.1-1.4 4.9-1.4 2.4.1 2.7.7 5.3 1.3 4.2 1.1 8.3 2.7 12.8 2.4 2.6-.2 4.3-1.6 6.8-1.4 7.9.6 4.1 2.4-1.4 2.3-2.4 0-4.7.2-7.2.5-4.9.5-7.7.7-10 5.3-.1.2-2.9 3.3-.5 2.6 1.2-.3 2.6-2.2 4.3-2.6 6.2-1.7 11.4-.2 17.7-1 5.2-.6 14.8-2.7 5.3 3.9-.9.9-9.7-.1-10.6-.1-2.7 0-4.1 4.5-5.2 6.2-1.4 2-3.5 4.1-5.2 6-3.1 3.5-5.6 8.6-8.8 11.7-1.3-1.9-5.3-.4-7.1-.3-5.5-4.3-18.8-.2-25.7.1-4 .2-9.2.5-13 1-7 1-15.1 1.2-21.5 4.2-7.9 3.8-15.8 12-10.9 21.4 5.1 9.8 24.1 14.4 32.8 14.9 5.3.3 10.8.1 15.8.9 4.4.8 24.5 2.1 22.9 5.8-1 0-8.3 8.8-8.6 10.5-1.1 5.8 3.7 2.8 4.9 7.2.6 2.5-2.7 5.3-3.8 7.2-2 3.6-3.4 8.7-6.6 11.6-3.4 3.1-6.8 3-10.6 4.3-6.8 2.5-13.4 8.3-20.2 9.3-6.8.9-8.5-.7-12.5 5.3-1.5 2.3-4 4.7-5.3 7.2-1.6 3.1-2.2 14.4 3.9 11.2.6-.3.4-1.6.8-2 1.5-1.2 4.2-6.6 5.9-8.5 1.5-1.6 2.1-2.5 4.2-3.9-.4.3 13-4.6 13-5.2 0 1.7 25-8.6 26.9-8.6 8.4 0 11.1-17.3 17.7-19.1 2.6-.7 3.8 2.2 6.2 1.4.8-.3 2.5-3.8 3.2-4.9s5.1-9.3 6.4-9.5c3.2-.5 4-7.7 8.5-5.7 2.7 1.2 3.2 9 3.7 11.4.2.9.8 2.4 1 3.4.6 3 .2 7.8 2.9 9.5 1.3.9 6.2-.7 7.9.3 3.8 2.2 6.9 9.1 9.3 12.5 2.7 3.7 6.1 6.8 8.4 10.8 5 9.3 11.2 19.5 20.3 25.8 3.2 3.1 3.9 10.4 8 11.9 5 1.9 4.3-2.3 6.6-5.2 3.3-4 9-5.7 11.8-10.1 7.8-11.8-9.4-.5-12.4 1.9-3.9 3.2-4.7 4.1-8.6.3-4.5-4.4-8.9-12.7-11.5-18.2-3.9-8.2-6-16.9-10.2-24.7-1.3-2.4-2.8-4.6-3.9-7.1-2.8-6.4-1.8-1.9.7-7.2 1.2-2.6 2.6-.4 2.3-4.9-.2-4-5.1-5.9-5.8-9.6-1.3-7.7 11-3.3 17.1-2.7 5.9.5 12.3 1.9 18.2 1.3 14.2-1.4 29.6-5.7 42.6-11.3 4.5-2 9.7-2.9 14-5 .3-.1 5.5-2.9 4.7-2.9.6 0 1.2-1.3 1.9-1.3 1.5-.3 1.1-2.5-.3-2.9h0zm-59.2-38.1c.1-.2.2-.3.3-.4-.1.1-.2.2-.3.4z" fill="#fff"/><g fill="#111"><path d="M85.8 235.5c-1.2-.1-2.4-.6-3.4-1.3-.7-.5-1.6-.3-2.1.4-.5.6-.3 1.5.3 2l.1.1c1.4 1.1 3.2 1.7 4.9 1.9h0c2 .1 3.8-.9 5-2.4 1.4-1.9 1.2-4.5-.5-6.2-1.4-1-3.2-1.4-4.9-1.2-1 .1-2 0-2.9-.4a1.99 1.99 0 0 1 0-2.1c.5-.9 1.3-1.5 2.2-1.7a7.31 7.31 0 0 1 3.6 0c.8 0 1.5-.6 1.6-1.5 0-.7-.4-1.3-1.1-1.5-1.6-.4-3.3-.4-4.9 0-1.8.4-3.3 1.7-4.2 3.4-.9 1.9-.5 4.3 1.2 5.7 1.4.9 3.1 1.4 4.8 1.1 1-.1 1.9 0 2.8.5a1.66 1.66 0 0 1 0 2.1c-.5.7-1.5 1.1-2.5 1.1h0zm18.3-3.4c-1.3.4-2.7-.1-3.4-1.3-.8-1.6-1.3-3.4-1.3-5.2v-.4A14.78 14.78 0 0 0 98 219c-.3-.8-1.1-1.2-1.9-.9s-1.2 1.1-.9 1.9c.1.1.1.3.2.4.7 1.6 1.1 3.3 1 5.1v.4c0 2.4.6 4.7 1.9 6.7.8 1.1 1.9 2 3.2 2.4.6.2 1.2.4 1.9.4.8 0 1.6-.2 2.3-.6 2.1-1.4 3.2-3.9 3-6.4.1-3.8-.5-7.5-1.9-11-.4-.7-1.3-1-2-.7-.6.3-1 1.1-.8 1.7 1.2 3.1 1.8 6.4 1.7 9.8-.2 1.5-.5 3.3-1.6 3.9h0zm41.5-18.1c-.1-.8-.8-1.5-1.6-1.4l-10 .9c-.8 0-1.5.7-1.4 1.6h0v13a1.54 1.54 0 0 0 1.5 1.5h0a1.54 1.54 0 0 0 1.5-1.5v-5.2h6.3c.8 0 1.4-.6 1.4-1.4v-.1c0-.8-.7-1.4-1.5-1.4h-6.2v-3.5l8.6-.7c.7-.2 1.4-.9 1.4-1.8 0 .1 0 0 0 0h0zm17.3 3.2c1 .1 2 .5 2.7 1.2.6.6 1.5.6 2.1 0s.6-1.4.1-2l-.1-.1c-1.3-1.2-2.9-1.9-4.6-2-1.9-.1-3.8.8-4.8 2.5-1.1 1.9-.7 4.3 1.1 5.6.7.5 1.5.8 2.4.9.3-.1.6-.1.9 0 .9.4 1.5 1.3 1.5 2.4a2.45 2.45 0 0 1-1.9 2.1c-1 .2-2.1-.4-2.5-1.3-.4-.7-1.3-1-2-.6s-1 1.3-.6 2c.9 1.8 2.8 3 4.8 3h.9c2.3-.4 4.1-2.3 4.4-4.7.2-2.4-1.2-4.6-3.4-5.5l-1.4-.4c-.5 0-.9-.2-1.3-.4-.4-.5-.4-1.2 0-1.6.4-.7 1-1.1 1.7-1.1h0zm23.4-.6a1.54 1.54 0 0 0-1.5 1.5c-.1 1.6-.3 3.2-.6 4.7l-6.1-.4c.4-2 .7-4.1.9-6.2 0-.8-.6-1.5-1.4-1.6s-1.5.5-1.6 1.3v.1c-.3 4.8-1.3 9.5-2.9 14-.3.7 0 1.6.7 1.9 0 0 .1 0 .1.1h.5c.6 0 1.2-.4 1.4-1 .6-1.9 1.1-3.7 1.6-5.7l6.2.4c-.5 2-1.1 3.9-1.9 5.8-.3.8.1 1.6.8 1.9h.6c.6 0 1.1-.4 1.4-.9 1.1-2.4 1.9-5 2.4-7.6.1-.2.1-.4 0-.6v-.4c.4-2 .7-3.9.8-5.9-.1-.8-.7-1.3-1.4-1.4h0zm16.1 4.4c-.1-.4-.4-.6-.8-.8-2.4-.8-5-.2-6.7 1.6-1.5 1.5-2.5 3.5-2.9 5.6-.4 1.5-.4 3.1 0 4.7.4 1.9 1.8 3.3 3.6 3.9.4.1.7.1 1.1 0 2.3-.1 4.3-1.4 5.4-3.4 2.1-3.4 2.4-7.6.8-11.3l-.5-.3h0zm-3.1 10.1c-.8 1.2-2.1 2.3-3.2 2-.8-.3-1.3-.9-1.4-1.7-.2-1.1-.2-2.2 0-3.2.3-1.5 1-3 2.1-4.2.7-.7 1.6-1.1 2.6-1.1h.4c1.1 2.6 1 5.7-.5 8.2h0zm16-7.3a3.31 3.31 0 0 0-3.8 0c-.6.6-.9 1.2-1.1 2l-3.2 12.6c-.2.8.2 1.6 1 1.8h.1 0c.7 0 1.3-.5 1.4-1.1l1.1-4.7c.8.5 1.6.9 2.4 1.2a5.36 5.36 0 0 0 4.3 0c2.5-1.4 3.6-4.5 2.4-7.2-.8-2-2.5-3.7-4.6-4.6h0zm1.5 9.3c-.7.3-1.5.3-2.1 0-.9-.4-1.7-.8-2.5-1.4h0l1.2-4.9v-.4c.2-.1.4-.1.6 0 1.6.6 2.8 1.7 3.7 3.2.6 1.2.3 2.7-.9 3.5h0zm-5.3-80.7l1.1-1-1.3 1.1h0l.2-.1h0z"/><path d="M10.4 186.7c2.3 6.4 10 8 15.9 6.2 4.2-2 8.5-4.4 12-7.3 5.8-4 11.3-8.6 17.1-12.6-5.2 15.5 9.3 22.7 20.9 12.6 2.9-2.5 6.4-5.1 8.7-8.2h0c1.6-1.6 3.5-4.1 5.2-5.6 2.9-.1 6.2.4 9.1-.6.8-.1 6.2-3.2 5.3-1.1-4.4 16.1 6.2 25.7 21.5 17.9 8.2-3.5 16.7-6.8 24.6-10.9 2.3 10.6 14.2 8.7 21.9 5.8l6.5-2.6c1.2-.8 2.9-1.2 4.3-1.3 7.3-3.1 13.8-8.1 20.9-11.5.1 1.3-3.5 4-4.5 5-1.6 1.6-1.6 1.1-.9 2.6 1.3 2.2 3.3 6.5 6.2 3.4 1.1-.7 3.1-2.3 3.9-3.3 1.7-1.1 3.9-2.7 5.6-3.9 3.7-2.9 7.6-6 11.6-8.5 9.4-6.9.8 3.2-1.1 5.7-1.3 2-3.5 3.7-4 6.1 1.1 2.4 4.1 5.5 7 4.4 2.2-.8 4.1-3 5.9-4.4 3-2.7 6.4-4.9 9.5-7.5 13.9-9.8-.6 4.4 1.6 10.3 1.7 11 12.9 10.3 20.8 6.3 3.3-1.6 7.2-3.2 10-5.6-4.1 2.6-8.7 5.1-13.2 6.8.6 0-.6 0-1.1 0 14.2-5.4 25.5-15.9 36.7-25.8 2.9-2.5 5.8-5.5 8.5-8.2 2.8-3.1 6.1-6 8-9.7 0-.5 1.1-1.1 1-1.7-.3-1-2.6-1.9-3.7-2.1-2 .8-4 3.9-5.6 5.4-5 5.8-10.6 10.9-16.2 16.1-4.3 3.6-8.6 7.4-13.4 10.4-4 2.9-8.6 5.6-13 8-4.2 2.8-13.5 5.2-12.3-2.9 1.4-5.3 5.3-9.6 8.5-14 3.3-4.4 7.6-8 12-11.3 1.8-1.6 3.9-2.6 5.8-3.9.7-.4 0-.4 0-.9h0c-.9-1.6-2.1-3.5-3-5.1h0c-2.7-1.5-6.3 3.6-8.5 4.7-2.6 1.8-5.7 3.3-8.1 5.2-3.9 2.7-8.1 5.6-12.3 7.8-1.5.9-8.7 6.2-4.9 1.4 2-3.4 5.2-6.3 7.6-9.4 4.2-4 3.4-4.3-.1-8.2-2.4-3.3-7.2 2.7-9.7 3.9-5.4 3.4-10.7 7-16 10.6 2.2-3.1 3.4-7 6.2-9.6h-.4c1.4-2.9-4.9-5.3-5.4-4.4-3.1 4.7-7.8 8-12.1 11.4l.4-.4c-5.8 4.6-12 9-18.4 12.9l-.8.4h0c.2-.2 1.2-.4.3-.4l-.7.4.6-.4c-2 .7-3.9 2.5-5.9 3.2-3.4 2-7.4 3.5-11 5.2-4.5 1.5-9.2 4.4-14.1 3.9-2.6-.1-4.5-3.8-1.9-5.3 2.4-.5 4.6-1.3 6.6-2.6 4.7-2.5 9.7-4.7 14.2-7.6 2.9-1.2 5.6-3.5 8.2-5.2 3.5-3.1 7.2-6.9 8.2-11.7.9-8.7-6.9-11.5-13.8-8-11.9 2.7-21.9 11.6-28 22-2.3 3.6-2.7 9.2-7.7 10.2-5 1.7-9.8 4.7-14.9 6.5-5.4 1.8-10.3 5.3-16.1 6-7.8-.5-2.8-12.1-.3-16 3.1-5.6 8.1-10 12.6-14.3 5.9-4.6 10.8-10.4 15.6-16 2.4-2.8 5.8-2.7 9.1-3.1 8.9-2.2 18.5-1 27.6-1.3h-16.6v-.5c-1.7 0-5.6-.1-7.2 0 .1-.7-.2-.6-1.1-.5.2-.9 6.2-1.3 7.6-1.2v-2c-.6 0-.6.4-1.1 0s0 0 0 0h7.1-.6c2.3.2 5.1-.7 7.4-.4-1-.6-2.4.6-3.1-.4l1.6-.4c-6-.1-13.2.1-19.1 0 0-1.3 3.4-4.1 4.3-5.4.6-1.4 2-4.4 3.2-5.4 1.2-1.7 6.6-4.9 4.7-7-.9-.4 0-1.4 0-2.5-.5-2.3-2.3-5-2.8-7.1h0c-3.1-1.1-6.9 9.1-9.5 11a357.47 357.47 0 0 1-8.4 9c-2.1 2.2-3.8 5.5-7 6.2-3.8 1.2-8.3.3-12.2.6h-7.3c-2.4.2-5.7-.4-8 .5 0 0-.4.6 0 .9L110 128s-3.2 0-3.2.4h5.7c-1.4 2.5-7.2 3-.7 4.9.5 0 0 .8.7.9h2.5c1.7-.1 7.2.4 7.3-.5h5.4 0 2.4c.4-.2.9-.2 1.2 0-1.1 2.1-4.6 5.3-6.6 7-2.6 2.9-5.7 5.7-8.5 8.4-2.4 1.9-16.8 14.3-18.7 11.8 3-6.5 6.6-14.6.1-20.4-1.9-1.6-4.5-2.4-6.9-2.1-1.7.2-6.3-.6-7.1.7-2.7 1-4.7 3.5-6.9 5.1l-7.7 5.7c-8 5.4-15.7 11.2-23.2 17-4.6 3.2-9.3 6.5-13.6 9.9-2.8 1.6-5.5 3.7-8.1 5.1-7.3 3.4-7.6-3.1-3.9-7.6 1.7-2.6 4.2-4.8 6.2-7.2 2.4-3.1 4.8-6.2 7.3-9.1l2.5-.6c5.9-7.4 12.8-14.4 18.1-22 2.1-.3 4.7-.3 6.7-.7h9.2c8.9 0 17.9.2 26.8-.4H81.8h17.6H93c.1-.8-.1-.6-.9-.4.5-1.2 5.4-.5 6.7-1.1v-.4H87.5V129H87c2 .2 4.5-.6 6.5-.4-.4-.4-1.6-.4-2.8-.4h.7c-1.5 0 .8 0 .9 0H72.1h-4.7c-1.4-.1-6.1.8-3.8-1.9 1.6-1 2.3-3 2.8-4.6 4.7-5.7 9.8-11.4 14.6-17.1 1.5-1.8 3-4.6 4.8-6.2 1.3-2.1 5.1-5.4 5.6-7.5-1.8 2.2-4.3 4.7-6 7-5.3 4.1-9.2 9.6-13.8 14.3-2.1 2.2-4.4 5.1-6.5 7.4-.8 1.3-2.1 3-3.2 4.1-.9 1-2.4 3.6-3.8 3.7 4.9-6 9.3-12.4 14.6-18.1 2.3-3.1 5.3-5.7 7.6-8.9 2.2-2.8 4.4-6.8 6.5-9.9.8-1.4 7-12.1 2.6-7.1-8 7.9-15.3 16.8-23 25-3.5 4.5-8.2 8.6-11.4 13.3-2.2 2.3-4.2 6.2-7.8 6.1H28.7c-1.2.2-4 .5-5.3.4l-2.2.7c-1.4.1-4.6 1.3-4.4 2.7.8.3 3.4 0 3.4.4-1.4 1.7-10.7 3-4.7 4.7 2.3.6 5.4 1.4 7.8 1.1 1-.2 5 .5 4.9-.6-.1-.6 0 0 0 0h1.9 0c1-.2 2-.3 2.9-.4h2.6H41c-.2 1.7-3.6 4.6-4.7 6.3-4.2 4.8-8.3 9.8-12.3 14.8-6.2 7.7-18.7 18.3-13.6 28.8h0zM220 150.8c.5-.9 1.1-1.6 1.9-2.3-1.1 1.4-2.2 3.5-3.5 4.7l1.6-2.4h0zm-42 26.8c4.8-2.4 10.1-4.3 14.6-7.1 4.8-2.9 9.8-6 14.3-9.3 2.4-1.9 5.2-4.2 7.7-6-2.2 3.3-5.4 5.7-8.8 7.7-3.8 2.7-8.1 5.3-12 7.8v-.6c-3.1 2.4-7.2 4-10.5 5.9-2.2.9-5.2 1.5-7.1 3 .6-.5 1.2-1 1.8-1.4h0zm-14.3-17.9c3.3-4.7 8-8.5 12.9-11.4 2-1.1 4.6-2.6 6.8-3.2 5.7-1.3 1.6 4.4-1.1 5.7-2.4 2.1-5.7 3.7-8.5 5.2-3.6 2.2-8 4.1-11.7 6.1.6-.8 1.2-1.6 1.9-2.3l-.3-.1h0zm6.4-34.4h2.1l-2.1.4v-.4h0zM84 152.4c1.4-.4 2.1-1.8 2.9-2.6.7-.5-.4 0-.4-.4 14.2-9-3.8 26.7-2.5 3h0 0zm-20.1 23.7c.7-3.2 2.8-6.4 4.7-9 .5-.9 1.7-2.6 2.4-3.3.7-1 1.6-2.6 2.8-3.1 1.6-.8 0-.9 1.4 0 1.2 2.4 2.6 4.6 4.2 6.7 1 2 1.4 0 0 2.4-.9 1.4-2.8 2.7-3.9 3.9-.8.8-2.5 2.2-3.4 2.9-2.2 1.7-4.7 4.6-7.7 3.9h0c-1.9-1-1.2-3.1-.5-4.4h0 0zm23.6-48.6h2.4l-2.5.4s0-.4.1-.4h0zm98.9-5.3c.6-.8 1.3-1.5 2.1-2.2l-.6.9c-.3.3-.5.6-.7.9h.4c1.1-.7 2.2-1.6 3.1-2.6l1.4-1.5c.4-.4.7-1 .6-1.7.1-.3.1-.6 0-.9l-.5.7c-.6.9-1.4 1.6-2.3 2.3l2.4-3h0l-.9-1.5c-.2-.3-.5-.6-.8-.7-.4-.1-.8-.1-1.1 0l-2 2.5c-1.4 1.8-3 3.5-4.6 5.1l4.7-5.7 1.6-1.8c-2.1 1-4.2 2.2-6 3.7-2.3 1.7-1.8 2-1.9 3.9.1 1.2.8 2.4 1.9 3 .9.2 1.9-.9 3.2-1.4h0zm18.5 6.6c1 0 1.9-.1 2.9-.4l1.1-1.5c.9-1 2-1.9 3.2-2.7l-.6.8-2.1 2.7c-.1.2-.3.4-.5.6.5-.2.9-.4 1.4-.7 1.2-.6 2.3-1.4 3.3-2.3l1.5-1.5c.6-.8 1.1-1.7 1.3-2.7 0-.7-1-.6-1.9-1.7s-.6 0-1.2-.4c-2.1.2-4.1 1-5.7 2.4-2 1.1-3.4 3.1-3.7 5.3-.3.8.2 1.7 1 2.1h0zm-77.2 100.6s0 .1 0 0c.1.1 0 0 0 0zm.3.6c-.2-.4-.6-.9-.9-1.2-.4-.5-.9-1-1.3-1.6-.8-1-1.5-2.1-2.3-3.2l-.2-.3c1.1-.9 1.7-2.2 1.8-3.6-.1-2.5-2-4.7-4.5-5.1-2-.3-4-.2-5.9.4-.7.2-1.1.8-1.2 1.5l.7 13.8c0 .8.6 1.4 1.5 1.4.8-.1 1.4-.8 1.4-1.6v-5.2c1.2.1 2.4.1 3.7 0l2.2 2.9 1.2 1.5 1.2 1.3c.4.3 1 .8 1.6.6.3-.1.6-.3.7-.6.5-.2.4-.6.3-1h0zm-6.8-8.4h-.5l-.4.4c-1.1.1-2.2.1-3.3 0v-4.3c1.1-.3 2.3-.3 3.4 0 1.1 0 2.2 1.1 2.2 2.1-.2.8-.7 1.5-1.4 1.8h0z"/></g></svg>