<svg version="1.1" id="Layer_1" xmlns="http://www.w3.org/2000/svg" x="0" y="0" viewBox="0 0 246.6 78.3" style="enable-background:new 0 0 246.6 78.3" xml:space="preserve"><style>.st0{fill:#285360}</style><path class="st0" d="M2.9 10.5C4.3 6.6 7.5 4.8 11.4 4c10.8-2.2 21.8-.7 32.7-.4 6.1.2 8.9-1.3 11.4 5.7 1 2.8 1.4 6 .5 8.8-2.1 6.6-6.6 6.5-12.3 6.9-1.9.1-2.9.2-3 .2.8 0 3.4 25.4 3.4 27.5 0 6.7 2.6 19.1-6.9 20.6-6.9 1-15.9-1.1-15.2-9.3.3-3.2-.5-38.3-.6-38.5-.6-1.2-10.9-2-12.4-2.5-5.2-1.8-7.8-6.7-6.2-12 0-.1.1-.3.1-.5zM186.2 55.5c-2.9-3.6-7-7.1-9.3-11.1.3.5 7.8-4.3 8.7-5C198.9 28 189.2 8 174.5 4.2c-5.5-1.5-13.2-2.9-18.5-.7-4.1 1.7-8.9 3.8-11.6 7.5-2.8 3.7-3.2 8.8-3.4 13.3-.2 5.1-.6 10.1-.6 15.2-.1 5.1 0 10.2.3 15.3.2 4.4-.3 11.3 1.6 15.3 2.4 5.4 11.7 4.8 15.5 1.6 3.6-3 3.9-8.6 3.8-13-.1-1.3 0-8.5-.8-8.9.1 0 .1.1.2.1 1.2.6 3 5.6 3.7 7 4 7.5 10.2 16.1 19.7 16.6 4.2.2 8.1-2.6 7.8-7-.6-4.1-3.6-8-6-11zm-19.4-24.7c-.5.1-3.1.7-4.7 1-.7.1-1.4-.4-1.5-1.1v-1.1c0-3.1-.2-6.2-.3-9.9 0-.6.3-1.2.9-1.4 1-.4 2.3-.6 3.1-.7 1.6-.2 3.3.2 4.8 1 5 2.7 2.7 10.7-2.3 12.2zM242.9 55.7c-4.5-4.5-13.4-1.2-18.9-1-1.6.1-3.2 0-4.6-.7-2.5-1.2-3.3-4-3.3-6.6V46c0-1 7.8-.1 8.5-.1 4.2-.3 10-4.1 11.6-8.1 3.9-10.1-15-5.8-18.9-7.1-.2-.1-.5-.2-.7-.3-.1-.1-.1-.1-.2-.1l-.2-2.4c0-2.2.2-4.2 2.1-5.5 1.2-.9 2.7-1.2 4.2-1.5 5-.8 10.1.4 15.1-.9 6-1.5 7.6-8.1 3.3-12.8-6-6.4-16.2-5.4-24-3.7-3.6.8-7.2 2-10.1 4.1-4.7 3.4-7.7 8.8-9.1 14.5-1.5 6.1-.9 12.2-1.2 18.4-.3 9.2-.6 20.6 7.1 27.2 7.9 6.7 22.4 7.8 31.7 3.9 5.4-2.2 11.9-11.6 7.6-15.9z"/><path d="M81.7 16.3c1.7 18.4.4 48.6 26.1 38.2 6.8-5 6.5-15.7 6.9-23.5.3-5.7 1-13.3 1.7-24.9.1-1.3-1.5-2-2.4-1.1-1.6 1.7-2.8 4.2-3.6 7.6-2.1 8.8-1.7 9.5-1.7 18.5 0 5.7 1.5 15.8-4.9 18.6-2.6 1.1-5.9 1.5-8.3-.1s-4-4.2-5-6.9c-1.6-4.3-1.7-7.5-2-12.1-.3-3.6-.8-7-.7-10.6s0-7.4-.8-10.9c-.6-2.8-1.5-5.6-3.6-7.7-.9-1-2.4-.2-2.4 1.1.3 4.4.7 9.8.7 13.8z" style="fill:#0377b2"/><path d="M111.2 65.3c10.7-5.2 12.3-19.4 13.1-29.2.9-10.4.7-15.3.5-24.7-.2-1.1-.2-2.5-.1-4 .1-1.7-.9-3.1-2.2-3.7-.8-.4-1.7.3-1.8 1.2-.1 12.9-1 20.1-1.9 30.8-.5 12.1-4.2 27.8-19 26.2C75 60.4 77.9 34.7 77.5 15.2c0-1.3-.1-2.6-.2-3.9C77.1 9 77.2 3.9 77 0c-2.5.1-4.4 2.1-4.4 4.6 0 2.1 0 4.2-.3 6.3-.7 19.9-1.4 30.4 6.9 45.6 5.3 10.3 21.6 13.8 32 8.8z" style="fill:#faa636"/><path d="M131.6 11.1c-.8-1.7-3.3-1.1-3.2.8.3 6 .1 12.7 0 17.4-1.2 15.6.5 29.5-15.7 39.4-9.4 4.8-28.2 3.2-34.7-3.8C67 53.4 66.4 43 67.6 26.6c.5-6 .5-14.7.8-20.9.1-1.2-1.3-1.9-2.3-1.1-.7.7-1.3 1.3-1.8 2.1-1.3 2-2.1 3.9-2.4 5.8-.6 3.6-.9 8.7-.9 15.3 0 12-.1 16.4 3.5 27.9C66.6 61.9 70 67.8 75 72c9.6 7.9 33.1 8.2 43.3 1.4 10.6-7 14-19.3 15.8-31.5 1.8-12.3 2.6-19.1-2.5-30.8z" style="fill:#f27576"/></svg>